<?xml version="1.0" encoding="UTF-8"?> <svg xmlns:cc="http://creativecommons.org/ns#" xmlns:rdf="http://www.w3.org/1999/02/22-rdf-syntax-ns#" xmlns:svg="http://www.w3.org/2000/svg" xmlns="http://www.w3.org/2000/svg" xmlns:sodipodi="http://sodipodi.sourceforge.net/DTD/sodipodi-0.dtd" xmlns:inkscape="http://www.inkscape.org/namespaces/inkscape" width="588.72626" height="322.4953" id="svg3804" version="1.1"><defs id="defs3806"><marker orient="auto" refY="0" refX="0" id="Arrow1Mend" style="overflow:visible"><path id="path4611" d="M 0,0 5,-5 -12.5,0 5,5 Z" style="fill-rule:evenodd;stroke:#000000;stroke-width:1.00000003pt;marker-start:none" transform="matrix(-0.4,0,0,-0.4,-4,0)"></path></marker><marker orient="auto" refY="0" refX="0" id="Arrow1Mend-4" style="overflow:visible"><path id="path4611-8" d="M 0,0 5,-5 -12.5,0 5,5 Z" style="fill-rule:evenodd;stroke:#000000;stroke-width:1.00000003pt;marker-start:none" transform="matrix(-0.4,0,0,-0.4,-4,0)"></path></marker></defs><metadata id="metadata3809"></metadata><g id="layer1" transform="translate(-93.112922,-241.6573)"><polyline id="polyline3977" points="1719.8,-85.605 1703.8,-77.637 1709.8,-85.605 1703.8,-93.574" style="font-style:normal;font-variant:normal;font-weight:normal;font-stretch:normal;letter-spacing:normal;word-spacing:normal;text-anchor:start;fill:#000000;fill-rule:nonzero;stroke:#000000;stroke-width:0;stroke-linecap:butt;stroke-linejoin:miter;stroke-miterlimit:10.43299961;stroke-dasharray:none;stroke-dashoffset:0;stroke-opacity:1" transform="matrix(0.46822969,0,0,-0.46822969,-128.05797,453.808)"></polyline><polyline id="polyline3979" points="1111.9,423.32 1103.9,407.38 1111.9,413.36 1119.8,407.38" style="font-style:normal;font-variant:normal;font-weight:normal;font-stretch:normal;letter-spacing:normal;word-spacing:normal;text-anchor:start;fill:#000000;fill-rule:nonzero;stroke:#000000;stroke-width:0;stroke-linecap:butt;stroke-linejoin:miter;stroke-miterlimit:10.43299961;stroke-dasharray:none;stroke-dashoffset:0;stroke-opacity:1" transform="matrix(0.46822969,0,0,-0.46822969,-128.05797,453.808)"></polyline><path id="path3981" d="m 108.36525,516.77553 h 0.0749 0.0749 0.0749 l 0.0375,-0.005 h 0.0328 l 0.0375,-0.005 0.0328,-0.005 0.0375,-0.005 0.0328,-0.005 0.0328,-0.005 0.0328,-0.009 0.0281,-0.009 0.0328,-0.009 0.0281,-0.014 0.0234,-0.009 0.0281,-0.0187 0.0234,-0.014 0.0234,-0.0187 0.0234,-0.0187 0.0187,-0.0234 0.0187,-0.0234 0.009,-0.009 0.005,-0.014 0.009,-0.014 0.005,-0.014 0.009,-0.014 0.005,-0.0187 0.005,-0.014 0.005,-0.0187 0.005,-0.014 0.005,-0.0187 0.005,-0.0187 v -0.0187 l 0.005,-0.0187 v -0.0234 -0.0187 -0.0234 c 0,-0.46823 -0.42141,-0.46823 -0.8194,-0.46823 H 95.746457 c -0.393313,0 -0.810037,0 -0.810037,0.46823 0,0.46823 0.416724,0.46823 0.810037,0.46823 z" style="font-style:normal;font-variant:normal;font-weight:normal;font-stretch:normal;letter-spacing:normal;word-spacing:normal;text-anchor:start;fill:#000000;stroke:#000000;stroke-width:0;stroke-linecap:butt;stroke-linejoin:miter;stroke-miterlimit:10.43299961;stroke-dasharray:none;stroke-dashoffset:0;stroke-opacity:1"></path><path id="path3983" d="m 121.62083,517.44978 -0.005,-0.25753 -0.0187,-0.25752 -0.0281,-0.25285 -0.0375,-0.24816 -0.0468,-0.24348 -0.0609,-0.2388 -0.0656,-0.23879 -0.0796,-0.22944 -0.0843,-0.22475 -0.0983,-0.22006 -0.10301,-0.21539 -0.11237,-0.20602 -0.12174,-0.20134 -0.13111,-0.19197 -0.13578,-0.18729 -0.14515,-0.17793 -0.15452,-0.17325 -0.1592,-0.1592 -0.16388,-0.15451 -0.17324,-0.14047 -0.18261,-0.13579 -0.18261,-0.12642 -0.19198,-0.11237 -0.19665,-0.10301 -0.20602,-0.0936 -0.20603,-0.0843 -0.21538,-0.0656 -0.21539,-0.0609 -0.22007,-0.0468 -0.22943,-0.0328 -0.22943,-0.0187 -0.23412,-0.005 c -1.11906,0 -2.12108,0.3699 -2.96389,1.18462 v -4.54651 c 0.46823,0.14047 1.23613,0.29966 1.98529,0.29966 2.86557,0 4.49501,-2.12108 4.49501,-2.42543 0,-0.14047 -0.0609,-0.25752 -0.23412,-0.25752 -0.0187,0 -0.0609,0 -0.17792,0.0749 -0.46823,0.21071 -1.61071,0.66957 -3.17928,0.66957 -0.9271,0 -2.00403,-0.1592 -3.09968,-0.65084 -0.18261,-0.0656 -0.23412,-0.0656 -0.27626,-0.0656 -0.23411,0 -0.23411,0.18261 -0.23411,0.55719 v 6.90639 c 0,0.41673 0,0.6087 0.32776,0.6087 0.1592,0 0.20134,-0.0749 0.29966,-0.21538 0.25285,-0.36991 1.11907,-1.62944 3.00604,-1.62944 1.21271,0 1.798,1.07692 1.98529,1.49365 0.37927,0.86154 0.42141,1.76991 0.42141,2.94048 0,0.81004 0,2.21473 -0.56188,3.19801 -0.55719,0.90368 -1.41873,1.51238 -2.49566,1.51238 -1.70436,0 -3.02945,-1.23612 -3.43212,-2.61272 0.0749,0.0234 0.14515,0.0468 0.40267,0.0468 0.7679,0 1.16121,-0.58528 1.16121,-1.14248 0,-0.56187 -0.39331,-1.14248 -1.16121,-1.14248 -0.32776,0 -1.14716,0.16388 -1.14716,1.23613 0,2.00402 1.60603,4.26557 4.22812,4.26557 2.70168,0 5.08497,-2.23814 5.08497,-5.20203 z" style="font-style:normal;font-variant:normal;font-weight:normal;font-stretch:normal;letter-spacing:normal;word-spacing:normal;text-anchor:start;fill:#000000;stroke:#000000;stroke-width:0;stroke-linecap:butt;stroke-linejoin:miter;stroke-miterlimit:10.43299961;stroke-dasharray:none;stroke-dashoffset:0;stroke-opacity:1"></path><path id="path3985" d="m 165.2973,516.77553 h 0.0749 0.0749 0.0702 l 0.0375,-0.005 h 0.0375 l 0.0328,-0.005 0.0375,-0.005 0.0328,-0.005 0.0328,-0.005 0.0328,-0.005 0.0328,-0.009 0.0328,-0.009 0.0281,-0.009 0.0281,-0.014 0.0281,-0.009 0.0281,-0.0187 0.0234,-0.014 0.0234,-0.0187 0.0187,-0.0187 0.0234,-0.0234 0.0187,-0.0234 0.005,-0.009 0.009,-0.014 0.009,-0.014 0.005,-0.014 0.005,-0.014 0.009,-0.0187 0.005,-0.014 0.005,-0.0187 0.005,-0.014 0.005,-0.0187 v -0.0187 l 0.005,-0.0187 v -0.0187 l 0.005,-0.0234 v -0.0187 -0.0234 c 0,-0.46823 -0.42609,-0.46823 -0.8194,-0.46823 h -12.61879 c -0.398,0 -0.81472,0 -0.81472,0.46823 0,0.46823 0.41672,0.46823 0.81472,0.46823 z" style="font-style:normal;font-variant:normal;font-weight:normal;font-stretch:normal;letter-spacing:normal;word-spacing:normal;text-anchor:start;fill:#000000;stroke:#000000;stroke-width:0;stroke-linecap:butt;stroke-linejoin:miter;stroke-miterlimit:10.43299961;stroke-dasharray:none;stroke-dashoffset:0;stroke-opacity:1"></path><path id="path3987" d="m 174.92878,518.29259 v 2.02744 c 0,0.83813 -0.0421,1.09565 -1.76991,1.09565 h -0.49164 v 0.72576 c 0.95987,-0.0749 2.17259,-0.0749 3.15587,-0.0749 0.9786,0 2.21473,0 3.16523,0.0749 v -0.72576 h -0.48696 c -1.72776,0 -1.77459,-0.25752 -1.77459,-1.09565 v -2.02744 h 2.33647 v -0.72575 h -2.33647 v -10.61477 c 0,-0.46823 0,-0.6087 -0.3699,-0.6087 -0.21539,0 -0.28094,0 -0.46823,0.28562 l -7.16391,10.93785 h 0.6602 l 5.68899,-8.69971 v 8.69971 h -5.68899 -0.6602 v 0.72575 z" style="font-style:normal;font-variant:normal;font-weight:normal;font-stretch:normal;letter-spacing:normal;word-spacing:normal;text-anchor:start;fill:#000000;stroke:#000000;stroke-width:0;stroke-linecap:butt;stroke-linejoin:miter;stroke-miterlimit:10.43299961;stroke-dasharray:none;stroke-dashoffset:0;stroke-opacity:1"></path><path id="path3989" d="m 222.22466,516.77553 h 0.0749 0.0749 0.0749 l 0.0375,-0.005 h 0.0328 l 0.0374,-0.005 0.0328,-0.005 0.0375,-0.005 0.0328,-0.005 0.0328,-0.005 0.0328,-0.009 0.0281,-0.009 0.0328,-0.009 0.0281,-0.014 0.0281,-0.009 0.0234,-0.0187 0.0234,-0.014 0.0234,-0.0187 0.0234,-0.0187 0.0187,-0.0234 0.0187,-0.0234 0.009,-0.009 0.009,-0.014 0.005,-0.014 0.009,-0.014 0.005,-0.014 0.005,-0.0187 0.005,-0.014 0.005,-0.0187 0.005,-0.014 0.005,-0.0187 0.005,-0.0187 v -0.0187 l 0.005,-0.0187 v -0.0234 -0.0187 -0.0234 c 0,-0.46823 -0.4214,-0.46823 -0.8194,-0.46823 h -12.61879 c -0.39331,0 -0.81004,0 -0.81004,0.46823 0,0.46823 0.41673,0.46823 0.81004,0.46823 z" style="font-style:normal;font-variant:normal;font-weight:normal;font-stretch:normal;letter-spacing:normal;word-spacing:normal;text-anchor:start;fill:#000000;stroke:#000000;stroke-width:0;stroke-linecap:butt;stroke-linejoin:miter;stroke-miterlimit:10.43299961;stroke-dasharray:none;stroke-dashoffset:0;stroke-opacity:1"></path><path id="path3991" d="m 231.77186,513.93337 0.17793,-0.0655 0.17325,-0.0656 0.16856,-0.0749 0.16856,-0.0796 0.16388,-0.0796 0.1592,-0.0937 0.15452,-0.0937 0.14983,-0.0983 0.14515,-0.10302 0.14047,-0.10769 0.13579,-0.11237 0.13578,-0.11706 0.12643,-0.12174 0.12173,-0.12642 0.11238,-0.13111 0.11238,-0.1311 0.10769,-0.13579 0.0983,-0.14047 0.0936,-0.14515 0.089,-0.14515 0.0796,-0.14983 0.0749,-0.14984 0.0702,-0.15451 0.0609,-0.1592 0.0562,-0.1592 0.0468,-0.16388 0.0421,-0.16388 0.0328,-0.16388 0.0281,-0.16856 0.0187,-0.16856 0.014,-0.17325 0.005,-0.16856 c 0,-1.91038 -2.05553,-3.22142 -4.29835,-3.22142 -2.3552,0 -4.12511,1.40469 -4.12511,3.17459 0,0.7679 0.51506,1.2174 1.19399,1.2174 0.71639,0 1.18462,-0.51505 1.18462,-1.19398 0,-1.1659 -1.09566,-1.1659 -1.44215,-1.1659 0.71639,-1.13779 2.26155,-1.44683 3.10437,-1.44683 0.9505,0 2.23813,0.51038 2.23813,2.61273 0,0.28562 -0.0515,1.62944 -0.6602,2.66422 -0.69298,1.11907 -1.49365,1.18462 -2.06958,1.21272 -0.18729,0.0234 -0.74448,0.0656 -0.91304,0.0656 -0.18261,0.0234 -0.35118,0.0421 -0.35118,0.27626 0,0.25752 0.16857,0.25752 0.56188,0.25752 h 1.02542 c 1.91506,0 2.78129,1.5873 2.78129,3.87694 0,3.16992 -1.61071,3.84885 -2.6455,3.84885 -0.99733,0 -2.74851,-0.39331 -3.55855,-1.76991 0.81004,0.1077 1.5358,-0.40267 1.5358,-1.28763 0,-0.84281 -0.63211,-1.30168 -1.31105,-1.30168 -0.55719,0 -1.30167,0.32308 -1.30167,1.35319 0,2.12108 2.16322,3.65687 4.71039,3.65687 2.84683,0 4.96791,-2.12108 4.96791,-4.49969 0,-1.91506 -1.47024,-3.73179 -3.89099,-4.21875 z" style="font-style:normal;font-variant:normal;font-weight:normal;font-stretch:normal;letter-spacing:normal;word-spacing:normal;text-anchor:start;fill:#000000;stroke:#000000;stroke-width:0;stroke-linecap:butt;stroke-linejoin:miter;stroke-miterlimit:10.43299961;stroke-dasharray:none;stroke-dashoffset:0;stroke-opacity:1"></path><path id="path3993" d="m 279.15671,516.77553 h 0.0749 0.0749 0.0749 l 0.0328,-0.005 h 0.0374 l 0.0375,-0.005 0.0328,-0.005 0.0328,-0.005 0.0375,-0.005 0.0328,-0.005 0.0281,-0.009 0.0328,-0.009 0.0281,-0.009 0.0281,-0.014 0.0281,-0.009 0.0281,-0.0187 0.0234,-0.014 0.0234,-0.0187 0.0234,-0.0187 0.0187,-0.0234 0.0187,-0.0234 0.005,-0.009 0.009,-0.014 0.009,-0.014 0.005,-0.014 0.009,-0.014 0.005,-0.0187 0.005,-0.014 0.005,-0.0187 0.005,-0.014 0.005,-0.0187 v -0.0187 l 0.005,-0.0187 0.005,-0.0187 v -0.0234 -0.0187 -0.0234 c 0,-0.46823 -0.42609,-0.46823 -0.8194,-0.46823 h -12.61879 c -0.39331,0 -0.81472,0 -0.81472,0.46823 0,0.46823 0.42141,0.46823 0.81472,0.46823 z" style="font-style:normal;font-variant:normal;font-weight:normal;font-stretch:normal;letter-spacing:normal;word-spacing:normal;text-anchor:start;fill:#000000;stroke:#000000;stroke-width:0;stroke-linecap:butt;stroke-linejoin:miter;stroke-miterlimit:10.43299961;stroke-dasharray:none;stroke-dashoffset:0;stroke-opacity:1"></path><path id="path3995" d="m 284.89721,520.33876 2.47225,-2.39734 c 3.63814,-3.22142 5.04283,-4.47628 5.04283,-6.81274 0,-2.66423 -2.10235,-4.52778 -4.94919,-4.52778 -2.64081,0 -4.36858,2.14917 -4.36858,4.22811 0,1.30168 1.17058,1.30168 1.24081,1.30168 0.39799,0 1.21271,-0.27626 1.21271,-1.23613 0,-0.60401 -0.41672,-1.21271 -1.23612,-1.21271 -0.18261,0 -0.23412,0 -0.29967,0.0234 0.53378,-1.51706 1.79332,-2.37861 3.1465,-2.37861 2.12108,0 3.13246,1.89165 3.13246,3.80203 0,1.86824 -1.17057,3.70838 -2.45352,5.15989 l -4.47628,4.98665 c -0.26689,0.25752 -0.26689,0.29966 -0.26689,0.86622 h 8.65757 l 0.6602,-4.05955 H 291.827 c -0.11705,0.70234 -0.28093,1.72308 -0.51505,2.07426 -0.16856,0.18261 -1.70435,0.18261 -2.21472,0.18261 z" style="font-style:normal;font-variant:normal;font-weight:normal;font-stretch:normal;letter-spacing:normal;word-spacing:normal;text-anchor:start;fill:#000000;stroke:#000000;stroke-width:0;stroke-linecap:butt;stroke-linejoin:miter;stroke-miterlimit:10.43299961;stroke-dasharray:none;stroke-dashoffset:0;stroke-opacity:1"></path><path id="path3997" d="m 336.08876,516.77553 h 0.0749 0.0702 0.0749 l 0.0374,-0.005 h 0.0375 l 0.0328,-0.005 0.0375,-0.005 0.0328,-0.005 0.0328,-0.005 0.0328,-0.005 0.0328,-0.009 0.0328,-0.009 0.0281,-0.009 0.0281,-0.014 0.0281,-0.009 0.0234,-0.0187 0.0281,-0.014 0.0234,-0.0187 0.0187,-0.0187 0.0187,-0.0234 0.0187,-0.0234 0.009,-0.009 0.009,-0.014 0.005,-0.014 0.009,-0.014 0.005,-0.014 0.005,-0.0187 0.009,-0.014 0.005,-0.0187 0.005,-0.014 v -0.0187 l 0.005,-0.0187 0.005,-0.0187 v -0.0187 -0.0234 l 0.005,-0.0187 v -0.0234 c 0,-0.46823 -0.42609,-0.46823 -0.8194,-0.46823 h -12.62348 c -0.39331,0 -0.81003,0 -0.81003,0.46823 0,0.46823 0.41672,0.46823 0.81003,0.46823 z" style="font-style:normal;font-variant:normal;font-weight:normal;font-stretch:normal;letter-spacing:normal;word-spacing:normal;text-anchor:start;fill:#000000;stroke:#000000;stroke-width:0;stroke-linecap:butt;stroke-linejoin:miter;stroke-miterlimit:10.43299961;stroke-dasharray:none;stroke-dashoffset:0;stroke-opacity:1"></path><path id="path3999" d="m 345.69683,507.2096 v -0.0281 -0.0234 -0.0234 -0.0234 -0.0234 -0.0234 -0.0234 -0.0187 -0.0187 -0.0187 -0.0187 -0.0187 -0.0187 -0.0187 -0.014 -0.0187 -0.0281 -0.0281 -0.0281 -0.0234 -0.0187 -0.0187 l -0.0468,-0.0187 v -0.0187 -0.014 l -0.0468,-0.014 v -0.009 -0.009 l -0.0468,-0.009 v -0.005 -0.005 -0.005 h -0.0468 v -0.005 0 l -0.0468,-0.005 v 0 -0.005 h -0.0468 v -0.005 0 h -0.0468 v 0 h -0.0468 v -0.005 0 h -0.0468 v 0 h -0.0468 v 0 h -0.0468 c -1.45151,1.49365 -3.51172,1.49365 -4.26089,1.49365 v 0.72107 c 0.46823,0 1.87292,0 3.09031,-0.60401 v 12.08501 c 0,0.84281 -0.0936,1.11906 -2.20068,1.11906 h -0.74916 v 0.72576 c 0.84281,-0.0749 2.8562,-0.0749 3.79266,-0.0749 0.93646,0 2.94984,0 3.79266,0.0749 v -0.72576 h -0.74917 c -2.10703,0 -2.20068,-0.25752 -2.20068,-1.11906 z" style="font-style:normal;font-variant:normal;font-weight:normal;font-stretch:normal;letter-spacing:normal;word-spacing:normal;text-anchor:start;fill:#000000;stroke:#000000;stroke-width:0;stroke-linecap:butt;stroke-linejoin:miter;stroke-miterlimit:10.43299961;stroke-dasharray:none;stroke-dashoffset:0;stroke-opacity:1"></path><path id="path4001" d="m 450.48663,507.2096 v -0.0281 -0.0234 -0.0234 -0.0234 -0.0234 -0.0234 -0.0234 -0.0187 -0.0187 -0.0187 -0.0187 -0.0187 -0.0187 -0.0187 -0.014 -0.0187 -0.0281 -0.0281 -0.0281 -0.0234 -0.0187 l -0.0468,-0.0187 v -0.0187 -0.0187 -0.014 l -0.0468,-0.014 v -0.009 -0.009 l -0.0468,-0.009 v -0.005 -0.005 l -0.0468,-0.005 v 0 -0.005 h -0.0468 v -0.005 0 -0.005 h -0.0468 v -0.005 h -0.0468 v 0 0 h -0.0468 V 506.6 h -0.0468 v 0 h -0.0468 v 0 h -0.0468 v 0 c -1.45151,1.49365 -3.51172,1.49365 -4.26089,1.49365 v 0.72107 c 0.46823,0 1.87292,0 3.0435,-0.60401 v 12.08501 c 0,0.84281 -0.0468,1.11906 -2.15386,1.11906 h -0.74917 v 0.72576 c 0.84281,-0.0749 2.8562,-0.0749 3.79266,-0.0749 0.93646,0 2.94985,0 3.79266,0.0749 v -0.72576 h -0.74917 c -2.10703,0 -2.20068,-0.25752 -2.20068,-1.11906 z" style="font-style:normal;font-variant:normal;font-weight:normal;font-stretch:normal;letter-spacing:normal;word-spacing:normal;text-anchor:start;fill:#000000;stroke:#000000;stroke-width:0;stroke-linecap:butt;stroke-linejoin:miter;stroke-miterlimit:10.43299961;stroke-dasharray:none;stroke-dashoffset:0;stroke-opacity:1"></path><path id="path4003" d="m 503.53706,520.33876 2.48162,-2.39734 c 3.60536,-3.22142 5.01005,-4.47628 5.01005,-6.81274 0,-2.66423 -2.06021,-4.52778 -4.91641,-4.52778 -2.62208,0 -4.35453,2.14917 -4.35453,4.22811 0,1.30168 1.17057,1.30168 1.21739,1.30168 0.42141,0 1.2174,-0.27626 1.2174,-1.23613 0,-0.60401 -0.42141,-1.21271 -1.2174,-1.21271 -0.18729,0 -0.23411,0 -0.32776,0.0234 0.56188,-1.51706 1.77928,-2.37861 3.13714,-2.37861 2.15386,0 3.13714,1.89165 3.13714,3.80203 0,1.86824 -1.17057,3.70838 -2.43479,5.15989 l -4.49501,4.98665 c -0.23411,0.25752 -0.23411,0.29966 -0.23411,0.86622 h 8.61542 l 0.65552,-4.05955 h -0.56187 c -0.14047,0.70234 -0.28094,1.72308 -0.51505,2.07426 -0.14047,0.18261 -1.68563,0.18261 -2.20068,0.18261 z" style="font-style:normal;font-variant:normal;font-weight:normal;font-stretch:normal;letter-spacing:normal;word-spacing:normal;text-anchor:start;fill:#000000;stroke:#000000;stroke-width:0;stroke-linecap:butt;stroke-linejoin:miter;stroke-miterlimit:10.43299961;stroke-dasharray:none;stroke-dashoffset:0;stroke-opacity:1"></path><path id="path4005" d="m 564.26645,513.93337 0.18729,-0.0655 0.18729,-0.0656 0.14047,-0.0749 0.18729,-0.0796 0.14047,-0.0843 0.18729,-0.089 0.14047,-0.0937 0.14047,-0.0983 0.14047,-0.10302 0.14047,-0.10769 0.14047,-0.11237 0.14047,-0.11706 0.14047,-0.12174 0.0936,-0.12642 0.14047,-0.13111 0.0937,-0.1311 0.14047,-0.13579 0.0936,-0.14047 0.0936,-0.14515 0.0936,-0.14515 0.0468,-0.14983 0.0936,-0.14984 0.0468,-0.15451 0.0936,-0.1592 0.0468,-0.1592 0.0468,-0.16388 0.0468,-0.16388 v -0.16388 l 0.0468,-0.16856 v -0.16856 l 0.0468,-0.17325 v -0.16856 c 0,-1.91038 -2.06021,-3.22142 -4.30772,-3.22142 -2.34114,0 -4.12042,1.40469 -4.12042,3.17459 0,0.7679 0.51506,1.2174 1.17058,1.2174 0.74916,0 1.21739,-0.51505 1.21739,-1.19398 0,-1.1659 -1.12375,-1.1659 -1.45151,-1.1659 0.70235,-1.13779 2.2475,-1.44683 3.09032,-1.44683 0.98328,0 2.2475,0.51038 2.2475,2.61273 0,0.28562 -0.0468,1.62944 -0.65552,2.66422 -0.70235,1.11907 -1.49834,1.18462 -2.06021,1.21272 -0.18729,0.0234 -0.74917,0.0656 -0.93646,0.0656 -0.18729,0.0234 -0.32776,0.0421 -0.32776,0.27626 0,0.25752 0.14047,0.25752 0.56187,0.25752 h 1.03011 c 1.91974,0 2.76255,1.5873 2.76255,3.87694 0,3.16992 -1.59198,3.84885 -2.62208,3.84885 -1.03011,0 -2.76256,-0.39331 -3.55855,-1.76991 0.79599,0.1077 1.49834,-0.40267 1.49834,-1.28763 0,-0.84281 -0.6087,-1.30168 -1.31105,-1.30168 -0.56187,0 -1.26422,0.32308 -1.26422,1.35319 0,2.12108 2.15386,3.65687 4.6823,3.65687 2.8562,0 4.96324,-2.12108 4.96324,-4.49969 0,-1.91506 -1.45152,-3.73179 -3.88631,-4.21875 z" style="font-style:normal;font-variant:normal;font-weight:normal;font-stretch:normal;letter-spacing:normal;word-spacing:normal;text-anchor:start;fill:#000000;stroke:#000000;stroke-width:0;stroke-linecap:butt;stroke-linejoin:miter;stroke-miterlimit:10.43299961;stroke-dasharray:none;stroke-dashoffset:0;stroke-opacity:1"></path><path id="path4007" d="m 621.29683,518.29259 v 2.02744 c 0,0.83813 -0.0468,1.09565 -1.77928,1.09565 h -0.46823 v 0.72576 c 0.93646,-0.0749 2.15386,-0.0749 3.13714,-0.0749 0.98328,0 2.20068,0 3.18396,0.0749 v -0.72576 h -0.51505 c -1.73245,0 -1.77927,-0.25752 -1.77927,-1.09565 v -2.02744 h 2.34115 v -0.72575 h -2.34115 v -10.61477 c 0,-0.46823 0,-0.6087 -0.37459,-0.6087 -0.18729,0 -0.28093,0 -0.46822,0.28562 l -7.16392,10.93785 h 0.65552 l 5.7124,-8.69971 v 8.69971 h -5.7124 -0.65552 v 0.72575 z" style="font-style:normal;font-variant:normal;font-weight:normal;font-stretch:normal;letter-spacing:normal;word-spacing:normal;text-anchor:start;fill:#000000;stroke:#000000;stroke-width:0;stroke-linecap:butt;stroke-linejoin:miter;stroke-miterlimit:10.43299961;stroke-dasharray:none;stroke-dashoffset:0;stroke-opacity:1"></path><path id="path4009" d="m 681.83892,517.44978 v -0.25753 -0.25752 l -0.0468,-0.25285 -0.0468,-0.24816 -0.0468,-0.24348 -0.0468,-0.2388 -0.0468,-0.23879 -0.0937,-0.22944 -0.0936,-0.22475 -0.0936,-0.22006 -0.0936,-0.21539 -0.14047,-0.20602 -0.0936,-0.20134 -0.14047,-0.19197 -0.14047,-0.18729 -0.14047,-0.17793 -0.14046,-0.17325 -0.1873,-0.1592 -0.14047,-0.15451 -0.18729,-0.14047 -0.18729,-0.13579 -0.18729,-0.12642 -0.18729,-0.11237 -0.18729,-0.10301 -0.1873,-0.0936 -0.23411,-0.0843 -0.18729,-0.0656 -0.23412,-0.0609 -0.23411,-0.0468 -0.23412,-0.0328 -0.23411,-0.0187 -0.23412,-0.005 c -1.12375,0 -2.10703,0.3699 -2.94984,1.18462 v -4.54651 c 0.46823,0.14047 1.26422,0.29966 1.96656,0.29966 2.90302,0 4.54183,-2.12108 4.54183,-2.42543 0,-0.14047 -0.0937,-0.25752 -0.23412,-0.25752 -0.0468,0 -0.0936,0 -0.18729,0.0749 -0.46823,0.21071 -1.6388,0.66957 -3.18396,0.66957 -0.93646,0 -2.01339,-0.1592 -3.09032,-0.65084 -0.18729,-0.0656 -0.23411,-0.0656 -0.28093,-0.0656 -0.23412,0 -0.23412,0.18261 -0.23412,0.55719 v 6.90639 c 0,0.41673 0,0.6087 0.32776,0.6087 0.14047,0 0.18729,-0.0749 0.28094,-0.21538 0.28094,-0.36991 1.12375,-1.62944 2.99667,-1.62944 1.2174,0 1.8261,1.07692 2.01339,1.49365 0.37458,0.86154 0.4214,1.76991 0.4214,2.94048 0,0.81004 0,2.21473 -0.56187,3.19801 -0.56188,0.90368 -1.45151,1.51238 -2.52844,1.51238 -1.68563,0 -2.99667,-1.23612 -3.41808,-2.61272 0.0937,0.0234 0.14047,0.0468 0.42141,0.0468 0.74917,0 1.17057,-0.58528 1.17057,-1.14248 0,-0.56187 -0.4214,-1.14248 -1.17057,-1.14248 -0.32776,0 -1.17058,0.16388 -1.17058,1.23613 0,2.00402 1.63881,4.26557 4.21407,4.26557 2.71573,0 5.1037,-2.23814 5.1037,-5.20203 z" style="font-style:normal;font-variant:normal;font-weight:normal;font-stretch:normal;letter-spacing:normal;word-spacing:normal;text-anchor:start;fill:#000000;stroke:#000000;stroke-width:0;stroke-linecap:butt;stroke-linejoin:miter;stroke-miterlimit:10.43299961;stroke-dasharray:none;stroke-dashoffset:0;stroke-opacity:1"></path><path id="path4027" d="m 364.89425,542.7295 h 0.0936 0.0468 0.0936 l 0.0468,-0.005 v 0 l 0.0468,-0.005 0.0468,-0.005 0.0468,-0.005 v -0.005 l 0.0468,-0.005 0.0468,-0.009 v -0.009 l 0.0468,-0.009 0.0468,-0.014 v -0.009 l 0.0468,-0.0187 v -0.014 l 0.0468,-0.0187 v -0.0187 l 0.0468,-0.0234 v -0.0234 -0.009 -0.014 l 0.0468,-0.014 v -0.014 -0.014 -0.0187 -0.014 -0.0187 -0.014 -0.0187 -0.0187 -0.0187 l 0.0468,-0.0187 v -0.0234 -0.0187 -0.0234 c 0,-0.46823 -0.42141,-0.46823 -0.84281,-0.46823 h -12.59538 c -0.42141,0 -0.84281,0 -0.84281,0.46823 0,0.46823 0.4214,0.46823 0.84281,0.46823 z" style="font-style:normal;font-variant:normal;font-weight:normal;font-stretch:normal;letter-spacing:normal;word-spacing:normal;text-anchor:start;fill:#000000;stroke:#000000;stroke-width:0;stroke-linecap:butt;stroke-linejoin:miter;stroke-miterlimit:10.43299961;stroke-dasharray:none;stroke-dashoffset:0;stroke-opacity:1"></path><path id="path4029" d="m 374.53978,533.16357 v -0.0281 -0.0234 -0.0234 -0.0234 -0.0234 -0.0234 -0.0234 -0.0187 -0.0187 -0.0187 -0.0187 -0.0187 -0.0187 -0.0187 -0.014 -0.0187 -0.0281 l -0.0468,-0.0281 v -0.0281 -0.0234 -0.0187 -0.0187 -0.0187 l -0.0468,-0.0187 v -0.014 -0.014 l -0.0468,-0.009 v -0.009 -0.009 l -0.0468,-0.005 v -0.005 -0.005 0 l -0.0468,-0.005 v 0 -0.005 h -0.0468 v -0.005 0 l -0.0468,-0.005 v 0 0 h -0.0468 v 0 l -0.0468,-0.005 v 0 h -0.0468 v 0 h -0.0468 v 0 h -0.0468 c -1.45151,1.49365 -3.4649,1.49365 -4.21406,1.49365 v 0.72108 c 0.46823,0 1.82609,0 3.04349,-0.60402 v 12.08501 c 0,0.84281 -0.0468,1.11907 -2.15386,1.11907 h -0.74916 v 0.72575 c 0.79599,-0.0749 2.8562,-0.0749 3.74583,-0.0749 0.93646,0 2.99667,0 3.79266,0.0749 v -0.72575 h -0.74916 c -2.10704,0 -2.15386,-0.25753 -2.15386,-1.11907 z" style="font-style:normal;font-variant:normal;font-weight:normal;font-stretch:normal;letter-spacing:normal;word-spacing:normal;text-anchor:start;fill:#000000;stroke:#000000;stroke-width:0;stroke-linecap:butt;stroke-linejoin:miter;stroke-miterlimit:10.43299961;stroke-dasharray:none;stroke-dashoffset:0;stroke-opacity:1"></path><path id="path4031" d="m 374.53978,438.81529 v -0.0253 -0.0253 -0.0244 -0.0234 -0.0229 -0.022 -0.0215 -0.0206 -0.0201 -0.0197 -0.0187 -0.0183 -0.0178 l -0.0468,-0.0168 v -0.0164 -0.0159 -0.03 -0.0281 -0.0253 -0.0239 -0.0215 -0.0197 l -0.0468,-0.0183 v -0.0159 -0.0145 -0.0131 l -0.0468,-0.0117 v -0.0103 l -0.0468,-0.009 v -0.004 -0.004 -0.003 l -0.0468,-0.003 v -0.003 -0.003 l -0.0468,-0.002 v -0.002 -0.002 l -0.0468,-10e-4 v -0.002 -10e-4 l -0.0468,-9.4e-4 v -9.3e-4 -9.4e-4 l -0.0468,-9.4e-4 v -4.6e-4 l -0.0468,-4.7e-4 v 0 l -0.0468,-4.7e-4 v 0 h -0.0468 c -1.45151,1.49225 -3.4649,1.49225 -4.21406,1.49225 v 0.72435 c 0.46823,0 1.82609,0 3.04349,-0.60729 v 12.08627 c 0,0.84131 -0.0936,1.11935 -2.15386,1.11935 h -0.74916 v 0.72428 c 0.79599,-0.0732 2.80937,-0.0732 3.74583,-0.0732 0.93646,0 2.94985,0 3.79266,0.0732 v -0.72428 h -0.74916 c -2.10704,0 -2.15386,-0.25608 -2.15386,-1.11935 z" style="font-style:normal;font-variant:normal;font-weight:normal;font-stretch:normal;letter-spacing:normal;word-spacing:normal;text-anchor:start;fill:#000000;stroke:#000000;stroke-width:0;stroke-linecap:butt;stroke-linejoin:miter;stroke-miterlimit:10.43299961;stroke-dasharray:none;stroke-dashoffset:0;stroke-opacity:1"></path><path id="path4033" d="m 370.65347,404.28803 2.4348,-2.39734 c 3.65219,-3.22142 5.05688,-4.47627 5.05688,-6.81274 0,-2.66423 -2.10704,-4.52778 -4.96324,-4.52778 -2.62208,0 -4.35453,2.14917 -4.35453,4.22811 0,1.30168 1.17057,1.30168 1.21739,1.30168 0.42141,0 1.2174,-0.27625 1.2174,-1.23612 0,-0.6087 -0.37458,-1.21272 -1.2174,-1.21272 -0.18729,0 -0.23411,0 -0.28093,0.0187 0.51505,-1.51238 1.77927,-2.37393 3.13714,-2.37393 2.10703,0 3.13713,1.89165 3.13713,3.80203 0,1.86824 -1.17057,3.70838 -2.48161,5.15989 l -4.44819,4.98665 c -0.28093,0.25752 -0.28093,0.29966 -0.28093,0.86622 h 8.66225 l 0.65552,-4.06423 h -0.6087 c -0.0937,0.70234 -0.23412,1.72777 -0.46823,2.07894 -0.18729,0.18261 -1.73245,0.18261 -2.2475,0.18261 z" style="font-style:normal;font-variant:normal;font-weight:normal;font-stretch:normal;letter-spacing:normal;word-spacing:normal;text-anchor:start;fill:#000000;stroke:#000000;stroke-width:0;stroke-linecap:butt;stroke-linejoin:miter;stroke-miterlimit:10.43299961;stroke-dasharray:none;stroke-dashoffset:0;stroke-opacity:1"></path><path id="path4035" d="m 374.44613,350.22155 0.1873,-0.0609 0.14046,-0.0702 0.1873,-0.0702 0.14046,-0.0796 0.1873,-0.0843 0.14047,-0.089 0.18729,-0.0936 0.14047,-0.10301 0.14047,-0.10301 0.14046,-0.1077 0.14047,-0.11237 0.14047,-0.11706 0.0936,-0.12174 0.14047,-0.12642 0.0936,-0.12642 0.14047,-0.13579 0.0936,-0.13579 0.0936,-0.14047 0.0936,-0.14046 0.0937,-0.14984 0.0936,-0.14983 0.0468,-0.14983 0.0937,-0.15452 0.0468,-0.1592 0.0468,-0.1592 0.0468,-0.15919 0.0468,-0.16389 0.0468,-0.16856 0.0468,-0.16856 v -0.16856 -0.16857 -0.17324 c 0,-1.91038 -2.01339,-3.22142 -4.26089,-3.22142 -2.38797,0 -4.12042,1.40469 -4.12042,3.17928 0,0.7679 0.51505,1.21271 1.17057,1.21271 0.70235,0 1.17058,-0.51037 1.17058,-1.19398 0,-1.16121 -1.07693,-1.16121 -1.40469,-1.16121 0.70234,-1.14248 2.2475,-1.45151 3.09031,-1.45151 0.93646,0 2.2475,0.51505 2.2475,2.61272 0,0.28562 -0.0468,1.63412 -0.65552,2.66422 -0.70234,1.11907 -1.49833,1.18463 -2.10703,1.21272 -0.18729,0.0234 -0.74917,0.0655 -0.88964,0.0655 -0.18729,0.0234 -0.37458,0.0468 -0.37458,0.28094 0,0.25284 0.18729,0.25284 0.56187,0.25284 h 1.03011 c 1.91974,0 2.80938,1.5873 2.80938,3.88163 0,3.16523 -1.63881,3.84416 -2.66891,3.84416 -0.98328,0 -2.76256,-0.39331 -3.55855,-1.7699 0.79599,0.11237 1.54516,-0.40268 1.54516,-1.28764 0,-0.83813 -0.6087,-1.30168 -1.31104,-1.30168 -0.56188,0 -1.31104,0.32308 -1.31104,1.35319 0,2.12108 2.15385,3.66155 4.72912,3.66155 2.8562,0 4.96323,-2.12576 4.96323,-4.49968 0,-1.91974 -1.49834,-3.73179 -3.88631,-4.22343 z" style="font-style:normal;font-variant:normal;font-weight:normal;font-stretch:normal;letter-spacing:normal;word-spacing:normal;text-anchor:start;fill:#000000;stroke:#000000;stroke-width:0;stroke-linecap:butt;stroke-linejoin:miter;stroke-miterlimit:10.43299961;stroke-dasharray:none;stroke-dashoffset:0;stroke-opacity:1"></path><path id="path4037" d="m 374.53978,306.92435 v 2.02275 c 0,0.84281 -0.0468,1.10034 -1.77927,1.10034 h -0.51506 v 0.72575 c 0.98329,-0.0749 2.20068,-0.0749 3.18397,-0.0749 0.98328,0 2.20068,0 3.13713,0.0749 v -0.72575 h -0.46823 c -1.73244,0 -1.77927,-0.25753 -1.77927,-1.10034 v -2.02275 h 2.34115 v -0.72576 h -2.34115 v -10.61477 c 0,-0.46823 0,-0.6087 -0.37458,-0.6087 -0.18729,0 -0.28094,0 -0.46823,0.28562 l -7.16392,10.93785 h 0.65553 l 5.7124,-8.69971 v 8.69971 h -5.7124 -0.65553 v 0.72576 z" style="font-style:normal;font-variant:normal;font-weight:normal;font-stretch:normal;letter-spacing:normal;word-spacing:normal;text-anchor:start;fill:#000000;stroke:#000000;stroke-width:0;stroke-linecap:butt;stroke-linejoin:miter;stroke-miterlimit:10.43299961;stroke-dasharray:none;stroke-dashoffset:0;stroke-opacity:1"></path><path id="path4039" d="m 378.14515,258.42043 v -0.25752 -0.25285 l -0.0468,-0.25284 -0.0468,-0.24816 -0.0468,-0.24817 -0.0468,-0.23879 -0.0936,-0.23412 -0.0468,-0.23411 -0.0936,-0.22475 -0.0936,-0.22007 -0.0937,-0.21539 -0.14047,-0.20602 -0.0937,-0.20134 -0.14046,-0.19197 -0.14047,-0.18729 -0.14047,-0.17793 -0.14047,-0.16856 -0.18729,-0.16388 -0.14047,-0.14984 -0.18729,-0.14515 -0.1873,-0.13578 -0.18729,-0.12174 -0.18729,-0.11706 -0.18729,-0.10301 -0.23412,-0.0936 -0.18729,-0.0796 -0.23411,-0.0702 -0.18729,-0.0609 -0.23412,-0.0421 -0.23411,-0.0328 -0.23412,-0.0234 -0.23411,-0.005 c -1.12376,0 -2.10704,0.37458 -2.94985,1.18462 v -4.54183 c 0.46823,0.13579 1.2174,0.29967 1.96656,0.29967 2.90303,0 4.49501,-2.12108 4.49501,-2.43011 0,-0.14047 -0.0468,-0.25753 -0.23412,-0.25753 0,0 -0.0468,0 -0.14047,0.0749 -0.46822,0.2107 -1.6388,0.67425 -3.18396,0.67425 -0.93646,0 -2.01338,-0.16388 -3.13714,-0.65084 -0.14046,-0.0656 -0.23411,-0.0656 -0.23411,-0.0656 -0.23412,0 -0.23412,0.18261 -0.23412,0.55251 v 6.90639 c 0,0.41672 0,0.60869 0.32777,0.60869 0.14046,0 0.18729,-0.0749 0.28093,-0.2107 0.23412,-0.37458 1.12375,-1.63412 2.99667,-1.63412 1.2174,0 1.8261,1.07693 2.01339,1.49365 0.37458,0.86154 0.42141,1.76991 0.42141,2.94048 0,0.81472 0,2.21941 -0.56188,3.19801 -0.56187,0.90837 -1.45151,1.51239 -2.52844,1.51239 -1.68563,0 -2.99667,-1.23613 -3.41808,-2.60804 0.0936,0.0187 0.14047,0.0421 0.42141,0.0421 0.74917,0 1.12375,-0.58529 1.12375,-1.14248 0,-0.56188 -0.37458,-1.14248 -1.12375,-1.14248 -0.32776,0 -1.17057,0.16388 -1.17057,1.23612 0,2.00871 1.59198,4.26557 4.21406,4.26557 2.71574,0 5.10371,-2.23813 5.10371,-5.20203 z" style="font-style:normal;font-variant:normal;font-weight:normal;font-stretch:normal;letter-spacing:normal;word-spacing:normal;text-anchor:start;fill:#000000;stroke:#000000;stroke-width:0;stroke-linecap:butt;stroke-linejoin:miter;stroke-miterlimit:10.43299961;stroke-dasharray:none;stroke-dashoffset:0;stroke-opacity:1"></path><polyline id="polyline4041" points="832.21,452.84 834.08,445.66 835.95,438.53 837.82,431.45 839.7,424.41 841.57,417.42 843.43,410.48 845.3,403.59 847.18,396.75 849.05,389.96 850.92,383.21 852.79,376.52 854.66,369.87 856.53,363.27 858.4,356.71 860.27,350.21 862.14,343.75 864.01,337.34 865.88,330.98 867.75,324.67 869.62,318.41 871.49,312.2 873.36,306.03 875.23,299.91 877.1,293.84 878.98,287.82 880.84,281.84 882.72,275.91 884.59,270.04 886.46,264.21 888.33,258.43 890.2,252.69 892.07,247 893.94,241.37 895.81,235.78 897.68,230.24 899.55,224.75 901.42,219.3 903.29,213.91 905.16,208.55 907.03,203.26 908.9,198 910.77,192.8 912.65,187.65 914.52,182.54 916.39,177.48 918.25,172.47 920.13,167.5 922,162.59 923.87,157.72 925.74,152.91 927.61,148.14 929.48,143.41 931.35,138.74 933.22,134.12 935.09,129.54 936.96,125.01 938.83,120.53 940.7,116.09 942.57,111.71 944.44,107.38 946.31,103.09 948.18,98.848 950.05,94.656 951.93,90.512 953.8,86.414 955.67,82.367 957.53,78.367 959.41,74.418 961.28,70.516 963.15,66.66 965.02,62.855 966.89,59.098 968.76,55.387 970.63,51.723 972.5,48.109 974.37,44.547 976.24,41.027 978.11,37.559 979.98,34.137 981.85,30.766 983.72,27.441 985.59,24.164 987.47,20.938 989.34,17.754 991.21,14.625 993.08,11.539 994.95,8.5039 996.82,5.5156 998.69,2.5781 1000.6,-0.3125 1002.4,-3.1563 1004.3,-5.9492 1006.2,-8.6953 1008,-11.394 1009.9,-14.047 1011.8,-16.648 1013.7,-19.199 1015.5,-21.707 1017.4,-24.164 1019.3,-26.574 1021.1,-28.934 1023,-31.246 1024.9,-33.512 1026.8,-35.727 1028.6,-37.895 1030.5,-40.016 1032.4,-42.086 1034.2,-44.109 1036.1,-46.086 1038,-48.016 1039.8,-49.895 1041.7,-51.723 1043.6,-53.508 1045.4,-55.242 1047.3,-56.93 1049.2,-58.566 1051.1,-60.156 1052.9,-61.699 1054.8,-63.191 1056.7,-64.637 1058.5,-66.035 1060.4,-67.383 1062.3,-68.684 1064.2,-69.938 1066,-71.141 1067.9,-72.301 1069.8,-73.406 1071.6,-74.469 1073.5,-75.48 1075.4,-76.441 1077.3,-77.359 1079.1,-78.227 1081,-79.047 1082.9,-79.816 1084.7,-80.539 1086.6,-81.215 1088.5,-81.84 1090.3,-82.418 1092.2,-82.949 1094.1,-83.43 1095.9,-83.863 1097.8,-84.25 1099.7,-84.586 1101.6,-84.875 1103.4,-85.117 1105.3,-85.309 1107.2,-85.453 1109.1,-85.551 1110.9,-85.598 1112.8,-85.598 1114.7,-85.551 1116.5,-85.453 1118.4,-85.313 1120.3,-85.117 1122.1,-84.879 1124,-84.59 1125.9,-84.25 1127.8,-83.867 1129.6,-83.434 1131.5,-82.949 1133.4,-82.422 1135.2,-81.844 1137.1,-81.215 1139,-80.543 1140.8,-79.82 1142.7,-79.047 1144.6,-78.23 1146.5,-77.363 1148.3,-76.445 1150.2,-75.484 1152.1,-74.473 1153.9,-73.41 1155.8,-72.305 1157.7,-71.148 1159.6,-69.945 1161.4,-68.691 1163.3,-67.391 1165.2,-66.043 1167,-64.645 1168.9,-63.199 1170.8,-61.707 1172.6,-60.164 1174.5,-58.574 1176.4,-56.938 1178.3,-55.25 1180.1,-53.516 1182,-51.73 1183.9,-49.902 1185.7,-48.023 1187.6,-46.094 1189.5,-44.121 1191.3,-42.098 1193.2,-40.023 1195.1,-37.906 1197,-35.738 1198.8,-33.52 1200.7,-31.258 1202.6,-28.945 1204.4,-26.582 1206.3,-24.176 1208.2,-21.719 1210.1,-19.211 1211.9,-16.66 1213.8,-14.059 1215.7,-11.406 1217.5,-8.707 1219.4,-5.9609 1221.3,-3.168 1223.2,-0.32422 1225,2.5664 1226.9,5.5039 1228.8,8.4922 1230.6,11.527 1232.5,14.609 1234.4,17.742 1236.2,20.922 1238.1,24.148 1240,27.426 1241.9,30.75 1243.7,34.121 1245.6,37.543 1247.5,41.012 1249.3,44.527 1251.2,48.094 1253.1,51.707 1254.9,55.367 1256.8,59.078 1258.7,62.836 1260.6,66.645 1262.4,70.496 1264.3,74.398 1266.2,78.352 1268,82.348 1269.9,86.398 1271.8,90.492 1273.7,94.637 1275.5,98.828 1277.4,103.07 1279.3,107.36 1281.1,111.69 1283,116.07 1284.9,120.51 1286.8,124.99 1288.6,129.52 1290.5,134.09 1292.4,138.72 1294.2,143.4 1296.1,148.11 1298,152.88 1299.8,157.7 1301.7,162.57 1303.6,167.48 1305.4,172.45 1307.3,177.46 1309.2,182.52 1311.1,187.62 1312.9,192.78 1314.8,197.98 1316.7,203.23 1318.6,208.53 1320.4,213.88 1322.3,219.28 1324.2,224.72 1326,230.21 1327.9,235.75 1329.8,241.34 1331.6,246.98 1333.5,252.66 1335.4,258.4 1337.3,264.18 1339.1,270.01 1341,275.89 1342.9,281.81 1344.7,287.79 1346.6,293.81 1348.5,299.88 1350.3,306 1352.2,312.17 1354.1,318.38 1356,324.64 1357.8,330.96 1359.7,337.32 1361.6,343.73 1363.4,350.18 1365.3,356.68 1367.2,363.24 1369.1,369.84 1370.9,376.49 1372.8,383.18 1374.7,389.93 1376.5,396.72 1378.4,403.56 1380.3,410.45 1382.1,417.39 1384,424.38 1385.9,431.41 1387.8,438.5 1389.6,445.63 1391.5,452.8" style="font-style:normal;font-variant:normal;font-weight:normal;font-stretch:normal;letter-spacing:normal;word-spacing:normal;text-anchor:start;fill:none;stroke:#000000;stroke-width:1.99249995;stroke-linecap:butt;stroke-linejoin:miter;stroke-miterlimit:10.43299961;stroke-dasharray:none;stroke-dashoffset:0;stroke-opacity:1" transform="matrix(0.46822969,0,0,-0.46822969,-128.05797,453.808)"></polyline><path style="color:#000000;display:inline;overflow:visible;visibility:visible;fill:none;stroke:#000000;stroke-width:1;stroke-linecap:round;stroke-linejoin:miter;stroke-miterlimit:4;stroke-dasharray:none;stroke-dashoffset:0;stroke-opacity:1;marker:none;enable-background:accumulate" d="M 673.09582,493.8702 H 93.620043" id="path4081"></path><path style="color:#000000;display:inline;overflow:visible;visibility:visible;fill:none;stroke:#000000;stroke-width:1;stroke-linecap:round;stroke-linejoin:miter;stroke-miterlimit:4;stroke-dasharray:none;stroke-dashoffset:0;stroke-opacity:1;marker:none;enable-background:accumulate" d="M 392.2357,258.20596 V 563.64548" id="path4083"></path><circle style="color:#000000;display:inline;overflow:visible;visibility:visible;fill:none;stroke:#000000;stroke-width:4;stroke-linecap:round;stroke-linejoin:miter;stroke-miterlimit:4;stroke-dasharray:none;stroke-dashoffset:0;stroke-opacity:1;marker:none;enable-background:accumulate" id="path4595" cx="504.41833" cy="307.43719" r="8.8777628"></circle><path style="color:#000000;display:inline;overflow:visible;visibility:visible;fill:none;stroke:#000000;stroke-width:2;stroke-linecap:round;stroke-linejoin:miter;stroke-miterlimit:4;stroke-dasharray:none;stroke-dashoffset:0;stroke-opacity:1;marker:none;marker-end:url('#Arrow1Mend');enable-background:accumulate" d="M 505.61254,306.36018 V 487.14895" id="path4597"></path><path style="color:#000000;display:inline;overflow:visible;visibility:visible;fill:none;stroke:#000000;stroke-width:2;stroke-linecap:round;stroke-linejoin:miter;stroke-miterlimit:4;stroke-dasharray:none;stroke-dashoffset:0;stroke-opacity:1;marker:none;marker-end:url('#Arrow1Mend');enable-background:accumulate" d="M 502.38916,307.35353 H 398.08795" id="path4597-8"></path><text xml:space="preserve" style="font-style:normal;font-variant:normal;font-weight:normal;font-stretch:normal;line-height:0%;font-family:sans-serif;-inkscape-font-specification:Sans;text-align:start;letter-spacing:0px;word-spacing:0px;writing-mode:lr-tb;text-anchor:start;fill:#000000;fill-opacity:1;stroke:none" x="517.53271" y="404.70132" id="text5067"><tspan id="tspan5069" x="517.53271" y="404.70132" style="font-size:18px;line-height:1.25;font-family:sans-serif">input</tspan></text><text xml:space="preserve" style="font-style:normal;font-variant:normal;font-weight:normal;font-stretch:normal;line-height:0%;font-family:sans-serif;-inkscape-font-specification:Sans;text-align:start;letter-spacing:0px;word-spacing:0px;writing-mode:lr-tb;text-anchor:start;fill:#000000;fill-opacity:1;stroke:none" x="425.15161" y="300.40012" id="text5071"><tspan id="tspan5073" x="425.15161" y="300.40012" style="font-size:18px;line-height:1.25;font-family:sans-serif">output</tspan></text></g></svg> 