<?xml version="1.0" encoding="UTF-8"?> <svg xmlns:cc="http://creativecommons.org/ns#" xmlns:rdf="http://www.w3.org/1999/02/22-rdf-syntax-ns#" xmlns:svg="http://www.w3.org/2000/svg" xmlns="http://www.w3.org/2000/svg" xmlns:sodipodi="http://sodipodi.sourceforge.net/DTD/sodipodi-0.dtd" xmlns:inkscape="http://www.inkscape.org/namespaces/inkscape" width="126.74834mm" height="92.281631mm" viewBox="0 0 449.10831 326.98216" id="svg2" version="1.1"><defs id="defs4"><marker style="overflow:visible" id="marker7486" refX="0" refY="0" orient="auto"><path transform="scale(-0.6)" d="M 8.7185878,4.0337352 -2.2072895,0.01601326 8.7185884,-4.0017078 c -1.7454984,2.3720609 -1.7354408,5.6174519 -6e-7,8.035443 z" style="fill:#000000;fill-opacity:1;fill-rule:evenodd;stroke:#000000;stroke-width:0.625;stroke-linejoin:round;stroke-opacity:1" id="path7488"></path></marker><marker style="overflow:visible" id="marker7386" refX="0" refY="0" orient="auto"><path transform="matrix(0.4,0,0,0.4,4,0)" style="fill:#000000;fill-opacity:1;fill-rule:evenodd;stroke:#000000;stroke-width:1.00000003pt;stroke-opacity:1" d="M 0,0 5,-5 -12.5,0 5,5 Z" id="path7388"></path></marker><marker orient="auto" refY="0" refX="0" id="marker7286" style="overflow:visible"><path id="path7288" style="fill:#000000;fill-opacity:1;fill-rule:evenodd;stroke:#000000;stroke-width:0.625;stroke-linejoin:round;stroke-opacity:1" d="M 8.7185878,4.0337352 -2.2072895,0.01601326 8.7185884,-4.0017078 c -1.7454984,2.3720609 -1.7354408,5.6174519 -6e-7,8.035443 z" transform="scale(-0.6)"></path></marker><marker orient="auto" refY="0" refX="0" id="marker7192" style="overflow:visible"><path id="path7194" d="M 0,0 5,-5 -12.5,0 5,5 Z" style="fill:#000000;fill-opacity:1;fill-rule:evenodd;stroke:#000000;stroke-width:1.00000003pt;stroke-opacity:1" transform="matrix(0.4,0,0,0.4,4,0)"></path></marker><marker style="overflow:visible" id="marker6212" refX="0" refY="0" orient="auto"><path transform="scale(-0.6)" d="M 8.7185878,4.0337352 -2.2072895,0.01601326 8.7185884,-4.0017078 c -1.7454984,2.3720609 -1.7354408,5.6174519 -6e-7,8.035443 z" style="fill:#000000;fill-opacity:1;fill-rule:evenodd;stroke:#000000;stroke-width:0.625;stroke-linejoin:round;stroke-opacity:1" id="path6214"></path></marker><marker style="overflow:visible" id="marker6130" refX="0" refY="0" orient="auto"><path transform="matrix(0.4,0,0,0.4,4,0)" style="fill:#000000;fill-opacity:1;fill-rule:evenodd;stroke:#000000;stroke-width:1.00000003pt;stroke-opacity:1" d="M 0,0 5,-5 -12.5,0 5,5 Z" id="path6132"></path></marker><marker orient="auto" refY="0" refX="0" id="Arrow2Mend" style="overflow:visible"><path id="path5747" style="fill:#000000;fill-opacity:1;fill-rule:evenodd;stroke:#000000;stroke-width:0.625;stroke-linejoin:round;stroke-opacity:1" d="M 8.7185878,4.0337352 -2.2072895,0.01601326 8.7185884,-4.0017078 c -1.7454984,2.3720609 -1.7354408,5.6174519 -6e-7,8.035443 z" transform="scale(-0.6)"></path></marker><marker orient="auto" refY="0" refX="0" id="Arrow1Mstart" style="overflow:visible"><path id="path5726" d="M 0,0 5,-5 -12.5,0 5,5 Z" style="fill:#000000;fill-opacity:1;fill-rule:evenodd;stroke:#000000;stroke-width:1.00000003pt;stroke-opacity:1" transform="matrix(0.4,0,0,0.4,4,0)"></path></marker><marker orient="auto" refY="0" refX="0" id="marker4840" style="overflow:visible"><path id="path4842" d="m -2.5,-1 c 0,2.76 -2.24,5 -5,5 -2.76,0 -5,-2.24 -5,-5 0,-2.76 2.24,-5 5,-5 2.76,0 5,2.24 5,5 z" style="fill:#000000;fill-opacity:1;fill-rule:evenodd;stroke:#000000;stroke-width:1.00000003pt;stroke-opacity:1" transform="matrix(0.2,0,0,0.2,1.48,0.2)"></path></marker><marker orient="auto" refY="0" refX="0" id="marker4788" style="overflow:visible"><path id="path4790" d="m -2.5,-1 c 0,2.76 -2.24,5 -5,5 -2.76,0 -5,-2.24 -5,-5 0,-2.76 2.24,-5 5,-5 2.76,0 5,2.24 5,5 z" style="fill:#000000;fill-opacity:1;fill-rule:evenodd;stroke:#000000;stroke-width:1.00000003pt;stroke-opacity:1" transform="matrix(0.2,0,0,0.2,1.48,0.2)"></path></marker><marker style="overflow:visible" id="marker4658" refX="0" refY="0" orient="auto"><path transform="matrix(0.2,0,0,0.2,1.48,0.2)" style="fill:#000000;fill-opacity:1;fill-rule:evenodd;stroke:#000000;stroke-width:1.00000003pt;stroke-opacity:1" d="m -2.5,-1 c 0,2.76 -2.24,5 -5,5 -2.76,0 -5,-2.24 -5,-5 0,-2.76 2.24,-5 5,-5 2.76,0 5,2.24 5,5 z" id="path4660"></path></marker><marker orient="auto" refY="0" refX="0" id="marker4574" style="overflow:visible"><path id="path4576" d="M 0,-7.0710768 -7.0710894,0 0,7.0710589 7.0710462,0 Z" style="fill:#000000;fill-opacity:1;fill-rule:evenodd;stroke:#000000;stroke-width:1.00000003pt;stroke-opacity:1" transform="scale(0.2)"></path></marker><marker orient="auto" refY="0" refX="0" id="marker4540" style="overflow:visible"><path id="path4542" d="M 0,-7.0710768 -7.0710894,0 0,7.0710589 7.0710462,0 Z" style="fill:#000000;fill-opacity:1;fill-rule:evenodd;stroke:#000000;stroke-width:1.00000003pt;stroke-opacity:1" transform="scale(0.2)"></path></marker><marker style="overflow:visible" id="marker4494" refX="0" refY="0" orient="auto"><path transform="scale(0.2)" style="fill:#000000;fill-opacity:1;fill-rule:evenodd;stroke:#000000;stroke-width:1.00000003pt;stroke-opacity:1" d="M 0,-7.0710768 -7.0710894,0 0,7.0710589 7.0710462,0 Z" id="path4496"></path></marker></defs><metadata id="metadata7"></metadata><g id="layer1" transform="translate(-62.215603,-430.74399)"><g id="g6100"><path id="path5710" d="M 73.764996,511.4189 H 252.24237" style="fill:none;fill-rule:evenodd;stroke:#000000;stroke-width:1px;stroke-linecap:butt;stroke-linejoin:miter;stroke-opacity:1"></path><path id="path5712" d="M 128.87677,441.0454 V 585.1839" style="fill:none;fill-rule:evenodd;stroke:#000000;stroke-width:1px;stroke-linecap:butt;stroke-linejoin:miter;stroke-opacity:1"></path></g><path style="fill:none;fill-rule:evenodd;stroke:#000000;stroke-width:2;stroke-linecap:butt;stroke-linejoin:miter;stroke-miterlimit:4;stroke-dasharray:none;stroke-opacity:1;marker-start:url('#Arrow1Mstart');marker-end:url('#Arrow2Mend')" d="m 66.134134,562.29131 c 47.056976,-5.08724 72.493186,-89.87459 72.493186,-89.87459 l 13.98991,80.12405 c 0,0 13.52699,-31.74572 46.20911,-49.6006 34.94257,-19.0898 77.15649,-18.22928 77.15649,-18.22928" id="path5714"></path><g id="g6104" transform="translate(237.40458,1.2718103)"><path style="fill:none;fill-rule:evenodd;stroke:#000000;stroke-width:1px;stroke-linecap:butt;stroke-linejoin:miter;stroke-opacity:1" d="M 73.764996,511.4189 H 252.24237" id="path6106"></path><path style="fill:none;fill-rule:evenodd;stroke:#000000;stroke-width:1px;stroke-linecap:butt;stroke-linejoin:miter;stroke-opacity:1" d="M 128.87677,441.0454 V 585.1839" id="path6108"></path></g><g transform="translate(-1.6957516,170.84651)" id="g6110"><path id="path6112" d="M 73.764996,511.4189 H 252.24237" style="fill:none;fill-rule:evenodd;stroke:#000000;stroke-width:1px;stroke-linecap:butt;stroke-linejoin:miter;stroke-opacity:1"></path><path id="path6114" d="M 128.87677,441.0454 V 585.1839" style="fill:none;fill-rule:evenodd;stroke:#000000;stroke-width:1px;stroke-linecap:butt;stroke-linejoin:miter;stroke-opacity:1"></path></g><g id="g6116" transform="translate(236.98064,172.54226)"><path style="fill:none;fill-rule:evenodd;stroke:#000000;stroke-width:1px;stroke-linecap:butt;stroke-linejoin:miter;stroke-opacity:1" d="M 73.764996,511.4189 H 252.24237" id="path6118"></path><path style="fill:none;fill-rule:evenodd;stroke:#000000;stroke-width:1px;stroke-linecap:butt;stroke-linejoin:miter;stroke-opacity:1" d="M 128.87677,441.0454 V 585.1839" id="path6120"></path></g><path style="fill:none;fill-rule:evenodd;stroke:#000000;stroke-width:2;stroke-linecap:butt;stroke-linejoin:miter;stroke-miterlimit:4;stroke-dasharray:none;stroke-opacity:1;marker-start:url('#marker6130');marker-end:url('#marker6212')" d="m 489.22302,459.69862 c -84.78735,8.90267 -122.51772,36.02932 -122.51772,52.99209 0,36.8825 125.48528,50.87241 125.48528,50.87241" id="path6122"></path><path style="fill:none;fill-rule:evenodd;stroke:#000000;stroke-width:2;stroke-linecap:butt;stroke-linejoin:miter;stroke-miterlimit:4;stroke-dasharray:none;stroke-opacity:1;marker-start:url('#marker7386')" d="m 80.664878,629.3052 c 35.173852,9.50613 72.376292,20.31708 72.376292,20.31708" id="path7170"></path><path style="fill:none;fill-rule:evenodd;stroke:#000000;stroke-width:2;stroke-linecap:butt;stroke-linejoin:miter;stroke-miterlimit:4;stroke-dasharray:none;stroke-opacity:1" d="m 152.61723,672.51487 c 2.54362,-0.42394 40.27399,-35.18675 40.27399,-35.18675" id="path7172"></path><path style="fill:none;fill-rule:evenodd;stroke:#000000;stroke-width:2;stroke-linecap:butt;stroke-linejoin:miter;stroke-miterlimit:4;stroke-dasharray:none;stroke-opacity:1;marker-end:url('#marker7486')" d="m 192.46729,703.88619 53.83997,-62.3187" id="path7174"></path><path style="fill:none;fill-rule:evenodd;stroke:#000000;stroke-width:2;stroke-linecap:butt;stroke-linejoin:miter;stroke-miterlimit:4;stroke-dasharray:none;stroke-opacity:1;marker-start:url('#marker7192');marker-end:url('#marker7286')" d="m 319.22438,638.17599 115.3108,0.42394 -36.45856,83.51554 110.22355,0.84787" id="path7184"></path><circle style="fill:#000000;stroke:#000000;stroke-width:0.7198813;stroke-miterlimit:4;stroke-dasharray:none;stroke-dashoffset:0" id="path7856" cx="152.30473" cy="648.76501" r="2.8265741"></circle><circle r="2.8265741" cy="671.9104" cx="153.13136" id="circle7858" style="fill:#ffffff;stroke:#000000;stroke-width:0.7198813;stroke-miterlimit:4;stroke-dasharray:none;stroke-dashoffset:0"></circle><circle style="fill:#000000;stroke:#000000;stroke-width:0.7198813;stroke-miterlimit:4;stroke-dasharray:none;stroke-dashoffset:0" id="circle7860" cx="191.9825" cy="638.01898" r="2.8265741"></circle><circle r="2.8265741" cy="703.73529" cx="191.9825" id="circle7862" style="fill:#ffffff;stroke:#000000;stroke-width:0.7198813;stroke-miterlimit:4;stroke-dasharray:none;stroke-dashoffset:0"></circle><text xml:space="preserve" style="font-style:normal;font-weight:normal;line-height:0%;font-family:sans-serif;letter-spacing:0px;word-spacing:0px;fill:#000000;fill-opacity:1;stroke:none;stroke-width:1px;stroke-linecap:butt;stroke-linejoin:miter;stroke-opacity:1" x="72.329247" y="484.06097" id="text7883"><tspan id="tspan7885" x="72.329247" y="484.06097" style="font-size:20px;line-height:1.25">a)</tspan></text><text xml:space="preserve" style="font-style:normal;font-weight:normal;line-height:0%;font-family:sans-serif;letter-spacing:0px;word-spacing:0px;fill:#000000;fill-opacity:1;stroke:none;stroke-width:1px;stroke-linecap:butt;stroke-linejoin:miter;stroke-opacity:1" x="312.46234" y="470.42175" id="text7887"><tspan id="tspan7889" x="312.46234" y="470.42175" style="font-size:20px;line-height:1.25">b)</tspan></text><text xml:space="preserve" style="font-style:normal;font-weight:normal;line-height:0%;font-family:sans-serif;letter-spacing:0px;word-spacing:0px;fill:#000000;fill-opacity:1;stroke:none;stroke-width:1px;stroke-linecap:butt;stroke-linejoin:miter;stroke-opacity:1" x="75.22242" y="724.60736" id="text7891"><tspan id="tspan7893" x="75.22242" y="724.60736" style="font-size:20px;line-height:1.25">c)</tspan></text><text xml:space="preserve" style="font-style:normal;font-weight:normal;line-height:0%;font-family:sans-serif;letter-spacing:0px;word-spacing:0px;fill:#000000;fill-opacity:1;stroke:none;stroke-width:1px;stroke-linecap:butt;stroke-linejoin:miter;stroke-opacity:1" x="313.28897" y="721.71423" id="text7895"><tspan id="tspan7897" x="313.28897" y="721.71423" style="font-size:20px;line-height:1.25">d)</tspan></text><text xml:space="preserve" style="font-style:normal;font-weight:normal;line-height:0%;font-family:sans-serif;letter-spacing:0px;word-spacing:0px;fill:#000000;fill-opacity:1;stroke:none;stroke-width:1px;stroke-linecap:butt;stroke-linejoin:miter;stroke-opacity:1" x="116.55342" y="430.74399" id="text7899"><tspan id="tspan7901" x="116.55342" y="430.74399" style="font-size:40px;line-height:1.25"></tspan></text></g></svg> 