<?xml version="1.0" encoding="UTF-8"?> <svg xmlns:cc="http://creativecommons.org/ns#" xmlns:rdf="http://www.w3.org/1999/02/22-rdf-syntax-ns#" xmlns:svg="http://www.w3.org/2000/svg" xmlns="http://www.w3.org/2000/svg" xmlns:sodipodi="http://sodipodi.sourceforge.net/DTD/sodipodi-0.dtd" xmlns:inkscape="http://www.inkscape.org/namespaces/inkscape" width="81.342972mm" height="55.913021mm" viewBox="0 0 288.22313 198.117" id="svg2" version="1.1"><defs id="defs4"><marker orient="auto" refY="0" refX="0" id="marker4840" style="overflow:visible"><path id="path4842" d="m -2.5,-1 c 0,2.76 -2.24,5 -5,5 -2.76,0 -5,-2.24 -5,-5 0,-2.76 2.24,-5 5,-5 2.76,0 5,2.24 5,5 z" style="fill:#000000;fill-opacity:1;fill-rule:evenodd;stroke:#000000;stroke-width:1.00000003pt;stroke-opacity:1" transform="matrix(0.2,0,0,0.2,1.48,0.2)"></path></marker><marker orient="auto" refY="0" refX="0" id="marker4788" style="overflow:visible"><path id="path4790" d="m -2.5,-1 c 0,2.76 -2.24,5 -5,5 -2.76,0 -5,-2.24 -5,-5 0,-2.76 2.24,-5 5,-5 2.76,0 5,2.24 5,5 z" style="fill:#000000;fill-opacity:1;fill-rule:evenodd;stroke:#000000;stroke-width:1.00000003pt;stroke-opacity:1" transform="matrix(0.2,0,0,0.2,1.48,0.2)"></path></marker><marker style="overflow:visible" id="marker4658" refX="0" refY="0" orient="auto"><path transform="matrix(0.2,0,0,0.2,1.48,0.2)" style="fill:#000000;fill-opacity:1;fill-rule:evenodd;stroke:#000000;stroke-width:1.00000003pt;stroke-opacity:1" d="m -2.5,-1 c 0,2.76 -2.24,5 -5,5 -2.76,0 -5,-2.24 -5,-5 0,-2.76 2.24,-5 5,-5 2.76,0 5,2.24 5,5 z" id="path4660"></path></marker><marker orient="auto" refY="0" refX="0" id="marker4574" style="overflow:visible"><path id="path4576" d="M 0,-7.0710768 -7.0710894,0 0,7.0710589 7.0710462,0 Z" style="fill:#000000;fill-opacity:1;fill-rule:evenodd;stroke:#000000;stroke-width:1.00000003pt;stroke-opacity:1" transform="scale(0.2)"></path></marker><marker orient="auto" refY="0" refX="0" id="marker4540" style="overflow:visible"><path id="path4542" d="M 0,-7.0710768 -7.0710894,0 0,7.0710589 7.0710462,0 Z" style="fill:#000000;fill-opacity:1;fill-rule:evenodd;stroke:#000000;stroke-width:1.00000003pt;stroke-opacity:1" transform="scale(0.2)"></path></marker><marker style="overflow:visible" id="marker4494" refX="0" refY="0" orient="auto"><path transform="scale(0.2)" style="fill:#000000;fill-opacity:1;fill-rule:evenodd;stroke:#000000;stroke-width:1.00000003pt;stroke-opacity:1" d="M 0,-7.0710768 -7.0710894,0 0,7.0710589 7.0710462,0 Z" id="path4496"></path></marker></defs><metadata id="metadata7"></metadata><g id="layer1" transform="translate(-97.135391,-432.47815)"><path style="fill:none;fill-rule:evenodd;stroke:#000000;stroke-width:1px;stroke-linecap:butt;stroke-linejoin:miter;stroke-opacity:1" d="M 189.49973,434.26242 V 610.62011" id="path4136"></path><path style="fill:none;fill-rule:evenodd;stroke:#000000;stroke-width:1px;stroke-linecap:butt;stroke-linejoin:miter;stroke-opacity:1" d="M 160.67203,524.98489 H 385.35851" id="path4138"></path><text xml:space="preserve" style="font-style:normal;font-weight:normal;line-height:0%;font-family:sans-serif;letter-spacing:0px;word-spacing:0px;fill:#000000;fill-opacity:1;stroke:none;stroke-width:1px;stroke-linecap:butt;stroke-linejoin:miter;stroke-opacity:1" x="95.809708" y="483.43909" id="text4140"><tspan id="tspan4142" x="95.809708" y="483.43909" style="font-size:15px;line-height:1.25">Position</tspan><tspan x="95.809708" y="502.18909" id="tspan4144" style="font-size:15px;line-height:1.25">(miles)</tspan></text><text xml:space="preserve" style="font-style:normal;font-weight:normal;line-height:0%;font-family:sans-serif;letter-spacing:0px;word-spacing:0px;fill:#000000;fill-opacity:1;stroke:none;stroke-width:1px;stroke-linecap:butt;stroke-linejoin:miter;stroke-opacity:1" x="240.37215" y="627.57758" id="text4146"><tspan id="tspan4148" x="240.37215" y="627.57758" style="font-size:15px;line-height:1.25">time (hr)</tspan></text><path style="fill:none;fill-rule:evenodd;stroke:#000000;stroke-width:1px;stroke-linecap:butt;stroke-linejoin:miter;stroke-opacity:1" d="m 230.62159,520.32159 c 0,3.39149 0,9.32661 0,9.32661" id="path4150"></path><path id="path4152" d="m 290.82062,519.89765 c 0,3.39149 0,9.32661 0,9.32661" style="fill:none;fill-rule:evenodd;stroke:#000000;stroke-width:1px;stroke-linecap:butt;stroke-linejoin:miter;stroke-opacity:1"></path><path style="fill:none;fill-rule:evenodd;stroke:#000000;stroke-width:1px;stroke-linecap:butt;stroke-linejoin:miter;stroke-opacity:1" d="m 317.52863,519.89765 c 0,3.39149 0,9.32661 0,9.32661" id="path4154"></path><path id="path4156" d="m 184.41249,439.34966 c 3.39149,0 9.32661,0 9.32661,0" style="fill:none;fill-rule:evenodd;stroke:#000000;stroke-width:1px;stroke-linecap:butt;stroke-linejoin:miter;stroke-opacity:1"></path><path style="fill:none;fill-rule:evenodd;stroke:#000000;stroke-width:1px;stroke-linecap:butt;stroke-linejoin:miter;stroke-opacity:1" d="m 184.41249,472.41673 c 3.39149,0 9.32661,0 9.32661,0" id="path4158"></path><path id="path4160" d="m 184.41249,560.59557 c 3.39149,0 9.32661,0 9.32661,0" style="fill:none;fill-rule:evenodd;stroke:#000000;stroke-width:1px;stroke-linecap:butt;stroke-linejoin:miter;stroke-opacity:1"></path><text id="text4174" y="543.21411" x="225.11041" style="font-style:normal;font-weight:normal;line-height:0%;font-family:sans-serif;letter-spacing:0px;word-spacing:0px;fill:#000000;fill-opacity:1;stroke:none;stroke-width:1px;stroke-linecap:butt;stroke-linejoin:miter;stroke-opacity:1" xml:space="preserve"><tspan y="543.21411" x="225.11041" id="tspan4176" style="font-size:15px;line-height:1.25">3</tspan></text><text xml:space="preserve" style="font-style:normal;font-weight:normal;line-height:0%;font-family:sans-serif;letter-spacing:0px;word-spacing:0px;fill:#000000;fill-opacity:1;stroke:none;stroke-width:1px;stroke-linecap:butt;stroke-linejoin:miter;stroke-opacity:1" x="286.58124" y="543.63806" id="text4178"><tspan id="tspan4180" x="286.58124" y="543.63806" style="font-size:15px;line-height:1.25">7</tspan></text><text id="text4182" y="543.63806" x="312.44138" style="font-style:normal;font-weight:normal;line-height:0%;font-family:sans-serif;letter-spacing:0px;word-spacing:0px;fill:#000000;fill-opacity:1;stroke:none;stroke-width:1px;stroke-linecap:butt;stroke-linejoin:miter;stroke-opacity:1" xml:space="preserve"><tspan y="543.63806" x="312.44138" id="tspan4184" style="font-size:15px;line-height:1.25">9</tspan></text><path style="fill:none;fill-rule:evenodd;stroke:#000000;stroke-width:3;stroke-linecap:butt;stroke-linejoin:miter;stroke-miterlimit:4;stroke-dasharray:none;stroke-dashoffset:0;stroke-opacity:1" d="m 188.65185,524.56095 40.27399,-53.628 62.74265,89.45066 26.70802,-118.91426" id="path4186"></path><text xml:space="preserve" style="font-style:normal;font-weight:normal;line-height:0%;font-family:sans-serif;letter-spacing:0px;word-spacing:0px;fill:#000000;fill-opacity:1;stroke:none;stroke-width:1px;stroke-linecap:butt;stroke-linejoin:miter;stroke-opacity:1" x="167.03107" y="566.53064" id="text5495"><tspan id="tspan5497" x="167.03107" y="566.53064" style="font-size:15px;line-height:1.25">-8</tspan></text><text id="text5499" y="477.92786" x="164.91139" style="font-style:normal;font-weight:normal;line-height:0%;font-family:sans-serif;letter-spacing:0px;word-spacing:0px;fill:#000000;fill-opacity:1;stroke:none;stroke-width:1px;stroke-linecap:butt;stroke-linejoin:miter;stroke-opacity:1" xml:space="preserve"><tspan y="477.92786" x="164.91139" id="tspan5501" style="font-size:15px;line-height:1.25">12</tspan></text><text xml:space="preserve" style="font-style:normal;font-weight:normal;line-height:0%;font-family:sans-serif;letter-spacing:0px;word-spacing:0px;fill:#000000;fill-opacity:1;stroke:none;stroke-width:1px;stroke-linecap:butt;stroke-linejoin:miter;stroke-opacity:1" x="164.91139" y="443.58899" id="text5503"><tspan id="tspan5505" x="164.91139" y="443.58899" style="font-size:15px;line-height:1.25">16</tspan></text></g></svg> 