<?xml version="1.0" encoding="UTF-8"?> <svg xmlns:cc="http://creativecommons.org/ns#" xmlns:rdf="http://www.w3.org/1999/02/22-rdf-syntax-ns#" xmlns:svg="http://www.w3.org/2000/svg" xmlns="http://www.w3.org/2000/svg" xmlns:sodipodi="http://sodipodi.sourceforge.net/DTD/sodipodi-0.dtd" xmlns:inkscape="http://www.inkscape.org/namespaces/inkscape" width="399.37537" height="270.09232" id="svg2" version="1.1"><defs id="defs4"><marker orient="auto" refY="0" refX="0" id="Arrow2Mend" style="overflow:visible"><path id="path4239" style="fill:#cccccc;fill-opacity:1;fill-rule:evenodd;stroke:#cccccc;stroke-width:0.625;stroke-linejoin:round;stroke-opacity:1" d="M 8.7185878,4.0337352 -2.2072895,0.01601326 8.7185884,-4.0017078 c -1.7454984,2.3720609 -1.7354408,5.6174519 -6e-7,8.035443 z" transform="scale(-0.6)"></path></marker><marker style="overflow:visible" id="marker5017" refX="0" refY="0" orient="auto"><path transform="matrix(0.4,0,0,0.4,4,0)" style="fill:#cccccc;fill-opacity:1;fill-rule:evenodd;stroke:#cccccc;stroke-width:1.00000003pt;stroke-opacity:1" d="M 0,0 5,-5 -12.5,0 5,5 Z" id="path5019"></path></marker><marker orient="auto" refY="0" refX="0" id="Arrow1Lend" style="overflow:visible"><path id="path4215" d="M 0,0 5,-5 -12.5,0 5,5 Z" style="fill:#0000ff;fill-opacity:1;fill-rule:evenodd;stroke:#0000ff;stroke-width:1.00000003pt;stroke-opacity:1" transform="matrix(-0.8,0,0,-0.8,-10,0)"></path></marker><marker orient="auto" refY="0" refX="0" id="marker4635" style="overflow:visible"><path id="path4218" d="M 0,0 5,-5 -12.5,0 5,5 Z" style="fill:#000000;fill-opacity:1;fill-rule:evenodd;stroke:#000000;stroke-width:1.00000003pt;stroke-opacity:1" transform="matrix(0.4,0,0,0.4,4,0)"></path></marker><marker orient="auto" refY="0" refX="0" id="marker4536" style="overflow:visible"><path id="path4221" d="M 0,0 5,-5 -12.5,0 5,5 Z" style="fill:#000000;fill-opacity:1;fill-rule:evenodd;stroke:#000000;stroke-width:1.00000003pt;stroke-opacity:1" transform="matrix(-0.4,0,0,-0.4,-4,0)"></path></marker><marker orient="auto" refY="0" refX="0" id="Arrow1Lstart" style="overflow:visible"><path id="path4212" d="M 0,0 5,-5 -12.5,0 5,5 Z" style="fill:#000000;fill-opacity:1;fill-rule:evenodd;stroke:#000000;stroke-width:1.00000003pt;stroke-opacity:1" transform="matrix(0.8,0,0,0.8,10,0)"></path></marker><marker style="overflow:visible" id="DotS" refX="0" refY="0" orient="auto"><path transform="matrix(0.2,0,0,0.2,1.48,0.2)" style="fill-rule:evenodd;stroke:#000000;stroke-width:1.00000003pt;marker-start:none;marker-end:none" d="m -2.5,-1 c 0,2.76 -2.24,5 -5,5 -2.76,0 -5,-2.24 -5,-5 0,-2.76 2.24,-5 5,-5 2.76,0 5,2.24 5,5 z" id="path3828"></path></marker><marker style="overflow:visible" id="DotM" refX="0" refY="0" orient="auto"><path transform="matrix(0.4,0,0,0.4,2.96,0.4)" style="fill-rule:evenodd;stroke:#000000;stroke-width:1.00000003pt;marker-start:none;marker-end:none" d="m -2.5,-1 c 0,2.76 -2.24,5 -5,5 -2.76,0 -5,-2.24 -5,-5 0,-2.76 2.24,-5 5,-5 2.76,0 5,2.24 5,5 z" id="path3825"></path></marker><marker orient="auto" refY="0" refX="0" id="Arrow1Mend" style="overflow:visible"><path id="path3769" d="M 0,0 5,-5 -12.5,0 5,5 Z" style="fill-rule:evenodd;stroke:#000000;stroke-width:1.00000003pt;marker-start:none" transform="matrix(-0.4,0,0,-0.4,-4,0)"></path></marker><marker orient="auto" refY="0" refX="0" id="Arrow1Mstart" style="overflow:visible"><path id="path3766" d="M 0,0 5,-5 -12.5,0 5,5 Z" style="fill-rule:evenodd;stroke:#000000;stroke-width:1.00000003pt;marker-start:none" transform="matrix(0.4,0,0,0.4,4,0)"></path></marker><marker orient="auto" refY="0" refX="0" id="Arrow1Mstart-1" style="overflow:visible"><path id="path3766-7" d="M 0,0 5,-5 -12.5,0 5,5 Z" style="fill-rule:evenodd;stroke:#000000;stroke-width:1.00000003pt;marker-start:none" transform="matrix(0.4,0,0,0.4,4,0)"></path></marker><marker orient="auto" refY="0" refX="0" id="Arrow1Mend-4" style="overflow:visible"><path id="path3769-0" d="M 0,0 5,-5 -12.5,0 5,5 Z" style="fill-rule:evenodd;stroke:#000000;stroke-width:1.00000003pt;marker-start:none" transform="matrix(-0.4,0,0,-0.4,-4,0)"></path></marker><marker orient="auto" refY="0" refX="0" id="marker3049" style="overflow:visible"><path id="path3051" d="M 0,0 5,-5 -12.5,0 5,5 Z" style="fill-rule:evenodd;stroke:#000000;stroke-width:1.00000003pt;marker-start:none" transform="matrix(0.4,0,0,0.4,4,0)"></path></marker><marker orient="auto" refY="0" refX="0" id="marker3053" style="overflow:visible"><path id="path3055" d="M 0,0 5,-5 -12.5,0 5,5 Z" style="fill-rule:evenodd;stroke:#000000;stroke-width:1.00000003pt;marker-start:none" transform="matrix(-0.4,0,0,-0.4,-4,0)"></path></marker></defs><metadata id="metadata7"></metadata><g id="layer1" transform="translate(-104.69177,-256.74718)"><path style="color:#000000;display:inline;overflow:visible;visibility:visible;fill:none;stroke:#000000;stroke-width:1;stroke-linecap:round;stroke-linejoin:miter;stroke-miterlimit:4;stroke-dasharray:none;stroke-dashoffset:0;stroke-opacity:1;marker:none;enable-background:accumulate" d="M 168.80752,257.2543 V 521.47476" id="path3793"></path><path style="color:#000000;display:inline;overflow:visible;visibility:visible;fill:none;stroke:#000000;stroke-width:1;stroke-linecap:round;stroke-linejoin:miter;stroke-miterlimit:4;stroke-dasharray:none;stroke-dashoffset:0;stroke-opacity:1;marker:none;enable-background:accumulate" d="M 105.19889,435.84776 H 497.85986" id="path3795"></path><path style="fill:none;stroke:#cccccc;stroke-width:3;stroke-linecap:butt;stroke-linejoin:miter;stroke-miterlimit:4;stroke-dasharray:none;stroke-opacity:1;marker-start:url('#marker5017');marker-end:url('#Arrow2Mend')" d="m 190.85545,281.01169 c 22.84204,183.33365 232.95544,74.35218 262.21386,221.43762" id="path4645"></path><circle style="opacity:0.98999999;fill:#0000ff;fill-opacity:1;stroke:#0000ff;stroke-width:1.60000002;stroke-linecap:round;stroke-miterlimit:4;stroke-dasharray:none;stroke-dashoffset:0" id="path4200" cx="324.51086" cy="406.17209" r="3.9643564"></circle><text xml:space="preserve" style="font-style:normal;font-variant:normal;font-weight:normal;font-stretch:normal;line-height:0%;font-family:'Lucida Fax';-inkscape-font-specification:'Lucida Fax, Normal';text-align:start;letter-spacing:0px;word-spacing:0px;writing-mode:lr-tb;text-anchor:start;fill:#0000ff;fill-opacity:1;stroke:none;stroke-width:1px;stroke-linecap:butt;stroke-linejoin:miter;stroke-opacity:1" x="313.18414" y="390.31467" id="text4202"><tspan id="tspan4204" x="313.18414" y="390.31467" style="font-size:15px;line-height:1.25">inflection point</tspan></text><path style="fill:none;fill-rule:evenodd;stroke:#000000;stroke-width:3;stroke-linecap:butt;stroke-linejoin:miter;stroke-miterlimit:4;stroke-dasharray:none;stroke-opacity:1;marker-start:url('#marker4635');marker-end:url('#marker4536')" d="m 177.26336,522.27111 c 130.25742,-158.57426 322.24554,0 322.24554,0" id="path4206"></path><path style="fill:none;fill-rule:evenodd;stroke:#0000ff;stroke-width:1;stroke-linecap:butt;stroke-linejoin:miter;stroke-miterlimit:4;stroke-dasharray:8, 8;stroke-dashoffset:0;stroke-opacity:1;marker-end:url('#Arrow1Lend')" d="m 324.51088,405.60576 -0.63219,40.32843" id="path4722"></path><circle style="opacity:0.98999999;fill:#0000ff;fill-opacity:1;stroke:#0000ff;stroke-width:1.60000002;stroke-linecap:round;stroke-miterlimit:4;stroke-dasharray:none;stroke-dashoffset:0" id="path4200-2" cx="323.94455" cy="452.04538" r="3.9643564"></circle></g></svg> 