<?xml version="1.0" encoding="UTF-8"?> <svg xmlns:cc="http://creativecommons.org/ns#" xmlns:rdf="http://www.w3.org/1999/02/22-rdf-syntax-ns#" xmlns:svg="http://www.w3.org/2000/svg" xmlns="http://www.w3.org/2000/svg" xmlns:sodipodi="http://sodipodi.sourceforge.net/DTD/sodipodi-0.dtd" xmlns:inkscape="http://www.inkscape.org/namespaces/inkscape" width="173.31438mm" height="106.6435mm" viewBox="0 0 173.31438 106.6435" version="1.1" id="svg8"><defs id="defs2"></defs><metadata id="metadata5"></metadata><g id="layer1" transform="translate(-20.300642,-77.96252)"><g id="g1094" scale="1.66150538703" version="0.11.0" transform="matrix(0.586142,0.000000,0.000000,0.586142,-104.528739,-38.208076)"><g id="surface1"><path id="path909" transform="matrix(1,0,0,-1,213.143,380.138)" d="M 18.142156 0.00128125 L 18.142156 181.942687 M 51.259344 0.00128125 L 51.259344 181.942687 M 117.497625 0.00128125 L 117.497625 181.942687 M 150.614813 0.00128125 L 150.614813 181.942687 M 183.735906 0.00128125 L 183.735906 181.942687 M 216.853094 0.00128125 L 216.853094 181.942687 M 249.974188 0.00128125 L 249.974188 181.942687 M 283.091375 0.00128125 L 283.091375 181.942687" style="fill:none;stroke-width:0.3985;stroke-linecap:butt;stroke-linejoin:miter;stroke:rgb(75%,75%,75%);stroke-opacity:1;stroke-miterlimit:10;"></path><path id="path911" transform="matrix(1,0,0,-1,213.143,380.138)" d="M 0.00153125 25.993469 L 295.329656 25.993469 M 0.00153125 51.98175 L 295.329656 51.98175 M 0.00153125 103.966125 L 295.329656 103.966125 M 0.00153125 129.958312 L 295.329656 129.958312" style="fill:none;stroke-width:0.3985;stroke-linecap:butt;stroke-linejoin:miter;stroke:rgb(75%,75%,75%);stroke-opacity:1;stroke-miterlimit:10;"></path><path id="path913" transform="matrix(1,0,0,-1,213.143,380.138)" d="M 18.142156 75.848937 L 18.142156 80.098937 M 51.259344 75.848937 L 51.259344 80.098937 M 117.497625 75.848937 L 117.497625 80.098937 M 150.614813 75.848937 L 150.614813 80.098937 M 183.735906 75.848937 L 183.735906 80.098937 M 216.853094 75.848937 L 216.853094 80.098937 M 249.974188 75.848937 L 249.974188 80.098937 M 283.091375 75.848937 L 283.091375 80.098937" style="fill:none;stroke-width:0.19925;stroke-linecap:butt;stroke-linejoin:miter;stroke:rgb(50%,50%,50%);stroke-opacity:1;stroke-miterlimit:10;"></path><path id="path915" transform="matrix(1,0,0,-1,213.143,380.138)" d="M 82.251531 25.993469 L 86.505438 25.993469 M 82.251531 51.98175 L 86.505438 51.98175 M 82.251531 103.966125 L 86.505438 103.966125 M 82.251531 129.958312 L 86.505438 129.958312" style="fill:none;stroke-width:0.19925;stroke-linecap:butt;stroke-linejoin:miter;stroke:rgb(50%,50%,50%);stroke-opacity:1;stroke-miterlimit:10;"></path><path id="path917" transform="matrix(1,0,0,-1,213.143,380.138)" d="M 0.00153125 77.973937 L 293.337469 77.973937" style="fill:none;stroke-width:0.3985;stroke-linecap:butt;stroke-linejoin:miter;stroke:rgb(0%,0%,0%);stroke-opacity:1;stroke-miterlimit:10;"></path><path id="path919" d="M 508.472656 302.164063 L 505.28125 300.570313 L 506.480469 302.164063 L 505.28125 303.757813" style="fill-opacity:1;stroke:none;fill:rgb(0%,0%,0%);stroke-width:0;fill-rule:nonzero"></path><path id="path921" transform="matrix(1,0,0,-1,213.143,380.138)" d="M 84.380438 0.00128125 L 84.380438 179.9505" style="fill:none;stroke-width:0.3985;stroke-linecap:butt;stroke-linejoin:miter;stroke:rgb(0%,0%,0%);stroke-opacity:1;stroke-miterlimit:10;"></path><path id="path923" d="M 297.523438 198.195313 L 295.929688 201.386719 L 297.523438 200.1875 L 299.117188 201.386719" style="fill-opacity:1;stroke:none;fill:rgb(0%,0%,0%);stroke-width:0;fill-rule:nonzero"></path><g id="g927" style="fill:rgb(0%,0%,0%);fill-opacity:1;"><path id="path925" transform="translate(224.392,313.622)" d="M 6.5625 -2.296875 C 6.734375 -2.296875 6.921875 -2.296875 6.921875 -2.5 C 6.921875 -2.6875 6.734375 -2.6875 6.5625 -2.6875 L 1.171875 -2.6875 C 1 -2.6875 0.828125 -2.6875 0.828125 -2.5 C 0.828125 -2.296875 1 -2.296875 1.171875 -2.296875 Z M 6.5625 -2.296875" style="stroke:none;stroke-width:0"></path></g><g id="g931" style="fill:rgb(0%,0%,0%);fill-opacity:1;"><path id="path929" transform="translate(232.141,313.622)" d="M 2.640625 -3.71875 L 3.765625 -3.71875 C 3.4375 -2.25 3.34375 -1.8125 3.34375 -1.140625 C 3.34375 -1 3.34375 -0.734375 3.421875 -0.390625 C 3.53125 0.046875 3.640625 0.109375 3.78125 0.109375 C 3.984375 0.109375 4.203125 -0.0625 4.203125 -0.265625 C 4.203125 -0.328125 4.203125 -0.34375 4.140625 -0.484375 C 3.84375 -1.203125 3.84375 -1.859375 3.84375 -2.140625 C 3.84375 -2.65625 3.921875 -3.203125 4.03125 -3.71875 L 5.15625 -3.71875 C 5.296875 -3.71875 5.65625 -3.71875 5.65625 -4.0625 C 5.65625 -4.296875 5.4375 -4.296875 5.25 -4.296875 L 1.90625 -4.296875 C 1.6875 -4.296875 1.3125 -4.296875 0.875 -3.828125 C 0.53125 -3.4375 0.265625 -2.984375 0.265625 -2.9375 C 0.265625 -2.921875 0.265625 -2.828125 0.390625 -2.828125 C 0.46875 -2.828125 0.484375 -2.875 0.546875 -2.953125 C 1.03125 -3.71875 1.609375 -3.71875 1.8125 -3.71875 L 2.375 -3.71875 C 2.0625 -2.515625 1.53125 -1.3125 1.109375 -0.40625 C 1.03125 -0.25 1.03125 -0.234375 1.03125 -0.15625 C 1.03125 0.03125 1.1875 0.109375 1.3125 0.109375 C 1.609375 0.109375 1.6875 -0.171875 1.8125 -0.53125 C 1.953125 -1 1.953125 -1.015625 2.078125 -1.515625 Z M 2.640625 -3.71875" style="stroke:none;stroke-width:0"></path></g><g id="g935" style="fill:rgb(0%,0%,0%);fill-opacity:1;"><path id="path933" transform="translate(256.879,314.735)" d="M 6.5625 -2.296875 C 6.734375 -2.296875 6.921875 -2.296875 6.921875 -2.5 C 6.921875 -2.6875 6.734375 -2.6875 6.5625 -2.6875 L 1.171875 -2.6875 C 1 -2.6875 0.828125 -2.6875 0.828125 -2.5 C 0.828125 -2.296875 1 -2.296875 1.171875 -2.296875 Z M 6.5625 -2.296875" style="stroke:none;stroke-width:0"></path></g><g id="g939" style="fill:rgb(0%,0%,0%);fill-opacity:1;"><path id="path937" transform="translate(265.823,310.813)" d="M 2.171875 -2.53125 L 3 -2.53125 C 2.890625 -2.109375 2.734375 -1.484375 2.734375 -0.921875 C 2.734375 -0.640625 2.78125 -0.453125 2.8125 -0.3125 C 2.921875 0.046875 3.015625 0.0625 3.125 0.0625 C 3.296875 0.0625 3.453125 -0.078125 3.453125 -0.25 C 3.453125 -0.296875 3.4375 -0.328125 3.40625 -0.390625 C 3.265625 -0.65625 3.140625 -1.046875 3.140625 -1.625 C 3.140625 -1.75 3.140625 -2.03125 3.234375 -2.53125 L 4.109375 -2.53125 C 4.234375 -2.53125 4.296875 -2.53125 4.375 -2.578125 C 4.46875 -2.65625 4.484375 -2.765625 4.484375 -2.796875 C 4.484375 -3 4.3125 -3 4.1875 -3 L 1.5625 -3 C 1.28125 -3 1.078125 -2.9375 0.765625 -2.640625 C 0.578125 -2.484375 0.3125 -2.109375 0.3125 -2.046875 C 0.3125 -1.96875 0.40625 -1.96875 0.4375 -1.96875 C 0.515625 -1.96875 0.515625 -1.984375 0.5625 -2.046875 C 0.90625 -2.53125 1.34375 -2.53125 1.5 -2.53125 L 1.921875 -2.53125 C 1.703125 -1.765625 1.328125 -0.9375 1.125 -0.515625 C 1.078125 -0.4375 1.015625 -0.28125 0.984375 -0.265625 C 0.984375 -0.234375 0.96875 -0.203125 0.96875 -0.15625 C 0.96875 -0.046875 1.046875 0.0625 1.21875 0.0625 C 1.484375 0.0625 1.5625 -0.25 1.734375 -0.875 Z M 2.171875 -2.53125" style="stroke:none;stroke-width:0"></path></g><path id="path941" transform="matrix(1,0,0,-1,265.823,312.245)" d="M 0.00121875 -0.00109375 L 4.907469 -0.00109375" style="fill:none;stroke-width:0.398;stroke-linecap:butt;stroke-linejoin:miter;stroke:rgb(0%,0%,0%);stroke-opacity:1;stroke-miterlimit:10;"></path><g id="g945" style="fill:rgb(0%,0%,0%);fill-opacity:1;"><path id="path943" transform="translate(266.292,318.171)" d="M 3.515625 -1.265625 L 3.28125 -1.265625 C 3.265625 -1.109375 3.1875 -0.703125 3.09375 -0.640625 C 3.046875 -0.59375 2.515625 -0.59375 2.40625 -0.59375 L 1.125 -0.59375 C 1.859375 -1.234375 2.109375 -1.4375 2.515625 -1.765625 C 3.03125 -2.171875 3.515625 -2.609375 3.515625 -3.265625 C 3.515625 -4.109375 2.78125 -4.625 1.890625 -4.625 C 1.03125 -4.625 0.4375 -4.015625 0.4375 -3.375 C 0.4375 -3.03125 0.734375 -2.984375 0.8125 -2.984375 C 0.96875 -2.984375 1.171875 -3.109375 1.171875 -3.359375 C 1.171875 -3.484375 1.125 -3.734375 0.765625 -3.734375 C 0.984375 -4.21875 1.453125 -4.375 1.78125 -4.375 C 2.484375 -4.375 2.84375 -3.828125 2.84375 -3.265625 C 2.84375 -2.65625 2.40625 -2.1875 2.1875 -1.9375 L 0.515625 -0.265625 C 0.4375 -0.203125 0.4375 -0.1875 0.4375 0 L 3.3125 0 Z M 3.515625 -1.265625" style="stroke:none;stroke-width:0"></path></g><g id="g949" style="fill:rgb(0%,0%,0%);fill-opacity:1;"><path id="path947" transform="translate(328.185,310.813)" d="M 2.171875 -2.53125 L 3 -2.53125 C 2.890625 -2.109375 2.734375 -1.484375 2.734375 -0.921875 C 2.734375 -0.640625 2.78125 -0.453125 2.8125 -0.3125 C 2.921875 0.046875 3.015625 0.0625 3.125 0.0625 C 3.296875 0.0625 3.453125 -0.078125 3.453125 -0.25 C 3.453125 -0.296875 3.4375 -0.328125 3.40625 -0.390625 C 3.265625 -0.65625 3.140625 -1.046875 3.140625 -1.625 C 3.140625 -1.75 3.140625 -2.03125 3.234375 -2.53125 L 4.109375 -2.53125 C 4.234375 -2.53125 4.296875 -2.53125 4.375 -2.578125 C 4.46875 -2.65625 4.484375 -2.765625 4.484375 -2.796875 C 4.484375 -3 4.3125 -3 4.1875 -3 L 1.5625 -3 C 1.28125 -3 1.078125 -2.9375 0.765625 -2.640625 C 0.578125 -2.484375 0.3125 -2.109375 0.3125 -2.046875 C 0.3125 -1.96875 0.40625 -1.96875 0.4375 -1.96875 C 0.515625 -1.96875 0.515625 -1.984375 0.5625 -2.046875 C 0.90625 -2.53125 1.34375 -2.53125 1.5 -2.53125 L 1.921875 -2.53125 C 1.703125 -1.765625 1.328125 -0.9375 1.125 -0.515625 C 1.078125 -0.4375 1.015625 -0.28125 0.984375 -0.265625 C 0.984375 -0.234375 0.96875 -0.203125 0.96875 -0.15625 C 0.96875 -0.046875 1.046875 0.0625 1.21875 0.0625 C 1.484375 0.0625 1.5625 -0.25 1.734375 -0.875 Z M 2.171875 -2.53125" style="stroke:none;stroke-width:0"></path></g><path id="path951" transform="matrix(1,0,0,-1,328.185,312.245)" d="M -0.00140625 -0.00109375 L 4.90875 -0.00109375" style="fill:none;stroke-width:0.398;stroke-linecap:butt;stroke-linejoin:miter;stroke:rgb(0%,0%,0%);stroke-opacity:1;stroke-miterlimit:10;"></path><g id="g955" style="fill:rgb(0%,0%,0%);fill-opacity:1;"><path id="path953" transform="translate(328.654,318.171)" d="M 3.515625 -1.265625 L 3.28125 -1.265625 C 3.265625 -1.109375 3.1875 -0.703125 3.09375 -0.640625 C 3.046875 -0.59375 2.515625 -0.59375 2.40625 -0.59375 L 1.125 -0.59375 C 1.859375 -1.234375 2.109375 -1.4375 2.515625 -1.765625 C 3.03125 -2.171875 3.515625 -2.609375 3.515625 -3.265625 C 3.515625 -4.109375 2.78125 -4.625 1.890625 -4.625 C 1.03125 -4.625 0.4375 -4.015625 0.4375 -3.375 C 0.4375 -3.03125 0.734375 -2.984375 0.8125 -2.984375 C 0.96875 -2.984375 1.171875 -3.109375 1.171875 -3.359375 C 1.171875 -3.484375 1.125 -3.734375 0.765625 -3.734375 C 0.984375 -4.21875 1.453125 -4.375 1.78125 -4.375 C 2.484375 -4.375 2.84375 -3.828125 2.84375 -3.265625 C 2.84375 -2.65625 2.40625 -2.1875 2.1875 -1.9375 L 0.515625 -0.265625 C 0.4375 -0.203125 0.4375 -0.1875 0.4375 0 L 3.3125 0 Z M 3.515625 -1.265625" style="stroke:none;stroke-width:0"></path></g><g id="g959" style="fill:rgb(0%,0%,0%);fill-opacity:1;"><path id="path957" transform="translate(360.74,312.1)" d="M 2.640625 -3.71875 L 3.765625 -3.71875 C 3.4375 -2.25 3.34375 -1.8125 3.34375 -1.140625 C 3.34375 -1 3.34375 -0.734375 3.421875 -0.390625 C 3.53125 0.046875 3.640625 0.109375 3.78125 0.109375 C 3.984375 0.109375 4.203125 -0.0625 4.203125 -0.265625 C 4.203125 -0.328125 4.203125 -0.34375 4.140625 -0.484375 C 3.84375 -1.203125 3.84375 -1.859375 3.84375 -2.140625 C 3.84375 -2.65625 3.921875 -3.203125 4.03125 -3.71875 L 5.15625 -3.71875 C 5.296875 -3.71875 5.65625 -3.71875 5.65625 -4.0625 C 5.65625 -4.296875 5.4375 -4.296875 5.25 -4.296875 L 1.90625 -4.296875 C 1.6875 -4.296875 1.3125 -4.296875 0.875 -3.828125 C 0.53125 -3.4375 0.265625 -2.984375 0.265625 -2.9375 C 0.265625 -2.921875 0.265625 -2.828125 0.390625 -2.828125 C 0.46875 -2.828125 0.484375 -2.875 0.546875 -2.953125 C 1.03125 -3.71875 1.609375 -3.71875 1.8125 -3.71875 L 2.375 -3.71875 C 2.0625 -2.515625 1.53125 -1.3125 1.109375 -0.40625 C 1.03125 -0.25 1.03125 -0.234375 1.03125 -0.15625 C 1.03125 0.03125 1.1875 0.109375 1.3125 0.109375 C 1.609375 0.109375 1.6875 -0.171875 1.8125 -0.53125 C 1.953125 -1 1.953125 -1.015625 2.078125 -1.515625 Z M 2.640625 -3.71875" style="stroke:none;stroke-width:0"></path></g><g id="g963" style="fill:rgb(0%,0%,0%);fill-opacity:1;"><path id="path961" transform="translate(392.436,312.304)" d="M 1.90625 -2.328125 C 2.453125 -2.328125 2.84375 -1.953125 2.84375 -1.203125 C 2.84375 -0.34375 2.328125 -0.078125 1.9375 -0.078125 C 1.65625 -0.078125 1.03125 -0.15625 0.75 -0.578125 C 1.078125 -0.578125 1.15625 -0.8125 1.15625 -0.96875 C 1.15625 -1.1875 0.984375 -1.34375 0.765625 -1.34375 C 0.578125 -1.34375 0.375 -1.21875 0.375 -0.9375 C 0.375 -0.28125 1.09375 0.140625 1.9375 0.140625 C 2.90625 0.140625 3.578125 -0.515625 3.578125 -1.203125 C 3.578125 -1.75 3.140625 -2.296875 2.375 -2.453125 C 3.09375 -2.71875 3.359375 -3.234375 3.359375 -3.671875 C 3.359375 -4.21875 2.734375 -4.625 1.953125 -4.625 C 1.1875 -4.625 0.59375 -4.25 0.59375 -3.6875 C 0.59375 -3.453125 0.75 -3.328125 0.953125 -3.328125 C 1.171875 -3.328125 1.3125 -3.484375 1.3125 -3.671875 C 1.3125 -3.875 1.171875 -4.03125 0.953125 -4.046875 C 1.203125 -4.34375 1.671875 -4.421875 1.9375 -4.421875 C 2.25 -4.421875 2.6875 -4.265625 2.6875 -3.671875 C 2.6875 -3.375 2.59375 -3.046875 2.40625 -2.84375 C 2.1875 -2.578125 1.984375 -2.5625 1.640625 -2.53125 C 1.46875 -2.515625 1.453125 -2.515625 1.421875 -2.515625 C 1.40625 -2.515625 1.34375 -2.5 1.34375 -2.421875 C 1.34375 -2.328125 1.40625 -2.328125 1.53125 -2.328125 Z M 1.90625 -2.328125" style="stroke:none;stroke-width:0"></path></g><g id="g967" style="fill:rgb(0%,0%,0%);fill-opacity:1;"><path id="path965" transform="translate(396.407,312.304)" d="M 2.171875 -2.53125 L 3 -2.53125 C 2.890625 -2.109375 2.734375 -1.484375 2.734375 -0.921875 C 2.734375 -0.640625 2.78125 -0.453125 2.8125 -0.3125 C 2.921875 0.046875 3.015625 0.0625 3.125 0.0625 C 3.296875 0.0625 3.453125 -0.078125 3.453125 -0.25 C 3.453125 -0.296875 3.4375 -0.328125 3.40625 -0.390625 C 3.265625 -0.65625 3.140625 -1.046875 3.140625 -1.625 C 3.140625 -1.75 3.140625 -2.03125 3.234375 -2.53125 L 4.109375 -2.53125 C 4.234375 -2.53125 4.296875 -2.53125 4.375 -2.578125 C 4.46875 -2.65625 4.484375 -2.765625 4.484375 -2.796875 C 4.484375 -3 4.3125 -3 4.1875 -3 L 1.5625 -3 C 1.28125 -3 1.078125 -2.9375 0.765625 -2.640625 C 0.578125 -2.484375 0.3125 -2.109375 0.3125 -2.046875 C 0.3125 -1.96875 0.40625 -1.96875 0.4375 -1.96875 C 0.515625 -1.96875 0.515625 -1.984375 0.5625 -2.046875 C 0.90625 -2.53125 1.34375 -2.53125 1.5 -2.53125 L 1.921875 -2.53125 C 1.703125 -1.765625 1.328125 -0.9375 1.125 -0.515625 C 1.078125 -0.4375 1.015625 -0.28125 0.984375 -0.265625 C 0.984375 -0.234375 0.96875 -0.203125 0.96875 -0.15625 C 0.96875 -0.046875 1.046875 0.0625 1.21875 0.0625 C 1.484375 0.0625 1.5625 -0.25 1.734375 -0.875 Z M 2.171875 -2.53125" style="stroke:none;stroke-width:0"></path></g><path id="path969" transform="matrix(1,0,0,-1,392.436,313.736)" d="M 0.0015 0.001625 L 8.880406 0.001625" style="fill:none;stroke-width:0.398;stroke-linecap:butt;stroke-linejoin:miter;stroke:rgb(0%,0%,0%);stroke-opacity:1;stroke-miterlimit:10;"></path><g id="g973" style="fill:rgb(0%,0%,0%);fill-opacity:1;"><path id="path971" transform="translate(394.891,319.663)" d="M 3.515625 -1.265625 L 3.28125 -1.265625 C 3.265625 -1.109375 3.1875 -0.703125 3.09375 -0.640625 C 3.046875 -0.59375 2.515625 -0.59375 2.40625 -0.59375 L 1.125 -0.59375 C 1.859375 -1.234375 2.109375 -1.4375 2.515625 -1.765625 C 3.03125 -2.171875 3.515625 -2.609375 3.515625 -3.265625 C 3.515625 -4.109375 2.78125 -4.625 1.890625 -4.625 C 1.03125 -4.625 0.4375 -4.015625 0.4375 -3.375 C 0.4375 -3.03125 0.734375 -2.984375 0.8125 -2.984375 C 0.96875 -2.984375 1.171875 -3.109375 1.171875 -3.359375 C 1.171875 -3.484375 1.125 -3.734375 0.765625 -3.734375 C 0.984375 -4.21875 1.453125 -4.375 1.78125 -4.375 C 2.484375 -4.375 2.84375 -3.828125 2.84375 -3.265625 C 2.84375 -2.65625 2.40625 -2.1875 2.1875 -1.9375 L 0.515625 -0.265625 C 0.4375 -0.203125 0.4375 -0.1875 0.4375 0 L 3.3125 0 Z M 3.515625 -1.265625" style="stroke:none;stroke-width:0"></path></g><g id="g977" style="fill:rgb(0%,0%,0%);fill-opacity:1;"><path id="path975" transform="translate(424.486,314.23)" d="M 1.265625 -0.765625 L 2.328125 -1.796875 C 3.875 -3.171875 4.46875 -3.703125 4.46875 -4.703125 C 4.46875 -5.84375 3.578125 -6.640625 2.359375 -6.640625 C 1.234375 -6.640625 0.5 -5.71875 0.5 -4.828125 C 0.5 -4.28125 1 -4.28125 1.03125 -4.28125 C 1.203125 -4.28125 1.546875 -4.390625 1.546875 -4.8125 C 1.546875 -5.0625 1.359375 -5.328125 1.015625 -5.328125 C 0.9375 -5.328125 0.921875 -5.328125 0.890625 -5.3125 C 1.109375 -5.96875 1.65625 -6.328125 2.234375 -6.328125 C 3.140625 -6.328125 3.5625 -5.515625 3.5625 -4.703125 C 3.5625 -3.90625 3.078125 -3.125 2.515625 -2.5 L 0.609375 -0.375 C 0.5 -0.265625 0.5 -0.234375 0.5 0 L 4.203125 0 L 4.46875 -1.734375 L 4.234375 -1.734375 C 4.171875 -1.4375 4.109375 -1 4 -0.84375 C 3.9375 -0.765625 3.28125 -0.765625 3.0625 -0.765625 Z M 1.265625 -0.765625" style="stroke:none;stroke-width:0"></path></g><g id="g981" style="fill:rgb(0%,0%,0%);fill-opacity:1;"><path id="path979" transform="translate(429.467,314.23)" d="M 2.640625 -3.71875 L 3.765625 -3.71875 C 3.4375 -2.25 3.34375 -1.8125 3.34375 -1.140625 C 3.34375 -1 3.34375 -0.734375 3.421875 -0.390625 C 3.53125 0.046875 3.640625 0.109375 3.78125 0.109375 C 3.984375 0.109375 4.203125 -0.0625 4.203125 -0.265625 C 4.203125 -0.328125 4.203125 -0.34375 4.140625 -0.484375 C 3.84375 -1.203125 3.84375 -1.859375 3.84375 -2.140625 C 3.84375 -2.65625 3.921875 -3.203125 4.03125 -3.71875 L 5.15625 -3.71875 C 5.296875 -3.71875 5.65625 -3.71875 5.65625 -4.0625 C 5.65625 -4.296875 5.4375 -4.296875 5.25 -4.296875 L 1.90625 -4.296875 C 1.6875 -4.296875 1.3125 -4.296875 0.875 -3.828125 C 0.53125 -3.4375 0.265625 -2.984375 0.265625 -2.9375 C 0.265625 -2.921875 0.265625 -2.828125 0.390625 -2.828125 C 0.46875 -2.828125 0.484375 -2.875 0.546875 -2.953125 C 1.03125 -3.71875 1.609375 -3.71875 1.8125 -3.71875 L 2.375 -3.71875 C 2.0625 -2.515625 1.53125 -1.3125 1.109375 -0.40625 C 1.03125 -0.25 1.03125 -0.234375 1.03125 -0.15625 C 1.03125 0.03125 1.1875 0.109375 1.3125 0.109375 C 1.609375 0.109375 1.6875 -0.171875 1.8125 -0.53125 C 1.953125 -1 1.953125 -1.015625 2.078125 -1.515625 Z M 2.640625 -3.71875" style="stroke:none;stroke-width:0"></path></g><g id="g985" style="fill:rgb(0%,0%,0%);fill-opacity:1;"><path id="path983" transform="translate(458.673,312.304)" d="M 1.078125 -3.890625 C 1.4375 -3.796875 1.640625 -3.796875 1.75 -3.796875 C 2.671875 -3.796875 3.21875 -4.421875 3.21875 -4.53125 C 3.21875 -4.609375 3.171875 -4.625 3.140625 -4.625 C 3.125 -4.625 3.109375 -4.625 3.078125 -4.609375 C 2.90625 -4.546875 2.546875 -4.40625 2.03125 -4.40625 C 1.828125 -4.40625 1.46875 -4.421875 1.015625 -4.59375 C 0.9375 -4.625 0.921875 -4.625 0.921875 -4.625 C 0.828125 -4.625 0.828125 -4.546875 0.828125 -4.4375 L 0.828125 -2.390625 C 0.828125 -2.265625 0.828125 -2.1875 0.9375 -2.1875 C 1 -2.1875 1.015625 -2.1875 1.078125 -2.28125 C 1.375 -2.65625 1.8125 -2.71875 2.046875 -2.71875 C 2.46875 -2.71875 2.65625 -2.390625 2.6875 -2.328125 C 2.8125 -2.09375 2.859375 -1.828125 2.859375 -1.421875 C 2.859375 -1.21875 2.859375 -0.8125 2.640625 -0.5 C 2.46875 -0.25 2.171875 -0.078125 1.828125 -0.078125 C 1.375 -0.078125 0.90625 -0.328125 0.734375 -0.796875 C 1 -0.78125 1.140625 -0.953125 1.140625 -1.140625 C 1.140625 -1.4375 0.875 -1.484375 0.78125 -1.484375 C 0.78125 -1.484375 0.4375 -1.484375 0.4375 -1.109375 C 0.4375 -0.484375 1.015625 0.140625 1.84375 0.140625 C 2.734375 0.140625 3.515625 -0.515625 3.515625 -1.40625 C 3.515625 -2.1875 2.921875 -2.90625 2.0625 -2.90625 C 1.75 -2.90625 1.390625 -2.84375 1.078125 -2.578125 Z M 1.078125 -3.890625" style="stroke:none;stroke-width:0"></path></g><g id="g989" style="fill:rgb(0%,0%,0%);fill-opacity:1;"><path id="path987" transform="translate(462.644,312.304)" d="M 2.171875 -2.53125 L 3 -2.53125 C 2.890625 -2.109375 2.734375 -1.484375 2.734375 -0.921875 C 2.734375 -0.640625 2.78125 -0.453125 2.8125 -0.3125 C 2.921875 0.046875 3.015625 0.0625 3.125 0.0625 C 3.296875 0.0625 3.453125 -0.078125 3.453125 -0.25 C 3.453125 -0.296875 3.4375 -0.328125 3.40625 -0.390625 C 3.265625 -0.65625 3.140625 -1.046875 3.140625 -1.625 C 3.140625 -1.75 3.140625 -2.03125 3.234375 -2.53125 L 4.109375 -2.53125 C 4.234375 -2.53125 4.296875 -2.53125 4.375 -2.578125 C 4.46875 -2.65625 4.484375 -2.765625 4.484375 -2.796875 C 4.484375 -3 4.3125 -3 4.1875 -3 L 1.5625 -3 C 1.28125 -3 1.078125 -2.9375 0.765625 -2.640625 C 0.578125 -2.484375 0.3125 -2.109375 0.3125 -2.046875 C 0.3125 -1.96875 0.40625 -1.96875 0.4375 -1.96875 C 0.515625 -1.96875 0.515625 -1.984375 0.5625 -2.046875 C 0.90625 -2.53125 1.34375 -2.53125 1.5 -2.53125 L 1.921875 -2.53125 C 1.703125 -1.765625 1.328125 -0.9375 1.125 -0.515625 C 1.078125 -0.4375 1.015625 -0.28125 0.984375 -0.265625 C 0.984375 -0.234375 0.96875 -0.203125 0.96875 -0.15625 C 0.96875 -0.046875 1.046875 0.0625 1.21875 0.0625 C 1.484375 0.0625 1.5625 -0.25 1.734375 -0.875 Z M 2.171875 -2.53125" style="stroke:none;stroke-width:0"></path></g><path id="path991" transform="matrix(1,0,0,-1,458.673,313.736)" d="M -0.001125 0.001625 L 8.881687 0.001625" style="fill:none;stroke-width:0.398;stroke-linecap:butt;stroke-linejoin:miter;stroke:rgb(0%,0%,0%);stroke-opacity:1;stroke-miterlimit:10;"></path><g id="g995" style="fill:rgb(0%,0%,0%);fill-opacity:1;"><path id="path993" transform="translate(461.128,319.662)" d="M 3.515625 -1.265625 L 3.28125 -1.265625 C 3.265625 -1.109375 3.1875 -0.703125 3.09375 -0.640625 C 3.046875 -0.59375 2.515625 -0.59375 2.40625 -0.59375 L 1.125 -0.59375 C 1.859375 -1.234375 2.109375 -1.4375 2.515625 -1.765625 C 3.03125 -2.171875 3.515625 -2.609375 3.515625 -3.265625 C 3.515625 -4.109375 2.78125 -4.625 1.890625 -4.625 C 1.03125 -4.625 0.4375 -4.015625 0.4375 -3.375 C 0.4375 -3.03125 0.734375 -2.984375 0.8125 -2.984375 C 0.96875 -2.984375 1.171875 -3.109375 1.171875 -3.359375 C 1.171875 -3.484375 1.125 -3.734375 0.765625 -3.734375 C 0.984375 -4.21875 1.453125 -4.375 1.78125 -4.375 C 2.484375 -4.375 2.84375 -3.828125 2.84375 -3.265625 C 2.84375 -2.65625 2.40625 -2.1875 2.1875 -1.9375 L 0.515625 -0.265625 C 0.4375 -0.203125 0.4375 -0.1875 0.4375 0 L 3.3125 0 Z M 3.515625 -1.265625" style="stroke:none;stroke-width:0"></path></g><g id="g999" style="fill:rgb(0%,0%,0%);fill-opacity:1;"><path id="path997" transform="translate(490.723,314.23)" d="M 2.890625 -3.515625 C 3.703125 -3.78125 4.28125 -4.46875 4.28125 -5.265625 C 4.28125 -6.078125 3.40625 -6.640625 2.453125 -6.640625 C 1.453125 -6.640625 0.6875 -6.046875 0.6875 -5.28125 C 0.6875 -4.953125 0.90625 -4.765625 1.203125 -4.765625 C 1.5 -4.765625 1.703125 -4.984375 1.703125 -5.28125 C 1.703125 -5.765625 1.234375 -5.765625 1.09375 -5.765625 C 1.390625 -6.265625 2.046875 -6.390625 2.40625 -6.390625 C 2.828125 -6.390625 3.375 -6.171875 3.375 -5.28125 C 3.375 -5.15625 3.34375 -4.578125 3.09375 -4.140625 C 2.796875 -3.65625 2.453125 -3.625 2.203125 -3.625 C 2.125 -3.609375 1.890625 -3.59375 1.8125 -3.59375 C 1.734375 -3.578125 1.671875 -3.5625 1.671875 -3.46875 C 1.671875 -3.359375 1.734375 -3.359375 1.90625 -3.359375 L 2.34375 -3.359375 C 3.15625 -3.359375 3.53125 -2.6875 3.53125 -1.703125 C 3.53125 -0.34375 2.84375 -0.0625 2.40625 -0.0625 C 1.96875 -0.0625 1.21875 -0.234375 0.875 -0.8125 C 1.21875 -0.765625 1.53125 -0.984375 1.53125 -1.359375 C 1.53125 -1.71875 1.265625 -1.921875 0.984375 -1.921875 C 0.734375 -1.921875 0.421875 -1.78125 0.421875 -1.34375 C 0.421875 -0.4375 1.34375 0.21875 2.4375 0.21875 C 3.65625 0.21875 4.5625 -0.6875 4.5625 -1.703125 C 4.5625 -2.515625 3.921875 -3.296875 2.890625 -3.515625 Z M 2.890625 -3.515625" style="stroke:none;stroke-width:0"></path></g><g id="g1003" style="fill:rgb(0%,0%,0%);fill-opacity:1;"><path id="path1001" transform="translate(495.704,314.23)" d="M 2.640625 -3.71875 L 3.765625 -3.71875 C 3.4375 -2.25 3.34375 -1.8125 3.34375 -1.140625 C 3.34375 -1 3.34375 -0.734375 3.421875 -0.390625 C 3.53125 0.046875 3.640625 0.109375 3.78125 0.109375 C 3.984375 0.109375 4.203125 -0.0625 4.203125 -0.265625 C 4.203125 -0.328125 4.203125 -0.34375 4.140625 -0.484375 C 3.84375 -1.203125 3.84375 -1.859375 3.84375 -2.140625 C 3.84375 -2.65625 3.921875 -3.203125 4.03125 -3.71875 L 5.15625 -3.71875 C 5.296875 -3.71875 5.65625 -3.71875 5.65625 -4.0625 C 5.65625 -4.296875 5.4375 -4.296875 5.25 -4.296875 L 1.90625 -4.296875 C 1.6875 -4.296875 1.3125 -4.296875 0.875 -3.828125 C 0.53125 -3.4375 0.265625 -2.984375 0.265625 -2.9375 C 0.265625 -2.921875 0.265625 -2.828125 0.390625 -2.828125 C 0.46875 -2.828125 0.484375 -2.875 0.546875 -2.953125 C 1.03125 -3.71875 1.609375 -3.71875 1.8125 -3.71875 L 2.375 -3.71875 C 2.0625 -2.515625 1.53125 -1.3125 1.109375 -0.40625 C 1.03125 -0.25 1.03125 -0.234375 1.03125 -0.15625 C 1.03125 0.03125 1.1875 0.109375 1.3125 0.109375 C 1.609375 0.109375 1.6875 -0.171875 1.8125 -0.53125 C 1.953125 -1 1.953125 -1.015625 2.078125 -1.515625 Z M 2.640625 -3.71875" style="stroke:none;stroke-width:0"></path></g><g id="g1007" style="fill:rgb(0%,0%,0%);fill-opacity:1;"><path id="path1005" transform="translate(279.146,356.942)" d="M 6.5625 -2.296875 C 6.734375 -2.296875 6.921875 -2.296875 6.921875 -2.5 C 6.921875 -2.6875 6.734375 -2.6875 6.5625 -2.6875 L 1.171875 -2.6875 C 1 -2.6875 0.828125 -2.6875 0.828125 -2.5 C 0.828125 -2.296875 1 -2.296875 1.171875 -2.296875 Z M 6.5625 -2.296875" style="stroke:none;stroke-width:0"></path></g><g id="g1011" style="fill:rgb(0%,0%,0%);fill-opacity:1;"><path id="path1009" transform="translate(286.895,356.942)" d="M 2.9375 -6.375 C 2.9375 -6.625 2.9375 -6.640625 2.703125 -6.640625 C 2.078125 -6 1.203125 -6 0.890625 -6 L 0.890625 -5.6875 C 1.09375 -5.6875 1.671875 -5.6875 2.1875 -5.953125 L 2.1875 -0.78125 C 2.1875 -0.421875 2.15625 -0.3125 1.265625 -0.3125 L 0.953125 -0.3125 L 0.953125 0 C 1.296875 -0.03125 2.15625 -0.03125 2.5625 -0.03125 C 2.953125 -0.03125 3.828125 -0.03125 4.171875 0 L 4.171875 -0.3125 L 3.859375 -0.3125 C 2.953125 -0.3125 2.9375 -0.421875 2.9375 -0.78125 Z M 2.9375 -6.375" style="stroke:none;stroke-width:0"></path></g><g id="g1015" style="fill:rgb(0%,0%,0%);fill-opacity:1;"><path id="path1013" transform="translate(271.397,330.951)" d="M 6.5625 -2.296875 C 6.734375 -2.296875 6.921875 -2.296875 6.921875 -2.5 C 6.921875 -2.6875 6.734375 -2.6875 6.5625 -2.6875 L 1.171875 -2.6875 C 1 -2.6875 0.828125 -2.6875 0.828125 -2.5 C 0.828125 -2.296875 1 -2.296875 1.171875 -2.296875 Z M 6.5625 -2.296875" style="stroke:none;stroke-width:0"></path></g><g id="g1019" style="fill:rgb(0%,0%,0%);fill-opacity:1;"><path id="path1017" transform="translate(279.146,330.951)" d="M 4.578125 -3.1875 C 4.578125 -3.984375 4.53125 -4.78125 4.1875 -5.515625 C 3.734375 -6.484375 2.90625 -6.640625 2.5 -6.640625 C 1.890625 -6.640625 1.171875 -6.375 0.75 -5.453125 C 0.4375 -4.765625 0.390625 -3.984375 0.390625 -3.1875 C 0.390625 -2.4375 0.421875 -1.546875 0.84375 -0.78125 C 1.265625 0.015625 2 0.21875 2.484375 0.21875 C 3.015625 0.21875 3.78125 0.015625 4.21875 -0.9375 C 4.53125 -1.625 4.578125 -2.40625 4.578125 -3.1875 Z M 2.484375 0 C 2.09375 0 1.5 -0.25 1.328125 -1.203125 C 1.21875 -1.796875 1.21875 -2.71875 1.21875 -3.3125 C 1.21875 -3.953125 1.21875 -4.609375 1.296875 -5.140625 C 1.484375 -6.328125 2.234375 -6.421875 2.484375 -6.421875 C 2.8125 -6.421875 3.46875 -6.234375 3.65625 -5.25 C 3.765625 -4.6875 3.765625 -3.9375 3.765625 -3.3125 C 3.765625 -2.5625 3.765625 -1.890625 3.65625 -1.25 C 3.5 -0.296875 2.9375 0 2.484375 0 Z M 2.484375 0" style="stroke:none;stroke-width:0"></path></g><g id="g1023" style="fill:rgb(0%,0%,0%);fill-opacity:1;"><path id="path1021" transform="translate(284.127,330.951)" d="M 1.90625 -0.53125 C 1.90625 -0.8125 1.671875 -1.0625 1.390625 -1.0625 C 1.09375 -1.0625 0.859375 -0.8125 0.859375 -0.53125 C 0.859375 -0.234375 1.09375 0 1.390625 0 C 1.671875 0 1.90625 -0.234375 1.90625 -0.53125 Z M 1.90625 -0.53125" style="stroke:none;stroke-width:0"></path></g><g id="g1027" style="fill:rgb(0%,0%,0%);fill-opacity:1;"><path id="path1025" transform="translate(286.895,330.951)" d="M 4.46875 -2 C 4.46875 -3.1875 3.65625 -4.1875 2.578125 -4.1875 C 2.109375 -4.1875 1.671875 -4.03125 1.3125 -3.671875 L 1.3125 -5.625 C 1.515625 -5.5625 1.84375 -5.5 2.15625 -5.5 C 3.390625 -5.5 4.09375 -6.40625 4.09375 -6.53125 C 4.09375 -6.59375 4.0625 -6.640625 3.984375 -6.640625 C 3.984375 -6.640625 3.953125 -6.640625 3.90625 -6.609375 C 3.703125 -6.515625 3.21875 -6.3125 2.546875 -6.3125 C 2.15625 -6.3125 1.6875 -6.390625 1.21875 -6.59375 C 1.140625 -6.625 1.125 -6.625 1.109375 -6.625 C 1 -6.625 1 -6.546875 1 -6.390625 L 1 -3.4375 C 1 -3.265625 1 -3.1875 1.140625 -3.1875 C 1.21875 -3.1875 1.234375 -3.203125 1.28125 -3.265625 C 1.390625 -3.421875 1.75 -3.96875 2.5625 -3.96875 C 3.078125 -3.96875 3.328125 -3.515625 3.40625 -3.328125 C 3.5625 -2.953125 3.59375 -2.578125 3.59375 -2.078125 C 3.59375 -1.71875 3.59375 -1.125 3.34375 -0.703125 C 3.109375 -0.3125 2.734375 -0.0625 2.28125 -0.0625 C 1.5625 -0.0625 0.984375 -0.59375 0.8125 -1.171875 C 0.84375 -1.171875 0.875 -1.15625 0.984375 -1.15625 C 1.3125 -1.15625 1.484375 -1.40625 1.484375 -1.640625 C 1.484375 -1.890625 1.3125 -2.140625 0.984375 -2.140625 C 0.84375 -2.140625 0.5 -2.0625 0.5 -1.609375 C 0.5 -0.75 1.1875 0.21875 2.296875 0.21875 C 3.453125 0.21875 4.46875 -0.734375 4.46875 -2 Z M 4.46875 -2" style="stroke:none;stroke-width:0"></path></g><g id="g1031" style="fill:rgb(0%,0%,0%);fill-opacity:1;"><path id="path1029" transform="translate(279.146,279.383)" d="M 4.578125 -3.1875 C 4.578125 -3.984375 4.53125 -4.78125 4.1875 -5.515625 C 3.734375 -6.484375 2.90625 -6.640625 2.5 -6.640625 C 1.890625 -6.640625 1.171875 -6.375 0.75 -5.453125 C 0.4375 -4.765625 0.390625 -3.984375 0.390625 -3.1875 C 0.390625 -2.4375 0.421875 -1.546875 0.84375 -0.78125 C 1.265625 0.015625 2 0.21875 2.484375 0.21875 C 3.015625 0.21875 3.78125 0.015625 4.21875 -0.9375 C 4.53125 -1.625 4.578125 -2.40625 4.578125 -3.1875 Z M 2.484375 0 C 2.09375 0 1.5 -0.25 1.328125 -1.203125 C 1.21875 -1.796875 1.21875 -2.71875 1.21875 -3.3125 C 1.21875 -3.953125 1.21875 -4.609375 1.296875 -5.140625 C 1.484375 -6.328125 2.234375 -6.421875 2.484375 -6.421875 C 2.8125 -6.421875 3.46875 -6.234375 3.65625 -5.25 C 3.765625 -4.6875 3.765625 -3.9375 3.765625 -3.3125 C 3.765625 -2.5625 3.765625 -1.890625 3.65625 -1.25 C 3.5 -0.296875 2.9375 0 2.484375 0 Z M 2.484375 0" style="stroke:none;stroke-width:0"></path></g><g id="g1035" style="fill:rgb(0%,0%,0%);fill-opacity:1;"><path id="path1033" transform="translate(284.127,279.383)" d="M 1.90625 -0.53125 C 1.90625 -0.8125 1.671875 -1.0625 1.390625 -1.0625 C 1.09375 -1.0625 0.859375 -0.8125 0.859375 -0.53125 C 0.859375 -0.234375 1.09375 0 1.390625 0 C 1.671875 0 1.90625 -0.234375 1.90625 -0.53125 Z M 1.90625 -0.53125" style="stroke:none;stroke-width:0"></path></g><g id="g1039" style="fill:rgb(0%,0%,0%);fill-opacity:1;"><path id="path1037" transform="translate(286.895,279.383)" d="M 4.46875 -2 C 4.46875 -3.1875 3.65625 -4.1875 2.578125 -4.1875 C 2.109375 -4.1875 1.671875 -4.03125 1.3125 -3.671875 L 1.3125 -5.625 C 1.515625 -5.5625 1.84375 -5.5 2.15625 -5.5 C 3.390625 -5.5 4.09375 -6.40625 4.09375 -6.53125 C 4.09375 -6.59375 4.0625 -6.640625 3.984375 -6.640625 C 3.984375 -6.640625 3.953125 -6.640625 3.90625 -6.609375 C 3.703125 -6.515625 3.21875 -6.3125 2.546875 -6.3125 C 2.15625 -6.3125 1.6875 -6.390625 1.21875 -6.59375 C 1.140625 -6.625 1.125 -6.625 1.109375 -6.625 C 1 -6.625 1 -6.546875 1 -6.390625 L 1 -3.4375 C 1 -3.265625 1 -3.1875 1.140625 -3.1875 C 1.21875 -3.1875 1.234375 -3.203125 1.28125 -3.265625 C 1.390625 -3.421875 1.75 -3.96875 2.5625 -3.96875 C 3.078125 -3.96875 3.328125 -3.515625 3.40625 -3.328125 C 3.5625 -2.953125 3.59375 -2.578125 3.59375 -2.078125 C 3.59375 -1.71875 3.59375 -1.125 3.34375 -0.703125 C 3.109375 -0.3125 2.734375 -0.0625 2.28125 -0.0625 C 1.5625 -0.0625 0.984375 -0.59375 0.8125 -1.171875 C 0.84375 -1.171875 0.875 -1.15625 0.984375 -1.15625 C 1.3125 -1.15625 1.484375 -1.40625 1.484375 -1.640625 C 1.484375 -1.890625 1.3125 -2.140625 0.984375 -2.140625 C 0.84375 -2.140625 0.5 -2.0625 0.5 -1.609375 C 0.5 -0.75 1.1875 0.21875 2.296875 0.21875 C 3.453125 0.21875 4.46875 -0.734375 4.46875 -2 Z M 4.46875 -2" style="stroke:none;stroke-width:0"></path></g><g id="g1043" style="fill:rgb(0%,0%,0%);fill-opacity:1;"><path id="path1041" transform="translate(286.895,253.392)" d="M 2.9375 -6.375 C 2.9375 -6.625 2.9375 -6.640625 2.703125 -6.640625 C 2.078125 -6 1.203125 -6 0.890625 -6 L 0.890625 -5.6875 C 1.09375 -5.6875 1.671875 -5.6875 2.1875 -5.953125 L 2.1875 -0.78125 C 2.1875 -0.421875 2.15625 -0.3125 1.265625 -0.3125 L 0.953125 -0.3125 L 0.953125 0 C 1.296875 -0.03125 2.15625 -0.03125 2.5625 -0.03125 C 2.953125 -0.03125 3.828125 -0.03125 4.171875 0 L 4.171875 -0.3125 L 3.859375 -0.3125 C 2.953125 -0.3125 2.9375 -0.421875 2.9375 -0.78125 Z M 2.9375 -6.375" style="stroke:none;stroke-width:0"></path></g><g id="g1049" clip-rule="nonzero" clip-path="url('#clip1')"><path id="path1045" transform="matrix(1,0,0,-1,213.143,380.138)" d="M 0.00153125 117.313781 L 0.985906 115.680969 L 1.974188 113.966125 L 2.962469 112.16925 L 3.95075 110.298156 L 4.939031 108.35675 L 5.927313 106.352844 L 6.915594 104.282531 L 7.899969 102.153625 L 8.88825 99.973937 L 9.876531 97.747375 L 10.864813 95.473937 L 11.853094 93.165344 L 12.841375 90.821594 L 13.829656 88.446594 L 14.814031 86.055969 L 15.802313 83.641906 L 16.790594 81.216125 L 17.778875 78.786437 L 18.767156 76.352844 L 19.755438 73.923156 L 20.743719 71.501281 L 21.728094 69.095031 L 22.716375 66.704406 L 23.704656 64.345031 L 24.692938 62.009094 L 25.681219 59.712219 L 26.6695 57.454406 L 27.657781 55.239562 L 28.642156 53.079406 L 29.630438 50.970031 L 30.618719 48.91925 L 31.607 46.934875 L 32.595281 45.016906 L 33.583563 43.173156 L 34.571844 41.403625 L 35.556219 39.716125 L 36.5445 38.110656 L 37.532781 36.591125 L 38.521063 35.165344 L 39.509344 33.829406 L 40.497625 32.595031 L 41.485906 31.458312 L 42.470281 30.423156 L 43.458563 29.493469 L 44.446844 28.66925 L 45.435125 27.9505 L 46.423406 27.345031 L 47.411688 26.848937 L 48.399969 26.466125 L 49.384344 26.192687 L 50.372625 26.036437 L 51.360906 25.993469 L 52.349188 26.063781 L 53.337469 26.251281 L 54.32575 26.548156 L 55.314031 26.958312 L 56.298406 27.48175 L 57.286688 28.114562 L 58.274969 28.852844 L 59.26325 29.704406 L 60.251531 30.661437 L 61.239813 31.720031 L 62.228094 32.880187 L 63.212469 34.141906 L 64.20075 35.497375 L 65.189031 36.946594 L 66.177313 38.485656 L 67.165594 40.110656 L 68.153875 41.817687 L 69.142156 43.60675 L 70.126531 45.470031 L 71.114813 47.403625 L 72.103094 49.403625 L 73.091375 51.470031 L 74.079656 53.591125 L 75.067938 55.766906 L 76.056219 57.989562 L 77.040594 60.259094 L 78.028875 62.563781 L 79.017156 64.907531 L 80.005438 67.274719 L 80.993719 69.66925 L 81.982 72.079406 L 82.970281 74.501281 L 83.954656 76.934875 L 84.942938 79.364562 L 85.931219 81.798156 L 86.9195 84.220031 L 87.907781 86.626281 L 88.896063 89.016906 L 89.884344 91.384094 L 90.868719 93.720031 L 91.857 96.020812 L 92.845281 98.282531 L 93.833563 100.497375 L 94.821844 102.665344 L 95.810125 104.782531 L 96.798406 106.837219 L 97.786688 108.829406 L 98.771063 110.751281 L 99.759344 112.60675 L 100.747625 114.380187 L 101.735906 116.079406 L 102.724188 117.692687 L 103.712469 119.216125 L 104.70075 120.653625 L 105.685125 121.997375 L 106.673406 123.239562 L 107.661688 124.388 L 108.649969 125.434875 L 109.63825 126.372375 L 110.626531 127.208312 L 111.614813 127.934875 L 112.599188 128.552062 L 113.587469 129.055969 L 114.57575 129.454406 L 115.564031 129.73175 L 116.552313 129.899719 L 117.540594 129.958312 L 118.528875 129.895812 L 119.51325 129.720031 L 120.501531 129.434875 L 121.489813 129.036437 L 122.478094 128.524719 L 123.466375 127.899719 L 124.454656 127.16925 L 125.442938 126.329406 L 126.427313 125.384094 L 127.415594 124.333312 L 128.403875 123.180969 L 129.392156 121.930969 L 130.380438 120.587219 L 131.368719 119.145812 L 132.357 117.614562 L 133.341375 115.997375 L 134.329656 114.298156 L 135.317938 112.516906 L 136.306219 110.661437 L 137.2945 108.73175 L 138.282781 106.735656 L 139.271063 104.680969 L 140.255438 102.563781 L 141.243719 100.391906 L 142.232 98.173156 L 143.220281 95.907531 L 144.208563 93.60675 L 145.196844 91.266906 L 146.185125 88.899719 L 147.1695 86.509094 L 148.157781 84.102844 L 149.146063 81.680969 L 151.122625 76.813781 L 152.110906 74.384094 L 153.099188 71.962219 L 154.083563 69.552062 L 155.071844 67.157531 L 156.060125 64.790344 L 157.048406 62.4505 L 158.036688 60.145812 L 159.024969 57.880187 L 160.01325 55.657531 L 160.997625 53.485656 L 161.985906 51.368469 L 162.974188 49.305969 L 163.962469 47.305969 L 164.95075 45.376281 L 165.939031 43.516906 L 166.927313 41.73175 L 167.911688 40.028625 L 168.899969 38.407531 L 169.88825 36.872375 L 170.876531 35.427062 L 171.864813 34.079406 L 172.853094 32.821594 L 173.841375 31.665344 L 174.82575 30.610656 L 175.814031 29.661437 L 176.802313 28.813781 L 177.790594 28.079406 L 178.778875 27.4505 L 179.767156 26.934875 L 180.755438 26.532531 L 181.739813 26.239562 L 182.728094 26.059875 L 183.716375 25.993469 L 184.704656 26.04425 L 185.692938 26.208312 L 186.681219 26.48175 L 187.6695 26.872375 L 188.653875 27.372375 L 189.642156 27.98175 L 190.630438 28.704406 L 191.618719 29.536437 L 192.607 30.470031 L 193.595281 31.513 L 194.583563 32.653625 L 195.567938 33.891906 L 196.556219 35.23175 L 197.5445 36.661437 L 198.532781 38.184875 L 199.521063 39.79425 L 200.509344 41.489562 L 201.497625 43.259094 L 202.482 45.110656 L 203.470281 47.028625 L 204.458563 49.020812 L 205.446844 51.071594 L 206.435125 53.184875 L 207.423406 55.348937 L 208.411688 57.563781 L 209.396063 59.8255 L 210.384344 62.122375 L 211.372625 64.458312 L 212.360906 66.821594 L 213.349188 69.212219 L 214.337469 71.618469 L 215.32575 74.040344 L 216.310125 76.470031 L 217.298406 78.903625 L 218.286688 81.333312 L 219.274969 83.759094 L 220.26325 86.16925 L 221.251531 88.563781 L 222.239813 90.934875 L 223.224188 93.274719 L 224.212469 95.587219 L 225.20075 97.852844 L 226.189031 100.079406 L 227.177313 102.259094 L 228.165594 104.384094 L 229.153875 106.4505 L 230.13825 108.454406 L 231.126531 110.391906 L 232.114813 112.259094 L 233.103094 114.048156 L 234.091375 115.763 L 235.079656 117.391906 L 236.067938 118.934875 L 237.052313 120.388 L 238.040594 121.747375 L 239.028875 123.013 L 240.017156 124.177062 L 241.005438 125.239562 L 241.993719 126.204406 L 242.982 127.055969 L 243.966375 127.802062 L 244.954656 128.442687 L 245.942938 128.970031 L 246.931219 129.384094 L 247.9195 129.688781 L 248.907781 129.880187 L 249.896063 129.954406 L 250.880438 129.915344 L 251.868719 129.763 L 252.857 129.497375 L 253.845281 129.122375 L 254.833563 128.630187 L 255.821844 128.028625 L 256.810125 127.317687 L 257.7945 126.497375 L 258.782781 125.571594 L 259.771063 124.540344 L 260.759344 123.411437 L 261.747625 122.177062 L 262.735906 120.848937 L 263.724188 119.427062 L 264.708563 117.911437 L 265.696844 116.309875 L 266.685125 114.626281 L 267.673406 112.860656 L 268.661688 111.020812 L 269.649969 109.10675 L 270.63825 107.122375 L 271.622625 105.0755 L 272.610906 102.970031 L 273.599188 100.809875 L 274.587469 98.598937 L 275.57575 96.341125 L 276.564031 94.048156 L 277.552313 91.716125 L 278.536688 89.352844 L 279.524969 86.966125 L 280.51325 84.559875 L 281.501531 82.138 L 282.489813 79.712219 L 284.466375 74.845031 L 285.45075 72.41925 L 286.439031 70.009094 L 287.427313 67.610656 L 288.415594 65.239562 L 289.403875 62.895812 L 290.392156 60.583312 L 291.380438 58.309875 L 292.364813 56.079406 L 293.353094 53.895812 L 294.341375 51.763 L 295.329656 49.692687" style="fill:none;stroke-width:1.19553;stroke-linecap:butt;stroke-linejoin:miter;stroke:rgb(100%,0%,0%);stroke-opacity:1;stroke-miterlimit:10;"></path><path id="path1047" transform="matrix(1,0,0,-1,213.143,380.138)" d="M 0.00153125 43.997375 L 0.985906 42.192687 L 1.974188 40.466125 L 2.962469 38.8255 L 3.95075 37.266906 L 4.939031 35.798156 L 5.927313 34.423156 L 6.915594 33.141906 L 7.899969 31.962219 L 8.88825 30.876281 L 9.876531 29.899719 L 10.864813 29.028625 L 11.853094 28.263 L 12.841375 27.60675 L 13.829656 27.059875 L 14.814031 26.626281 L 15.802313 26.302062 L 16.790594 26.095031 L 17.778875 25.997375 L 18.767156 26.020812 L 19.755438 26.153625 L 20.743719 26.395812 L 21.728094 26.759094 L 22.716375 27.23175 L 23.704656 27.813781 L 24.692938 28.505187 L 25.681219 29.305969 L 26.6695 30.216125 L 27.657781 31.227844 L 28.642156 32.345031 L 29.630438 33.559875 L 30.618719 34.868469 L 31.607 36.278625 L 32.595281 37.778625 L 33.583563 39.364562 L 34.571844 41.036437 L 35.556219 42.786437 L 36.5445 44.618469 L 37.532781 46.520812 L 38.521063 48.489562 L 39.509344 50.524719 L 40.497625 52.622375 L 41.485906 54.774719 L 42.470281 56.977844 L 43.458563 59.227844 L 44.446844 61.516906 L 45.435125 63.841125 L 46.423406 66.2005 L 47.411688 68.583312 L 48.399969 70.985656 L 49.384344 73.403625 L 51.360906 78.263 L 52.349188 80.696594 L 53.337469 83.122375 L 54.32575 85.540344 L 55.314031 87.938781 L 56.298406 90.313781 L 57.286688 92.665344 L 58.274969 94.985656 L 59.26325 97.263 L 60.251531 99.501281 L 61.239813 101.692687 L 62.228094 103.833312 L 63.212469 105.915344 L 64.20075 107.934875 L 65.189031 109.891906 L 66.177313 111.774719 L 67.165594 113.587219 L 68.153875 115.321594 L 69.142156 116.970031 L 70.126531 118.536437 L 71.114813 120.016906 L 72.103094 121.399719 L 73.091375 122.688781 L 74.079656 123.884094 L 75.067938 124.970031 L 76.056219 125.962219 L 77.040594 126.845031 L 78.028875 127.618469 L 79.017156 128.286437 L 80.005438 128.845031 L 80.993719 129.286437 L 81.982 129.618469 L 82.970281 129.837219 L 83.954656 129.946594 L 84.942938 129.934875 L 85.931219 129.813781 L 86.9195 129.579406 L 87.907781 129.23175 L 88.896063 128.770812 L 89.884344 128.196594 L 90.868719 127.513 L 91.857 126.723937 L 92.845281 125.8255 L 93.833563 124.821594 L 94.821844 123.716125 L 95.810125 122.509094 L 96.798406 121.208312 L 97.786688 119.809875 L 98.771063 118.317687 L 99.759344 116.739562 L 100.747625 115.0755 L 101.735906 113.333312 L 102.724188 111.509094 L 103.712469 109.614562 L 104.70075 107.649719 L 105.685125 105.618469 L 106.673406 103.528625 L 107.661688 101.380187 L 108.649969 99.184875 L 109.63825 96.938781 L 110.626531 94.653625 L 111.614813 92.329406 L 112.599188 89.973937 L 113.587469 87.595031 L 114.57575 85.192687 L 115.564031 82.774719 L 116.552313 80.348937 L 118.528875 75.48175 L 119.51325 73.055969 L 120.501531 70.638 L 121.489813 68.239562 L 122.478094 65.860656 L 123.466375 63.505187 L 124.454656 61.184875 L 125.442938 58.899719 L 126.427313 56.657531 L 127.415594 54.462219 L 128.403875 52.317687 L 129.392156 50.23175 L 130.380438 48.204406 L 131.368719 46.243469 L 132.357 44.348937 L 133.341375 42.528625 L 134.329656 40.790344 L 135.317938 39.130187 L 136.306219 37.555969 L 137.2945 36.071594 L 138.282781 34.677062 L 139.271063 33.376281 L 140.255438 32.177062 L 141.243719 31.0755 L 142.232 30.079406 L 143.220281 29.184875 L 144.208563 28.399719 L 145.196844 27.720031 L 146.185125 27.153625 L 147.1695 26.7005 L 148.157781 26.35675 L 149.146063 26.126281 L 150.134344 26.009094 L 151.122625 26.009094 L 152.110906 26.118469 L 153.099188 26.341125 L 154.083563 26.680969 L 155.071844 27.130187 L 156.060125 27.692687 L 157.048406 28.364562 L 158.036688 29.145812 L 159.024969 30.032531 L 160.01325 31.028625 L 160.997625 32.122375 L 161.985906 33.321594 L 162.974188 34.614562 L 163.962469 36.005187 L 164.95075 37.485656 L 165.939031 39.055969 L 166.927313 40.708312 L 167.911688 42.446594 L 168.899969 44.263 L 169.88825 46.153625 L 170.876531 48.110656 L 171.864813 50.134094 L 172.853094 52.220031 L 173.841375 54.360656 L 174.82575 56.555969 L 175.814031 58.79425 L 176.802313 61.079406 L 177.790594 63.395812 L 178.778875 65.751281 L 179.767156 68.126281 L 180.755438 70.524719 L 181.739813 72.942687 L 182.728094 75.368469 L 184.704656 80.235656 L 185.692938 82.665344 L 186.681219 85.079406 L 187.6695 87.48175 L 188.653875 89.864562 L 189.642156 92.220031 L 190.630438 94.54425 L 191.618719 96.833312 L 192.607 99.079406 L 193.595281 101.278625 L 194.583563 103.430969 L 195.567938 105.524719 L 196.556219 107.555969 L 197.5445 109.524719 L 198.532781 111.423156 L 199.521063 113.247375 L 200.509344 114.997375 L 201.497625 116.665344 L 202.482 118.247375 L 203.470281 119.743469 L 204.458563 121.145812 L 205.446844 122.4505 L 206.435125 123.661437 L 207.423406 124.770812 L 208.411688 125.782531 L 209.396063 126.684875 L 210.384344 127.48175 L 211.372625 128.16925 L 212.360906 128.743469 L 213.349188 129.212219 L 214.337469 129.567687 L 215.32575 129.805969 L 216.310125 129.934875 L 217.298406 129.9505 L 218.286688 129.845031 L 219.274969 129.634094 L 220.26325 129.305969 L 221.251531 128.864562 L 222.239813 128.313781 L 223.224188 127.653625 L 224.212469 126.884094 L 225.20075 126.001281 L 226.189031 125.020812 L 227.177313 123.934875 L 228.165594 122.747375 L 229.153875 121.462219 L 230.13825 120.083312 L 231.126531 118.610656 L 232.114813 117.048156 L 233.103094 115.399719 L 234.091375 113.66925 L 235.079656 111.860656 L 236.067938 109.98175 L 237.052313 108.028625 L 238.040594 106.009094 L 239.028875 103.930969 L 240.017156 101.79425 L 241.005438 99.602844 L 241.993719 97.368469 L 242.982 95.091125 L 243.966375 92.774719 L 244.954656 90.423156 L 245.942938 88.052062 L 246.931219 85.649719 L 247.9195 83.235656 L 248.907781 80.809875 L 249.896063 78.380187 L 250.880438 75.946594 L 251.868719 73.516906 L 252.857 71.098937 L 253.845281 68.692687 L 254.833563 66.309875 L 255.821844 63.9505 L 256.810125 61.622375 L 257.7945 59.333312 L 258.782781 57.083312 L 259.771063 54.876281 L 260.759344 52.720031 L 261.747625 50.622375 L 262.735906 48.583312 L 263.724188 46.610656 L 264.708563 44.704406 L 265.696844 42.872375 L 266.685125 41.114562 L 267.673406 39.442687 L 268.661688 37.848937 L 269.649969 36.345031 L 270.63825 34.934875 L 271.622625 33.618469 L 272.610906 32.399719 L 273.599188 31.278625 L 274.587469 30.259094 L 275.57575 29.348937 L 276.564031 28.540344 L 277.552313 27.841125 L 278.536688 27.255187 L 279.524969 26.774719 L 280.51325 26.411437 L 281.501531 26.161437 L 282.489813 26.020812 L 283.478094 25.997375 L 284.466375 26.091125 L 285.45075 26.290344 L 286.439031 26.60675 L 287.427313 27.036437 L 288.415594 27.579406 L 289.403875 28.227844 L 290.392156 28.989562 L 291.380438 29.85675 L 292.364813 30.829406 L 293.353094 31.907531 L 294.341375 33.083312 L 295.329656 34.360656" style="fill:none;stroke-width:1.19553;stroke-linecap:butt;stroke-linejoin:miter;stroke:rgb(0%,0%,100%);stroke-opacity:1;stroke-miterlimit:10;"></path></g><path id="path1051" transform="matrix(1,0,0,-1,213.143,380.138)" d="M 234.271063 148.212219 L 289.220281 148.212219 L 289.220281 178.102844 L 234.271063 178.102844 Z M 234.271063 148.212219" style="fill-rule:nonzero;fill:rgb(100%,100%,100%);fill-opacity:1;stroke-width:0.3985;stroke-linecap:butt;stroke-linejoin:miter;stroke:rgb(0%,0%,0%);stroke-opacity:1;stroke-miterlimit:10;"></path><path id="path1053" transform="matrix(1,0,0,-1,450.999,210.506)" d="M 0.001 -0.0018125 L 17.008813 -0.0018125" style="fill:none;stroke-width:1.19553;stroke-linecap:butt;stroke-linejoin:miter;stroke:rgb(100%,0%,0%);stroke-opacity:1;stroke-miterlimit:10;"></path><g id="g1063" style="fill:rgb(0%,0%,0%);fill-opacity:1;"><path id="path1055" transform="translate(471.151,213.495)" d="M 2.078125 -1.9375 C 2.296875 -1.890625 3.109375 -1.734375 3.109375 -1.015625 C 3.109375 -0.515625 2.765625 -0.109375 1.984375 -0.109375 C 1.140625 -0.109375 0.78125 -0.671875 0.59375 -1.53125 C 0.5625 -1.65625 0.5625 -1.6875 0.453125 -1.6875 C 0.328125 -1.6875 0.328125 -1.625 0.328125 -1.453125 L 0.328125 -0.125 C 0.328125 0.046875 0.328125 0.109375 0.4375 0.109375 C 0.484375 0.109375 0.5 0.09375 0.6875 -0.09375 C 0.703125 -0.109375 0.703125 -0.125 0.890625 -0.3125 C 1.328125 0.09375 1.78125 0.109375 1.984375 0.109375 C 3.125 0.109375 3.59375 -0.5625 3.59375 -1.28125 C 3.59375 -1.796875 3.296875 -2.109375 3.171875 -2.21875 C 2.84375 -2.546875 2.453125 -2.625 2.03125 -2.703125 C 1.46875 -2.8125 0.8125 -2.9375 0.8125 -3.515625 C 0.8125 -3.875 1.0625 -4.28125 1.921875 -4.28125 C 3.015625 -4.28125 3.078125 -3.375 3.09375 -3.078125 C 3.09375 -2.984375 3.1875 -2.984375 3.203125 -2.984375 C 3.34375 -2.984375 3.34375 -3.03125 3.34375 -3.21875 L 3.34375 -4.234375 C 3.34375 -4.390625 3.34375 -4.46875 3.234375 -4.46875 C 3.1875 -4.46875 3.15625 -4.46875 3.03125 -4.34375 C 3 -4.3125 2.90625 -4.21875 2.859375 -4.1875 C 2.484375 -4.46875 2.078125 -4.46875 1.921875 -4.46875 C 0.703125 -4.46875 0.328125 -3.796875 0.328125 -3.234375 C 0.328125 -2.890625 0.484375 -2.609375 0.75 -2.390625 C 1.078125 -2.140625 1.359375 -2.078125 2.078125 -1.9375 Z M 2.078125 -1.9375" style="stroke:none;stroke-width:0"></path><path id="path1057" transform="translate(475.080249,213.495)" d="M 1.765625 -4.40625 L 0.375 -4.296875 L 0.375 -3.984375 C 1.015625 -3.984375 1.109375 -3.921875 1.109375 -3.4375 L 1.109375 -0.75 C 1.109375 -0.3125 1 -0.3125 0.328125 -0.3125 L 0.328125 0 C 0.640625 -0.015625 1.1875 -0.03125 1.421875 -0.03125 C 1.78125 -0.03125 2.125 -0.015625 2.46875 0 L 2.46875 -0.3125 C 1.796875 -0.3125 1.765625 -0.359375 1.765625 -0.75 Z M 1.796875 -6.140625 C 1.796875 -6.453125 1.5625 -6.671875 1.28125 -6.671875 C 0.96875 -6.671875 0.75 -6.40625 0.75 -6.140625 C 0.75 -5.875 0.96875 -5.609375 1.28125 -5.609375 C 1.5625 -5.609375 1.796875 -5.828125 1.796875 -6.140625 Z M 1.796875 -6.140625" style="stroke:none;stroke-width:0"></path><path id="path1059" transform="translate(477.84786,213.495)" d="M 1.09375 -3.421875 L 1.09375 -0.75 C 1.09375 -0.3125 0.984375 -0.3125 0.3125 -0.3125 L 0.3125 0 C 0.671875 -0.015625 1.171875 -0.03125 1.453125 -0.03125 C 1.703125 -0.03125 2.21875 -0.015625 2.5625 0 L 2.5625 -0.3125 C 1.890625 -0.3125 1.78125 -0.3125 1.78125 -0.75 L 1.78125 -2.59375 C 1.78125 -3.625 2.5 -4.1875 3.125 -4.1875 C 3.765625 -4.1875 3.875 -3.65625 3.875 -3.078125 L 3.875 -0.75 C 3.875 -0.3125 3.765625 -0.3125 3.09375 -0.3125 L 3.09375 0 C 3.4375 -0.015625 3.953125 -0.03125 4.21875 -0.03125 C 4.46875 -0.03125 5 -0.015625 5.328125 0 L 5.328125 -0.3125 C 4.8125 -0.3125 4.5625 -0.3125 4.5625 -0.609375 L 4.5625 -2.515625 C 4.5625 -3.375 4.5625 -3.671875 4.25 -4.03125 C 4.109375 -4.203125 3.78125 -4.40625 3.203125 -4.40625 C 2.46875 -4.40625 2 -3.984375 1.71875 -3.359375 L 1.71875 -4.40625 L 0.3125 -4.296875 L 0.3125 -3.984375 C 1.015625 -3.984375 1.09375 -3.921875 1.09375 -3.421875 Z M 1.09375 -3.421875" style="stroke:none;stroke-width:0"></path><path id="path1061" transform="translate(483.38308,213.495)" d="M 3.296875 2.390625 C 3.296875 2.359375 3.296875 2.34375 3.125 2.171875 C 1.890625 0.921875 1.5625 -0.96875 1.5625 -2.5 C 1.5625 -4.234375 1.9375 -5.96875 3.171875 -7.203125 C 3.296875 -7.328125 3.296875 -7.34375 3.296875 -7.375 C 3.296875 -7.453125 3.265625 -7.484375 3.203125 -7.484375 C 3.09375 -7.484375 2.203125 -6.796875 1.609375 -5.53125 C 1.109375 -4.4375 0.984375 -3.328125 0.984375 -2.5 C 0.984375 -1.71875 1.09375 -0.515625 1.640625 0.625 C 2.25 1.84375 3.09375 2.5 3.203125 2.5 C 3.265625 2.5 3.296875 2.46875 3.296875 2.390625 Z M 3.296875 2.390625" style="stroke:none;stroke-width:0"></path></g><g id="g1067" style="fill:rgb(0%,0%,0%);fill-opacity:1;"><path id="path1065" transform="translate(487.258,213.495)" d="M 3.328125 -3.015625 C 3.390625 -3.265625 3.625 -4.1875 4.3125 -4.1875 C 4.359375 -4.1875 4.609375 -4.1875 4.8125 -4.0625 C 4.53125 -4 4.34375 -3.765625 4.34375 -3.515625 C 4.34375 -3.359375 4.453125 -3.171875 4.71875 -3.171875 C 4.9375 -3.171875 5.25 -3.34375 5.25 -3.75 C 5.25 -4.265625 4.671875 -4.40625 4.328125 -4.40625 C 3.75 -4.40625 3.40625 -3.875 3.28125 -3.65625 C 3.03125 -4.3125 2.5 -4.40625 2.203125 -4.40625 C 1.171875 -4.40625 0.59375 -3.125 0.59375 -2.875 C 0.59375 -2.765625 0.703125 -2.765625 0.71875 -2.765625 C 0.796875 -2.765625 0.828125 -2.796875 0.84375 -2.875 C 1.1875 -3.9375 1.84375 -4.1875 2.1875 -4.1875 C 2.375 -4.1875 2.71875 -4.09375 2.71875 -3.515625 C 2.71875 -3.203125 2.546875 -2.546875 2.1875 -1.140625 C 2.03125 -0.53125 1.671875 -0.109375 1.234375 -0.109375 C 1.171875 -0.109375 0.953125 -0.109375 0.734375 -0.234375 C 0.984375 -0.296875 1.203125 -0.5 1.203125 -0.78125 C 1.203125 -1.046875 0.984375 -1.125 0.84375 -1.125 C 0.53125 -1.125 0.296875 -0.875 0.296875 -0.546875 C 0.296875 -0.09375 0.78125 0.109375 1.21875 0.109375 C 1.890625 0.109375 2.25 -0.59375 2.265625 -0.640625 C 2.390625 -0.28125 2.75 0.109375 3.34375 0.109375 C 4.375 0.109375 4.9375 -1.171875 4.9375 -1.421875 C 4.9375 -1.53125 4.859375 -1.53125 4.828125 -1.53125 C 4.734375 -1.53125 4.71875 -1.484375 4.6875 -1.421875 C 4.359375 -0.34375 3.6875 -0.109375 3.375 -0.109375 C 2.984375 -0.109375 2.828125 -0.421875 2.828125 -0.765625 C 2.828125 -0.984375 2.875 -1.203125 2.984375 -1.640625 Z M 3.328125 -3.015625" style="stroke:none;stroke-width:0"></path></g><g id="g1071" style="fill:rgb(0%,0%,0%);fill-opacity:1;"><path id="path1069" transform="translate(492.951,213.495)" d="M 2.875 -2.5 C 2.875 -3.265625 2.765625 -4.46875 2.21875 -5.609375 C 1.625 -6.828125 0.765625 -7.484375 0.671875 -7.484375 C 0.609375 -7.484375 0.5625 -7.4375 0.5625 -7.375 C 0.5625 -7.34375 0.5625 -7.328125 0.75 -7.140625 C 1.734375 -6.15625 2.296875 -4.578125 2.296875 -2.5 C 2.296875 -0.78125 1.9375 0.96875 0.703125 2.21875 C 0.5625 2.34375 0.5625 2.359375 0.5625 2.390625 C 0.5625 2.453125 0.609375 2.5 0.671875 2.5 C 0.765625 2.5 1.671875 1.8125 2.25 0.546875 C 2.765625 -0.546875 2.875 -1.65625 2.875 -2.5 Z M 2.875 -2.5" style="stroke:none;stroke-width:0"></path></g><path id="path1073" transform="matrix(1,0,0,-1,450.999,223.458)" d="M 0.001 0.00096875 L 17.008813 0.00096875" style="fill:none;stroke-width:1.19553;stroke-linecap:butt;stroke-linejoin:miter;stroke:rgb(0%,0%,100%);stroke-opacity:1;stroke-miterlimit:10;"></path><g id="g1083" style="fill:rgb(0%,0%,0%);fill-opacity:1;"><path id="path1075" transform="translate(470.598,226.446)" d="M 1.171875 -2.171875 C 1.171875 -3.796875 1.984375 -4.21875 2.515625 -4.21875 C 2.609375 -4.21875 3.234375 -4.203125 3.578125 -3.84375 C 3.171875 -3.8125 3.109375 -3.515625 3.109375 -3.390625 C 3.109375 -3.125 3.296875 -2.9375 3.5625 -2.9375 C 3.828125 -2.9375 4.03125 -3.09375 4.03125 -3.40625 C 4.03125 -4.078125 3.265625 -4.46875 2.5 -4.46875 C 1.25 -4.46875 0.34375 -3.390625 0.34375 -2.15625 C 0.34375 -0.875 1.328125 0.109375 2.484375 0.109375 C 3.8125 0.109375 4.140625 -1.09375 4.140625 -1.1875 C 4.140625 -1.28125 4.03125 -1.28125 4 -1.28125 C 3.921875 -1.28125 3.890625 -1.25 3.875 -1.1875 C 3.59375 -0.265625 2.9375 -0.140625 2.578125 -0.140625 C 2.046875 -0.140625 1.171875 -0.5625 1.171875 -2.171875 Z M 1.171875 -2.171875" style="stroke:none;stroke-width:0"></path><path id="path1077" transform="translate(475.025379,226.446)" d="M 4.6875 -2.140625 C 4.6875 -3.40625 3.703125 -4.46875 2.5 -4.46875 C 1.25 -4.46875 0.28125 -3.375 0.28125 -2.140625 C 0.28125 -0.84375 1.3125 0.109375 2.484375 0.109375 C 3.6875 0.109375 4.6875 -0.875 4.6875 -2.140625 Z M 2.5 -0.140625 C 2.0625 -0.140625 1.625 -0.34375 1.359375 -0.8125 C 1.109375 -1.25 1.109375 -1.859375 1.109375 -2.21875 C 1.109375 -2.609375 1.109375 -3.140625 1.34375 -3.578125 C 1.609375 -4.03125 2.078125 -4.25 2.484375 -4.25 C 2.921875 -4.25 3.34375 -4.03125 3.609375 -3.59375 C 3.875 -3.171875 3.875 -2.59375 3.875 -2.21875 C 3.875 -1.859375 3.875 -1.3125 3.65625 -0.875 C 3.421875 -0.421875 2.984375 -0.140625 2.5 -0.140625 Z M 2.5 -0.140625" style="stroke:none;stroke-width:0"></path><path id="path1079" transform="translate(480.006679,226.446)" d="M 2.078125 -1.9375 C 2.296875 -1.890625 3.109375 -1.734375 3.109375 -1.015625 C 3.109375 -0.515625 2.765625 -0.109375 1.984375 -0.109375 C 1.140625 -0.109375 0.78125 -0.671875 0.59375 -1.53125 C 0.5625 -1.65625 0.5625 -1.6875 0.453125 -1.6875 C 0.328125 -1.6875 0.328125 -1.625 0.328125 -1.453125 L 0.328125 -0.125 C 0.328125 0.046875 0.328125 0.109375 0.4375 0.109375 C 0.484375 0.109375 0.5 0.09375 0.6875 -0.09375 C 0.703125 -0.109375 0.703125 -0.125 0.890625 -0.3125 C 1.328125 0.09375 1.78125 0.109375 1.984375 0.109375 C 3.125 0.109375 3.59375 -0.5625 3.59375 -1.28125 C 3.59375 -1.796875 3.296875 -2.109375 3.171875 -2.21875 C 2.84375 -2.546875 2.453125 -2.625 2.03125 -2.703125 C 1.46875 -2.8125 0.8125 -2.9375 0.8125 -3.515625 C 0.8125 -3.875 1.0625 -4.28125 1.921875 -4.28125 C 3.015625 -4.28125 3.078125 -3.375 3.09375 -3.078125 C 3.09375 -2.984375 3.1875 -2.984375 3.203125 -2.984375 C 3.34375 -2.984375 3.34375 -3.03125 3.34375 -3.21875 L 3.34375 -4.234375 C 3.34375 -4.390625 3.34375 -4.46875 3.234375 -4.46875 C 3.1875 -4.46875 3.15625 -4.46875 3.03125 -4.34375 C 3 -4.3125 2.90625 -4.21875 2.859375 -4.1875 C 2.484375 -4.46875 2.078125 -4.46875 1.921875 -4.46875 C 0.703125 -4.46875 0.328125 -3.796875 0.328125 -3.234375 C 0.328125 -2.890625 0.484375 -2.609375 0.75 -2.390625 C 1.078125 -2.140625 1.359375 -2.078125 2.078125 -1.9375 Z M 2.078125 -1.9375" style="stroke:none;stroke-width:0"></path><path id="path1081" transform="translate(483.935929,226.446)" d="M 3.296875 2.390625 C 3.296875 2.359375 3.296875 2.34375 3.125 2.171875 C 1.890625 0.921875 1.5625 -0.96875 1.5625 -2.5 C 1.5625 -4.234375 1.9375 -5.96875 3.171875 -7.203125 C 3.296875 -7.328125 3.296875 -7.34375 3.296875 -7.375 C 3.296875 -7.453125 3.265625 -7.484375 3.203125 -7.484375 C 3.09375 -7.484375 2.203125 -6.796875 1.609375 -5.53125 C 1.109375 -4.4375 0.984375 -3.328125 0.984375 -2.5 C 0.984375 -1.71875 1.09375 -0.515625 1.640625 0.625 C 2.25 1.84375 3.09375 2.5 3.203125 2.5 C 3.265625 2.5 3.296875 2.46875 3.296875 2.390625 Z M 3.296875 2.390625" style="stroke:none;stroke-width:0"></path></g><g id="g1087" style="fill:rgb(0%,0%,0%);fill-opacity:1;"><path id="path1085" transform="translate(487.811,226.446)" d="M 3.328125 -3.015625 C 3.390625 -3.265625 3.625 -4.1875 4.3125 -4.1875 C 4.359375 -4.1875 4.609375 -4.1875 4.8125 -4.0625 C 4.53125 -4 4.34375 -3.765625 4.34375 -3.515625 C 4.34375 -3.359375 4.453125 -3.171875 4.71875 -3.171875 C 4.9375 -3.171875 5.25 -3.34375 5.25 -3.75 C 5.25 -4.265625 4.671875 -4.40625 4.328125 -4.40625 C 3.75 -4.40625 3.40625 -3.875 3.28125 -3.65625 C 3.03125 -4.3125 2.5 -4.40625 2.203125 -4.40625 C 1.171875 -4.40625 0.59375 -3.125 0.59375 -2.875 C 0.59375 -2.765625 0.703125 -2.765625 0.71875 -2.765625 C 0.796875 -2.765625 0.828125 -2.796875 0.84375 -2.875 C 1.1875 -3.9375 1.84375 -4.1875 2.1875 -4.1875 C 2.375 -4.1875 2.71875 -4.09375 2.71875 -3.515625 C 2.71875 -3.203125 2.546875 -2.546875 2.1875 -1.140625 C 2.03125 -0.53125 1.671875 -0.109375 1.234375 -0.109375 C 1.171875 -0.109375 0.953125 -0.109375 0.734375 -0.234375 C 0.984375 -0.296875 1.203125 -0.5 1.203125 -0.78125 C 1.203125 -1.046875 0.984375 -1.125 0.84375 -1.125 C 0.53125 -1.125 0.296875 -0.875 0.296875 -0.546875 C 0.296875 -0.09375 0.78125 0.109375 1.21875 0.109375 C 1.890625 0.109375 2.25 -0.59375 2.265625 -0.640625 C 2.390625 -0.28125 2.75 0.109375 3.34375 0.109375 C 4.375 0.109375 4.9375 -1.171875 4.9375 -1.421875 C 4.9375 -1.53125 4.859375 -1.53125 4.828125 -1.53125 C 4.734375 -1.53125 4.71875 -1.484375 4.6875 -1.421875 C 4.359375 -0.34375 3.6875 -0.109375 3.375 -0.109375 C 2.984375 -0.109375 2.828125 -0.421875 2.828125 -0.765625 C 2.828125 -0.984375 2.875 -1.203125 2.984375 -1.640625 Z M 3.328125 -3.015625" style="stroke:none;stroke-width:0"></path></g><g id="g1091" style="fill:rgb(0%,0%,0%);fill-opacity:1;"><path id="path1089" transform="translate(493.505,226.446)" d="M 2.875 -2.5 C 2.875 -3.265625 2.765625 -4.46875 2.21875 -5.609375 C 1.625 -6.828125 0.765625 -7.484375 0.671875 -7.484375 C 0.609375 -7.484375 0.5625 -7.4375 0.5625 -7.375 C 0.5625 -7.34375 0.5625 -7.328125 0.75 -7.140625 C 1.734375 -6.15625 2.296875 -4.578125 2.296875 -2.5 C 2.296875 -0.78125 1.9375 0.96875 0.703125 2.21875 C 0.5625 2.34375 0.5625 2.359375 0.5625 2.390625 C 0.5625 2.453125 0.609375 2.5 0.671875 2.5 C 0.765625 2.5 1.671875 1.8125 2.25 0.546875 C 2.765625 -0.546875 2.875 -1.65625 2.875 -2.5 Z M 2.875 -2.5" style="stroke:none;stroke-width:0"></path></g></g></g></g></svg> 