<?xml version="1.0" encoding="UTF-8"?> <svg xmlns:cc="http://creativecommons.org/ns#" xmlns:rdf="http://www.w3.org/1999/02/22-rdf-syntax-ns#" xmlns:svg="http://www.w3.org/2000/svg" xmlns="http://www.w3.org/2000/svg" xmlns:sodipodi="http://sodipodi.sourceforge.net/DTD/sodipodi-0.dtd" xmlns:inkscape="http://www.inkscape.org/namespaces/inkscape" width="211.04382mm" height="49.274399mm" viewBox="0 0 211.04382 49.274399" version="1.1" id="svg8"><defs id="defs2"></defs><metadata id="metadata5"></metadata><g id="layer1" transform="translate(-36.987379,-157.37866)"><path style="fill:#aaccff;fill-opacity:1;stroke:none;stroke-width:0.29923713;stroke-miterlimit:4;stroke-dasharray:none;stroke-dashoffset:0" d="m 780.7372,750.99626 c -15.96233,-0.85601 -30.52953,-5.7005 -44.73059,-14.87567 -4.49707,-2.9055 -8.56201,-6.01339 -14.64802,-11.19925 -12.81772,-10.92192 -21.63182,-16.99395 -33.05506,-22.77161 -16.29235,-8.24038 -31.45249,-12.03977 -50.23635,-12.5901 -8.08435,-0.23686 -14.58643,0.14078 -31.03587,1.80254 -22.94098,2.31755 -30.63272,2.28704 -40.37831,-0.16019 -15.07946,-3.78661 -27.21917,-14.91964 -38.16801,-35.00293 -1.18698,-2.17727 -2.98642,-5.74006 -3.99876,-7.91732 l -1.84061,-3.95866 103.26137,-0.0797 c 56.79376,-0.0438 149.61412,-0.0438 206.26746,0 l 103.00608,0.0797 -2.95779,4.11701 c -15.4031,21.43973 -35.41823,43.57907 -53.94421,59.66927 -28.17418,24.46987 -55.10014,38.46415 -81.07331,42.13636 -2.96366,0.41901 -11.02681,0.96985 -13.14274,0.89784 -0.87091,-0.0296 -2.36728,-0.0959 -3.32528,-0.14729 z m 26.91888,-27.23371 c 0,-0.46035 -21.078,-41.59029 -21.31501,-41.59242 -0.14022,-10e-4 -0.59119,0.7459 -1.00215,1.66035 -0.41096,0.91445 -1.72327,3.69569 -2.91623,6.18054 l -2.16903,4.51791 -15.96108,-14.72726 c -12.53185,-11.5631 -16.05208,-14.65174 -16.38459,-14.37577 -0.23293,0.19331 -0.42351,0.51757 -0.42351,0.72056 0,0.33836 32.63027,30.65404 33.17324,30.82013 0.13081,0.04 1.44551,-2.48952 2.92156,-5.62119 1.47606,-3.13167 2.75866,-5.69075 2.85024,-5.68684 0.17948,0.008 18.31013,35.56275 18.20892,35.70859 -0.0335,0.0483 -10.80481,-3.11542 -23.93622,-7.03042 -13.13142,-3.915 -23.78149,-7.12538 -23.66683,-7.13418 0.58363,-0.0448 11.59027,-2.59259 12.08183,-2.79669 0.4735,-0.1966 -2.06803,-3.11627 -14.6757,-16.8592 -19.09495,-20.81435 -17.15955,-18.84586 -17.81597,-18.12052 -0.50505,0.55807 0.18221,1.36036 14.70065,17.16124 10.80529,11.75973 15.1052,16.64351 14.79929,16.80884 -0.23715,0.12818 -3.70677,0.97188 -7.71028,1.87489 -4.0035,0.90302 -7.32942,1.69218 -7.39093,1.7537 -0.0615,0.0615 0.64887,0.34766 1.57863,0.63588 5.54715,1.71963 54.33078,16.24566 54.6573,16.275 0.21773,0.0196 0.39587,-0.0584 0.39587,-0.17314 z m 79.19823,-41.51554 c -2.07776,-4.13679 -5.0635,-10.0154 -6.63503,-13.06357 l -2.85729,-5.54212 -1.79897,3.80031 c -0.98945,2.09018 -1.84354,3.85117 -1.89798,3.91332 -0.0544,0.0621 -4.39521,-3.85692 -9.64614,-8.70905 -5.25092,-4.85213 -9.73528,-8.86557 -9.96524,-8.91876 -1.46695,-0.33931 0.33358,1.55919 9.56558,10.08598 l 10.36202,9.5705 1.68956,-3.60036 1.68958,-3.60036 1.59655,3.00456 c 3.25724,6.12982 9.45023,18.68098 9.21943,18.68483 -0.13131,0.002 -6.62322,-1.88609 -14.42649,-4.19618 l -14.1878,-4.20016 3.42025,-0.81673 c 1.88112,-0.44921 3.61587,-0.88258 3.855,-0.96305 0.46326,-0.15591 -19.0793,-21.65547 -19.68428,-21.65547 -0.18295,0 -0.38456,0.15571 -0.44799,0.34602 -0.0634,0.19031 4.08039,4.9086 9.2085,10.4851 l 9.32384,10.13909 -4.72201,1.05675 c -2.59714,0.58121 -4.72205,1.13837 -4.72205,1.23813 0,0.17251 33.61005,10.34568 34.44159,10.42486 0.21842,0.0208 -1.30284,-3.34684 -3.38063,-7.48364 z m -271.46364,-2.37519 c -1.23974,-2.48208 -3.61445,-7.13455 -5.27714,-10.33882 l -3.02306,-5.82594 -1.38159,2.95538 c -0.75987,1.62546 -1.44016,3.01396 -1.51175,3.08555 -0.0716,0.0716 -3.49576,-2.98327 -7.60928,-6.78857 -6.97383,-6.45128 -8.39975,-7.60716 -8.39975,-6.809 0,0.28851 15.94384,15.24987 16.25129,15.24987 0.0742,0 0.6746,-1.21135 1.3343,-2.69189 0.6597,-1.48053 1.28506,-2.69188 1.38967,-2.69188 0.10461,0 2.07687,3.77656 4.38282,8.39235 2.30594,4.6158 4.05111,8.39236 3.87817,8.39236 -0.23266,0 -19.95031,-5.77898 -22.01083,-6.45108 -0.17418,-0.0568 0.84261,-0.35577 2.25952,-0.66435 1.41692,-0.30857 2.75667,-0.67257 2.97722,-0.80888 0.27871,-0.17225 -2.00051,-2.86358 -7.47362,-8.82497 -4.93482,-5.37507 -7.98615,-8.46559 -8.17338,-8.27836 -0.38685,0.38685 -0.60367,0.12773 7.34331,8.77582 3.71278,4.04034 6.77678,7.46124 6.80889,7.602 0.0321,0.14075 -1.54488,0.60202 -3.50442,1.02503 -1.95953,0.42301 -3.56279,0.85501 -3.56279,0.96001 0,0.18967 26.39737,8.18597 27.15851,8.22686 0.22549,0.0121 -0.57897,-1.93457 -1.85609,-4.49149 z" id="path2049" transform="scale(0.26458333)"></path><path style="fill:#aaccff;fill-opacity:1;stroke:none;stroke-width:0.29923713;stroke-miterlimit:4;stroke-dasharray:none;stroke-dashoffset:0" d="M 179.33794,682.16784 V 645.4315 h 100.5499 100.5499 v 36.73634 36.73634 h -100.5499 -100.5499 z m 147.57875,32.09614 c 0,-0.48229 -6.71732,-15.32172 -9.41706,-20.80351 -3.76147,-7.63762 -4.94421,-9.46057 -6.05354,-9.33028 -1.43359,0.16838 -2.27191,1.87634 -3.9097,7.96545 l -0.41298,1.53544 -12.35102,-11.90776 c -6.79305,-6.54927 -12.55297,-11.87185 -12.7998,-11.82795 -0.24684,0.0439 -0.49725,0.22537 -0.55648,0.40329 -0.10274,0.30864 25.84885,25.50467 26.3673,25.59963 0.13717,0.0251 0.49311,-1.06821 0.79097,-2.42963 0.74326,-3.39717 1.86145,-6.78109 2.50227,-7.57246 0.52549,-0.64896 0.5515,-0.62965 1.70124,1.26302 1.90738,3.13989 12.37092,25.31157 12.10098,25.64131 -0.0324,0.0395 -6.32076,-1.48862 -13.97423,-3.39587 -13.46951,-3.35661 -22.18036,-5.77948 -22.73454,-6.32347 -0.36098,-0.35434 3.2068,-1.13909 8.03382,-1.76706 2.17371,-0.2828 4.01577,-0.57773 4.09345,-0.65541 0.0777,-0.0777 -0.86161,-1.17028 -2.08731,-2.42799 -1.2257,-1.25772 -7.19833,-7.55969 -13.27252,-14.00439 -6.07419,-6.44469 -11.13463,-11.758 -11.24541,-11.80734 -0.11079,-0.0494 -0.36702,0.1098 -0.56941,0.35367 -0.29807,0.35915 2.0097,2.96323 12.14516,13.70458 l 12.51316,13.26118 -3.72117,0.55773 c -4.3556,0.65282 -6.80666,1.31208 -7.5162,2.02162 -1.7964,1.7964 1.52094,2.82451 37.99783,11.77637 1.56064,0.38299 2.37519,0.44124 2.37519,0.16983 z" id="path972" transform="scale(0.26458333)"></path><path style="fill:none;stroke:#000000;stroke-width:0.26458332px;stroke-linecap:butt;stroke-linejoin:miter;stroke-opacity:1" d="m 137.99698,170.24951 c 12.24356,28.11981 27.31254,-0.80727 52.876,21.79621 26.8431,23.73496 56.91232,-21.79621 56.91232,-21.79621 H 137.99698 l -22.06383,-12.73856 h 105.61597" id="path815"></path><path style="fill:none;stroke:#000000;stroke-width:0.26458332px;stroke-linecap:butt;stroke-linejoin:miter;stroke-opacity:1" d="m 221.54912,157.51095 26.23618,12.73856" id="path819"></path><path style="fill:none;stroke:#000000;stroke-width:0.26458332px;stroke-linecap:butt;stroke-linejoin:miter;stroke-opacity:1" d="m 147.54964,182.22397 -24.75619,-13.05081 c -6.32359,-6.59268 -6.8603,-11.66221 -6.8603,-11.66221" id="path821"></path><path style="fill:#aaccff;fill-opacity:1;stroke:none;stroke-width:0.23910293;stroke-miterlimit:4;stroke-dasharray:none;stroke-dashoffset:0" d="m 127.32527,163.87636 -10.63849,-6.15649 52.35753,-0.0318 52.35753,-0.0318 12.68684,6.15451 c 6.97775,3.38498 12.71055,6.17493 12.73955,6.19989 0.029,0.0249 -24.45365,0.0402 -54.40588,0.0338 l -54.45859,-0.0116 z" id="path829"></path><path style="fill:#d38d5f;fill-opacity:1;stroke:none;stroke-width:0.23910293;stroke-miterlimit:4;stroke-dasharray:none;stroke-dashoffset:0" d="m 133.3232,174.50908 -10.46072,-5.52846 -0.78418,-0.88568 c -1.96711,-2.22172 -3.55245,-4.51129 -4.55563,-6.57931 -0.64062,-1.32059 -1.2999,-3.13947 -1.2334,-3.40276 0.0224,-0.0888 4.52706,2.43567 10.73005,6.01334 l 10.69139,6.16644 1.10787,2.18267 c 1.28626,2.53412 2.8221,4.89884 4.2016,6.46917 0.5349,0.6089 0.92557,1.10394 0.86815,1.10007 -0.0574,-0.004 -4.81174,-2.49482 -10.56513,-5.53548 z" id="path831"></path><path style="fill:none;stroke:#000000;stroke-width:0.15000001;stroke-linecap:butt;stroke-linejoin:miter;stroke-miterlimit:4;stroke-dasharray:none;stroke-opacity:1" d="m 143.25847,163.79316 c 2.65704,0 3.41619,-1.77135 3.41619,-1.77135 0,0 0.15672,1.74581 2.1966,1.71186 l 1.3593,-0.0226" id="path833"></path><path style="fill:none;stroke:#000000;stroke-width:0.15000001;stroke-linecap:butt;stroke-linejoin:miter;stroke-miterlimit:4;stroke-dasharray:none;stroke-opacity:1" d="m 161.79224,165.26276 c 2.65703,0 3.41618,-1.77135 3.41618,-1.77135 0,0 0.15672,1.74581 2.1966,1.71186 l 1.3593,-0.0226" id="path833-4"></path><path style="fill:none;stroke:#000000;stroke-width:0.15000001;stroke-linecap:butt;stroke-linejoin:miter;stroke-miterlimit:4;stroke-dasharray:none;stroke-opacity:1" d="m 187.80953,167.39945 c 2.65703,0 3.41618,-1.77135 3.41618,-1.77135 0,0 0.15672,1.74581 2.1966,1.71186 l 1.3593,-0.0226" id="path833-1"></path><path style="fill:none;stroke:#000000;stroke-width:0.15000001;stroke-linecap:butt;stroke-linejoin:miter;stroke-miterlimit:4;stroke-dasharray:none;stroke-opacity:1" d="m 181.18999,163.37745 c 2.65704,0 3.41619,-1.77135 3.41619,-1.77135 0,0 0.15672,1.74581 2.1966,1.71186 l 1.3593,-0.0226" id="path833-42"></path><path style="fill:none;stroke:#000000;stroke-width:0.15000001;stroke-linecap:butt;stroke-linejoin:miter;stroke-miterlimit:4;stroke-dasharray:none;stroke-opacity:1" d="m 172.89463,167.18997 c 2.65703,0 3.41618,-1.77135 3.41618,-1.77135 0,0 0.15672,1.74581 2.1966,1.71186 l 1.3593,-0.0226" id="path833-6"></path><path style="fill:none;stroke:#000000;stroke-width:0.15000001;stroke-linecap:butt;stroke-linejoin:miter;stroke-miterlimit:4;stroke-dasharray:none;stroke-opacity:1" d="m 208.84122,160.40285 c 2.65703,0 3.41618,-1.77135 3.41618,-1.77135 0,0 0.15672,1.74581 2.1966,1.71186 l 1.3593,-0.0226" id="path833-5"></path><path style="fill:none;stroke:#000000;stroke-width:0.15000001;stroke-linecap:butt;stroke-linejoin:miter;stroke-miterlimit:4;stroke-dasharray:none;stroke-opacity:1" d="m 225.59953,167.23186 c 2.65704,0 3.41619,-1.77135 3.41619,-1.77135 0,0 0.15672,1.74581 2.1966,1.71186 l 1.3593,-0.0226" id="path833-57"></path><path style="fill:none;stroke:#000000;stroke-width:0.15000001;stroke-linecap:butt;stroke-linejoin:miter;stroke-miterlimit:4;stroke-dasharray:none;stroke-opacity:1" d="m 217.17848,165.01139 c 2.65703,0 3.41618,-1.77135 3.41618,-1.77135 0,0 0.15672,1.74581 2.1966,1.71186 l 1.3593,-0.0226" id="path833-0"></path><path style="fill:none;stroke:#000000;stroke-width:0.15000001;stroke-linecap:butt;stroke-linejoin:miter;stroke-miterlimit:4;stroke-dasharray:none;stroke-opacity:1" d="m 204.9868,168.74011 c 2.65704,0 3.41619,-1.77135 3.41619,-1.77135 0,0 0.15672,1.74581 2.1966,1.71186 l 1.3593,-0.0226" id="path833-49"></path><path style="fill:none;stroke:#000000;stroke-width:0.15000001;stroke-linecap:butt;stroke-linejoin:miter;stroke-miterlimit:4;stroke-dasharray:none;stroke-opacity:1" d="m 197.31987,160.9056 c 2.65704,0 3.41619,-1.77135 3.41619,-1.77135 0,0 0.15672,1.74581 2.1966,1.71186 l 1.3593,-0.0226" id="path833-8"></path><path style="fill:none;stroke:#000000;stroke-width:0.15000001;stroke-linecap:butt;stroke-linejoin:miter;stroke-miterlimit:4;stroke-dasharray:none;stroke-opacity:1" d="m 163.80324,160.69612 c 2.65703,0 3.41618,-1.77135 3.41618,-1.77135 0,0 0.15672,1.74581 2.1966,1.71186 l 1.3593,-0.0226" id="path833-58"></path><path style="fill:none;stroke:#000000;stroke-width:0.15000001;stroke-linecap:butt;stroke-linejoin:miter;stroke-miterlimit:4;stroke-dasharray:none;stroke-opacity:1" d="m 150.229,167.65082 c 2.65704,0 3.41619,-1.77135 3.41619,-1.77135 0,0 0.15672,1.74581 2.1966,1.71186 l 1.3593,-0.0226" id="path833-46"></path><path style="fill:none;stroke:#000000;stroke-width:0.15000001;stroke-linecap:butt;stroke-linejoin:miter;stroke-miterlimit:4;stroke-dasharray:none;stroke-opacity:1" d="m 135.94253,160.73801 c 2.65704,0 3.41619,-1.77135 3.41619,-1.77135 0,0 0.15672,1.74581 2.1966,1.71186 l 1.3593,-0.0226" id="path833-62"></path><rect style="fill:none;fill-opacity:1;stroke:#000000;stroke-width:0.25;stroke-miterlimit:4;stroke-dasharray:none;stroke-dashoffset:0" id="rect934" width="53.542824" height="19.691021" x="47.258453" y="170.64229"></rect><path style="fill:none;stroke:#000000;stroke-width:0.26458332px;stroke-linecap:butt;stroke-linejoin:miter;stroke-opacity:1" d="M 47.258454,190.33331 37.119673,184.21652" id="path936"></path><path style="fill:none;stroke:#000000;stroke-width:0.26458332px;stroke-linecap:butt;stroke-linejoin:miter;stroke-opacity:1" d="M 47.258453,170.64229 37.119671,164.5255" id="path936-3"></path><path style="fill:none;stroke:#000000;stroke-width:0.26458332px;stroke-linecap:butt;stroke-linejoin:miter;stroke-opacity:1" d="M 100.80128,170.64229 90.662496,164.5255 H 37.119671 v 19.60723" id="path936-37"></path><path style="fill:#aaccff;fill-opacity:1;stroke:none;stroke-width:0.29923713;stroke-miterlimit:4;stroke-dasharray:none;stroke-dashoffset:0" d="m 161.14942,633.6347 -18.00537,-10.84672 99.78794,-0.0797 99.78793,-0.0797 17.67132,10.64846 c 9.71922,5.85665 17.8067,10.77353 17.97217,10.92639 0.17265,0.15949 -42.20849,0.27793 -99.45388,0.27793 H 179.1548 Z" id="path974" transform="scale(0.26458333)"></path><path style="fill:#d38d5f;fill-opacity:1;stroke:none;stroke-width:0.29923713;stroke-miterlimit:4;stroke-dasharray:none;stroke-dashoffset:0" d="m 159.46817,707.05202 -18.44465,-11.10805 -0.003,-36.34048 c -0.001,-19.98726 0.085,-36.34048 0.1921,-36.34048 0.26779,0 35.96895,21.52334 36.46371,21.98306 0.31494,0.29263 0.38054,7.88222 0.3167,36.64154 l -0.0805,36.27245 z" id="path976" transform="scale(0.26458333)"></path><path style="fill:none;stroke:#000000;stroke-width:0.15000001;stroke-linecap:butt;stroke-linejoin:miter;stroke-miterlimit:4;stroke-dasharray:none;stroke-opacity:1" d="m 48.966865,168.99148 c 2.65704,0 3.41619,-1.77135 3.41619,-1.77135 0,0 0.15672,1.74581 2.1966,1.71186 l 1.3593,-0.0226" id="path833-62-4"></path><path style="fill:none;stroke:#000000;stroke-width:0.15000001;stroke-linecap:butt;stroke-linejoin:miter;stroke-miterlimit:4;stroke-dasharray:none;stroke-opacity:1" d="m 58.183939,167.48324 c 2.65704,0 3.41619,-1.77135 3.41619,-1.77135 0,0 0.15672,1.74581 2.1966,1.71186 l 1.359301,-0.0226" id="path833-62-2"></path><path style="fill:none;stroke:#000000;stroke-width:0.15000001;stroke-linecap:butt;stroke-linejoin:miter;stroke-miterlimit:4;stroke-dasharray:none;stroke-opacity:1" d="m 67.568597,168.99149 c 2.65704,0 3.41619,-1.77135 3.41619,-1.77135 0,0 0.15672,1.74581 2.1966,1.71186 l 1.3593,-0.0226" id="path833-62-0"></path><path style="fill:none;stroke:#000000;stroke-width:0.15000001;stroke-linecap:butt;stroke-linejoin:miter;stroke-miterlimit:4;stroke-dasharray:none;stroke-opacity:1" d="m 76.618088,167.56703 c 2.65704,0 3.41619,-1.77135 3.41619,-1.77135 0,0 0.15672,1.74581 2.1966,1.71186 l 1.3593,-0.0226" id="path833-62-8"></path><path style="fill:none;stroke:#000000;stroke-width:0.15000001;stroke-linecap:butt;stroke-linejoin:miter;stroke-miterlimit:4;stroke-dasharray:none;stroke-opacity:1" d="m 85.751371,169.41044 c 2.65704,0 3.41619,-1.77135 3.41619,-1.77135 0,0 0.15672,1.74581 2.196601,1.71186 l 1.3593,-0.0226" id="path833-62-20"></path><g id="g1873" scale="1.66150538703" version="0.11.0" transform="matrix(0.586142,0,0,0.586142,14.591447,112.84137)"><g id="g1871"><g id="g1855" style="fill:#000000;fill-opacity:1"><path id="path1851" transform="translate(285.284,156.682)" d="M 3.8125,-3.984375 V -0.75 c 0,0.4375 -0.109375,0.4375 -0.765625,0.4375 V 0 c 0.328125,-0.015625 0.84375,-0.03125 1.09375,-0.03125 0.25,0 0.75,0.015625 1.109375,0.03125 v -0.3125 c -0.671875,0 -0.78125,0 -0.78125,-0.4375 v -6.171875 l -0.359375,0.0625 C 4.078125,-6.859375 4.0625,-6.875 4.03125,-6.890625 3.703125,-7.03125 3.296875,-7.03125 3.1875,-7.03125 c -1.046875,0 -2.125,0.5625 -2.125,1.59375 v 1.140625 H 0.265625 v 0.3125 H 1.0625 V -0.75 c 0,0.4375 -0.109375,0.4375 -0.78125,0.4375 V 0 C 0.609375,-0.015625 1.140625,-0.03125 1.390625,-0.03125 1.640625,-0.03125 2.125,-0.015625 2.5,0 v -0.3125 c -0.671875,0 -0.78125,0 -0.78125,-0.4375 v -3.234375 z m 0,-0.3125 h -2.125 v -1.125 c 0,-0.921875 0.75,-1.390625 1.5,-1.390625 0.078125,0 0.34375,0 0.625,0.09375 -0.078125,0.046875 -0.25,0.140625 -0.25,0.40625 0,0.171875 0.09375,0.328125 0.25,0.375 z m 0,0" style="stroke:none;stroke-width:0"></path><path id="path1853" transform="translate(290.81922,156.682)" d="M 4.6875,-2.140625 C 4.6875,-3.40625 3.703125,-4.46875 2.5,-4.46875 c -1.25,0 -2.21875,1.09375 -2.21875,2.328125 0,1.296875 1.03125,2.25 2.203125,2.25 1.203125,0 2.203125,-0.984375 2.203125,-2.25 z m -2.1875,2 c -0.4375,0 -0.875,-0.203125 -1.140625,-0.671875 -0.25,-0.4375 -0.25,-1.046875 -0.25,-1.40625 0,-0.390625 0,-0.921875 0.234375,-1.359375 C 1.609375,-4.03125 2.078125,-4.25 2.484375,-4.25 c 0.4375,0 0.859375,0.21875 1.125,0.65625 0.265625,0.421875 0.265625,1 0.265625,1.375 0,0.359375 0,0.90625 -0.21875,1.34375 C 3.421875,-0.421875 2.984375,-0.140625 2.5,-0.140625 Z m 0,0" style="stroke:none;stroke-width:0"></path></g><g id="g1859" style="fill:#000000;fill-opacity:1"><path id="path1857" transform="translate(295.52157,156.682)" d="m 6.171875,-3.34375 c 0.171875,-0.5 0.484375,-0.640625 0.84375,-0.640625 v -0.3125 C 6.78125,-4.28125 6.5,-4.265625 6.28125,-4.265625 c -0.296875,0 -0.734375,-0.015625 -0.921875,-0.03125 v 0.3125 c 0.359375,0 0.578125,0.1875 0.578125,0.46875 0,0.0625 0,0.09375 -0.0625,0.21875 L 4.96875,-0.75 3.984375,-3.53125 C 3.953125,-3.65625 3.9375,-3.671875 3.9375,-3.71875 c 0,-0.265625 0.390625,-0.265625 0.59375,-0.265625 v -0.3125 c -0.296875,0.015625 -0.796875,0.03125 -1.046875,0.03125 -0.296875,0 -0.578125,-0.015625 -0.875,-0.03125 v 0.3125 c 0.359375,0 0.515625,0.015625 0.625,0.140625 0.046875,0.0625 0.15625,0.359375 0.21875,0.546875 L 2.609375,-0.875 1.65625,-3.53125 C 1.609375,-3.65625 1.609375,-3.671875 1.609375,-3.71875 1.609375,-3.984375 2,-3.984375 2.1875,-3.984375 v -0.3125 c -0.296875,0.015625 -0.859375,0.03125 -1.078125,0.03125 -0.046875,0 -0.578125,-0.015625 -0.9375,-0.03125 v 0.3125 c 0.5,0 0.625,0.03125 0.75,0.34375 l 1.25,3.53125 C 2.21875,0.03125 2.25,0.109375 2.375,0.109375 c 0.140625,0 0.15625,-0.0625 0.203125,-0.203125 l 1.015625,-2.8125 1.015625,2.828125 c 0.03125,0.109375 0.0625,0.1875 0.203125,0.1875 0.125,0 0.15625,-0.09375 0.1875,-0.1875 z m 0,0" style="stroke:none;stroke-width:0"></path></g><g id="g1863" style="fill:#000000;fill-opacity:1"><path id="path1861" transform="translate(305.48616,156.682)" d="m 6.84375,-3.265625 c 0.15625,0 0.34375,0 0.34375,-0.1875 C 7.1875,-3.65625 7,-3.65625 6.859375,-3.65625 h -5.96875 c -0.140625,0 -0.328125,0 -0.328125,0.203125 0,0.1875 0.1875,0.1875 0.328125,0.1875 z m 0.015625,1.9375 c 0.140625,0 0.328125,0 0.328125,-0.203125 0,-0.1875 -0.1875,-0.1875 -0.34375,-0.1875 H 0.890625 c -0.140625,0 -0.328125,0 -0.328125,0.1875 0,0.203125 0.1875,0.203125 0.328125,0.203125 z m 0,0" style="stroke:none;stroke-width:0"></path></g><g id="g1869" style="fill:#000000;fill-opacity:1"><path id="path1865" transform="translate(316.55262,156.682)" d="m 2.34375,-2.484375 c 0,-1.25 0.96875,-1.96875 1.3125,-2.21875 0.265625,-0.203125 0.484375,-0.5625 0.484375,-0.984375 0,-0.578125 -0.40625,-1.34375 -1.890625,-1.34375 -1.078125,0 -1.6875,0.6875 -1.6875,1.328125 0,0.34375 0.21875,0.484375 0.453125,0.484375 0.28125,0 0.453125,-0.203125 0.453125,-0.46875 0,-0.4375 -0.40625,-0.4375 -0.546875,-0.4375 0.296875,-0.53125 0.875,-0.6875 1.296875,-0.6875 1.09375,0 1.09375,0.6875 1.09375,1.078125 0,0.578125 -0.15625,0.765625 -0.34375,0.9375 -0.65625,0.71875 -0.875,1.640625 -0.875,2.25 v 0.4375 c 0,0.1875 0,0.25 0.125,0.25 0.125,0 0.125,-0.09375 0.125,-0.28125 z M 2.734375,-0.53125 C 2.734375,-0.8125 2.5,-1.0625 2.21875,-1.0625 c -0.296875,0 -0.53125,0.25 -0.53125,0.53125 C 1.6875,-0.234375 1.921875,0 2.21875,0 2.5,0 2.734375,-0.234375 2.734375,-0.53125 Z m 0,0" style="stroke:none;stroke-width:0"></path><path id="path1867" transform="translate(321.25696,156.682)" d="m 2.34375,-2.484375 c 0,-1.25 0.96875,-1.96875 1.3125,-2.21875 0.265625,-0.203125 0.484375,-0.5625 0.484375,-0.984375 0,-0.578125 -0.40625,-1.34375 -1.890625,-1.34375 -1.078125,0 -1.6875,0.6875 -1.6875,1.328125 0,0.34375 0.21875,0.484375 0.453125,0.484375 0.28125,0 0.453125,-0.203125 0.453125,-0.46875 0,-0.4375 -0.40625,-0.4375 -0.546875,-0.4375 0.296875,-0.53125 0.875,-0.6875 1.296875,-0.6875 1.09375,0 1.09375,0.6875 1.09375,1.078125 0,0.578125 -0.15625,0.765625 -0.34375,0.9375 -0.65625,0.71875 -0.875,1.640625 -0.875,2.25 v 0.4375 c 0,0.1875 0,0.25 0.125,0.25 0.125,0 0.125,-0.09375 0.125,-0.28125 z M 2.734375,-0.53125 C 2.734375,-0.8125 2.5,-1.0625 2.21875,-1.0625 c -0.296875,0 -0.53125,0.25 -0.53125,0.53125 C 1.6875,-0.234375 1.921875,0 2.21875,0 2.5,0 2.734375,-0.234375 2.734375,-0.53125 Z m 0,0" style="stroke:none;stroke-width:0"></path></g></g></g><g id="g2210" scale="1.66150541538" version="0.11.0" transform="matrix(0.586142,0,0,0.586142,-103.65339,104.85609)"><g id="surface1"><g id="g2101" style="fill:#000000;fill-opacity:1"><path id="path2097" transform="translate(241.42,156.682)" d="M 3.8125,-3.984375 V -0.75 c 0,0.4375 -0.109375,0.4375 -0.765625,0.4375 V 0 c 0.328125,-0.015625 0.84375,-0.03125 1.09375,-0.03125 0.25,0 0.75,0.015625 1.109375,0.03125 v -0.3125 c -0.671875,0 -0.78125,0 -0.78125,-0.4375 v -6.171875 l -0.359375,0.0625 C 4.078125,-6.859375 4.0625,-6.875 4.03125,-6.890625 3.703125,-7.03125 3.296875,-7.03125 3.1875,-7.03125 c -1.046875,0 -2.125,0.5625 -2.125,1.59375 v 1.140625 H 0.265625 v 0.3125 H 1.0625 V -0.75 c 0,0.4375 -0.109375,0.4375 -0.78125,0.4375 V 0 C 0.609375,-0.015625 1.140625,-0.03125 1.390625,-0.03125 1.640625,-0.03125 2.125,-0.015625 2.5,0 v -0.3125 c -0.671875,0 -0.78125,0 -0.78125,-0.4375 v -3.234375 z m 0,-0.3125 h -2.125 v -1.125 c 0,-0.921875 0.75,-1.390625 1.5,-1.390625 0.078125,0 0.34375,0 0.625,0.09375 -0.078125,0.046875 -0.25,0.140625 -0.25,0.40625 0,0.171875 0.09375,0.328125 0.25,0.375 z m 0,0" style="stroke:none;stroke-width:0"></path><path id="path2099" transform="translate(246.95522,156.682)" d="M 4.6875,-2.140625 C 4.6875,-3.40625 3.703125,-4.46875 2.5,-4.46875 c -1.25,0 -2.21875,1.09375 -2.21875,2.328125 0,1.296875 1.03125,2.25 2.203125,2.25 1.203125,0 2.203125,-0.984375 2.203125,-2.25 z m -2.1875,2 c -0.4375,0 -0.875,-0.203125 -1.140625,-0.671875 -0.25,-0.4375 -0.25,-1.046875 -0.25,-1.40625 0,-0.390625 0,-0.921875 0.234375,-1.359375 C 1.609375,-4.03125 2.078125,-4.25 2.484375,-4.25 c 0.4375,0 0.859375,0.21875 1.125,0.65625 0.265625,0.421875 0.265625,1 0.265625,1.375 0,0.359375 0,0.90625 -0.21875,1.34375 C 3.421875,-0.421875 2.984375,-0.140625 2.5,-0.140625 Z m 0,0" style="stroke:none;stroke-width:0"></path></g><g id="g2105" style="fill:#000000;fill-opacity:1"><path id="path2103" transform="translate(251.65757,156.682)" d="m 6.171875,-3.34375 c 0.171875,-0.5 0.484375,-0.640625 0.84375,-0.640625 v -0.3125 C 6.78125,-4.28125 6.5,-4.265625 6.28125,-4.265625 c -0.296875,0 -0.734375,-0.015625 -0.921875,-0.03125 v 0.3125 c 0.359375,0 0.578125,0.1875 0.578125,0.46875 0,0.0625 0,0.09375 -0.0625,0.21875 L 4.96875,-0.75 3.984375,-3.53125 C 3.953125,-3.65625 3.9375,-3.671875 3.9375,-3.71875 c 0,-0.265625 0.390625,-0.265625 0.59375,-0.265625 v -0.3125 c -0.296875,0.015625 -0.796875,0.03125 -1.046875,0.03125 -0.296875,0 -0.578125,-0.015625 -0.875,-0.03125 v 0.3125 c 0.359375,0 0.515625,0.015625 0.625,0.140625 0.046875,0.0625 0.15625,0.359375 0.21875,0.546875 L 2.609375,-0.875 1.65625,-3.53125 C 1.609375,-3.65625 1.609375,-3.671875 1.609375,-3.71875 1.609375,-3.984375 2,-3.984375 2.1875,-3.984375 v -0.3125 c -0.296875,0.015625 -0.859375,0.03125 -1.078125,0.03125 -0.046875,0 -0.578125,-0.015625 -0.9375,-0.03125 v 0.3125 c 0.5,0 0.625,0.03125 0.75,0.34375 l 1.25,3.53125 C 2.21875,0.03125 2.25,0.109375 2.375,0.109375 c 0.140625,0 0.15625,-0.0625 0.203125,-0.203125 l 1.015625,-2.8125 1.015625,2.828125 c 0.03125,0.109375 0.0625,0.1875 0.203125,0.1875 0.125,0 0.15625,-0.09375 0.1875,-0.1875 z m 0,0" style="stroke:none;stroke-width:0"></path></g><g id="g2109" style="fill:#000000;fill-opacity:1"><path id="path2107" transform="translate(261.62216,156.682)" d="m 6.84375,-3.265625 c 0.15625,0 0.34375,0 0.34375,-0.1875 C 7.1875,-3.65625 7,-3.65625 6.859375,-3.65625 h -5.96875 c -0.140625,0 -0.328125,0 -0.328125,0.203125 0,0.1875 0.1875,0.1875 0.328125,0.1875 z m 0.015625,1.9375 c 0.140625,0 0.328125,0 0.328125,-0.203125 0,-0.1875 -0.1875,-0.1875 -0.34375,-0.1875 H 0.890625 c -0.140625,0 -0.328125,0 -0.328125,0.1875 0,0.203125 0.1875,0.203125 0.328125,0.203125 z m 0,0" style="stroke:none;stroke-width:0"></path></g><g id="g2119" style="fill:#000000;fill-opacity:1"><path id="path2111" transform="translate(272.14067,156.682)" d="m 3.3125,-0.75 c 0.046875,0.390625 0.3125,0.8125 0.78125,0.8125 0.21875,0 0.828125,-0.140625 0.828125,-0.953125 v -0.5625 h -0.25 v 0.5625 c 0,0.578125 -0.25,0.640625 -0.359375,0.640625 -0.328125,0 -0.375,-0.453125 -0.375,-0.5 v -1.984375 c 0,-0.421875 0,-0.8125 -0.359375,-1.1875 C 3.1875,-4.3125 2.6875,-4.46875 2.21875,-4.46875 c -0.828125,0 -1.515625,0.46875 -1.515625,1.125 0,0.296875 0.203125,0.46875 0.46875,0.46875 0.28125,0 0.453125,-0.203125 0.453125,-0.453125 0,-0.125 -0.046875,-0.453125 -0.515625,-0.453125 C 1.390625,-4.140625 1.875,-4.25 2.1875,-4.25 c 0.5,0 1.0625,0.390625 1.0625,1.28125 v 0.359375 c -0.515625,0.03125 -1.203125,0.0625 -1.828125,0.359375 -0.75,0.34375 -1,0.859375 -1,1.296875 0,0.8125 0.96875,1.0625 1.59375,1.0625 0.65625,0 1.109375,-0.40625 1.296875,-0.859375 z M 3.25,-2.390625 v 1 c 0,0.9375 -0.71875,1.28125 -1.171875,1.28125 -0.484375,0 -0.890625,-0.34375 -0.890625,-0.84375 0,-0.546875 0.421875,-1.375 2.0625,-1.4375 z m 0,0" style="stroke:none;stroke-width:0"></path><path id="path2113" transform="translate(277.12197,156.682)" d="M 1.671875,-3.3125 V -4.40625 L 0.28125,-4.296875 v 0.3125 c 0.703125,0 0.78125,0.0625 0.78125,0.5625 V -0.75 c 0,0.4375 -0.109375,0.4375 -0.78125,0.4375 V 0 c 0.390625,-0.015625 0.859375,-0.03125 1.140625,-0.03125 0.390625,0 0.859375,0 1.265625,0.03125 V -0.3125 H 2.46875 c -0.734375,0 -0.75,-0.109375 -0.75,-0.46875 V -2.3125 c 0,-0.984375 0.421875,-1.875 1.171875,-1.875 0.0625,0 0.09375,0 0.109375,0.015625 -0.03125,0 -0.234375,0.125 -0.234375,0.390625 0,0.265625 0.21875,0.421875 0.4375,0.421875 0.171875,0 0.421875,-0.125 0.421875,-0.4375 0,-0.3125 -0.3125,-0.609375 -0.734375,-0.609375 -0.734375,0 -1.09375,0.671875 -1.21875,1.09375 z m 0,0" style="stroke:none;stroke-width:0"></path><path id="path2115" transform="translate(281.02432,156.682)" d="M 1.109375,-2.515625 C 1.171875,-4 2.015625,-4.25 2.359375,-4.25 c 1.015625,0 1.125,1.34375 1.125,1.734375 z m 0,0.21875 h 2.78125 c 0.21875,0 0.25,0 0.25,-0.21875 0,-0.984375 -0.546875,-1.953125 -1.78125,-1.953125 -1.15625,0 -2.078125,1.03125 -2.078125,2.28125 0,1.328125 1.046875,2.296875 2.1875,2.296875 C 3.6875,0.109375 4.140625,-1 4.140625,-1.1875 4.140625,-1.28125 4.0625,-1.3125 4,-1.3125 c -0.078125,0 -0.109375,0.0625 -0.125,0.140625 -0.34375,1.03125 -1.25,1.03125 -1.34375,1.03125 -0.5,0 -0.890625,-0.296875 -1.125,-0.671875 -0.296875,-0.46875 -0.296875,-1.125 -0.296875,-1.484375 z m 0,0" style="stroke:none;stroke-width:0"></path><path id="path2117" transform="translate(285.4517,156.682)" d="m 3.3125,-0.75 c 0.046875,0.390625 0.3125,0.8125 0.78125,0.8125 0.21875,0 0.828125,-0.140625 0.828125,-0.953125 v -0.5625 h -0.25 v 0.5625 c 0,0.578125 -0.25,0.640625 -0.359375,0.640625 -0.328125,0 -0.375,-0.453125 -0.375,-0.5 v -1.984375 c 0,-0.421875 0,-0.8125 -0.359375,-1.1875 C 3.1875,-4.3125 2.6875,-4.46875 2.21875,-4.46875 c -0.828125,0 -1.515625,0.46875 -1.515625,1.125 0,0.296875 0.203125,0.46875 0.46875,0.46875 0.28125,0 0.453125,-0.203125 0.453125,-0.453125 0,-0.125 -0.046875,-0.453125 -0.515625,-0.453125 C 1.390625,-4.140625 1.875,-4.25 2.1875,-4.25 c 0.5,0 1.0625,0.390625 1.0625,1.28125 v 0.359375 c -0.515625,0.03125 -1.203125,0.0625 -1.828125,0.359375 -0.75,0.34375 -1,0.859375 -1,1.296875 0,0.8125 0.96875,1.0625 1.59375,1.0625 0.65625,0 1.109375,-0.40625 1.296875,-0.859375 z M 3.25,-2.390625 v 1 c 0,0.9375 -0.71875,1.28125 -1.171875,1.28125 -0.484375,0 -0.890625,-0.34375 -0.890625,-0.84375 0,-0.546875 0.421875,-1.375 2.0625,-1.4375 z m 0,0" style="stroke:none;stroke-width:0"></path></g><g id="g2123" style="fill:#000000;fill-opacity:1"><path id="path2121" transform="translate(292.645,156.682)" d="m 1.90625,-2.5 c 0,-0.28125 -0.234375,-0.515625 -0.515625,-0.515625 -0.296875,0 -0.53125,0.234375 -0.53125,0.515625 0,0.296875 0.234375,0.53125 0.53125,0.53125 0.28125,0 0.515625,-0.234375 0.515625,-0.53125 z m 0,0" style="stroke:none;stroke-width:0"></path></g><g id="g2127" style="fill:#000000;fill-opacity:1"><path id="path2125" transform="translate(297.626,156.682)" d="M 4.140625,-3.3125 C 4.234375,-3.546875 4.40625,-3.984375 5.0625,-3.984375 v -0.3125 c -0.234375,0.015625 -0.515625,0.03125 -0.75,0.03125 -0.234375,0 -0.6875,-0.015625 -0.859375,-0.03125 v 0.3125 c 0.359375,0 0.46875,0.234375 0.46875,0.421875 0,0.09375 -0.015625,0.140625 -0.046875,0.25 L 2.84375,-0.78125 1.734375,-3.5625 c -0.0625,-0.125 -0.0625,-0.140625 -0.0625,-0.171875 0,-0.25 0.390625,-0.25 0.578125,-0.25 v -0.3125 c -0.3125,0.015625 -0.859375,0.03125 -1.09375,0.03125 -0.265625,0 -0.671875,-0.015625 -0.96875,-0.03125 v 0.3125 c 0.625,0 0.671875,0.0625 0.796875,0.359375 l 1.4375,3.546875 C 2.484375,0.0625 2.5,0.109375 2.625,0.109375 c 0.140625,0 0.171875,-0.09375 0.21875,-0.1875 z m 0,0" style="stroke:none;stroke-width:0"></path></g><g id="g2135" style="fill:#000000;fill-opacity:1"><path id="path2129" transform="translate(302.60531,156.682)" d="M 1.109375,-2.515625 C 1.171875,-4 2.015625,-4.25 2.359375,-4.25 c 1.015625,0 1.125,1.34375 1.125,1.734375 z m 0,0.21875 h 2.78125 c 0.21875,0 0.25,0 0.25,-0.21875 0,-0.984375 -0.546875,-1.953125 -1.78125,-1.953125 -1.15625,0 -2.078125,1.03125 -2.078125,2.28125 0,1.328125 1.046875,2.296875 2.1875,2.296875 C 3.6875,0.109375 4.140625,-1 4.140625,-1.1875 4.140625,-1.28125 4.0625,-1.3125 4,-1.3125 c -0.078125,0 -0.109375,0.0625 -0.125,0.140625 -0.34375,1.03125 -1.25,1.03125 -1.34375,1.03125 -0.5,0 -0.890625,-0.296875 -1.125,-0.671875 -0.296875,-0.46875 -0.296875,-1.125 -0.296875,-1.484375 z m 0,0" style="stroke:none;stroke-width:0"></path><path id="path2131" transform="translate(307.03269,156.682)" d="M 1.765625,-6.921875 0.328125,-6.8125 V -6.5 c 0.703125,0 0.78125,0.0625 0.78125,0.5625 V -0.75 c 0,0.4375 -0.109375,0.4375 -0.78125,0.4375 V 0 C 0.65625,-0.015625 1.1875,-0.03125 1.4375,-0.03125 c 0.25,0 0.734375,0.015625 1.109375,0.03125 v -0.3125 c -0.671875,0 -0.78125,0 -0.78125,-0.4375 z m 0,0" style="stroke:none;stroke-width:0"></path><path id="path2133" transform="translate(309.8003,156.682)" d="M 4.6875,-2.140625 C 4.6875,-3.40625 3.703125,-4.46875 2.5,-4.46875 c -1.25,0 -2.21875,1.09375 -2.21875,2.328125 0,1.296875 1.03125,2.25 2.203125,2.25 1.203125,0 2.203125,-0.984375 2.203125,-2.25 z m -2.1875,2 c -0.4375,0 -0.875,-0.203125 -1.140625,-0.671875 -0.25,-0.4375 -0.25,-1.046875 -0.25,-1.40625 0,-0.390625 0,-0.921875 0.234375,-1.359375 C 1.609375,-4.03125 2.078125,-4.25 2.484375,-4.25 c 0.4375,0 0.859375,0.21875 1.125,0.65625 0.265625,0.421875 0.265625,1 0.265625,1.375 0,0.359375 0,0.90625 -0.21875,1.34375 C 3.421875,-0.421875 2.984375,-0.140625 2.5,-0.140625 Z m 0,0" style="stroke:none;stroke-width:0"></path></g><g id="g2143" style="fill:#000000;fill-opacity:1"><path id="path2137" transform="translate(315.06055,156.682)" d="m 1.171875,-2.171875 c 0,-1.625 0.8125,-2.046875 1.34375,-2.046875 0.09375,0 0.71875,0.015625 1.0625,0.375 -0.40625,0.03125 -0.46875,0.328125 -0.46875,0.453125 0,0.265625 0.1875,0.453125 0.453125,0.453125 0.265625,0 0.46875,-0.15625 0.46875,-0.46875 0,-0.671875 -0.765625,-1.0625 -1.53125,-1.0625 -1.25,0 -2.15625,1.078125 -2.15625,2.3125 0,1.28125 0.984375,2.265625 2.140625,2.265625 1.328125,0 1.65625,-1.203125 1.65625,-1.296875 0,-0.09375 -0.109375,-0.09375 -0.140625,-0.09375 -0.078125,0 -0.109375,0.03125 -0.125,0.09375 -0.28125,0.921875 -0.9375,1.046875 -1.296875,1.046875 -0.53125,0 -1.40625,-0.421875 -1.40625,-2.03125 z m 0,0" style="stroke:none;stroke-width:0"></path><path id="path2139" transform="translate(319.48793,156.682)" d="M 1.765625,-4.40625 0.375,-4.296875 v 0.3125 c 0.640625,0 0.734375,0.0625 0.734375,0.546875 V -0.75 c 0,0.4375 -0.109375,0.4375 -0.78125,0.4375 V 0 C 0.640625,-0.015625 1.1875,-0.03125 1.421875,-0.03125 1.78125,-0.03125 2.125,-0.015625 2.46875,0 v -0.3125 c -0.671875,0 -0.703125,-0.046875 -0.703125,-0.4375 z m 0.03125,-1.734375 c 0,-0.3125 -0.234375,-0.53125 -0.515625,-0.53125 -0.3125,0 -0.53125,0.265625 -0.53125,0.53125 0,0.265625 0.21875,0.53125 0.53125,0.53125 0.28125,0 0.515625,-0.21875 0.515625,-0.53125 z m 0,0" style="stroke:none;stroke-width:0"></path><path id="path2141" transform="translate(322.25554,156.682)" d="m 1.71875,-3.984375 h 1.4375 v -0.3125 H 1.71875 V -6.125 h -0.25 c 0,0.8125 -0.296875,1.875 -1.28125,1.921875 v 0.21875 h 0.84375 v 2.75 c 0,1.21875 0.9375,1.34375 1.296875,1.34375 0.703125,0 0.984375,-0.703125 0.984375,-1.34375 v -0.5625 h -0.25 V -1.25 c 0,0.734375 -0.296875,1.109375 -0.671875,1.109375 -0.671875,0 -0.671875,-0.90625 -0.671875,-1.078125 z m 0,0" style="stroke:none;stroke-width:0"></path></g><g id="g2147" style="fill:#000000;fill-opacity:1"><path id="path2145" transform="translate(325.85104,156.682)" d="m 4.140625,-3.34375 c 0.25,-0.640625 0.765625,-0.640625 0.921875,-0.640625 v -0.3125 c -0.234375,0.015625 -0.515625,0.03125 -0.75,0.03125 -0.171875,0 -0.640625,-0.015625 -0.859375,-0.03125 v 0.3125 c 0.3125,0 0.46875,0.171875 0.46875,0.421875 0,0.109375 -0.015625,0.125 -0.0625,0.25 L 2.84375,-0.875 1.75,-3.546875 C 1.703125,-3.65625 1.6875,-3.6875 1.6875,-3.734375 c 0,-0.25 0.359375,-0.25 0.5625,-0.25 v -0.3125 c -0.265625,0.015625 -0.921875,0.03125 -1.09375,0.03125 -0.265625,0 -0.671875,-0.015625 -0.96875,-0.03125 v 0.3125 c 0.484375,0 0.671875,0 0.8125,0.34375 L 2.5,0 C 2.4375,0.125 2.296875,0.453125 2.25,0.59375 2.03125,1.140625 1.75,1.828125 1.109375,1.828125 c -0.046875,0 -0.28125,0 -0.46875,-0.1875 0.3125,-0.03125 0.390625,-0.25 0.390625,-0.421875 0,-0.25 -0.1875,-0.40625 -0.421875,-0.40625 -0.203125,0 -0.421875,0.125 -0.421875,0.421875 0,0.453125 0.421875,0.8125 0.921875,0.8125 0.625,0 1.03125,-0.578125 1.265625,-1.140625 z m 0,0" style="stroke:none;stroke-width:0"></path></g><g id="g2151" style="fill:#000000;fill-opacity:1"><path id="path2149" transform="translate(261.622,171.626)" d="m 6.84375,-3.265625 c 0.15625,0 0.34375,0 0.34375,-0.1875 C 7.1875,-3.65625 7,-3.65625 6.859375,-3.65625 h -5.96875 c -0.140625,0 -0.328125,0 -0.328125,0.203125 0,0.1875 0.1875,0.1875 0.328125,0.1875 z m 0.015625,1.9375 c 0.140625,0 0.328125,0 0.328125,-0.203125 0,-0.1875 -0.1875,-0.1875 -0.34375,-0.1875 H 0.890625 c -0.140625,0 -0.328125,0 -0.328125,0.1875 0,0.203125 0.1875,0.203125 0.328125,0.203125 z m 0,0" style="stroke:none;stroke-width:0"></path></g><g id="g2163" style="fill:#000000;fill-opacity:1"><path id="path2153" transform="translate(272.14051,171.626)" d="m 6.171875,-3.34375 c 0.171875,-0.5 0.484375,-0.640625 0.84375,-0.640625 v -0.3125 C 6.78125,-4.28125 6.5,-4.265625 6.28125,-4.265625 c -0.296875,0 -0.734375,-0.015625 -0.921875,-0.03125 v 0.3125 c 0.359375,0 0.578125,0.1875 0.578125,0.46875 0,0.0625 0,0.09375 -0.0625,0.21875 L 4.96875,-0.75 3.984375,-3.53125 C 3.953125,-3.65625 3.9375,-3.671875 3.9375,-3.71875 c 0,-0.265625 0.390625,-0.265625 0.59375,-0.265625 v -0.3125 c -0.296875,0.015625 -0.796875,0.03125 -1.046875,0.03125 -0.296875,0 -0.578125,-0.015625 -0.875,-0.03125 v 0.3125 c 0.359375,0 0.515625,0.015625 0.625,0.140625 0.046875,0.0625 0.15625,0.359375 0.21875,0.546875 L 2.609375,-0.875 1.65625,-3.53125 C 1.609375,-3.65625 1.609375,-3.671875 1.609375,-3.71875 1.609375,-3.984375 2,-3.984375 2.1875,-3.984375 v -0.3125 c -0.296875,0.015625 -0.859375,0.03125 -1.078125,0.03125 -0.046875,0 -0.578125,-0.015625 -0.9375,-0.03125 v 0.3125 c 0.5,0 0.625,0.03125 0.75,0.34375 l 1.25,3.53125 C 2.21875,0.03125 2.25,0.109375 2.375,0.109375 c 0.140625,0 0.15625,-0.0625 0.203125,-0.203125 l 1.015625,-2.8125 1.015625,2.828125 c 0.03125,0.109375 0.0625,0.1875 0.203125,0.1875 0.125,0 0.15625,-0.09375 0.1875,-0.1875 z m 0,0" style="stroke:none;stroke-width:0"></path><path id="path2155" transform="translate(279.3355,171.626)" d="M 1.765625,-4.40625 0.375,-4.296875 v 0.3125 c 0.640625,0 0.734375,0.0625 0.734375,0.546875 V -0.75 c 0,0.4375 -0.109375,0.4375 -0.78125,0.4375 V 0 C 0.640625,-0.015625 1.1875,-0.03125 1.421875,-0.03125 1.78125,-0.03125 2.125,-0.015625 2.46875,0 v -0.3125 c -0.671875,0 -0.703125,-0.046875 -0.703125,-0.4375 z m 0.03125,-1.734375 c 0,-0.3125 -0.234375,-0.53125 -0.515625,-0.53125 -0.3125,0 -0.53125,0.265625 -0.53125,0.53125 0,0.265625 0.21875,0.53125 0.53125,0.53125 0.28125,0 0.515625,-0.21875 0.515625,-0.53125 z m 0,0" style="stroke:none;stroke-width:0"></path><path id="path2157" transform="translate(282.10311,171.626)" d="m 3.78125,-0.546875 v 0.65625 L 5.25,0 v -0.3125 c -0.6875,0 -0.78125,-0.0625 -0.78125,-0.5625 V -6.921875 L 3.046875,-6.8125 V -6.5 c 0.6875,0 0.765625,0.0625 0.765625,0.5625 v 2.15625 c -0.28125,-0.359375 -0.71875,-0.625 -1.25,-0.625 -1.171875,0 -2.21875,0.984375 -2.21875,2.265625 0,1.265625 0.96875,2.25 2.109375,2.25 0.640625,0 1.078125,-0.34375 1.328125,-0.65625 z m 0,-2.671875 v 2.046875 c 0,0.171875 0,0.1875 -0.109375,0.359375 C 3.375,-0.328125 2.9375,-0.109375 2.5,-0.109375 2.046875,-0.109375 1.6875,-0.375 1.453125,-0.75 1.203125,-1.15625 1.171875,-1.71875 1.171875,-2.140625 1.171875,-2.5 1.1875,-3.09375 1.46875,-3.546875 1.6875,-3.859375 2.0625,-4.1875 2.609375,-4.1875 c 0.34375,0 0.765625,0.15625 1.0625,0.59375 0.109375,0.171875 0.109375,0.1875 0.109375,0.375 z m 0,0" style="stroke:none;stroke-width:0"></path><path id="path2159" transform="translate(287.63833,171.626)" d="m 1.71875,-3.984375 h 1.4375 v -0.3125 H 1.71875 V -6.125 h -0.25 c 0,0.8125 -0.296875,1.875 -1.28125,1.921875 v 0.21875 h 0.84375 v 2.75 c 0,1.21875 0.9375,1.34375 1.296875,1.34375 0.703125,0 0.984375,-0.703125 0.984375,-1.34375 v -0.5625 h -0.25 V -1.25 c 0,0.734375 -0.296875,1.109375 -0.671875,1.109375 -0.671875,0 -0.671875,-0.90625 -0.671875,-1.078125 z m 0,0" style="stroke:none;stroke-width:0"></path><path id="path2161" transform="translate(291.51279,171.626)" d="m 1.09375,-0.75 c 0,0.4375 -0.109375,0.4375 -0.78125,0.4375 V 0 c 0.359375,-0.015625 0.859375,-0.03125 1.140625,-0.03125 0.25,0 0.765625,0.015625 1.109375,0.03125 v -0.3125 c -0.671875,0 -0.78125,0 -0.78125,-0.4375 V -2.59375 C 1.78125,-3.625 2.5,-4.1875 3.125,-4.1875 c 0.640625,0 0.75,0.53125 0.75,1.109375 V -0.75 c 0,0.4375 -0.109375,0.4375 -0.78125,0.4375 V 0 c 0.34375,-0.015625 0.859375,-0.03125 1.125,-0.03125 0.25,0 0.78125,0.015625 1.109375,0.03125 v -0.3125 c -0.515625,0 -0.765625,0 -0.765625,-0.296875 v -1.90625 c 0,-0.859375 0,-1.15625 -0.3125,-1.515625 -0.140625,-0.171875 -0.46875,-0.375 -1.046875,-0.375 -0.84375,0 -1.28125,0.59375 -1.453125,0.984375 v -3.5 L 0.3125,-6.8125 V -6.5 c 0.703125,0 0.78125,0.0625 0.78125,0.5625 z m 0,0" style="stroke:none;stroke-width:0"></path></g><g id="g2167" style="fill:#000000;fill-opacity:1"><path id="path2165" transform="translate(299.259,171.626)" d="m 1.90625,-2.5 c 0,-0.28125 -0.234375,-0.515625 -0.515625,-0.515625 -0.296875,0 -0.53125,0.234375 -0.53125,0.515625 0,0.296875 0.234375,0.53125 0.53125,0.53125 0.28125,0 0.515625,-0.234375 0.515625,-0.53125 z m 0,0" style="stroke:none;stroke-width:0"></path></g><g id="g2179" style="fill:#000000;fill-opacity:1"><path id="path2169" transform="translate(304.24,171.626)" d="m 3.78125,-0.546875 v 0.65625 L 5.25,0 v -0.3125 c -0.6875,0 -0.78125,-0.0625 -0.78125,-0.5625 V -6.921875 L 3.046875,-6.8125 V -6.5 c 0.6875,0 0.765625,0.0625 0.765625,0.5625 v 2.15625 c -0.28125,-0.359375 -0.71875,-0.625 -1.25,-0.625 -1.171875,0 -2.21875,0.984375 -2.21875,2.265625 0,1.265625 0.96875,2.25 2.109375,2.25 0.640625,0 1.078125,-0.34375 1.328125,-0.65625 z m 0,-2.671875 v 2.046875 c 0,0.171875 0,0.1875 -0.109375,0.359375 C 3.375,-0.328125 2.9375,-0.109375 2.5,-0.109375 2.046875,-0.109375 1.6875,-0.375 1.453125,-0.75 1.203125,-1.15625 1.171875,-1.71875 1.171875,-2.140625 1.171875,-2.5 1.1875,-3.09375 1.46875,-3.546875 1.6875,-3.859375 2.0625,-4.1875 2.609375,-4.1875 c 0.34375,0 0.765625,0.15625 1.0625,0.59375 0.109375,0.171875 0.109375,0.1875 0.109375,0.375 z m 0,0" style="stroke:none;stroke-width:0"></path><path id="path2171" transform="translate(309.77522,171.626)" d="M 1.109375,-2.515625 C 1.171875,-4 2.015625,-4.25 2.359375,-4.25 c 1.015625,0 1.125,1.34375 1.125,1.734375 z m 0,0.21875 h 2.78125 c 0.21875,0 0.25,0 0.25,-0.21875 0,-0.984375 -0.546875,-1.953125 -1.78125,-1.953125 -1.15625,0 -2.078125,1.03125 -2.078125,2.28125 0,1.328125 1.046875,2.296875 2.1875,2.296875 C 3.6875,0.109375 4.140625,-1 4.140625,-1.1875 4.140625,-1.28125 4.0625,-1.3125 4,-1.3125 c -0.078125,0 -0.109375,0.0625 -0.125,0.140625 -0.34375,1.03125 -1.25,1.03125 -1.34375,1.03125 -0.5,0 -0.890625,-0.296875 -1.125,-0.671875 -0.296875,-0.46875 -0.296875,-1.125 -0.296875,-1.484375 z m 0,0" style="stroke:none;stroke-width:0"></path><path id="path2173" transform="translate(314.2026,171.626)" d="m 1.71875,-3.75 v -0.65625 l -1.4375,0.109375 v 0.3125 c 0.703125,0 0.78125,0.0625 0.78125,0.5 v 4.65625 C 1.0625,1.625 0.953125,1.625 0.28125,1.625 V 1.9375 C 0.625,1.921875 1.140625,1.90625 1.390625,1.90625 c 0.28125,0 0.78125,0.015625 1.125,0.03125 V 1.625 C 1.859375,1.625 1.75,1.625 1.75,1.171875 V -0.59375 c 0.046875,0.171875 0.46875,0.703125 1.21875,0.703125 1.1875,0 2.21875,-0.984375 2.21875,-2.265625 0,-1.265625 -0.953125,-2.25 -2.078125,-2.25 -0.78125,0 -1.203125,0.4375 -1.390625,0.65625 z M 1.75,-1.140625 v -2.21875 C 2.03125,-3.875 2.515625,-4.15625 3.03125,-4.15625 c 0.734375,0 1.328125,0.875 1.328125,2 0,1.203125 -0.6875,2.046875 -1.421875,2.046875 -0.40625,0 -0.78125,-0.203125 -1.046875,-0.609375 C 1.75,-0.921875 1.75,-0.9375 1.75,-1.140625 Z m 0,0" style="stroke:none;stroke-width:0"></path><path id="path2175" transform="translate(319.73782,171.626)" d="m 1.71875,-3.984375 h 1.4375 v -0.3125 H 1.71875 V -6.125 h -0.25 c 0,0.8125 -0.296875,1.875 -1.28125,1.921875 v 0.21875 h 0.84375 v 2.75 c 0,1.21875 0.9375,1.34375 1.296875,1.34375 0.703125,0 0.984375,-0.703125 0.984375,-1.34375 v -0.5625 h -0.25 V -1.25 c 0,0.734375 -0.296875,1.109375 -0.671875,1.109375 -0.671875,0 -0.671875,-0.90625 -0.671875,-1.078125 z m 0,0" style="stroke:none;stroke-width:0"></path><path id="path2177" transform="translate(323.61228,171.626)" d="m 1.09375,-0.75 c 0,0.4375 -0.109375,0.4375 -0.78125,0.4375 V 0 c 0.359375,-0.015625 0.859375,-0.03125 1.140625,-0.03125 0.25,0 0.765625,0.015625 1.109375,0.03125 v -0.3125 c -0.671875,0 -0.78125,0 -0.78125,-0.4375 V -2.59375 C 1.78125,-3.625 2.5,-4.1875 3.125,-4.1875 c 0.640625,0 0.75,0.53125 0.75,1.109375 V -0.75 c 0,0.4375 -0.109375,0.4375 -0.78125,0.4375 V 0 c 0.34375,-0.015625 0.859375,-0.03125 1.125,-0.03125 0.25,0 0.78125,0.015625 1.109375,0.03125 v -0.3125 c -0.515625,0 -0.765625,0 -0.765625,-0.296875 v -1.90625 c 0,-0.859375 0,-1.15625 -0.3125,-1.515625 -0.140625,-0.171875 -0.46875,-0.375 -1.046875,-0.375 -0.84375,0 -1.28125,0.59375 -1.453125,0.984375 v -3.5 L 0.3125,-6.8125 V -6.5 c 0.703125,0 0.78125,0.0625 0.78125,0.5625 z m 0,0" style="stroke:none;stroke-width:0"></path></g><g id="g2183" style="fill:#000000;fill-opacity:1"><path id="path2181" transform="translate(331.361,171.626)" d="m 1.90625,-2.5 c 0,-0.28125 -0.234375,-0.515625 -0.515625,-0.515625 -0.296875,0 -0.53125,0.234375 -0.53125,0.515625 0,0.296875 0.234375,0.53125 0.53125,0.53125 0.28125,0 0.515625,-0.234375 0.515625,-0.53125 z m 0,0" style="stroke:none;stroke-width:0"></path></g><g id="g2187" style="fill:#000000;fill-opacity:1"><path id="path2185" transform="translate(336.342,171.626)" d="M 4.140625,-3.3125 C 4.234375,-3.546875 4.40625,-3.984375 5.0625,-3.984375 v -0.3125 c -0.234375,0.015625 -0.515625,0.03125 -0.75,0.03125 -0.234375,0 -0.6875,-0.015625 -0.859375,-0.03125 v 0.3125 c 0.359375,0 0.46875,0.234375 0.46875,0.421875 0,0.09375 -0.015625,0.140625 -0.046875,0.25 L 2.84375,-0.78125 1.734375,-3.5625 c -0.0625,-0.125 -0.0625,-0.140625 -0.0625,-0.171875 0,-0.25 0.390625,-0.25 0.578125,-0.25 v -0.3125 c -0.3125,0.015625 -0.859375,0.03125 -1.09375,0.03125 -0.265625,0 -0.671875,-0.015625 -0.96875,-0.03125 v 0.3125 c 0.625,0 0.671875,0.0625 0.796875,0.359375 l 1.4375,3.546875 C 2.484375,0.0625 2.5,0.109375 2.625,0.109375 c 0.140625,0 0.171875,-0.09375 0.21875,-0.1875 z m 0,0" style="stroke:none;stroke-width:0"></path></g><g id="g2195" style="fill:#000000;fill-opacity:1"><path id="path2189" transform="translate(341.32131,171.626)" d="M 1.109375,-2.515625 C 1.171875,-4 2.015625,-4.25 2.359375,-4.25 c 1.015625,0 1.125,1.34375 1.125,1.734375 z m 0,0.21875 h 2.78125 c 0.21875,0 0.25,0 0.25,-0.21875 0,-0.984375 -0.546875,-1.953125 -1.78125,-1.953125 -1.15625,0 -2.078125,1.03125 -2.078125,2.28125 0,1.328125 1.046875,2.296875 2.1875,2.296875 C 3.6875,0.109375 4.140625,-1 4.140625,-1.1875 4.140625,-1.28125 4.0625,-1.3125 4,-1.3125 c -0.078125,0 -0.109375,0.0625 -0.125,0.140625 -0.34375,1.03125 -1.25,1.03125 -1.34375,1.03125 -0.5,0 -0.890625,-0.296875 -1.125,-0.671875 -0.296875,-0.46875 -0.296875,-1.125 -0.296875,-1.484375 z m 0,0" style="stroke:none;stroke-width:0"></path><path id="path2191" transform="translate(345.74869,171.626)" d="M 1.765625,-6.921875 0.328125,-6.8125 V -6.5 c 0.703125,0 0.78125,0.0625 0.78125,0.5625 V -0.75 c 0,0.4375 -0.109375,0.4375 -0.78125,0.4375 V 0 C 0.65625,-0.015625 1.1875,-0.03125 1.4375,-0.03125 c 0.25,0 0.734375,0.015625 1.109375,0.03125 v -0.3125 c -0.671875,0 -0.78125,0 -0.78125,-0.4375 z m 0,0" style="stroke:none;stroke-width:0"></path><path id="path2193" transform="translate(348.5163,171.626)" d="M 4.6875,-2.140625 C 4.6875,-3.40625 3.703125,-4.46875 2.5,-4.46875 c -1.25,0 -2.21875,1.09375 -2.21875,2.328125 0,1.296875 1.03125,2.25 2.203125,2.25 1.203125,0 2.203125,-0.984375 2.203125,-2.25 z m -2.1875,2 c -0.4375,0 -0.875,-0.203125 -1.140625,-0.671875 -0.25,-0.4375 -0.25,-1.046875 -0.25,-1.40625 0,-0.390625 0,-0.921875 0.234375,-1.359375 C 1.609375,-4.03125 2.078125,-4.25 2.484375,-4.25 c 0.4375,0 0.859375,0.21875 1.125,0.65625 0.265625,0.421875 0.265625,1 0.265625,1.375 0,0.359375 0,0.90625 -0.21875,1.34375 C 3.421875,-0.421875 2.984375,-0.140625 2.5,-0.140625 Z m 0,0" style="stroke:none;stroke-width:0"></path></g><g id="g2203" style="fill:#000000;fill-opacity:1"><path id="path2197" transform="translate(353.77655,171.626)" d="m 1.171875,-2.171875 c 0,-1.625 0.8125,-2.046875 1.34375,-2.046875 0.09375,0 0.71875,0.015625 1.0625,0.375 -0.40625,0.03125 -0.46875,0.328125 -0.46875,0.453125 0,0.265625 0.1875,0.453125 0.453125,0.453125 0.265625,0 0.46875,-0.15625 0.46875,-0.46875 0,-0.671875 -0.765625,-1.0625 -1.53125,-1.0625 -1.25,0 -2.15625,1.078125 -2.15625,2.3125 0,1.28125 0.984375,2.265625 2.140625,2.265625 1.328125,0 1.65625,-1.203125 1.65625,-1.296875 0,-0.09375 -0.109375,-0.09375 -0.140625,-0.09375 -0.078125,0 -0.109375,0.03125 -0.125,0.09375 -0.28125,0.921875 -0.9375,1.046875 -1.296875,1.046875 -0.53125,0 -1.40625,-0.421875 -1.40625,-2.03125 z m 0,0" style="stroke:none;stroke-width:0"></path><path id="path2199" transform="translate(358.20393,171.626)" d="M 1.765625,-4.40625 0.375,-4.296875 v 0.3125 c 0.640625,0 0.734375,0.0625 0.734375,0.546875 V -0.75 c 0,0.4375 -0.109375,0.4375 -0.78125,0.4375 V 0 C 0.640625,-0.015625 1.1875,-0.03125 1.421875,-0.03125 1.78125,-0.03125 2.125,-0.015625 2.46875,0 v -0.3125 c -0.671875,0 -0.703125,-0.046875 -0.703125,-0.4375 z m 0.03125,-1.734375 c 0,-0.3125 -0.234375,-0.53125 -0.515625,-0.53125 -0.3125,0 -0.53125,0.265625 -0.53125,0.53125 0,0.265625 0.21875,0.53125 0.53125,0.53125 0.28125,0 0.515625,-0.21875 0.515625,-0.53125 z m 0,0" style="stroke:none;stroke-width:0"></path><path id="path2201" transform="translate(360.97154,171.626)" d="m 1.71875,-3.984375 h 1.4375 v -0.3125 H 1.71875 V -6.125 h -0.25 c 0,0.8125 -0.296875,1.875 -1.28125,1.921875 v 0.21875 h 0.84375 v 2.75 c 0,1.21875 0.9375,1.34375 1.296875,1.34375 0.703125,0 0.984375,-0.703125 0.984375,-1.34375 v -0.5625 h -0.25 V -1.25 c 0,0.734375 -0.296875,1.109375 -0.671875,1.109375 -0.671875,0 -0.671875,-0.90625 -0.671875,-1.078125 z m 0,0" style="stroke:none;stroke-width:0"></path></g><g id="g2207" style="fill:#000000;fill-opacity:1"><path id="path2205" transform="translate(364.56704,171.626)" d="m 4.140625,-3.34375 c 0.25,-0.640625 0.765625,-0.640625 0.921875,-0.640625 v -0.3125 c -0.234375,0.015625 -0.515625,0.03125 -0.75,0.03125 -0.171875,0 -0.640625,-0.015625 -0.859375,-0.03125 v 0.3125 c 0.3125,0 0.46875,0.171875 0.46875,0.421875 0,0.109375 -0.015625,0.125 -0.0625,0.25 L 2.84375,-0.875 1.75,-3.546875 C 1.703125,-3.65625 1.6875,-3.6875 1.6875,-3.734375 c 0,-0.25 0.359375,-0.25 0.5625,-0.25 v -0.3125 c -0.265625,0.015625 -0.921875,0.03125 -1.09375,0.03125 -0.265625,0 -0.671875,-0.015625 -0.96875,-0.03125 v 0.3125 c 0.484375,0 0.671875,0 0.8125,0.34375 L 2.5,0 C 2.4375,0.125 2.296875,0.453125 2.25,0.59375 2.03125,1.140625 1.75,1.828125 1.109375,1.828125 c -0.046875,0 -0.28125,0 -0.46875,-0.1875 0.3125,-0.03125 0.390625,-0.25 0.390625,-0.421875 0,-0.25 -0.1875,-0.40625 -0.421875,-0.40625 -0.203125,0 -0.421875,0.125 -0.421875,0.421875 0,0.453125 0.421875,0.8125 0.921875,0.8125 0.625,0 1.03125,-0.578125 1.265625,-1.140625 z m 0,0" style="stroke:none;stroke-width:0"></path></g></g></g></g></svg> 