<?xml version="1.0" encoding="UTF-8"?> <svg xmlns:cc="http://creativecommons.org/ns#" xmlns:rdf="http://www.w3.org/1999/02/22-rdf-syntax-ns#" xmlns:svg="http://www.w3.org/2000/svg" xmlns="http://www.w3.org/2000/svg" xmlns:sodipodi="http://sodipodi.sourceforge.net/DTD/sodipodi-0.dtd" xmlns:inkscape="http://www.inkscape.org/namespaces/inkscape" id="svg2" version="1.1" xml:space="preserve" width="301.69769" height="240.5114" viewBox="0 0 301.69769 240.5114"><metadata id="metadata8"></metadata><defs id="defs6"></defs><g id="g10" transform="matrix(1.25,0,0,-1.25,0,240.5114)"><g transform="matrix(1,0,0,-1,0,192.40912)" id="g14" style="stroke:#0000ff"><path id="path16" style="fill:#000000;fill-opacity:1;fill-rule:evenodd;stroke:#0000ff;stroke-width:1.60000002;stroke-linecap:round;stroke-linejoin:miter;stroke-miterlimit:4;stroke-dasharray:none;stroke-opacity:1" d="m 51.328,4.512 0,184.836"></path></g><g transform="matrix(0,-1,-1,0,0,192.40912)" id="g18" style="stroke:#0000ff"><path id="path20" style="fill:#000000;fill-opacity:1;fill-rule:evenodd;stroke:#0000ff;stroke-width:0.80000001;stroke-linecap:butt;stroke-linejoin:miter;stroke-miterlimit:4;stroke-dasharray:none;stroke-opacity:1" d="m 10.914,-51.328 3.199,-3.203 -11.199,3.203 11.199,3.199 -3.199,-3.199 z"></path></g><g transform="matrix(0,1,1,0,0,192.40912)" id="g22" style="stroke:#0000ff"><path id="path24" style="fill:#000000;fill-opacity:1;fill-rule:evenodd;stroke:#0000ff;stroke-width:0.80000001;stroke-linecap:butt;stroke-linejoin:miter;stroke-miterlimit:4;stroke-dasharray:none;stroke-opacity:1" d="m -182.949,51.328 3.199,-3.199 -11.199,3.199 11.199,3.203 -3.199,-3.203 z"></path></g><g transform="matrix(1,0,0,-1,0,192.40912)" id="g26" style="stroke:#0000ff"><path id="path28" style="fill:#000000;fill-opacity:1;fill-rule:evenodd;stroke:#0000ff;stroke-width:1.60000002;stroke-linecap:round;stroke-linejoin:miter;stroke-miterlimit:4;stroke-dasharray:none;stroke-opacity:1" d="m 30.16,99.781 206.82,0"></path></g><g transform="matrix(1,0,0,-1,0,192.40912)" id="g30" style="stroke:#0000ff"><path id="path32" style="fill:#000000;fill-opacity:1;fill-rule:evenodd;stroke:#0000ff;stroke-width:0.80000001;stroke-linecap:butt;stroke-linejoin:miter;stroke-miterlimit:4;stroke-dasharray:none;stroke-opacity:1" d="m 36.559,99.781 3.199,-3.199 -11.199,3.199 11.199,3.199 -3.199,-3.199 z"></path></g><g transform="matrix(-1,0,0,1,0,192.40912)" id="g34" style="stroke:none;fill:#0000ff"><path id="path36" style="fill:#0000ff;fill-opacity:1;fill-rule:evenodd;stroke:none;stroke-width:0.80000001;stroke-linecap:butt;stroke-linejoin:miter;stroke-miterlimit:4;stroke-dasharray:none;stroke-opacity:1" d="m -230.582,-99.781 3.203,-3.199 -11.203,3.199 11.203,3.199 -3.203,-3.199 z"></path></g><g transform="matrix(1,0,0,-1,0,192.40912)" id="g38" style="stroke:#0000ff"><path id="path40" style="fill:#000000;fill-opacity:1;fill-rule:evenodd;stroke:#0000ff;stroke-width:1.60000002;stroke-linecap:round;stroke-linejoin:miter;stroke-miterlimit:4;stroke-dasharray:none;stroke-opacity:1" d="m 51.328,96.727 0,7.328"></path></g><g transform="matrix(1,0,0,-1,0,192.40912)" id="g42" style="stroke:#0000ff;fill:#0000ff"><path id="path44" style="fill:#0000ff;fill-opacity:1;fill-rule:evenodd;stroke:#0000ff;stroke-width:1.60000002;stroke-linecap:round;stroke-linejoin:miter;stroke-miterlimit:4;stroke-dasharray:none;stroke-opacity:1" d="m 98.016,96.727 0,7.328"></path></g><g transform="matrix(1,0,0,-1,0,192.40912)" id="g46" style="stroke:#0000ff;fill:#0000ff"><path id="path48" style="fill:#0000ff;fill-opacity:1;fill-rule:evenodd;stroke:#0000ff;stroke-width:1.60000002;stroke-linecap:round;stroke-linejoin:miter;stroke-miterlimit:4;stroke-dasharray:none;stroke-opacity:1" d="m 144.699,96.727 0,7.328"></path></g><g transform="matrix(1,0,0,-1,0,192.40912)" id="g50" style="stroke:#0000ff;fill:#0000ff"><path id="path52" style="fill:#0000ff;fill-opacity:1;fill-rule:evenodd;stroke:#0000ff;stroke-width:1.60000002;stroke-linecap:round;stroke-linejoin:miter;stroke-miterlimit:4;stroke-dasharray:none;stroke-opacity:1" d="m 191.383,96.727 0,7.328"></path></g><path id="path60" style="fill:#0000ff;fill-opacity:1;fill-rule:nonzero;stroke:none" d="m 238.805,81.851 1.918,0 c 0.406,0 0.609,0 0.609,0.402 0,0.226 -0.203,0.226 -0.57,0.226 l -1.793,0 c 0.734,2.891 0.836,3.301 0.836,3.422 0,0.344 -0.242,0.551 -0.59,0.551 -0.063,0 -0.633,-0.019 -0.813,-0.734 l -0.8,-3.239 -1.914,0 c -0.407,0 -0.614,0 -0.614,-0.386 0,-0.242 0.164,-0.242 0.574,-0.242 l 1.797,0 c -1.468,-5.79 -1.55,-6.137 -1.55,-6.5 0,-1.106 0.773,-1.879 1.871,-1.879 2.078,0 3.242,2.98 3.242,3.144 0,0.199 -0.164,0.199 -0.246,0.199 -0.184,0 -0.199,-0.062 -0.305,-0.281 -0.875,-2.125 -1.953,-2.609 -2.648,-2.609 -0.43,0 -0.629,0.265 -0.629,0.933 0,0.493 0.039,0.633 0.117,0.981 l 1.508,6.012 z"></path><path id="path70" style="fill:#0000ff;fill-opacity:1;fill-rule:nonzero;stroke:none" d="m 98.246,77.483 0.156,0.055 0.157,0.059 0.152,0.066 0.148,0.07 0.145,0.075 0.141,0.078 0.136,0.082 0.137,0.09 0.129,0.089 0.121,0.098 0.125,0.098 0.117,0.105 0.113,0.106 0.11,0.113 0.101,0.113 0.098,0.121 0.094,0.121 0.086,0.121 0.086,0.125 0.078,0.129 0.07,0.133 0.067,0.141 0.062,0.137 0.055,0.136 0.05,0.141 0.04,0.144 0.039,0.145 0.031,0.148 0.023,0.149 0.016,0.148 0.012,0.153 0.004,0.152 c 0,1.699 -1.821,2.859 -3.813,2.859 -2.09,0 -3.66,-1.242 -3.66,-2.816 0,-0.684 0.453,-1.078 1.055,-1.078 0.64,0 1.054,0.457 1.054,1.054 0,1.036 -0.972,1.036 -1.281,1.036 0.637,1.015 2.008,1.285 2.75,1.285 0.852,0 1.992,-0.453 1.992,-2.321 0,-0.246 -0.043,-1.449 -0.582,-2.359 -0.621,-0.992 -1.328,-1.055 -1.844,-1.078 -0.164,-0.02 -0.664,-0.063 -0.804,-0.063 -0.168,-0.019 -0.313,-0.039 -0.313,-0.242 0,-0.23 0.145,-0.23 0.5,-0.23 l 0.91,0 c 1.696,0 2.461,-1.41 2.461,-3.438 0,-2.82 -1.425,-3.418 -2.34,-3.418 -0.89,0 -2.441,0.352 -3.167,1.575 0.726,-0.102 1.367,0.351 1.367,1.136 0,0.75 -0.559,1.16 -1.16,1.16 -0.497,0 -1.161,-0.289 -1.161,-1.199 0,-1.886 1.93,-3.254 4.188,-3.254 2.523,0 4.41,1.887 4.41,4 0,1.696 -1.305,3.313 -3.461,3.75 z"></path><path id="path72" style="fill:#0000ff;fill-opacity:1;fill-rule:nonzero;stroke:none" d="m 142.199,77.8 0,0.496 c 0,5.238 2.571,5.984 3.625,5.984 0.5,0 1.367,-0.125 1.824,-0.828 -0.312,0 -1.136,0 -1.136,-0.934 0,-0.64 0.492,-0.949 0.949,-0.949 0.328,0 0.953,0.184 0.953,0.992 0,1.243 -0.91,2.239 -2.633,2.239 -2.648,0 -5.445,-2.676 -5.445,-7.25 0,-5.532 2.402,-7 4.328,-7 2.301,0 4.27,1.949 4.27,4.679 0,2.633 -1.844,4.618 -4.145,4.618 l -0.019,-0.473 c 0.332,0 1.285,0 1.925,-1.285 0.371,-0.77 0.371,-1.824 0.371,-2.84 0,-0.992 0,-2.027 -0.351,-2.773 -0.621,-1.243 -1.574,-1.344 -2.051,-1.344 l 0,0 c -1.305,0 -1.926,1.242 -2.051,1.554 -0.367,0.973 -0.367,2.625 -0.367,3 0,1.614 0.66,3.688 2.524,3.688 l 0.019,0.473 c -1.41,0 -2.176,-1.055 -2.59,-2.047 z"></path><path id="path74" style="fill:#0000ff;fill-opacity:1;fill-rule:nonzero;stroke:none" d="m 193.48,77.589 0,-0.66 c 0,-4.848 -2.152,-5.797 -3.355,-5.797 -0.352,0 -1.469,0.039 -2.027,0.742 0.91,0 1.074,0.602 1.074,0.953 0,0.645 -0.492,0.957 -0.949,0.957 -0.332,0 -0.953,-0.187 -0.953,-0.996 0,-1.387 1.117,-2.238 2.875,-2.238 2.675,0 5.203,2.816 5.203,7.269 0,5.571 -2.383,6.981 -4.231,6.981 -1.137,0 -2.152,-0.375 -3.043,-1.305 -0.847,-0.934 -1.324,-1.805 -1.324,-3.355 0,-2.59 1.824,-4.622 4.141,-4.622 l 0.023,0.477 c -0.332,0 -1.285,0 -1.93,1.305 -0.371,0.765 -0.371,1.804 -0.371,2.816 0,1.121 0,2.094 0.434,2.856 0.558,1.035 1.348,1.308 2.07,1.308 0.953,0 1.641,-0.703 1.992,-1.637 0.246,-0.664 0.329,-1.968 0.329,-2.921 0,-1.715 -0.704,-3.727 -2.524,-3.727 l 0,0 -0.023,-0.477 c 1.261,0 2.117,0.872 2.589,2.071 z"></path><g id="g4464" transform="matrix(1,0,0,-1,-93.758681,264.32284)" style="stroke:#0000ff;fill:#0000ff"><g word-spacing="normal" letter-spacing="normal" font-size-adjust="none" font-stretch="normal" font-weight="normal" font-variant="normal" font-style="normal" stroke-miterlimit="10.433" xml:space="preserve" transform="matrix(0.34358771,0,0,-0.34358771,-60.12785,226.27327)" id="content" style="font-style:normal;font-variant:normal;font-weight:normal;font-stretch:normal;letter-spacing:normal;word-spacing:normal;text-anchor:start;fill:#0000ff;fill-opacity:1;fill-rule:evenodd;stroke:#0000ff;stroke-linecap:butt;stroke-linejoin:miter;stroke-miterlimit:10.43299961;stroke-dasharray:none;stroke-dashoffset:0;stroke-opacity:1"><path id="path4467" d="m 481.22,440.23 0,0 0,0.01 0,0 0,0.01 0,0.02 0,0.01 0,0.02 0,0.02 -0.01,0.02 0,0.02 -0.01,0.02 0,0.02 -0.01,0.02 -0.01,0.03 -0.01,0.02 -0.01,0.03 -0.02,0.02 -0.01,0.03 -0.02,0.02 -0.02,0.02 -0.02,0.03 -0.02,0.01 -0.01,0.01 -0.01,0.01 -0.02,0.01 -0.01,0.01 -0.02,0.01 -0.01,0.01 -0.02,0.01 -0.01,0.01 -0.02,0.01 -0.02,0 -0.02,0.01 -0.02,0.01 -0.02,0 -0.02,0.01 -0.03,0.01 -0.02,0 -0.02,0 -0.03,0.01 -0.03,0 -0.02,0 -0.03,0.01 -0.03,0 -0.03,0 c -0.75,0 -5.48,-0.46 -6.33,-0.55 -0.4,-0.05 -0.7,-0.3 -0.7,-0.95 0,-0.6 0.45,-0.6 1.2,-0.6 2.39,0 2.49,-0.34 2.49,-0.84 l -0.14,-1 -3,-11.81 c -0.89,1.84 -2.35,3.18 -4.58,3.18 l 0.05,-1.09 c 3.23,0 3.93,-4.08 3.93,-4.37 0,-0.32 -0.09,-0.61 -0.14,-0.86 l -2.5,-9.77 c -0.25,-0.89 -0.25,-0.98 -1,-1.84 -2.18,-2.74 -4.23,-3.53 -5.62,-3.53 -2.49,0 -3.19,2.73 -3.19,4.68 0,2.49 1.59,8.61 2.74,10.91 1.54,2.94 3.79,4.78 5.78,4.78 l -0.05,1.09 c -5.83,0 -12,-7.31 -12,-14.59 0,-4.69 2.73,-7.97 6.62,-7.97 0.99,0 3.49,0.21 6.47,3.74 0.41,-2.1 2.14,-3.74 4.53,-3.74 1.75,0 2.9,1.14 3.69,2.74 0.85,1.79 1.5,4.84 1.5,4.93 0,0.5 -0.45,0.5 -0.59,0.5 -0.5,0 -0.55,-0.2 -0.7,-0.9 -0.85,-3.24 -1.75,-6.17 -3.79,-6.17 -1.34,0 -1.5,1.29 -1.5,2.29 0,1.19 0.1,1.55 0.3,2.39 z" style="fill:#0000ff;stroke-width:0;stroke:#0000ff"></path><path id="path4469" d="m 497.92,394.25 0,0.02 0,0.03 0,0.01 0,0.02 -0.01,0.01 0,0.02 -0.01,0.01 0,0.02 -0.01,0.02 -0.01,0.02 -0.01,0.02 -0.02,0.03 -0.01,0.02 -0.02,0.03 -0.02,0.03 -0.03,0.03 -0.02,0.03 -0.03,0.04 -0.02,0.02 -0.02,0.02 -0.01,0.02 -0.02,0.02 -0.02,0.02 -0.02,0.03 -0.02,0.02 -0.02,0.02 -0.03,0.03 -0.02,0.02 -0.03,0.03 -0.02,0.03 -0.03,0.03 -0.02,0.03 -0.03,0.03 -0.03,0.03 -0.03,0.03 -0.04,0.03 -0.03,0.04 -0.03,0.03 -0.04,0.04 -0.04,0.03 -0.03,0.04 -0.04,0.04 c -6.22,6.28 -7.81,15.69 -7.81,23.31 0,8.67 1.89,17.35 8.01,23.56 0.64,0.61 0.64,0.71 0.64,0.86 0,0.35 -0.19,0.49 -0.48,0.49 -0.5,0 -4.99,-3.38 -7.92,-9.7 -2.55,-5.49 -3.14,-11.02 -3.14,-15.21 0,-3.89 0.54,-9.9 3.28,-15.54 2.98,-6.13 7.28,-9.36 7.78,-9.36 0.29,0 0.48,0.14 0.48,0.5 z" style="fill:#0000ff;stroke-width:0;stroke:#0000ff"></path><path id="path4471" d="m 511.02,426.12 4.69,0 c 0.98,0 1.48,0 1.48,1 0,0.55 -0.5,0.55 -1.39,0.55 l -4.39,0 c 1.8,7.08 2.05,8.08 2.05,8.37 0,0.85 -0.6,1.35 -1.44,1.35 -0.16,0 -1.55,-0.05 -2,-1.8 l -1.94,-7.92 -4.69,0 c -1,0 -1.5,0 -1.5,-0.94 0,-0.61 0.41,-0.61 1.41,-0.61 l 4.38,0 c -3.58,-14.14 -3.79,-14.98 -3.79,-15.89 0,-2.69 1.9,-4.58 4.58,-4.58 5.08,0 7.93,7.27 7.93,7.67 0,0.5 -0.4,0.5 -0.6,0.5 -0.45,0 -0.5,-0.15 -0.75,-0.7 -2.14,-5.17 -4.78,-6.37 -6.47,-6.37 -1.04,0 -1.54,0.65 -1.54,2.29 0,1.19 0.09,1.55 0.29,2.39 z" style="fill:#0000ff;stroke-width:0;stroke:#0000ff"></path><path id="path4473" d="m 533.15,418.65 -0.01,0.37 0,0.39 -0.01,0.39 -0.01,0.41 -0.04,0.84 -0.06,0.88 -0.09,0.92 -0.1,0.95 -0.14,0.97 -0.16,1.01 -0.2,1.02 -0.23,1.03 -0.26,1.05 -0.31,1.06 -0.35,1.07 -0.39,1.07 -0.21,0.53 -0.23,0.53 -0.24,0.53 -0.25,0.53 c -2.98,6.12 -7.26,9.36 -7.76,9.36 -0.3,0 -0.5,-0.19 -0.5,-0.49 0,-0.15 0,-0.25 0.93,-1.15 4.9,-4.92 7.74,-12.85 7.74,-23.27 0,-8.51 -1.84,-17.28 -8.03,-23.56 -0.64,-0.59 -0.64,-0.7 -0.64,-0.84 0,-0.3 0.2,-0.5 0.5,-0.5 0.5,0 4.97,3.39 7.92,9.71 2.53,5.47 3.13,11 3.13,15.19 z" style="fill:#0000ff;stroke-width:0;stroke:#0000ff"></path></g></g><path style="fill:none;fill-rule:evenodd;stroke:#0000ff;stroke-width:3.2;stroke-linecap:butt;stroke-linejoin:miter;stroke-opacity:1;stroke-miterlimit:4;stroke-dasharray:none" d="m 50.548158,92.128096 48.102282,67.669304 44.8411,-29.35054 49.73287,0" id="path4531"></path><g id="g4569" transform="matrix(1,0,0,-1,-66.038722,242.28542)" style="stroke:#0000ff;fill:#0000ff"><g id="g4571" transform="matrix(0.34358771,0,0,-0.34358771,-60.12785,226.27327)" xml:space="preserve" stroke-miterlimit="10.433" font-style="normal" font-variant="normal" font-weight="normal" font-stretch="normal" font-size-adjust="none" letter-spacing="normal" word-spacing="normal" style="font-style:normal;font-variant:normal;font-weight:normal;font-stretch:normal;letter-spacing:normal;word-spacing:normal;text-anchor:start;fill:#0000ff;fill-opacity:1;fill-rule:evenodd;stroke:#0000ff;stroke-linecap:butt;stroke-linejoin:miter;stroke-miterlimit:10.43299961;stroke-dasharray:none;stroke-dashoffset:0;stroke-opacity:1"><path d="m 462.1,422.54 0,1.19 c 0,12.61 6.17,14.41 8.72,14.41 1.18,0 3.28,-0.3 4.37,-2 -0.73,0 -2.73,0 -2.73,-2.24 0,-1.54 1.2,-2.29 2.29,-2.29 0.8,0 2.29,0.45 2.29,2.39 0,3 -2.19,5.39 -6.32,5.39 -6.39,0 -13.11,-6.44 -13.11,-17.44 0,-13.31 5.78,-16.84 10.41,-16.84 5.53,0 10.27,4.68 10.27,11.25 0,6.32 -4.44,11.12 -9.97,11.12 l -0.05,-1.16 c 0.8,0 3.09,0 4.64,-3.09 0.89,-1.83 0.89,-4.37 0.89,-6.81 0,-2.39 0,-4.89 -0.84,-6.69 -1.5,-2.98 -3.78,-3.23 -4.94,-3.23 l 0,0 c -3.14,0 -4.63,2.98 -4.92,3.73 -0.91,2.34 -0.91,6.33 -0.91,7.23 0,3.88 1.6,8.86 6.08,8.86 l 0.05,1.16 c -3.38,0 -5.22,-2.55 -6.22,-4.94 z" id="path4573" style="fill:#0000ff;stroke-width:0;stroke:#0000ff"></path><path d="m 503.4,422.14 -0.01,0.74 -0.01,0.75 -0.02,0.75 -0.03,0.74 -0.04,0.75 -0.06,0.74 -0.08,0.74 -0.1,0.73 -0.11,0.73 -0.14,0.73 -0.16,0.72 -0.19,0.72 -0.22,0.72 -0.24,0.7 -0.28,0.7 -0.15,0.35 -0.16,0.34 c -2.28,4.8 -6.38,5.6 -8.47,5.6 -2.98,0 -6.63,-1.3 -8.67,-5.94 -1.6,-3.44 -1.85,-7.33 -1.85,-11.31 0,-3.74 0.21,-8.22 2.25,-12 2.14,-4.03 5.79,-5.03 8.22,-5.03 l 0,1.09 c -1.93,0 -4.89,1.25 -5.78,6.03 -0.55,2.98 -0.55,7.56 -0.55,10.52 0,3.18 0,6.46 0.41,9.15 0.94,5.94 4.67,6.38 5.92,6.38 1.64,0 4.94,-0.89 5.88,-5.83 0.5,-2.78 0.5,-6.58 0.5,-9.7 0,-3.75 0,-7.13 -0.55,-10.32 -0.75,-4.73 -3.59,-6.23 -5.83,-6.23 l 0,0 0,-1.09 c 2.69,0 6.47,1.04 8.67,5.78 1.6,3.43 1.85,7.31 1.85,11.25 z" id="path4575" style="fill:#0000ff;stroke-width:0;stroke:#0000ff"></path></g></g><g id="g4655" transform="matrix(1,0,0,-1,-66.038722,212.11958)" style="stroke:#0000ff;fill:#0000ff"><g word-spacing="normal" letter-spacing="normal" font-size-adjust="none" font-stretch="normal" font-weight="normal" font-variant="normal" font-style="normal" stroke-miterlimit="10.433" xml:space="preserve" transform="matrix(0.34358771,0,0,-0.34358771,-60.12785,226.27327)" id="g4657" style="font-style:normal;font-variant:normal;font-weight:normal;font-stretch:normal;letter-spacing:normal;word-spacing:normal;text-anchor:start;fill:#0000ff;fill-opacity:1;fill-rule:evenodd;stroke:#0000ff;stroke-linecap:butt;stroke-linejoin:miter;stroke-miterlimit:10.43299961;stroke-dasharray:none;stroke-dashoffset:0;stroke-opacity:1"><path id="path4659" d="m 469.97,423.73 0.38,0.13 0.37,0.15 0.37,0.15 0.35,0.17 0.35,0.18 0.34,0.19 0.33,0.2 0.32,0.22 0.31,0.22 0.31,0.23 0.29,0.24 0.28,0.25 0.27,0.26 0.26,0.27 0.25,0.27 0.24,0.29 0.22,0.29 0.21,0.3 0.2,0.3 0.19,0.32 0.18,0.32 0.16,0.32 0.14,0.33 0.14,0.34 0.11,0.34 0.11,0.34 0.09,0.35 0.07,0.36 0.06,0.36 0.04,0.36 0.02,0.36 0.01,0.37 c 0,4.08 -4.39,6.88 -9.17,6.88 -5.03,0 -8.81,-3 -8.81,-6.78 0,-1.65 1.09,-2.6 2.54,-2.6 1.54,0 2.54,1.1 2.54,2.55 0,2.48 -2.35,2.48 -3.08,2.48 1.53,2.44 4.83,3.1 6.62,3.1 2.03,0 4.78,-1.1 4.78,-5.58 0,-0.61 -0.11,-3.49 -1.4,-5.69 -1.49,-2.39 -3.19,-2.53 -4.42,-2.59 -0.41,-0.05 -1.6,-0.14 -1.96,-0.14 -0.39,-0.05 -0.75,-0.1 -0.75,-0.6 0,-0.54 0.36,-0.54 1.21,-0.54 l 2.18,0 c 4.1,0 5.94,-3.39 5.94,-8.29 0,-6.76 -3.44,-8.21 -5.64,-8.21 -2.14,0 -5.88,0.84 -7.61,3.78 1.73,-0.24 3.28,0.86 3.28,2.75 0,1.79 -1.34,2.78 -2.8,2.78 -1.18,0 -2.78,-0.69 -2.78,-2.89 0,-4.53 4.63,-7.81 10.07,-7.81 6.07,0 10.61,4.53 10.61,9.6 0,4.1 -3.15,7.97 -8.32,9.02 z" style="fill:#0000ff;stroke-width:0;stroke:#0000ff"></path><path id="path4661" d="m 503.4,422.14 -0.01,0.74 -0.01,0.75 -0.02,0.75 -0.03,0.74 -0.04,0.75 -0.06,0.74 -0.08,0.74 -0.1,0.73 -0.11,0.73 -0.14,0.73 -0.16,0.72 -0.19,0.72 -0.22,0.72 -0.24,0.7 -0.28,0.7 -0.15,0.35 -0.16,0.34 c -2.28,4.8 -6.38,5.6 -8.47,5.6 -2.98,0 -6.63,-1.3 -8.67,-5.94 -1.6,-3.44 -1.85,-7.33 -1.85,-11.31 0,-3.74 0.21,-8.22 2.25,-12 2.14,-4.03 5.79,-5.03 8.22,-5.03 l 0,1.09 c -1.93,0 -4.89,1.25 -5.78,6.03 -0.55,2.98 -0.55,7.56 -0.55,10.52 0,3.18 0,6.46 0.41,9.15 0.94,5.94 4.67,6.38 5.92,6.38 1.64,0 4.94,-0.89 5.88,-5.83 0.5,-2.78 0.5,-6.58 0.5,-9.7 0,-3.75 0,-7.13 -0.55,-10.32 -0.75,-4.73 -3.59,-6.23 -5.83,-6.23 l 0,0 0,-1.09 c 2.69,0 6.47,1.04 8.67,5.78 1.6,3.43 1.85,7.31 1.85,11.25 z" style="fill:#0000ff;stroke-width:0;stroke:#0000ff"></path></g></g></g></svg> 