<?xml version="1.0" encoding="UTF-8"?> <svg xmlns:cc="http://creativecommons.org/ns#" xmlns:rdf="http://www.w3.org/1999/02/22-rdf-syntax-ns#" xmlns:svg="http://www.w3.org/2000/svg" xmlns="http://www.w3.org/2000/svg" xmlns:sodipodi="http://sodipodi.sourceforge.net/DTD/sodipodi-0.dtd" xmlns:inkscape="http://www.inkscape.org/namespaces/inkscape" width="1332.4076" height="970.71893" id="svg3804" version="1.1"><defs id="defs3806"><marker style="overflow:visible" id="Arrow1Mend" refX="0" refY="0" orient="auto"><path transform="matrix(-0.4,0,0,-0.4,-4,0)" style="fill-rule:evenodd;stroke:#000000;stroke-width:1.00000003pt;marker-start:none" d="M 0,0 5,-5 -12.5,0 5,5 Z" id="path4611"></path></marker><marker style="overflow:visible" id="Arrow1Mend-4" refX="0" refY="0" orient="auto"><path transform="matrix(-0.4,0,0,-0.4,-4,0)" style="fill-rule:evenodd;stroke:#000000;stroke-width:1.00000003pt;marker-start:none" d="M 0,0 5,-5 -12.5,0 5,5 Z" id="path4611-8"></path></marker></defs><metadata id="metadata3809"></metadata><g id="layer1" transform="translate(165.83525,10.05945)"><g id="g5401"><polyline transform="matrix(1.0629921,0,0,-1.0629921,-672.08504,522.35931)" style="font-style:normal;font-variant:normal;font-weight:normal;font-stretch:normal;letter-spacing:normal;word-spacing:normal;text-anchor:start;fill:#000000;fill-rule:nonzero;stroke:#000000;stroke-width:0;stroke-linecap:butt;stroke-linejoin:miter;stroke-miterlimit:10.43299961;stroke-dasharray:none;stroke-dashoffset:0;stroke-opacity:1" points="1719.8,-85.605 1703.8,-77.637 1709.8,-85.605 1703.8,-93.574" id="polyline5188"></polyline><polyline transform="matrix(1.0629921,0,0,-1.0629921,-672.08504,522.35931)" style="font-style:normal;font-variant:normal;font-weight:normal;font-stretch:normal;letter-spacing:normal;word-spacing:normal;text-anchor:start;fill:#000000;fill-rule:nonzero;stroke:#000000;stroke-width:0;stroke-linecap:butt;stroke-linejoin:miter;stroke-miterlimit:10.43299961;stroke-dasharray:none;stroke-dashoffset:0;stroke-opacity:1" points="1111.9,423.32 1103.9,407.38 1111.9,413.36 1119.8,407.38" id="polyline5190"></polyline><path style="font-style:normal;font-variant:normal;font-weight:normal;font-stretch:normal;letter-spacing:normal;word-spacing:normal;text-anchor:start;fill:#000000;stroke:#000000;stroke-width:0;stroke-linecap:butt;stroke-linejoin:miter;stroke-miterlimit:10.43299961;stroke-dasharray:none;stroke-dashoffset:0;stroke-opacity:1" d="m -135.34844,665.31049 h 0.17008 0.17008 0.17008 l 0.085,-0.0106 h 0.0744 l 0.085,-0.0106 0.0744,-0.0106 0.085,-0.0106 0.0744,-0.0106 0.0744,-0.0106 0.0744,-0.0213 0.0638,-0.0213 0.0744,-0.0213 0.0638,-0.0319 0.0532,-0.0213 0.0638,-0.0425 0.0532,-0.0319 0.0531,-0.0425 0.0532,-0.0425 0.0425,-0.0531 0.0425,-0.0532 0.0213,-0.0213 0.0106,-0.0319 0.0213,-0.0319 0.0106,-0.0319 0.0213,-0.0319 0.0106,-0.0425 0.0106,-0.0319 0.0106,-0.0425 0.0106,-0.0319 0.0106,-0.0425 0.0106,-0.0425 v -0.0425 l 0.0106,-0.0425 v -0.0531 -0.0425 -0.0532 c 0,-1.063 -0.9567,-1.063 -1.86024,-1.063 h -28.64764 c -0.89291,0 -1.83897,0 -1.83897,1.063 0,1.06299 0.94606,1.06299 1.83897,1.06299 z" id="path5192"></path><path style="font-style:normal;font-variant:normal;font-weight:normal;font-stretch:normal;letter-spacing:normal;word-spacing:normal;text-anchor:start;fill:#000000;stroke:#000000;stroke-width:0;stroke-linecap:butt;stroke-linejoin:miter;stroke-miterlimit:10.43299961;stroke-dasharray:none;stroke-dashoffset:0;stroke-opacity:1" d="m -105.25513,666.8412 -0.0106,-0.58465 -0.0425,-0.58465 -0.0638,-0.57401 -0.085,-0.56339 -0.1063,-0.55275 -0.13819,-0.54213 -0.14882,-0.54212 -0.18071,-0.52087 -0.19134,-0.51024 -0.22322,-0.4996 -0.23386,-0.48898 -0.25512,-0.46772 -0.27638,-0.45708 -0.29764,-0.43583 -0.30826,-0.4252 -0.32953,-0.40393 -0.35079,-0.39331 -0.36142,-0.36142 -0.37204,-0.35078 -0.39331,-0.3189 -0.41457,-0.30827 -0.41456,-0.28701 -0.43583,-0.25512 -0.44646,-0.23385 -0.46771,-0.2126 -0.46772,-0.19134 -0.48898,-0.14882 -0.48897,-0.13819 -0.49961,-0.1063 -0.52087,-0.0744 -0.52086,-0.0425 -0.5315,-0.0106 c -2.54055,0 -4.81535,0.83977 -6.72874,2.68937 V 647.6223 c 1.06299,0.3189 2.8063,0.68031 4.50709,0.68031 6.50551,0 10.20472,-4.81535 10.20472,-5.5063 0,-0.31889 -0.13819,-0.58464 -0.53149,-0.58464 -0.0425,0 -0.13819,0 -0.40394,0.17008 -1.06299,0.47834 -3.65669,1.52008 -7.21772,1.52008 -2.10472,0 -4.5496,-0.36142 -7.037,-1.47756 -0.41457,-0.14882 -0.5315,-0.14882 -0.62717,-0.14882 -0.5315,0 -0.5315,0.41457 -0.5315,1.26496 v 15.67913 c 0,0.94607 0,1.38189 0.7441,1.38189 0.36142,0 0.45709,-0.17008 0.68031,-0.48897 0.57402,-0.83977 2.54055,-3.69922 6.82441,-3.69922 2.75315,0 4.08189,2.44489 4.50709,3.39095 0.86102,1.9559 0.95669,4.01811 0.95669,6.67559 0,1.83898 0,5.02795 -1.27559,7.26023 -1.26496,2.05158 -3.22086,3.43347 -5.66575,3.43347 -3.86929,0 -6.87755,-2.8063 -7.79173,-5.9315 0.17008,0.0531 0.32953,0.1063 0.91418,0.1063 1.7433,0 2.63622,-1.32874 2.63622,-2.5937 0,-1.27559 -0.89292,-2.5937 -2.63622,-2.5937 -0.7441,0 -2.60434,0.37205 -2.60434,2.8063 0,4.54961 3.64607,9.68386 9.59882,9.68386 6.13347,0 11.5441,-5.0811 11.5441,-11.80984 z" id="path5194"></path><path style="font-style:normal;font-variant:normal;font-weight:normal;font-stretch:normal;letter-spacing:normal;word-spacing:normal;text-anchor:start;fill:#000000;stroke:#000000;stroke-width:0;stroke-linecap:butt;stroke-linejoin:miter;stroke-miterlimit:10.43299961;stroke-dasharray:none;stroke-dashoffset:0;stroke-opacity:1" d="m -6.0992295,665.31049 h 0.1700787 0.1700788 0.1594488 l 0.085039,-0.0106 h 0.085039 l 0.07441,-0.0106 0.085039,-0.0106 0.074409,-0.0106 0.074409,-0.0106 0.07441,-0.0106 0.074409,-0.0213 0.074409,-0.0213 0.06378,-0.0213 0.063779,-0.0319 0.063779,-0.0213 0.06378,-0.0425 0.05315,-0.0319 0.05315,-0.0425 0.04252,-0.0425 0.05315,-0.0531 0.04252,-0.0532 0.01063,-0.0213 0.02126,-0.0319 0.02126,-0.0319 0.01063,-0.0319 0.01063,-0.0319 0.02126,-0.0425 0.01063,-0.0319 0.01063,-0.0425 0.01063,-0.0319 0.01063,-0.0425 v -0.0425 l 0.01063,-0.0425 v -0.0425 l 0.01063,-0.0531 v -0.0425 -0.0532 c 0,-1.063 -0.9673228,-1.063 -1.8602362,-1.063 H -34.746867 c -0.903543,0 -1.849606,0 -1.849606,1.063 0,1.06299 0.946063,1.06299 1.849606,1.06299 z" id="path5196"></path><path style="font-style:normal;font-variant:normal;font-weight:normal;font-stretch:normal;letter-spacing:normal;word-spacing:normal;text-anchor:start;fill:#000000;stroke:#000000;stroke-width:0;stroke-linecap:butt;stroke-linejoin:miter;stroke-miterlimit:10.43299961;stroke-dasharray:none;stroke-dashoffset:0;stroke-opacity:1" d="m 15.766518,668.75458 v 4.60276 c 0,1.90275 -0.09567,2.4874 -4.01811,2.4874 h -1.116142 v 1.64764 c 2.179134,-0.17008 4.932283,-0.17008 7.164567,-0.17008 2.221653,0 5.027953,0 7.185826,0.17008 v -1.64764 h -1.105511 c -3.922441,0 -4.02874,-0.58465 -4.02874,-2.4874 v -4.60276 h 5.30433 v -1.64764 h -5.30433 v -24.09803 c 0,-1.06299 0,-1.38189 -0.839764,-1.38189 -0.488976,0 -0.637795,0 -1.062992,0.64843 L 1.6818727,667.10694 H 3.1806915 L 16.096046,647.35655 v 19.75039 H 3.1806915 1.6818727 v 1.64764 z" id="path5198"></path><path style="font-style:normal;font-variant:normal;font-weight:normal;font-stretch:normal;letter-spacing:normal;word-spacing:normal;text-anchor:start;fill:#000000;stroke:#000000;stroke-width:0;stroke-linecap:butt;stroke-linejoin:miter;stroke-miterlimit:10.43299961;stroke-dasharray:none;stroke-dashoffset:0;stroke-opacity:1" d="m 123.13935,665.31049 h 0.17008 0.17008 0.17008 l 0.085,-0.0106 h 0.0744 l 0.085,-0.0106 0.0744,-0.0106 0.085,-0.0106 0.0744,-0.0106 0.0744,-0.0106 0.0744,-0.0213 0.0638,-0.0213 0.0744,-0.0213 0.0638,-0.0319 0.0638,-0.0213 0.0532,-0.0425 0.0531,-0.0319 0.0532,-0.0425 0.0532,-0.0425 0.0425,-0.0531 0.0425,-0.0532 0.0213,-0.0213 0.0213,-0.0319 0.0106,-0.0319 0.0213,-0.0319 0.0106,-0.0319 0.0106,-0.0425 0.0106,-0.0319 0.0106,-0.0425 0.0106,-0.0319 0.0106,-0.0425 0.0106,-0.0425 v -0.0425 l 0.0106,-0.0425 v -0.0531 -0.0425 -0.0532 c 0,-1.063 -0.9567,-1.063 -1.86024,-1.063 H 94.491713 c -0.892913,0 -1.838976,0 -1.838976,1.063 0,1.06299 0.946063,1.06299 1.838976,1.06299 z" id="path5200"></path><path style="font-style:normal;font-variant:normal;font-weight:normal;font-stretch:normal;letter-spacing:normal;word-spacing:normal;text-anchor:start;fill:#000000;stroke:#000000;stroke-width:0;stroke-linecap:butt;stroke-linejoin:miter;stroke-miterlimit:10.43299961;stroke-dasharray:none;stroke-dashoffset:0;stroke-opacity:1" d="m 144.81376,658.85813 0.40394,-0.14882 0.3933,-0.14882 0.38268,-0.17008 0.38268,-0.18071 0.37204,-0.18071 0.36142,-0.2126 0.35079,-0.2126 0.34016,-0.22322 0.32952,-0.23386 0.3189,-0.24449 0.30827,-0.25512 0.30827,-0.26575 0.28701,-0.27637 0.27637,-0.28701 0.25512,-0.29764 0.25512,-0.29764 0.24449,-0.30827 0.22323,-0.31889 0.21259,-0.32953 0.20197,-0.32953 0.18071,-0.34016 0.17008,-0.34015 0.15945,-0.35079 0.13819,-0.36142 0.12756,-0.36141 0.1063,-0.37205 0.0957,-0.37205 0.0744,-0.37205 0.0638,-0.38267 0.0425,-0.38268 0.0319,-0.39331 0.0106,-0.38268 c 0,-4.337 -4.66653,-7.31338 -9.75826,-7.31338 -5.34685,0 -9.36496,3.18898 -9.36496,7.20709 0,1.7433 1.16929,2.76378 2.71063,2.76378 1.62637,0 2.68937,-1.1693 2.68937,-2.71063 0,-2.64686 -2.48741,-2.64686 -3.27402,-2.64686 1.62638,-2.58307 5.13425,-3.28464 7.04764,-3.28464 2.15787,0 5.0811,1.15866 5.0811,5.9315 0,0.64842 -0.11693,3.69921 -1.49882,6.04842 -1.57323,2.54055 -3.39094,2.68937 -4.69842,2.75315 -0.4252,0.0532 -1.69016,0.14882 -2.07284,0.14882 -0.41457,0.0532 -0.79724,0.0957 -0.79724,0.62716 0,0.58465 0.38267,0.58465 1.27559,0.58465 h 2.32795 c 4.34764,0 6.31417,3.60354 6.31417,8.80157 0,7.19646 -3.65669,8.7378 -6.0059,8.7378 -2.26417,0 -6.23977,-0.89291 -8.07874,-4.01811 1.83897,0.24449 3.48661,-0.91417 3.48661,-2.92323 0,-1.91338 -1.43504,-2.95512 -2.97638,-2.95512 -1.26496,0 -2.95511,0.73347 -2.95511,3.07205 0,4.81535 4.91102,8.30197 10.6937,8.30197 6.46299,0 11.27834,-4.81536 11.27834,-10.21536 0,-4.34763 -3.33779,-8.47204 -8.83346,-9.57755 z" id="path5202"></path><path style="font-style:normal;font-variant:normal;font-weight:normal;font-stretch:normal;letter-spacing:normal;word-spacing:normal;text-anchor:start;fill:#000000;stroke:#000000;stroke-width:0;stroke-linecap:butt;stroke-linejoin:miter;stroke-miterlimit:10.43299961;stroke-dasharray:none;stroke-dashoffset:0;stroke-opacity:1" d="m 252.38856,665.31049 h 0.17008 0.17008 0.17008 l 0.0744,-0.0106 h 0.085 l 0.085,-0.0106 0.0744,-0.0106 0.0744,-0.0106 0.085,-0.0106 0.0744,-0.0106 0.0638,-0.0213 0.0744,-0.0213 0.0638,-0.0213 0.0638,-0.0319 0.0638,-0.0213 0.0638,-0.0425 0.0531,-0.0319 0.0531,-0.0425 0.0532,-0.0425 0.0425,-0.0531 0.0425,-0.0532 0.0106,-0.0213 0.0213,-0.0319 0.0213,-0.0319 0.0106,-0.0319 0.0213,-0.0319 0.0106,-0.0425 0.0106,-0.0319 0.0106,-0.0425 0.0106,-0.0319 0.0106,-0.0425 v -0.0425 l 0.0106,-0.0425 0.0106,-0.0425 v -0.0531 -0.0425 -0.0532 c 0,-1.063 -0.96733,-1.063 -1.86024,-1.063 h -28.64764 c -0.89291,0 -1.8496,0 -1.8496,1.063 0,1.06299 0.95669,1.06299 1.8496,1.06299 z" id="path5204"></path><path style="font-style:normal;font-variant:normal;font-weight:normal;font-stretch:normal;letter-spacing:normal;word-spacing:normal;text-anchor:start;fill:#000000;stroke:#000000;stroke-width:0;stroke-linecap:butt;stroke-linejoin:miter;stroke-miterlimit:10.43299961;stroke-dasharray:none;stroke-dashoffset:0;stroke-opacity:1" d="m 265.42084,673.39986 5.6126,-5.44252 c 8.25945,-7.31339 11.44843,-10.16221 11.44843,-15.46654 0,-6.04842 -4.77284,-10.27913 -11.23583,-10.27913 -5.99528,0 -9.91772,4.87913 -9.91772,9.59882 0,2.95512 2.65748,2.95512 2.81693,2.95512 0.90355,0 2.75315,-0.62717 2.75315,-2.8063 0,-1.37126 -0.94606,-2.75315 -2.8063,-2.75315 -0.41456,0 -0.53149,0 -0.68031,0.0532 1.21181,-3.4441 4.07126,-5.4 7.1433,-5.4 4.81536,0 7.11142,4.29449 7.11142,8.63149 0,4.24134 -2.65748,8.4189 -5.57008,11.71418 l -10.1622,11.32086 c -0.60591,0.58465 -0.60591,0.68032 -0.60591,1.96654 h 19.65473 l 1.49882,-9.21614 h -1.32874 c -0.26575,1.59448 -0.6378,3.91181 -1.1693,4.70905 -0.38267,0.41457 -3.86929,0.41457 -5.02795,0.41457 z" id="path5206"></path><path style="font-style:normal;font-variant:normal;font-weight:normal;font-stretch:normal;letter-spacing:normal;word-spacing:normal;text-anchor:start;fill:#000000;stroke:#000000;stroke-width:0;stroke-linecap:butt;stroke-linejoin:miter;stroke-miterlimit:10.43299961;stroke-dasharray:none;stroke-dashoffset:0;stroke-opacity:1" d="m 381.63777,665.31049 h 0.17008 0.15945 0.17008 l 0.085,-0.0106 h 0.085 l 0.0744,-0.0106 0.085,-0.0106 0.0744,-0.0106 0.0744,-0.0106 0.0744,-0.0106 0.0744,-0.0213 0.0744,-0.0213 0.0638,-0.0213 0.0638,-0.0319 0.0638,-0.0213 0.0532,-0.0425 0.0638,-0.0319 0.0532,-0.0425 0.0425,-0.0425 0.0425,-0.0531 0.0425,-0.0532 0.0213,-0.0213 0.0213,-0.0319 0.0106,-0.0319 0.0213,-0.0319 0.0106,-0.0319 0.0106,-0.0425 0.0213,-0.0319 0.0106,-0.0425 0.0106,-0.0319 v -0.0425 l 0.0106,-0.0425 0.0106,-0.0425 v -0.0425 -0.0531 l 0.0106,-0.0425 v -0.0532 c 0,-1.063 -0.96733,-1.063 -1.86024,-1.063 H 352.9795 c -0.89291,0 -1.83897,0 -1.83897,1.063 0,1.06299 0.94606,1.06299 1.83897,1.06299 z" id="path5208"></path><path style="font-style:normal;font-variant:normal;font-weight:normal;font-stretch:normal;letter-spacing:normal;word-spacing:normal;text-anchor:start;fill:#000000;stroke:#000000;stroke-width:0;stroke-linecap:butt;stroke-linejoin:miter;stroke-miterlimit:10.43299961;stroke-dasharray:none;stroke-dashoffset:0;stroke-opacity:1" d="m 403.45037,643.59356 v -0.0638 -0.0531 -0.0531 -0.0532 -0.0531 -0.0531 -0.0532 -0.0425 -0.0425 -0.0425 -0.0425 -0.0425 -0.0425 -0.0425 -0.0319 -0.0425 -0.0638 -0.0638 -0.0638 -0.0532 -0.0425 -0.0425 l -0.1063,-0.0425 v -0.0425 -0.0319 l -0.1063,-0.0319 v -0.0213 -0.0213 l -0.1063,-0.0213 v -0.0106 -0.0106 -0.0106 h -0.1063 v -0.0106 0 l -0.1063,-0.0106 v 0 -0.0106 h -0.1063 v -0.0106 0 h -0.1063 v 0 h -0.1063 v -0.0106 0 h -0.1063 v 0 h -0.1063 v 0 h -0.10629 c -3.29528,3.39094 -7.97245,3.39094 -9.67323,3.39094 v 1.63701 c 1.06299,0 4.25197,0 7.01575,-1.37126 v 27.43583 c 0,1.91338 -0.2126,2.54055 -4.99607,2.54055 h -1.70079 v 1.64764 c 1.91339,-0.17008 6.48426,-0.17008 8.61024,-0.17008 2.12599,0 6.69685,0 8.61024,0.17008 v -1.64764 h -1.70079 c -4.78346,0 -4.99606,-0.58465 -4.99606,-2.54055 z" id="path5210"></path><path style="font-style:normal;font-variant:normal;font-weight:normal;font-stretch:normal;letter-spacing:normal;word-spacing:normal;text-anchor:start;fill:#000000;stroke:#000000;stroke-width:0;stroke-linecap:butt;stroke-linejoin:miter;stroke-miterlimit:10.43299961;stroke-dasharray:none;stroke-dashoffset:0;stroke-opacity:1" d="m 641.348,643.59356 v -0.0638 -0.0531 -0.0531 -0.0532 -0.0531 -0.0531 -0.0532 -0.0425 -0.0425 -0.0425 -0.0425 -0.0425 -0.0425 -0.0425 -0.0319 -0.0425 -0.0638 -0.0638 -0.0638 -0.0532 -0.0425 l -0.1063,-0.0425 v -0.0425 -0.0425 -0.0319 l -0.1063,-0.0319 v -0.0213 -0.0213 l -0.1063,-0.0213 v -0.0106 -0.0106 l -0.1063,-0.0106 v 0 -0.0106 h -0.1063 v -0.0106 0 -0.0106 h -0.1063 v -0.0106 h -0.1063 v 0 0 h -0.10629 v -0.0106 h -0.1063 v 0 h -0.1063 v 0 h -0.1063 v 0 c -3.29528,3.39094 -7.97244,3.39094 -9.67323,3.39094 v 1.63701 c 1.06299,0 4.25197,0 6.90945,-1.37126 v 27.43583 c 0,1.91338 -0.1063,2.54055 -4.88977,2.54055 h -1.70078 v 1.64764 c 1.91338,-0.17008 6.48425,-0.17008 8.61023,-0.17008 2.12599,0 6.69685,0 8.61024,0.17008 v -1.64764 h -1.70079 c -4.78346,0 -4.99606,-0.58465 -4.99606,-2.54055 z" id="path5212"></path><path style="font-style:normal;font-variant:normal;font-weight:normal;font-stretch:normal;letter-spacing:normal;word-spacing:normal;text-anchor:start;fill:#000000;stroke:#000000;stroke-width:0;stroke-linecap:butt;stroke-linejoin:miter;stroke-miterlimit:10.43299961;stroke-dasharray:none;stroke-dashoffset:0;stroke-opacity:1" d="m 761.785,673.39986 5.63386,-5.44252 c 8.18504,-7.31339 11.37402,-10.16221 11.37402,-15.46654 0,-6.04842 -4.67717,-10.27913 -11.16142,-10.27913 -5.95276,0 -9.88583,4.87913 -9.88583,9.59882 0,2.95512 2.65748,2.95512 2.76378,2.95512 0.9567,0 2.76378,-0.62717 2.76378,-2.8063 0,-1.37126 -0.95669,-2.75315 -2.76378,-2.75315 -0.42519,0 -0.53149,0 -0.74409,0.0532 1.27559,-3.4441 4.03937,-5.4 7.12205,-5.4 4.88976,0 7.12204,4.29449 7.12204,8.63149 0,4.24134 -2.65748,8.4189 -5.52756,11.71418 l -10.20472,11.32086 c -0.5315,0.58465 -0.5315,0.68032 -0.5315,1.96654 h 19.55906 l 1.48819,-9.21614 h -1.27559 c -0.3189,1.59448 -0.6378,3.91181 -1.16929,4.70905 -0.3189,0.41457 -3.82678,0.41457 -4.99607,0.41457 z" id="path5214"></path><path style="font-style:normal;font-variant:normal;font-weight:normal;font-stretch:normal;letter-spacing:normal;word-spacing:normal;text-anchor:start;fill:#000000;stroke:#000000;stroke-width:0;stroke-linecap:butt;stroke-linejoin:miter;stroke-miterlimit:10.43299961;stroke-dasharray:none;stroke-dashoffset:0;stroke-opacity:1" d="m 899.65508,658.85813 0.4252,-0.14882 0.42519,-0.14882 0.3189,-0.17008 0.4252,-0.18071 0.31889,-0.19134 0.4252,-0.20197 0.3189,-0.2126 0.3189,-0.22322 0.31889,-0.23386 0.3189,-0.24449 0.3189,-0.25512 0.3189,-0.26575 0.3189,-0.27637 0.21259,-0.28701 0.3189,-0.29764 0.2126,-0.29764 0.3189,-0.30827 0.2126,-0.31889 0.21259,-0.32953 0.2126,-0.32953 0.1063,-0.34016 0.2126,-0.34015 0.1063,-0.35079 0.2126,-0.36142 0.1063,-0.36141 0.1063,-0.37205 0.1063,-0.37205 v -0.37205 l 0.10629,-0.38267 v -0.38268 l 0.1063,-0.39331 v -0.38268 c 0,-4.337 -4.67716,-7.31338 -9.77952,-7.31338 -5.31496,0 -9.35433,3.18898 -9.35433,7.20709 0,1.7433 1.16929,2.76378 2.65748,2.76378 1.70078,0 2.76378,-1.1693 2.76378,-2.71063 0,-2.64686 -2.55119,-2.64686 -3.29528,-2.64686 1.59449,-2.58307 5.10236,-3.28464 7.01575,-3.28464 2.23228,0 5.10236,1.15866 5.10236,5.9315 0,0.64842 -0.1063,3.69921 -1.48819,6.04842 -1.59449,2.54055 -3.40157,2.68937 -4.67716,2.75315 -0.4252,0.0532 -1.70079,0.14882 -2.12599,0.14882 -0.4252,0.0532 -0.74409,0.0957 -0.74409,0.62716 0,0.58465 0.31889,0.58465 1.27559,0.58465 h 2.33858 c 4.35827,0 6.27165,3.60354 6.27165,8.80157 0,7.19646 -3.61417,8.7378 -5.95275,8.7378 -2.33858,0 -6.27166,-0.89291 -8.07874,-4.01811 1.80708,0.24449 3.40157,-0.91417 3.40157,-2.92323 0,-1.91338 -1.38189,-2.95512 -2.97638,-2.95512 -1.27559,0 -2.87007,0.73347 -2.87007,3.07205 0,4.81535 4.88976,8.30197 10.62992,8.30197 6.48425,0 11.26771,-4.81536 11.26771,-10.21536 0,-4.34763 -3.29527,-8.47204 -8.82283,-9.57755 z" id="path5216"></path><path style="font-style:normal;font-variant:normal;font-weight:normal;font-stretch:normal;letter-spacing:normal;word-spacing:normal;text-anchor:start;fill:#000000;stroke:#000000;stroke-width:0;stroke-linecap:butt;stroke-linejoin:miter;stroke-miterlimit:10.43299961;stroke-dasharray:none;stroke-dashoffset:0;stroke-opacity:1" d="m 1029.1275,668.75458 v 4.60276 c 0,1.90275 -0.1063,2.4874 -4.0394,2.4874 h -1.0629 v 1.64764 c 2.1259,-0.17008 4.8897,-0.17008 7.122,-0.17008 2.2323,0 4.9961,0 7.2283,0.17008 v -1.64764 h -1.1692 c -3.9331,0 -4.0394,-0.58465 -4.0394,-2.4874 v -4.60276 h 5.3149 v -1.64764 h -5.3149 v -24.09803 c 0,-1.06299 0,-1.38189 -0.8504,-1.38189 -0.4252,0 -0.6378,0 -1.063,0.64843 l -16.2638,24.83149 h 1.4882 l 12.9685,-19.75039 v 19.75039 h -12.9685 -1.4882 v 1.64764 z" id="path5218"></path><path style="font-style:normal;font-variant:normal;font-weight:normal;font-stretch:normal;letter-spacing:normal;word-spacing:normal;text-anchor:start;fill:#000000;stroke:#000000;stroke-width:0;stroke-linecap:butt;stroke-linejoin:miter;stroke-miterlimit:10.43299961;stroke-dasharray:none;stroke-dashoffset:0;stroke-opacity:1" d="m 1166.5724,666.8412 v -0.58465 -0.58465 l -0.1063,-0.57401 -0.1063,-0.56339 -0.1063,-0.55275 -0.1063,-0.54213 -0.1063,-0.54212 -0.2126,-0.52087 -0.2126,-0.51024 -0.2126,-0.4996 -0.2126,-0.48898 -0.3189,-0.46772 -0.2126,-0.45708 -0.3189,-0.43583 -0.3189,-0.4252 -0.3189,-0.40393 -0.3189,-0.39331 -0.4252,-0.36142 -0.3189,-0.35078 -0.4252,-0.3189 -0.4252,-0.30827 -0.4252,-0.28701 -0.4252,-0.25512 -0.4252,-0.23385 -0.4252,-0.2126 -0.5315,-0.19134 -0.4251,-0.14882 -0.5315,-0.13819 -0.5315,-0.1063 -0.5315,-0.0744 -0.5315,-0.0425 -0.5315,-0.0106 c -2.5512,0 -4.7835,0.83977 -6.6969,2.68937 V 647.6223 c 1.063,0.3189 2.8701,0.68031 4.4646,0.68031 6.5905,0 10.311,-4.81535 10.311,-5.5063 0,-0.31889 -0.2126,-0.58464 -0.5315,-0.58464 -0.1063,0 -0.2126,0 -0.4252,0.17008 -1.063,0.47834 -3.7205,1.52008 -7.2283,1.52008 -2.126,0 -4.5709,-0.36142 -7.0158,-1.47756 -0.4252,-0.14882 -0.5315,-0.14882 -0.6378,-0.14882 -0.5315,0 -0.5315,0.41457 -0.5315,1.26496 v 15.67913 c 0,0.94607 0,1.38189 0.7441,1.38189 0.3189,0 0.4252,-0.17008 0.6378,-0.48897 0.6378,-0.83977 2.5512,-3.69922 6.8032,-3.69922 2.7638,0 4.1456,2.44489 4.5708,3.39095 0.8504,1.9559 0.9567,4.01811 0.9567,6.67559 0,1.83898 0,5.02795 -1.2756,7.26023 -1.2756,2.05158 -3.2952,3.43347 -5.7401,3.43347 -3.8268,0 -6.8032,-2.8063 -7.7599,-5.9315 0.2126,0.0531 0.3189,0.1063 0.9567,0.1063 1.7008,0 2.6575,-1.32874 2.6575,-2.5937 0,-1.27559 -0.9567,-2.5937 -2.6575,-2.5937 -0.7441,0 -2.6574,0.37205 -2.6574,2.8063 0,4.54961 3.7204,9.68386 9.5669,9.68386 6.1653,0 11.5866,-5.0811 11.5866,-11.80984 z" id="path5220"></path><path style="font-style:normal;font-variant:normal;font-weight:normal;font-stretch:normal;letter-spacing:normal;word-spacing:normal;text-anchor:start;fill:#000000;stroke:#000000;stroke-width:0;stroke-linecap:butt;stroke-linejoin:miter;stroke-miterlimit:10.43299961;stroke-dasharray:none;stroke-dashoffset:0;stroke-opacity:1" d="m 447.03304,940.62544 h 0.2126 0.1063 l 0.2126,-0.0106 h 0.1063 v -0.0106 h 0.1063 l 0.1063,-0.0106 0.1063,-0.0106 v -0.0106 l 0.10629,-0.0213 0.1063,-0.0106 v -0.0213 l 0.1063,-0.0213 0.1063,-0.0319 v -0.0319 l 0.1063,-0.0319 v -0.0319 l 0.1063,-0.0425 v -0.0425 l 0.1063,-0.0531 v -0.0531 -0.0319 -0.0319 l 0.1063,-0.0319 v -0.0319 -0.0319 -0.0319 -0.0319 -0.0425 -0.0425 -0.0319 -0.0425 -0.0425 l 0.1063,-0.0531 v -0.0425 -0.0425 -0.0531 c 0,-1.06299 -0.95669,-1.06299 -1.91339,-1.06299 h -28.59448 c -0.9567,0 -1.91339,0 -1.91339,1.06299 0,1.06299 0.95669,1.06299 1.91339,1.06299 z" id="path5230"></path><path style="font-style:normal;font-variant:normal;font-weight:normal;font-stretch:normal;letter-spacing:normal;word-spacing:normal;text-anchor:start;fill:#000000;stroke:#000000;stroke-width:0;stroke-linecap:butt;stroke-linejoin:miter;stroke-miterlimit:10.43299961;stroke-dasharray:none;stroke-dashoffset:0;stroke-opacity:1" d="m 468.71808,934.16245 0.4252,-0.13819 0.3189,-0.14882 0.42519,-0.17008 0.4252,-0.18071 0.3189,-0.19133 0.3189,-0.20197 0.42519,-0.2126 0.3189,-0.22323 0.3189,-0.23386 0.31889,-0.25512 0.3189,-0.25511 0.3189,-0.26575 0.3189,-0.27638 0.2126,-0.28701 0.31889,-0.28701 0.2126,-0.30826 0.2126,-0.30827 0.2126,-0.3189 0.2126,-0.3189 0.2126,-0.32952 0.21259,-0.34016 0.2126,-0.35079 0.1063,-0.35079 0.1063,-0.35078 0.2126,-0.37205 0.1063,-0.36142 0.1063,-0.37205 v -0.38267 l 0.1063,-0.37205 v -0.39331 l 0.1063,-0.38267 v -0.39331 c 0,-4.33701 -4.67717,-7.30276 -9.77953,-7.30276 -5.31496,0 -9.35433,3.18898 -9.35433,7.20709 0,1.74331 1.16929,2.75315 2.65748,2.75315 1.70079,0 2.76378,-1.15866 2.76378,-2.71063 0,-2.63622 -2.55118,-2.63622 -3.29528,-2.63622 1.59449,-2.5937 5.10236,-3.28465 7.01575,-3.28465 2.12598,0 5.10236,1.15866 5.10236,5.92087 0,0.64842 -0.1063,3.70984 -1.48819,6.04842 -1.59448,2.54056 -3.40157,2.68937 -4.67716,2.76378 -0.5315,0.0425 -1.70079,0.14882 -2.12599,0.14882 -0.42519,0.0425 -0.74409,0.0957 -0.74409,0.62717 0,0.58464 0.3189,0.58464 1.27559,0.58464 h 2.23228 c 4.35827,0 6.37796,3.60355 6.37796,8.80158 0,7.18582 -3.72048,8.73779 -6.05906,8.73779 -2.23228,0 -6.16535,-0.90354 -8.07874,-4.01811 1.91339,0.24449 3.50788,-0.91417 3.50788,-2.92323 0,-1.91338 -1.38189,-2.96574 -2.97638,-2.96574 -1.27559,0 -2.97638,0.73346 -2.97638,3.07204 0,4.82599 4.99606,8.3126 10.73622,8.3126 6.48425,0 11.26772,-4.81535 11.26772,-10.21535 0,-4.35827 -3.29528,-8.47205 -8.82284,-9.58819 z" id="path5232"></path><path style="font-style:normal;font-variant:normal;font-weight:normal;font-stretch:normal;letter-spacing:normal;word-spacing:normal;text-anchor:start;fill:#000000;stroke:#000000;stroke-width:0;stroke-linecap:butt;stroke-linejoin:miter;stroke-miterlimit:10.43299961;stroke-dasharray:none;stroke-dashoffset:0;stroke-opacity:1" d="m 447.03304,832.43411 h 0.2126 0.1063 l 0.2126,-0.0106 h 0.1063 v -0.0106 h 0.1063 l 0.1063,-0.0106 0.1063,-0.0106 v -0.0106 l 0.10629,-0.0213 0.1063,-0.0106 v -0.0213 l 0.1063,-0.0319 0.1063,-0.0213 v -0.0319 l 0.1063,-0.0319 v -0.0425 l 0.1063,-0.0319 v -0.0532 l 0.1063,-0.0425 v -0.0531 -0.0319 -0.0319 l 0.1063,-0.0319 v -0.0319 -0.0319 -0.0319 -0.0425 -0.0319 -0.0425 -0.0425 -0.0319 -0.0425 l 0.1063,-0.0531 v -0.0425 -0.0425 -0.0531 c 0,-1.06299 -0.95669,-1.06299 -1.91339,-1.06299 h -28.59448 c -0.9567,0 -1.91339,0 -1.91339,1.06299 0,1.063 0.95669,1.063 1.91339,1.063 z" id="path5234"></path><path style="font-style:normal;font-variant:normal;font-weight:normal;font-stretch:normal;letter-spacing:normal;word-spacing:normal;text-anchor:start;fill:#000000;stroke:#000000;stroke-width:0;stroke-linecap:butt;stroke-linejoin:miter;stroke-miterlimit:10.43299961;stroke-dasharray:none;stroke-dashoffset:0;stroke-opacity:1" d="m 460.10785,840.52348 5.52755,-5.45315 c 8.29134,-7.30276 11.48032,-10.16221 11.48032,-15.45591 0,-6.04842 -4.78347,-10.28976 -11.16142,-10.28976 -6.05905,0 -9.99212,4.88976 -9.99212,9.60945 0,2.95511 2.65748,2.95511 2.87008,2.95511 0.85039,0 2.76377,-0.63779 2.76377,-2.8063 0,-1.38188 -0.95669,-2.76377 -2.87007,-2.76377 -0.4252,0 -0.5315,0 -0.6378,0.0531 1.16929,-3.43346 4.03937,-5.39999 7.12205,-5.39999 4.78346,0 7.12204,4.30511 7.12204,8.64212 0,4.23071 -2.65748,8.4189 -5.63385,11.70354 l -10.09843,11.3315 c -0.63779,0.58465 -0.63779,0.68031 -0.63779,1.95591 h 19.66535 l 1.48819,-9.21615 h -1.27559 c -0.3189,1.59449 -0.6378,3.92244 -1.16929,4.71969 -0.4252,0.41457 -3.93307,0.41457 -5.10236,0.41457 z" id="path5236"></path><path style="font-style:normal;font-variant:normal;font-weight:normal;font-stretch:normal;letter-spacing:normal;word-spacing:normal;text-anchor:start;fill:#000000;stroke:#000000;stroke-width:0;stroke-linecap:butt;stroke-linejoin:miter;stroke-miterlimit:10.43299961;stroke-dasharray:none;stroke-dashoffset:0;stroke-opacity:1" d="m 447.03304,724.23214 h 0.2126 0.1063 0.2126 l 0.1063,-0.0106 v 0 l 0.1063,-0.0106 0.1063,-0.0106 0.1063,-0.0106 v -0.0106 l 0.10629,-0.0106 0.1063,-0.0213 v -0.0213 l 0.1063,-0.0213 0.1063,-0.0319 v -0.0213 l 0.1063,-0.0425 v -0.0319 l 0.1063,-0.0425 v -0.0425 l 0.1063,-0.0531 v -0.0532 -0.0213 -0.0319 l 0.1063,-0.0319 v -0.0319 -0.0319 -0.0425 -0.0319 -0.0425 -0.0319 -0.0425 -0.0425 -0.0425 l 0.1063,-0.0425 v -0.0531 -0.0425 -0.0532 c 0,-1.06299 -0.95669,-1.06299 -1.91339,-1.06299 h -28.59448 c -0.9567,0 -1.91339,0 -1.91339,1.06299 0,1.06299 0.95669,1.06299 1.91339,1.06299 z" id="path5238"></path><path style="font-style:normal;font-variant:normal;font-weight:normal;font-stretch:normal;letter-spacing:normal;word-spacing:normal;text-anchor:start;fill:#000000;stroke:#000000;stroke-width:0;stroke-linecap:butt;stroke-linejoin:miter;stroke-miterlimit:10.43299961;stroke-dasharray:none;stroke-dashoffset:0;stroke-opacity:1" d="m 468.93068,702.51521 v -0.0638 -0.0531 -0.0531 -0.0532 -0.0531 -0.0531 -0.0532 -0.0425 -0.0425 -0.0425 -0.0425 -0.0425 -0.0425 -0.0425 -0.0319 -0.0425 -0.0638 l -0.1063,-0.0638 v -0.0638 -0.0532 -0.0425 -0.0425 -0.0425 l -0.1063,-0.0425 v -0.0319 -0.0319 l -0.1063,-0.0213 v -0.0213 -0.0213 l -0.1063,-0.0106 v -0.0106 -0.0106 0 l -0.1063,-0.0106 v 0 -0.0106 h -0.1063 v -0.0106 0 l -0.10629,-0.0106 v 0 0 h -0.1063 v 0 l -0.1063,-0.0106 v 0 h -0.1063 v 0 h -0.1063 v 0 h -0.1063 c -3.29528,3.39095 -7.86614,3.39095 -9.56693,3.39095 v 1.637 c 1.06299,0 4.14567,0 6.90945,-1.37126 v 27.43583 c 0,1.91339 -0.1063,2.54055 -4.88976,2.54055 h -1.70079 v 1.64764 c 1.80708,-0.17008 6.48425,-0.17008 8.50394,-0.17008 2.12598,0 6.80314,0 8.61023,0.17008 v -1.64764 h -1.70079 c -4.78346,0 -4.88976,-0.58464 -4.88976,-2.54055 z" id="path5240"></path><path style="font-style:normal;font-variant:normal;font-weight:normal;font-stretch:normal;letter-spacing:normal;word-spacing:normal;text-anchor:start;fill:#000000;stroke:#000000;stroke-width:0;stroke-linecap:butt;stroke-linejoin:miter;stroke-miterlimit:10.43299961;stroke-dasharray:none;stroke-dashoffset:0;stroke-opacity:1" d="m 468.93068,488.3223 v -0.0574 -0.0574 -0.0553 -0.0532 -0.0521 -0.05 -0.0489 -0.0468 -0.0457 -0.0447 -0.0425 -0.0414 -0.0404 l -0.1063,-0.0383 v -0.0372 -0.0361 -0.068 -0.0638 -0.0574 -0.0542 -0.0489 -0.0446 l -0.1063,-0.0415 v -0.0361 -0.033 -0.0298 l -0.1063,-0.0266 v -0.0234 l -0.1063,-0.0202 v -0.01 -0.009 -0.007 l -0.1063,-0.007 v -0.006 -0.006 l -0.1063,-0.005 v -0.004 -0.005 l -0.10629,-0.003 v -0.004 -0.003 l -0.1063,-0.002 v -0.002 -0.002 l -0.1063,-0.002 v -10e-4 l -0.1063,-0.001 v 0 l -0.1063,-10e-4 v 0 h -0.1063 c -3.29528,3.38775 -7.86614,3.38775 -9.56693,3.38775 v 1.64445 c 1.06299,0 4.14567,0 6.90945,-1.3787 v 27.4387 c 0,1.90998 -0.2126,2.54118 -4.88976,2.54118 h -1.70079 v 1.64429 c 1.80708,-0.16622 6.37795,-0.16622 8.50394,-0.16622 2.12598,0 6.69685,0 8.61023,0.16622 v -1.64429 h -1.70079 c -4.78346,0 -4.88976,-0.58135 -4.88976,-2.54118 z" id="path5242"></path><path style="font-style:normal;font-variant:normal;font-weight:normal;font-stretch:normal;letter-spacing:normal;word-spacing:normal;text-anchor:start;fill:#000000;stroke:#000000;stroke-width:0;stroke-linecap:butt;stroke-linejoin:miter;stroke-miterlimit:10.43299961;stroke-dasharray:none;stroke-dashoffset:0;stroke-opacity:1" d="m 460.10785,409.93727 5.52755,-5.44252 c 8.29134,-7.31339 11.48032,-10.16221 11.48032,-15.46654 0,-6.04842 -4.78347,-10.27913 -11.26772,-10.27913 -5.95275,0 -9.88582,4.87913 -9.88582,9.59882 0,2.95511 2.65748,2.95511 2.76378,2.95511 0.95669,0 2.76378,-0.62716 2.76378,-2.8063 0,-1.38188 -0.8504,-2.75314 -2.76378,-2.75314 -0.4252,0 -0.5315,0 -0.6378,0.0425 1.16929,-3.43346 4.03937,-5.38936 7.12205,-5.38936 4.78346,0 7.12204,4.29448 7.12204,8.63149 0,4.24134 -2.65748,8.4189 -5.63385,11.71417 l -10.09843,11.32087 c -0.63779,0.58465 -0.63779,0.68031 -0.63779,1.96654 h 19.66535 l 1.48819,-9.22678 h -1.38189 c -0.2126,1.59449 -0.5315,3.92244 -1.06299,4.71969 -0.4252,0.41457 -3.93307,0.41457 -5.10236,0.41457 z" id="path5244"></path><path style="font-style:normal;font-variant:normal;font-weight:normal;font-stretch:normal;letter-spacing:normal;word-spacing:normal;text-anchor:start;fill:#000000;stroke:#000000;stroke-width:0;stroke-linecap:butt;stroke-linejoin:miter;stroke-miterlimit:10.43299961;stroke-dasharray:none;stroke-dashoffset:0;stroke-opacity:1" d="m 468.71808,287.19357 0.4252,-0.13819 0.3189,-0.15945 0.42519,-0.15945 0.3189,-0.18071 0.4252,-0.19134 0.3189,-0.20196 0.42519,-0.2126 0.3189,-0.23386 0.3189,-0.23386 0.31889,-0.24449 0.3189,-0.25512 0.3189,-0.26574 0.2126,-0.27638 0.3189,-0.28701 0.21259,-0.28701 0.3189,-0.30827 0.2126,-0.30826 0.2126,-0.3189 0.2126,-0.3189 0.2126,-0.34016 0.21259,-0.34015 0.1063,-0.34016 0.2126,-0.35079 0.1063,-0.36142 0.1063,-0.36141 0.1063,-0.36142 0.1063,-0.37205 0.1063,-0.38267 0.1063,-0.38268 v -0.38268 -0.38268 -0.3933 c 0,-4.33701 -4.57087,-7.31339 -9.67323,-7.31339 -5.42126,0 -9.35433,3.18898 -9.35433,7.21772 0,1.7433 1.16929,2.75315 2.65748,2.75315 1.59449,0 2.65748,-1.15866 2.65748,-2.71063 0,-2.63622 -2.44488,-2.63622 -3.18898,-2.63622 1.59449,-2.5937 5.10236,-3.29528 7.01575,-3.29528 2.12598,0 5.10236,1.16929 5.10236,5.9315 0,0.64842 -0.1063,3.70984 -1.48819,6.04842 -1.59448,2.54055 -3.40157,2.68937 -4.78346,2.75315 -0.4252,0.0532 -1.70079,0.14882 -2.01969,0.14882 -0.42519,0.0531 -0.85039,0.1063 -0.85039,0.6378 0,0.57401 0.4252,0.57401 1.27559,0.57401 h 2.33858 c 4.35827,0 6.37796,3.60355 6.37796,8.81221 0,7.18582 -3.72048,8.72716 -6.05906,8.72716 -2.23228,0 -6.27165,-0.89291 -8.07874,-4.01811 1.80709,0.25512 3.50788,-0.91417 3.50788,-2.92323 0,-1.90275 -1.38189,-2.95511 -2.97638,-2.95511 -1.27559,0 -2.97638,0.73346 -2.97638,3.07204 0,4.81536 4.88976,8.3126 10.73622,8.3126 6.48425,0 11.26772,-4.82598 11.26772,-10.21535 0,-4.35827 -3.40158,-8.47205 -8.82284,-9.58819 z" id="path5246"></path><path style="font-style:normal;font-variant:normal;font-weight:normal;font-stretch:normal;letter-spacing:normal;word-spacing:normal;text-anchor:start;fill:#000000;stroke:#000000;stroke-width:0;stroke-linecap:butt;stroke-linejoin:miter;stroke-miterlimit:10.43299961;stroke-dasharray:none;stroke-dashoffset:0;stroke-opacity:1" d="m 468.93068,188.89869 v 4.59212 c 0,1.91339 -0.1063,2.49804 -4.03937,2.49804 h -1.16929 v 1.64763 c 2.23228,-0.17008 4.99606,-0.17008 7.22835,-0.17008 2.23228,0 4.99606,0 7.12204,0.17008 v -1.64763 h -1.06299 c -3.93307,0 -4.03937,-0.58465 -4.03937,-2.49804 v -4.59212 h 5.31496 v -1.64764 h -5.31496 v -24.09803 c 0,-1.06299 0,-1.38189 -0.85039,-1.38189 -0.4252,0 -0.6378,0 -1.063,0.64843 l -16.26377,24.83149 h 1.48818 l 12.96851,-19.75039 v 19.75039 h -12.96851 -1.48818 v 1.64764 z" id="path5248"></path><path style="font-style:normal;font-variant:normal;font-weight:normal;font-stretch:normal;letter-spacing:normal;word-spacing:normal;text-anchor:start;fill:#000000;stroke:#000000;stroke-width:0;stroke-linecap:butt;stroke-linejoin:miter;stroke-miterlimit:10.43299961;stroke-dasharray:none;stroke-dashoffset:0;stroke-opacity:1" d="m 477.11572,78.783337 v -0.584646 -0.574016 l -0.1063,-0.574016 -0.1063,-0.563385 -0.1063,-0.563386 -0.1063,-0.542126 -0.2126,-0.531496 -0.1063,-0.531496 -0.21259,-0.510236 -0.2126,-0.499607 -0.2126,-0.488976 -0.3189,-0.467717 -0.2126,-0.457086 -0.31889,-0.435827 -0.3189,-0.425197 -0.3189,-0.403937 -0.3189,-0.382677 -0.42519,-0.372047 -0.3189,-0.340158 -0.4252,-0.329527 -0.4252,-0.308268 -0.42519,-0.276378 -0.4252,-0.265748 -0.4252,-0.233858 -0.53149,-0.212599 -0.4252,-0.180708 -0.53149,-0.159449 -0.4252,-0.138189 -0.5315,-0.09567 -0.53149,-0.07441 -0.5315,-0.05315 -0.5315,-0.01063 c -2.55118,0 -4.78346,0.850393 -6.69685,2.68937 V 59.575069 c 1.063,0.308268 2.76378,0.680315 4.46457,0.680315 6.59055,0 10.20473,-4.815354 10.20473,-5.516929 0,-0.318897 -0.1063,-0.584645 -0.5315,-0.584645 0,0 -0.1063,0 -0.3189,0.170078 -1.06299,0.478347 -3.72047,1.530709 -7.22834,1.530709 -2.12599,0 -4.57087,-0.372047 -7.12205,-1.477559 -0.3189,-0.148819 -0.5315,-0.148819 -0.5315,-0.148819 -0.53149,0 -0.53149,0.414567 -0.53149,1.254331 v 15.679133 c 0,0.946063 0,1.38189 0.74409,1.38189 0.3189,0 0.4252,-0.170079 0.6378,-0.478346 0.53149,-0.850394 2.55118,-3.709843 6.80315,-3.709843 2.76377,0 4.14566,2.444882 4.57086,3.390945 0.85039,1.955905 0.95669,4.01811 0.95669,6.67559 0,1.849607 0,5.038583 -1.27559,7.260236 -1.27559,2.062205 -3.29527,3.433465 -5.74015,3.433465 -3.82678,0 -6.80315,-2.806299 -7.75985,-5.920866 0.2126,0.04252 0.3189,0.09567 0.9567,0.09567 1.70078,0 2.55118,-1.32874 2.55118,-2.593701 0,-1.27559 -0.8504,-2.5937 -2.55118,-2.5937 -0.7441,0 -2.65748,0.372047 -2.65748,2.806299 0,4.560236 3.61417,9.683858 9.56693,9.683858 6.16535,0 11.58661,-5.081102 11.58661,-11.809843 z" id="path5250"></path><polyline transform="matrix(1.0629921,0,0,-1.0629921,-672.08504,522.35931)" style="font-style:normal;font-variant:normal;font-weight:normal;font-stretch:normal;letter-spacing:normal;word-spacing:normal;text-anchor:start;fill:none;stroke:#000000;stroke-width:1.99249995;stroke-linecap:butt;stroke-linejoin:miter;stroke-miterlimit:10.43299961;stroke-dasharray:none;stroke-dashoffset:0;stroke-opacity:1" points="807.9,41.625 809.56,37.457 811.23,33.328 812.9,29.238 814.56,25.184 816.23,21.168 817.9,17.191 819.57,13.254 821.23,9.3555 822.9,5.4922 824.57,1.668 826.23,-2.1172 827.9,-5.8633 829.57,-9.5703 831.23,-13.242 832.9,-16.875 834.57,-20.469 836.24,-24.023 837.91,-27.539 839.57,-31.02 841.24,-34.461 842.91,-37.863 844.57,-41.227 846.24,-44.555 847.91,-47.84 849.57,-51.09 851.24,-54.301 852.91,-57.473 854.58,-60.609 856.24,-63.703 857.91,-66.762 859.58,-69.781 861.25,-72.762 862.91,-75.707 864.58,-78.613 866.25,-81.477 867.91,-84.305 869.58,-87.098 871.25,-89.848 872.91,-92.563 874.58,-95.238 876.25,-97.875 877.92,-100.47 879.59,-103.03 881.25,-105.56 882.92,-108.04 884.59,-110.48 886.25,-112.89 887.92,-115.26 889.59,-117.59 891.25,-119.88 892.92,-122.14 894.59,-124.35 896.26,-126.53 897.92,-128.67 899.59,-130.77 901.26,-132.83 902.93,-134.86 904.59,-136.84 906.26,-138.79 907.93,-140.7 909.59,-142.57 911.26,-144.41 912.93,-146.2 914.6,-147.96 916.26,-149.68 917.93,-151.35 919.6,-153 921.27,-154.6 922.93,-156.17 924.6,-157.7 926.27,-159.18 927.93,-160.63 929.6,-162.04 931.27,-163.42 932.93,-164.75 934.6,-166.05 936.27,-167.31 937.94,-168.53 939.6,-169.71 941.27,-170.85 942.94,-171.96 944.6,-173.03 946.27,-174.06 947.94,-175.05 949.6,-176 951.27,-176.92 952.94,-177.79 954.61,-178.63 956.28,-179.43 957.94,-180.2 959.61,-180.92 961.28,-181.6 962.95,-182.25 964.61,-182.85 966.28,-183.43 967.95,-183.96 969.61,-184.45 971.28,-184.91 972.95,-185.32 974.61,-185.7 976.28,-186.04 977.95,-186.34 979.62,-186.61 981.28,-186.83 982.95,-187.02 984.62,-187.17 986.28,-187.28 987.95,-187.35 989.62,-187.39 991.28,-187.38 992.95,-187.34 994.62,-187.26 996.29,-187.14 997.96,-186.98 999.62,-186.79 1001.3,-186.55 1003,-186.28 1004.6,-185.97 1006.3,-185.63 1008,-185.24 1009.6,-184.81 1011.3,-184.35 1013,-183.85 1014.6,-183.3 1016.3,-182.73 1018,-182.11 1019.6,-181.46 1021.3,-180.76 1023,-180.03 1024.6,-179.26 1026.3,-178.45 1028,-177.61 1029.6,-176.72 1031.3,-175.8 1033,-174.84 1034.6,-173.84 1036.3,-172.8 1038,-171.73 1039.6,-170.61 1041.3,-169.46 1043,-168.27 1044.6,-167.04 1046.3,-165.77 1048,-164.47 1049.6,-163.13 1051.3,-161.74 1053,-160.32 1054.6,-158.86 1056.3,-157.37 1058,-155.83 1059.6,-154.26 1061.3,-152.65 1063,-151 1064.6,-149.31 1066.3,-147.58 1068,-145.82 1069.6,-144.01 1071.3,-142.17 1073,-140.29 1074.7,-138.38 1076.3,-136.42 1078,-134.43 1079.7,-132.39 1081.3,-130.32 1083,-128.21 1084.7,-126.06 1086.3,-123.88 1088,-121.65 1089.7,-119.39 1091.3,-117.09 1093,-114.75 1094.7,-112.38 1096.3,-109.96 1098,-107.5 1099.7,-105.01 1101.3,-102.48 1103,-99.914 1104.7,-97.305 1106.3,-94.66 1108,-91.977 1109.7,-89.258 1111.3,-86.496 1113,-83.699 1114.7,-80.859 1116.3,-77.988 1118,-75.074 1119.7,-72.121 1121.3,-69.133 1123,-66.105 1124.7,-63.039 1126.3,-59.934 1128,-56.789 1129.7,-53.609 1131.3,-50.391 1133,-47.133 1134.7,-43.836 1136.3,-40.504 1138,-37.129 1139.7,-33.719 1141.3,-30.27 1143,-26.785 1144.7,-23.258 1146.3,-19.695 1148,-16.094 1149.7,-12.453 1151.3,-8.7734 1153,-5.0547 1154.7,-1.3008 1156.3,2.4922 1158,6.3242 1159.7,10.195 1161.3,14.102 1163,18.051 1164.7,22.035 1166.3,26.059 1168,30.117 1169.7,34.219 1171.3,38.355 1173,42.531 1174.7,46.746 1176.3,51 1178,55.289 1179.7,59.621 1181.3,63.988 1183,68.395 1184.7,72.836 1186.3,77.32 1188,81.84 1189.7,86.398 1191.3,90.996 1193,95.633 1194.7,100.31 1196.3,105.02 1198,109.77 1199.7,114.56 1201.4,119.38 1203,124.25 1204.7,129.15 1206.4,134.09 1208,139.07 1209.7,144.09 1211.4,149.15 1213,154.25 1214.7,159.38 1216.4,164.55 1218,169.76 1219.7,175.01 1221.4,180.29 1223,185.62 1224.7,190.98 1226.4,196.38 1228,201.82 1229.7,207.3 1231.4,212.81 1233,218.37 1234.7,223.96 1236.4,229.59 1238,235.26 1239.7,240.97 1241.4,246.71 1243,252.5 1244.7,258.32 1246.4,264.18 1248,270.08 1249.7,276.02 1251.4,281.99 1253,288 1254.7,294.05 1256.4,300.14 1258,306.27 1259.7,312.44 1261.4,318.64 1263,324.89 1264.7,331.17 1266.4,337.49 1268,343.85 1269.7,350.24 1271.4,356.68 1273,363.15 1274.7,369.66 1276.4,376.21 1278.1,382.8 1279.7,389.43 1281.4,396.09 1283.1,402.79 1284.7,409.53 1286.4,416.31 1288.1,423.13 1289.7,429.98 1291.4,436.88 1293.1,443.81 1294.7,450.78 1296.4,457.79 1298.1,464.84 1299.7,471.92 1301.4,479.04 1303.1,486.21 1304.7,493.41 1306.4,500.64" id="polyline5252"></polyline><path id="path5330" d="M 508.53825,80.239338 V 959.64526" style="color:#000000;display:inline;overflow:visible;visibility:visible;fill:none;stroke:#000000;stroke-width:2;stroke-linecap:round;stroke-linejoin:miter;stroke-miterlimit:4;stroke-dasharray:none;stroke-dashoffset:0;stroke-opacity:1;marker:none;enable-background:accumulate"></path><path id="path5332" d="M 1146.3183,611.25442 H -146.09938" style="color:#000000;display:inline;overflow:visible;visibility:visible;fill:none;stroke:#000000;stroke-width:2;stroke-linecap:round;stroke-linejoin:miter;stroke-miterlimit:4;stroke-dasharray:none;stroke-dashoffset:0;stroke-opacity:1;marker:none;enable-background:accumulate"></path></g><circle style="color:#000000;display:inline;overflow:visible;visibility:visible;fill:none;stroke:#000000;stroke-width:4;stroke-linecap:round;stroke-linejoin:miter;stroke-miterlimit:4;stroke-dasharray:none;stroke-dashoffset:0;stroke-opacity:1;marker:none;enable-background:accumulate" id="path5434" transform="translate(220.52256,307.93691)" cx="30.793692" cy="298.41342" r="12.913484"></circle><circle style="color:#000000;display:inline;overflow:visible;visibility:visible;fill:none;stroke:#000000;stroke-width:4;stroke-linecap:round;stroke-linejoin:miter;stroke-miterlimit:4;stroke-dasharray:none;stroke-dashoffset:0;stroke-opacity:1;marker:none;enable-background:accumulate" id="path5434-2" transform="translate(348.66405,422.17157)" cx="30.793692" cy="298.41342" r="12.913484"></circle><circle style="color:#000000;display:inline;overflow:visible;visibility:visible;fill:none;stroke:#000000;stroke-width:4;stroke-linecap:round;stroke-linejoin:miter;stroke-miterlimit:4;stroke-dasharray:none;stroke-dashoffset:0;stroke-opacity:1;marker:none;enable-background:accumulate" id="path5434-4" transform="translate(475.81219,312.90364)" cx="30.793692" cy="298.41342" r="12.913484"></circle><circle style="color:#000000;display:inline;overflow:visible;visibility:visible;fill:none;stroke:#000000;stroke-width:4;stroke-linecap:round;stroke-linejoin:miter;stroke-miterlimit:4;stroke-dasharray:none;stroke-dashoffset:0;stroke-opacity:1;marker:none;enable-background:accumulate" id="path5434-5" transform="translate(608.92041,-12.91348)" cx="30.793692" cy="298.41342" r="12.913484"></circle><text xml:space="preserve" style="font-style:normal;font-variant:normal;font-weight:normal;font-stretch:normal;line-height:0%;font-family:sans-serif;-inkscape-font-specification:Sans;text-align:start;letter-spacing:0px;word-spacing:0px;writing-mode:lr-tb;text-anchor:start;fill:#000000;fill-opacity:1;stroke:none" x="151.94632" y="581.96704" id="text5475"><tspan id="tspan5477" x="151.94632" y="581.96704" style="font-size:34.99170303px;line-height:1.25;font-family:sans-serif">(-2, 0)</tspan></text><text xml:space="preserve" style="font-style:normal;font-variant:normal;font-weight:normal;font-stretch:normal;line-height:0%;font-family:sans-serif;-inkscape-font-specification:Sans;text-align:start;letter-spacing:0px;word-spacing:0px;writing-mode:lr-tb;text-anchor:start;fill:#000000;fill-opacity:1;stroke:none" x="316.44162" y="771.36096" id="text5475-7"><tspan id="tspan5477-1" x="316.44162" y="771.36096" style="font-size:34.99170303px;line-height:1.25;font-family:sans-serif">(-1, -1)</tspan></text><text xml:space="preserve" style="font-style:normal;font-variant:normal;font-weight:normal;font-stretch:normal;line-height:0%;font-family:sans-serif;-inkscape-font-specification:Sans;text-align:start;letter-spacing:0px;word-spacing:0px;writing-mode:lr-tb;text-anchor:start;fill:#000000;fill-opacity:1;stroke:none" x="513.1239" y="654.14624" id="text5475-1"><tspan id="tspan5477-5" x="513.1239" y="654.14624" style="font-size:34.99170303px;line-height:1.25;font-family:sans-serif">(0, 0)</tspan></text><text xml:space="preserve" style="font-style:normal;font-variant:normal;font-weight:normal;font-stretch:normal;line-height:0%;font-family:sans-serif;-inkscape-font-specification:Sans;text-align:start;letter-spacing:0px;word-spacing:0px;writing-mode:lr-tb;text-anchor:start;fill:#000000;fill-opacity:1;stroke:none" x="660.13892" y="310.44891" id="text5475-2"><tspan id="tspan5477-7" x="660.13892" y="310.44891" style="font-size:34.99170303px;line-height:1.25;font-family:sans-serif">(1, 3)</tspan></text></g></svg> 