<?xml version="1.0" encoding="UTF-8"?> <svg xmlns:cc="http://creativecommons.org/ns#" xmlns:rdf="http://www.w3.org/1999/02/22-rdf-syntax-ns#" xmlns:svg="http://www.w3.org/2000/svg" xmlns="http://www.w3.org/2000/svg" xmlns:sodipodi="http://sodipodi.sourceforge.net/DTD/sodipodi-0.dtd" xmlns:inkscape="http://www.inkscape.org/namespaces/inkscape" width="81.591019mm" height="55.409462mm" viewBox="0 0 289.10203 196.33274" id="svg2" version="1.1"><defs id="defs4"><marker orient="auto" refY="0" refX="0" id="marker4840" style="overflow:visible"><path id="path4842" d="m -2.5,-1 c 0,2.76 -2.24,5 -5,5 -2.76,0 -5,-2.24 -5,-5 0,-2.76 2.24,-5 5,-5 2.76,0 5,2.24 5,5 z" style="fill:#cccccc;fill-opacity:1;fill-rule:evenodd;stroke:#000000;stroke-width:1.00000003pt;stroke-opacity:1" transform="matrix(0.2,0,0,0.2,1.48,0.2)"></path></marker><marker orient="auto" refY="0" refX="0" id="marker4788" style="overflow:visible"><path id="path4790" d="m -2.5,-1 c 0,2.76 -2.24,5 -5,5 -2.76,0 -5,-2.24 -5,-5 0,-2.76 2.24,-5 5,-5 2.76,0 5,2.24 5,5 z" style="fill:#cccccc;fill-opacity:1;fill-rule:evenodd;stroke:#000000;stroke-width:1.00000003pt;stroke-opacity:1" transform="matrix(0.2,0,0,0.2,1.48,0.2)"></path></marker><marker style="overflow:visible" id="marker4698" refX="0" refY="0" orient="auto"><path transform="matrix(0.2,0,0,0.2,1.48,0.2)" style="fill:#cccccc;fill-opacity:1;fill-rule:evenodd;stroke:#000000;stroke-width:1.00000003pt;stroke-opacity:1" d="m -2.5,-1 c 0,2.76 -2.24,5 -5,5 -2.76,0 -5,-2.24 -5,-5 0,-2.76 2.24,-5 5,-5 2.76,0 5,2.24 5,5 z" id="path4700"></path></marker><marker style="overflow:visible" id="marker4658" refX="0" refY="0" orient="auto"><path transform="matrix(0.2,0,0,0.2,1.48,0.2)" style="fill:#000000;fill-opacity:1;fill-rule:evenodd;stroke:#000000;stroke-width:1.00000003pt;stroke-opacity:1" d="m -2.5,-1 c 0,2.76 -2.24,5 -5,5 -2.76,0 -5,-2.24 -5,-5 0,-2.76 2.24,-5 5,-5 2.76,0 5,2.24 5,5 z" id="path4660"></path></marker><marker orient="auto" refY="0" refX="0" id="marker4574" style="overflow:visible"><path id="path4576" d="M 0,-7.0710768 -7.0710894,0 0,7.0710589 7.0710462,0 Z" style="fill:#000000;fill-opacity:1;fill-rule:evenodd;stroke:#000000;stroke-width:1.00000003pt;stroke-opacity:1" transform="scale(0.2)"></path></marker><marker orient="auto" refY="0" refX="0" id="marker4540" style="overflow:visible"><path id="path4542" d="M 0,-7.0710768 -7.0710894,0 0,7.0710589 7.0710462,0 Z" style="fill:#000000;fill-opacity:1;fill-rule:evenodd;stroke:#000000;stroke-width:1.00000003pt;stroke-opacity:1" transform="scale(0.2)"></path></marker><marker style="overflow:visible" id="marker4494" refX="0" refY="0" orient="auto"><path transform="scale(0.2)" style="fill:#000000;fill-opacity:1;fill-rule:evenodd;stroke:#000000;stroke-width:1.00000003pt;stroke-opacity:1" d="M 0,-7.0710768 -7.0710894,0 0,7.0710589 7.0710462,0 Z" id="path4496"></path></marker></defs><metadata id="metadata7"></metadata><g id="layer1" transform="translate(-96.256485,-434.26242)"><rect style="fill:#ffccaa;stroke:#cccccc;stroke-width:1;stroke-miterlimit:4;stroke-dasharray:none;stroke-dashoffset:0" id="rect5428" width="41.113178" height="22.553514" x="189.59048" y="501.68054"></rect><rect style="fill:#ffccaa;stroke:#cccccc;stroke-width:1;stroke-miterlimit:4;stroke-dasharray:none;stroke-dashoffset:0" id="rect5430" width="60.37764" height="34.535069" x="229.76393" y="525.8786"></rect><rect style="fill:#ffccaa;stroke:#cccccc;stroke-width:1;stroke-miterlimit:4;stroke-dasharray:none;stroke-dashoffset:0" id="rect5434" width="27.487097" height="72.594124" x="290.3765" y="451.405"></rect><path style="fill:#cccccc;fill-rule:evenodd;stroke:#cccccc;stroke-width:1px;stroke-linecap:butt;stroke-linejoin:miter;stroke-opacity:1" d="M 189.49973,434.26242 V 610.62011" id="path4136"></path><path style="fill:#cccccc;fill-rule:evenodd;stroke:#cccccc;stroke-width:1px;stroke-linecap:butt;stroke-linejoin:miter;stroke-opacity:1" d="M 160.67203,524.98489 H 385.35851" id="path4138"></path><text xml:space="preserve" style="font-style:normal;font-weight:normal;line-height:0%;font-family:sans-serif;letter-spacing:0px;word-spacing:0px;fill:#cccccc;fill-opacity:1;stroke:none;stroke-width:1px;stroke-linecap:butt;stroke-linejoin:miter;stroke-opacity:1" x="95.809708" y="483.43909" id="text4140"><tspan id="tspan4142" x="95.809708" y="483.43909" style="font-size:15px;line-height:1.25">velocity</tspan><tspan x="95.809708" y="502.18909" id="tspan4144" style="font-size:15px;line-height:1.25">(mph)</tspan></text><text xml:space="preserve" style="font-style:normal;font-weight:normal;line-height:0%;font-family:sans-serif;letter-spacing:0px;word-spacing:0px;fill:#cccccc;fill-opacity:1;stroke:none;stroke-width:1px;stroke-linecap:butt;stroke-linejoin:miter;stroke-opacity:1" x="240.37215" y="627.57758" id="text4146"><tspan id="tspan4148" x="240.37215" y="627.57758" style="font-size:15px;line-height:1.25">time (hr)</tspan></text><path style="fill:#cccccc;fill-rule:evenodd;stroke:#cccccc;stroke-width:1px;stroke-linecap:butt;stroke-linejoin:miter;stroke-opacity:1" d="m 230.62159,520.32159 c 0,3.39149 0,9.32661 0,9.32661" id="path4150"></path><path id="path4152" d="m 290.82062,519.89765 c 0,3.39149 0,9.32661 0,9.32661" style="fill:#cccccc;fill-rule:evenodd;stroke:#cccccc;stroke-width:1px;stroke-linecap:butt;stroke-linejoin:miter;stroke-opacity:1"></path><path style="fill:#cccccc;fill-rule:evenodd;stroke:#cccccc;stroke-width:1px;stroke-linecap:butt;stroke-linejoin:miter;stroke-opacity:1" d="m 317.52863,519.89765 c 0,3.39149 0,9.32661 0,9.32661" id="path4154"></path><path id="path4156" d="m 184.41249,449.52414 c 3.39149,0 9.32661,0 9.32661,0" style="fill:#cccccc;fill-rule:evenodd;stroke:#cccccc;stroke-width:1px;stroke-linecap:butt;stroke-linejoin:miter;stroke-opacity:1"></path><path style="fill:#cccccc;fill-rule:evenodd;stroke:#cccccc;stroke-width:1px;stroke-linecap:butt;stroke-linejoin:miter;stroke-opacity:1" d="m 184.83643,502.0923 c 3.39149,0 9.32661,0 9.32661,0" id="path4158"></path><path id="path4160" d="m 184.41249,560.17163 c 3.39149,0 9.32661,0 9.32661,0" style="fill:#cccccc;fill-rule:evenodd;stroke:#cccccc;stroke-width:1px;stroke-linecap:butt;stroke-linejoin:miter;stroke-opacity:1"></path><text xml:space="preserve" style="font-style:normal;font-weight:normal;line-height:0%;font-family:sans-serif;letter-spacing:0px;word-spacing:0px;fill:#cccccc;fill-opacity:1;stroke:none;stroke-width:1px;stroke-linecap:butt;stroke-linejoin:miter;stroke-opacity:1" x="163.21565" y="455.03534" id="text4162"><tspan id="tspan4164" x="163.21565" y="455.03534" style="font-size:15px;line-height:1.25">12</tspan></text><text id="text4166" y="506.75562" x="169.15077" style="font-style:normal;font-weight:normal;line-height:0%;font-family:sans-serif;letter-spacing:0px;word-spacing:0px;fill:#cccccc;fill-opacity:1;stroke:none;stroke-width:1px;stroke-linecap:butt;stroke-linejoin:miter;stroke-opacity:1" xml:space="preserve"><tspan y="506.75562" x="169.15077" id="tspan4168" style="font-size:15px;line-height:1.25">4</tspan></text><text xml:space="preserve" style="font-style:normal;font-weight:normal;line-height:0%;font-family:sans-serif;letter-spacing:0px;word-spacing:0px;fill:#cccccc;fill-opacity:1;stroke:none;stroke-width:1px;stroke-linecap:butt;stroke-linejoin:miter;stroke-opacity:1" x="163.21565" y="566.10675" id="text4170"><tspan id="tspan4172" x="163.21565" y="566.10675" style="font-size:15px;line-height:1.25">-5</tspan></text><text id="text4174" y="543.21411" x="225.11041" style="font-style:normal;font-weight:normal;line-height:0%;font-family:sans-serif;letter-spacing:0px;word-spacing:0px;fill:#cccccc;fill-opacity:1;stroke:none;stroke-width:1px;stroke-linecap:butt;stroke-linejoin:miter;stroke-opacity:1" xml:space="preserve"><tspan y="543.21411" x="225.11041" id="tspan4176" style="font-size:15px;line-height:1.25">3</tspan></text><text xml:space="preserve" style="font-style:normal;font-weight:normal;line-height:0%;font-family:sans-serif;letter-spacing:0px;word-spacing:0px;fill:#cccccc;fill-opacity:1;stroke:none;stroke-width:1px;stroke-linecap:butt;stroke-linejoin:miter;stroke-opacity:1" x="286.58124" y="543.63806" id="text4178"><tspan id="tspan4180" x="286.58124" y="543.63806" style="font-size:15px;line-height:1.25">7</tspan></text><text id="text4182" y="543.63806" x="312.44138" style="font-style:normal;font-weight:normal;line-height:0%;font-family:sans-serif;letter-spacing:0px;word-spacing:0px;fill:#cccccc;fill-opacity:1;stroke:none;stroke-width:1px;stroke-linecap:butt;stroke-linejoin:miter;stroke-opacity:1" xml:space="preserve"><tspan y="543.63806" x="312.44138" id="tspan4184" style="font-size:15px;line-height:1.25">9</tspan></text><path style="fill:#cccccc;fill-rule:evenodd;stroke:#000000;stroke-width:3;stroke-linecap:butt;stroke-linejoin:miter;stroke-miterlimit:4;stroke-dasharray:none;stroke-dashoffset:0;stroke-opacity:1;marker-mid:url('#marker4788')" d="m 189.07579,501.66837 h 41.96974" id="path4186"></path><path style="fill:#cccccc;fill-rule:evenodd;stroke:#000000;stroke-width:3;stroke-linecap:butt;stroke-linejoin:miter;stroke-miterlimit:4;stroke-dasharray:none;stroke-dashoffset:0;stroke-opacity:1;marker-mid:url('#marker4840')" d="M 229.34978,560.59557 H 289.5488" id="path4188"></path><path style="fill:#cccccc;fill-rule:evenodd;stroke:#000000;stroke-width:3;stroke-linecap:butt;stroke-linejoin:miter;stroke-miterlimit:4;stroke-dasharray:none;stroke-dashoffset:0;stroke-opacity:1;marker-mid:url('#marker4698')" d="m 288.50663,450.41795 h 32.64313" id="path4190"></path><text xml:space="preserve" style="font-style:normal;font-weight:normal;line-height:0%;font-family:sans-serif;letter-spacing:0px;word-spacing:0px;fill:#000000;fill-opacity:1;stroke:none;stroke-width:1px;stroke-linecap:butt;stroke-linejoin:miter;stroke-opacity:1" x="185.59663" y="517.1861" id="text5526"><tspan id="tspan5528" x="185.59663" y="517.1861" style="font-size:12.5px;line-height:1.25">area 12</tspan></text><text id="text5530" y="547.96222" x="236.57698" style="font-style:normal;font-weight:normal;line-height:0%;font-family:sans-serif;letter-spacing:0px;word-spacing:0px;fill:#000000;fill-opacity:1;stroke:none;stroke-width:1px;stroke-linecap:butt;stroke-linejoin:miter;stroke-opacity:1" xml:space="preserve"><tspan y="547.96222" x="236.57698" id="tspan5532" style="font-size:12.5px;line-height:1.25">area -20</tspan></text><text xml:space="preserve" style="font-style:normal;font-weight:normal;line-height:0%;font-family:sans-serif;letter-spacing:0px;word-spacing:0px;fill:#000000;fill-opacity:1;stroke:none;stroke-width:1px;stroke-linecap:butt;stroke-linejoin:miter;stroke-opacity:1" x="280.74429" y="490.6387" id="text5534"><tspan id="tspan5536" x="280.74429" y="490.6387" style="font-size:12.5px;line-height:1.25">area 24</tspan></text></g></svg> 