<?xml version="1.0" encoding="UTF-8"?> <svg xmlns:cc="http://creativecommons.org/ns#" xmlns:rdf="http://www.w3.org/1999/02/22-rdf-syntax-ns#" xmlns:svg="http://www.w3.org/2000/svg" xmlns="http://www.w3.org/2000/svg" xmlns:sodipodi="http://sodipodi.sourceforge.net/DTD/sodipodi-0.dtd" xmlns:inkscape="http://www.inkscape.org/namespaces/inkscape" version="1.1" id="svg2" height="265.97183" width="393.6752"><defs id="defs4"><marker style="overflow:visible" id="Arrow1Send" refX="0" refY="0" orient="auto"><path transform="matrix(-0.2,0,0,-0.2,-1.2,0)" style="fill-rule:evenodd;stroke:#000000;stroke-width:1.00000003pt;marker-start:none" d="M 0,0 5,-5 -12.5,0 5,5 Z" id="path5087"></path></marker><marker orient="auto" refY="0" refX="0" id="DotS" style="overflow:visible"><path id="path3828" d="m -2.5,-1 c 0,2.76 -2.24,5 -5,5 -2.76,0 -5,-2.24 -5,-5 0,-2.76 2.24,-5 5,-5 2.76,0 5,2.24 5,5 z" style="fill-rule:evenodd;stroke:#000000;stroke-width:1.00000003pt;marker-start:none;marker-end:none" transform="matrix(0.2,0,0,0.2,1.48,0.2)"></path></marker><marker orient="auto" refY="0" refX="0" id="DotM" style="overflow:visible"><path id="path3825" d="m -2.5,-1 c 0,2.76 -2.24,5 -5,5 -2.76,0 -5,-2.24 -5,-5 0,-2.76 2.24,-5 5,-5 2.76,0 5,2.24 5,5 z" style="fill-rule:evenodd;stroke:#000000;stroke-width:1.00000003pt;marker-start:none;marker-end:none" transform="matrix(0.4,0,0,0.4,2.96,0.4)"></path></marker><marker style="overflow:visible" id="Arrow1Mend" refX="0" refY="0" orient="auto"><path transform="matrix(-0.4,0,0,-0.4,-4,0)" style="fill-rule:evenodd;stroke:#000000;stroke-width:1.00000003pt;marker-start:none" d="M 0,0 5,-5 -12.5,0 5,5 Z" id="path3769"></path></marker><marker style="overflow:visible" id="Arrow1Mstart" refX="0" refY="0" orient="auto"><path transform="matrix(0.4,0,0,0.4,4,0)" style="fill-rule:evenodd;stroke:#000000;stroke-width:1.00000003pt;marker-start:none" d="M 0,0 5,-5 -12.5,0 5,5 Z" id="path3766"></path></marker><marker style="overflow:visible" id="Arrow1Mstart-1" refX="0" refY="0" orient="auto"><path transform="matrix(0.4,0,0,0.4,4,0)" style="fill-rule:evenodd;stroke:#000000;stroke-width:1.00000003pt;marker-start:none" d="M 0,0 5,-5 -12.5,0 5,5 Z" id="path3766-7"></path></marker><marker style="overflow:visible" id="Arrow1Mend-4" refX="0" refY="0" orient="auto"><path transform="matrix(-0.4,0,0,-0.4,-4,0)" style="fill-rule:evenodd;stroke:#000000;stroke-width:1.00000003pt;marker-start:none" d="M 0,0 5,-5 -12.5,0 5,5 Z" id="path3769-0"></path></marker><marker style="overflow:visible" id="marker3049" refX="0" refY="0" orient="auto"><path transform="matrix(0.4,0,0,0.4,4,0)" style="fill-rule:evenodd;stroke:#000000;stroke-width:1.00000003pt;marker-start:none" d="M 0,0 5,-5 -12.5,0 5,5 Z" id="path3051"></path></marker><marker style="overflow:visible" id="marker3053" refX="0" refY="0" orient="auto"><path transform="matrix(-0.4,0,0,-0.4,-4,0)" style="fill-rule:evenodd;stroke:#000000;stroke-width:1.00000003pt;marker-start:none" d="M 0,0 5,-5 -12.5,0 5,5 Z" id="path3055"></path></marker><marker orient="auto" refY="0" refX="0" id="marker3049-7" style="overflow:visible"><path id="path3051-7" d="M 0,0 5,-5 -12.5,0 5,5 Z" style="fill-rule:evenodd;stroke:#000000;stroke-width:1.00000003pt;marker-start:none" transform="matrix(0.4,0,0,0.4,4,0)"></path></marker><marker orient="auto" refY="0" refX="0" id="marker3053-9" style="overflow:visible"><path id="path3055-3" d="M 0,0 5,-5 -12.5,0 5,5 Z" style="fill-rule:evenodd;stroke:#000000;stroke-width:1.00000003pt;marker-start:none" transform="matrix(-0.4,0,0,-0.4,-4,0)"></path></marker><marker style="overflow:visible" id="marker3049X" refX="0" refY="0" orient="auto"><path transform="matrix(0.4,0,0,0.4,4,0)" style="fill:#ccd0d0;fill-rule:evenodd;stroke:#ccd0d0;stroke-width:1.00000003pt;marker-start:none" d="M 0,0 5,-5 -12.5,0 5,5 Z" id="path6276"></path></marker><marker style="overflow:visible" id="marker3053k" refX="0" refY="0" orient="auto"><path transform="matrix(-0.4,0,0,-0.4,-4,0)" style="fill:#ccd0d0;fill-rule:evenodd;stroke:#ccd0d0;stroke-width:1.00000003pt;marker-start:none" d="M 0,0 5,-5 -12.5,0 5,5 Z" id="path6279"></path></marker></defs><metadata id="metadata7"></metadata><g id="layer1" transform="translate(-104.69177,-256.74718)"><path id="path3793" d="M 168.80752,257.2543 V 521.47476" style="color:#000000;display:inline;overflow:visible;visibility:visible;fill:none;stroke:#000000;stroke-width:1;stroke-linecap:round;stroke-linejoin:miter;stroke-miterlimit:4;stroke-dasharray:none;stroke-dashoffset:0;stroke-opacity:1;marker:none;enable-background:accumulate"></path><path id="path3795" d="M 105.19889,435.84776 H 497.85986" style="color:#000000;display:inline;overflow:visible;visibility:visible;fill:none;stroke:#000000;stroke-width:1;stroke-linecap:round;stroke-linejoin:miter;stroke-miterlimit:4;stroke-dasharray:none;stroke-dashoffset:0;stroke-opacity:1;marker:none;enable-background:accumulate"></path><path id="path4645" d="M 187.45743,450.91268 C 307.14303,170.98297 326.96733,602.28664 471.75842,321.22159" style="fill:none;stroke:#ccd0d0;stroke-width:3;stroke-linecap:butt;stroke-linejoin:miter;stroke-miterlimit:4;stroke-dasharray:none;stroke-opacity:1;marker-start:url('#marker3049X');marker-end:url('#marker3053k')"></path><path id="path5039" d="M 267.87723,270.2513 V 521.70476" style="color:#000000;display:inline;overflow:visible;visibility:visible;fill:#0000ff;fill-opacity:1;stroke:#000000;stroke-width:2;stroke-linecap:round;stroke-linejoin:miter;stroke-miterlimit:4;stroke-dasharray:2, 12;stroke-dashoffset:0;stroke-opacity:1;marker:none;enable-background:accumulate"></path><path id="path5039-7" d="M 378.31287,261.75624 V 513.2097" style="color:#000000;display:inline;overflow:visible;visibility:visible;fill:#0000ff;fill-opacity:1;stroke:#000000;stroke-width:2;stroke-linecap:round;stroke-linejoin:miter;stroke-miterlimit:4;stroke-dasharray:2, 12;stroke-dashoffset:0;stroke-opacity:1;marker:none;enable-background:accumulate"></path><text transform="rotate(-60.2258)" id="text5727" y="377.97424" x="-264.2291" style="font-style:normal;font-variant:normal;font-weight:normal;font-stretch:normal;line-height:0%;font-family:sans-serif;-inkscape-font-specification:Sans;text-align:start;letter-spacing:0px;word-spacing:0px;writing-mode:lr-tb;text-anchor:start;fill:#000000;fill-opacity:1;stroke:none" xml:space="preserve"><tspan y="377.97424" x="-264.2291" id="tspan5729" style="font-size:16.28449249px;line-height:1.25;font-family:sans-serif">positive</tspan></text><text transform="rotate(39.535706)" id="text5731" y="87.609383" x="454.67642" style="font-style:normal;font-variant:normal;font-weight:normal;font-stretch:normal;line-height:0%;font-family:sans-serif;-inkscape-font-specification:Sans;text-align:start;letter-spacing:0px;word-spacing:0px;writing-mode:lr-tb;text-anchor:start;fill:#000000;fill-opacity:1;stroke:none" xml:space="preserve"><tspan y="87.609383" x="454.67642" id="tspan5733" style="font-size:20px;line-height:1.25;font-family:sans-serif">negative</tspan></text><text transform="rotate(-54.080935)" id="text5727-4" y="567.02679" x="-68.994507" style="font-style:normal;font-variant:normal;font-weight:normal;font-stretch:normal;line-height:0%;font-family:sans-serif;-inkscape-font-specification:Sans;text-align:start;letter-spacing:0px;word-spacing:0px;writing-mode:lr-tb;text-anchor:start;fill:#000000;fill-opacity:1;stroke:none" xml:space="preserve"><tspan y="567.02679" x="-68.994507" id="tspan5729-2" style="font-size:16.28449249px;line-height:1.25;font-family:sans-serif">positive</tspan></text></g><path style="fill:none;stroke:#000000;stroke-width:3;stroke-linecap:butt;stroke-linejoin:miter;stroke-miterlimit:4;stroke-dasharray:none;stroke-opacity:1;marker-start:url('#marker3049');marker-end:url('#marker3053')" d="M 109.68042,42.207821 C 173.8831,297.05172 280.57586,256.86718 325.45467,21.253361" id="path5756"></path></svg> 