<?xml version="1.0" encoding="UTF-8"?> <svg xmlns:cc="http://creativecommons.org/ns#" xmlns:rdf="http://www.w3.org/1999/02/22-rdf-syntax-ns#" xmlns:svg="http://www.w3.org/2000/svg" xmlns="http://www.w3.org/2000/svg" xmlns:sodipodi="http://sodipodi.sourceforge.net/DTD/sodipodi-0.dtd" xmlns:inkscape="http://www.inkscape.org/namespaces/inkscape" width="393.6752" height="265.97183" id="svg2" version="1.1"><defs id="defs4"><marker orient="auto" refY="0" refX="0" id="Arrow1Send" style="overflow:visible"><path id="path5087" d="M 0,0 5,-5 -12.5,0 5,5 Z" style="fill-rule:evenodd;stroke:#000000;stroke-width:1.00000003pt;marker-start:none" transform="matrix(-0.2,0,0,-0.2,-1.2,0)"></path></marker><marker style="overflow:visible" id="DotS" refX="0" refY="0" orient="auto"><path transform="matrix(0.2,0,0,0.2,1.48,0.2)" style="fill-rule:evenodd;stroke:#000000;stroke-width:1.00000003pt;marker-start:none;marker-end:none" d="m -2.5,-1 c 0,2.76 -2.24,5 -5,5 -2.76,0 -5,-2.24 -5,-5 0,-2.76 2.24,-5 5,-5 2.76,0 5,2.24 5,5 z" id="path3828"></path></marker><marker style="overflow:visible" id="DotM" refX="0" refY="0" orient="auto"><path transform="matrix(0.4,0,0,0.4,2.96,0.4)" style="fill-rule:evenodd;stroke:#000000;stroke-width:1.00000003pt;marker-start:none;marker-end:none" d="m -2.5,-1 c 0,2.76 -2.24,5 -5,5 -2.76,0 -5,-2.24 -5,-5 0,-2.76 2.24,-5 5,-5 2.76,0 5,2.24 5,5 z" id="path3825"></path></marker><marker orient="auto" refY="0" refX="0" id="Arrow1Mend" style="overflow:visible"><path id="path3769" d="M 0,0 5,-5 -12.5,0 5,5 Z" style="fill-rule:evenodd;stroke:#000000;stroke-width:1.00000003pt;marker-start:none" transform="matrix(-0.4,0,0,-0.4,-4,0)"></path></marker><marker orient="auto" refY="0" refX="0" id="Arrow1Mstart" style="overflow:visible"><path id="path3766" d="M 0,0 5,-5 -12.5,0 5,5 Z" style="fill-rule:evenodd;stroke:#000000;stroke-width:1.00000003pt;marker-start:none" transform="matrix(0.4,0,0,0.4,4,0)"></path></marker><marker orient="auto" refY="0" refX="0" id="Arrow1Mstart-1" style="overflow:visible"><path id="path3766-7" d="M 0,0 5,-5 -12.5,0 5,5 Z" style="fill-rule:evenodd;stroke:#000000;stroke-width:1.00000003pt;marker-start:none" transform="matrix(0.4,0,0,0.4,4,0)"></path></marker><marker orient="auto" refY="0" refX="0" id="Arrow1Mend-4" style="overflow:visible"><path id="path3769-0" d="M 0,0 5,-5 -12.5,0 5,5 Z" style="fill-rule:evenodd;stroke:#000000;stroke-width:1.00000003pt;marker-start:none" transform="matrix(-0.4,0,0,-0.4,-4,0)"></path></marker><marker orient="auto" refY="0" refX="0" id="marker3049" style="overflow:visible"><path id="path3051" d="M 0,0 5,-5 -12.5,0 5,5 Z" style="fill-rule:evenodd;stroke:#000000;stroke-width:1.00000003pt;marker-start:none" transform="matrix(0.4,0,0,0.4,4,0)"></path></marker><marker orient="auto" refY="0" refX="0" id="marker3053" style="overflow:visible"><path id="path3055" d="M 0,0 5,-5 -12.5,0 5,5 Z" style="fill-rule:evenodd;stroke:#000000;stroke-width:1.00000003pt;marker-start:none" transform="matrix(-0.4,0,0,-0.4,-4,0)"></path></marker></defs><metadata id="metadata7"></metadata><g id="layer1" transform="translate(-104.69177,-256.74718)"><path style="color:#000000;display:inline;overflow:visible;visibility:visible;fill:none;stroke:#000000;stroke-width:1;stroke-linecap:round;stroke-linejoin:miter;stroke-miterlimit:4;stroke-dasharray:none;stroke-dashoffset:0;stroke-opacity:1;marker:none;enable-background:accumulate" d="M 168.80752,257.2543 V 521.47476" id="path3793"></path><path style="color:#000000;display:inline;overflow:visible;visibility:visible;fill:none;stroke:#000000;stroke-width:1;stroke-linecap:round;stroke-linejoin:miter;stroke-miterlimit:4;stroke-dasharray:none;stroke-dashoffset:0;stroke-opacity:1;marker:none;enable-background:accumulate" d="M 105.19889,435.84776 H 497.85986" id="path3795"></path><path style="fill:none;stroke:#000000;stroke-width:3;stroke-linecap:butt;stroke-linejoin:miter;stroke-miterlimit:4;stroke-dasharray:none;stroke-opacity:1;marker-start:url('#marker3049');marker-end:url('#marker3053')" d="M 187.45743,450.91268 C 307.14303,170.98297 326.96733,602.28664 471.75842,321.22159" id="path4645"></path><path style="color:#000000;display:inline;overflow:visible;visibility:visible;fill:#0000ff;fill-opacity:1;stroke:#000000;stroke-width:2;stroke-linecap:round;stroke-linejoin:miter;stroke-miterlimit:4;stroke-dasharray:2, 12;stroke-dashoffset:0;stroke-opacity:1;marker:none;enable-background:accumulate" d="M 267.87723,270.2513 V 521.70476" id="path5039"></path><path style="color:#000000;display:inline;overflow:visible;visibility:visible;fill:#0000ff;fill-opacity:1;stroke:#000000;stroke-width:2;stroke-linecap:round;stroke-linejoin:miter;stroke-miterlimit:4;stroke-dasharray:2, 12;stroke-dashoffset:0;stroke-opacity:1;marker:none;enable-background:accumulate" d="M 378.31287,261.75624 V 513.2097" id="path5039-7"></path><text xml:space="preserve" style="font-style:normal;font-variant:normal;font-weight:normal;font-stretch:normal;line-height:0%;font-family:sans-serif;-inkscape-font-specification:Sans;text-align:start;letter-spacing:0px;word-spacing:0px;writing-mode:lr-tb;text-anchor:start;fill:#000000;fill-opacity:1;stroke:none" x="-264.2291" y="377.97424" id="text5727" transform="rotate(-60.2258)"><tspan id="tspan5729" x="-264.2291" y="377.97424" style="font-size:16.28449249px;line-height:1.25;font-family:sans-serif">positive</tspan></text><text xml:space="preserve" style="font-style:normal;font-variant:normal;font-weight:normal;font-stretch:normal;line-height:0%;font-family:sans-serif;-inkscape-font-specification:Sans;text-align:start;letter-spacing:0px;word-spacing:0px;writing-mode:lr-tb;text-anchor:start;fill:#000000;fill-opacity:1;stroke:none" x="454.67642" y="87.609383" id="text5731" transform="rotate(39.535706)"><tspan id="tspan5733" x="454.67642" y="87.609383" style="font-size:20px;line-height:1.25;font-family:sans-serif">negative</tspan></text><text xml:space="preserve" style="font-style:normal;font-variant:normal;font-weight:normal;font-stretch:normal;line-height:0%;font-family:sans-serif;-inkscape-font-specification:Sans;text-align:start;letter-spacing:0px;word-spacing:0px;writing-mode:lr-tb;text-anchor:start;fill:#000000;fill-opacity:1;stroke:none" x="-68.994507" y="567.02679" id="text5727-4" transform="rotate(-54.080935)"><tspan id="tspan5729-2" x="-68.994507" y="567.02679" style="font-size:16.28449249px;line-height:1.25;font-family:sans-serif">positive</tspan></text></g></svg> 