<?xml version="1.0" encoding="UTF-8"?> <svg xmlns:cc="http://creativecommons.org/ns#" xmlns:rdf="http://www.w3.org/1999/02/22-rdf-syntax-ns#" xmlns:svg="http://www.w3.org/2000/svg" xmlns="http://www.w3.org/2000/svg" xmlns:sodipodi="http://sodipodi.sourceforge.net/DTD/sodipodi-0.dtd" xmlns:inkscape="http://www.inkscape.org/namespaces/inkscape" width="204.35635" height="137.92444" id="svg2" version="1.1"><defs id="defs4"></defs><metadata id="metadata7"></metadata><g id="layer1" transform="translate(-51.377108,-694.43888)"><path style="fill:#f5f5a5;fill-opacity:1;stroke:#000000;stroke-width:0.29725295;stroke-linejoin:miter;stroke-miterlimit:4;stroke-dasharray:0.29725295, 0.59450591;stroke-dashoffset:0;stroke-opacity:1" d="m 102.1924,821.47295 c 0.45137,-1.46242 4.93271,-12.50893 7.22032,-17.79809 25.51511,-58.99335 56.30607,-93.57981 90.86756,-102.06848 5.82372,-1.43037 9.06198,-1.79342 16.05165,-1.79963 8.84767,-0.008 14.51569,0.92179 22.58553,3.70439 4.89348,1.68734 12.21821,5.14768 14.39079,6.79846 l 0.71146,0.54059 -1.60322,1.18378 c -5.33665,3.94048 -149.82141,109.76147 -150.10038,109.93388 -0.24095,0.14892 -0.27741,0.003 -0.12371,-0.4949 z" id="path4125"></path><path style="fill:none;stroke:#000000;stroke-width:1px;stroke-linecap:butt;stroke-linejoin:miter;stroke-opacity:1" d="M 52.019267,819.61312 C 115.6314,677.82346 191.72815,695.65864 191.72815,695.65864" id="path3885"></path><path id="path3873" d="M 100.30613,824.39365 C 168.02772,644.5866 255.3731,710.89792 255.3731,710.89792" style="fill:none;stroke:#000000;stroke-width:1px;stroke-linecap:butt;stroke-linejoin:miter;stroke-opacity:1"></path><path style="fill:none;stroke:#000000;stroke-width:1px;stroke-linecap:butt;stroke-linejoin:miter;stroke-opacity:1" d="m 51.41933,820.14586 48.9313,4.14672 155.08733,-113.62014" id="path3875"></path><path style="fill:none;stroke:#000000;stroke-width:1px;stroke-linecap:butt;stroke-linejoin:miter;stroke-opacity:1" d="m 225.91012,699.63043 -34.61588,-4.01977" id="path3881"></path><g id="g4121" transform="translate(0.29725298,0.29725252)"><path id="path3879" d="M 254.88952,710.67244 228.06961,709.01376 52.248674,819.31651" style="fill:none;stroke:#000000;stroke-width:1;stroke-linecap:butt;stroke-linejoin:miter;stroke-miterlimit:4;stroke-dasharray:1, 2;stroke-dashoffset:0;stroke-opacity:1;marker-start:none"></path><path id="path3883" d="m 191.53526,695.67046 c 20.9664,1.57642 36.83572,13.08431 36.83572,13.08431" style="fill:none;stroke:#000000;stroke-width:1;stroke-linecap:butt;stroke-linejoin:miter;stroke-miterlimit:4;stroke-dasharray:1, 2;stroke-dashoffset:0;stroke-opacity:1;marker-start:none"></path></g><text xml:space="preserve" style="font-style:normal;font-weight:normal;line-height:0%;font-family:sans-serif;letter-spacing:0px;word-spacing:0px;fill:#000000;fill-opacity:1;stroke:none" x="59.336029" y="832.19794" id="text4109"><tspan id="tspan4111" x="59.336029" y="832.19794" style="font-size:10.92580223px;line-height:1.25;font-family:sans-serif">10 m</tspan></text><text xml:space="preserve" style="font-style:normal;font-weight:normal;line-height:0%;font-family:sans-serif;letter-spacing:0px;word-spacing:0px;fill:#000000;fill-opacity:1;stroke:none" x="179.83803" y="744.70532" id="text4113"><tspan id="tspan4115" x="179.83803" y="744.70532" style="font-size:18px;line-height:1.25;font-family:sans-serif">A</tspan></text></g></svg> 