<?xml version="1.0" encoding="UTF-8"?> <svg xmlns:cc="http://creativecommons.org/ns#" xmlns:rdf="http://www.w3.org/1999/02/22-rdf-syntax-ns#" xmlns:svg="http://www.w3.org/2000/svg" xmlns="http://www.w3.org/2000/svg" xmlns:sodipodi="http://sodipodi.sourceforge.net/DTD/sodipodi-0.dtd" xmlns:inkscape="http://www.inkscape.org/namespaces/inkscape" width="243.74742" height="145.10899" id="svg2" version="1.1"><defs id="defs4"></defs><metadata id="metadata7"></metadata><g id="layer1" transform="translate(-44.885196,-686.09751)"><path style="fill:none;stroke:#000000;stroke-width:0.5;stroke-linecap:butt;stroke-linejoin:miter;stroke-miterlimit:4;stroke-dasharray:none;stroke-opacity:1" d="m 71.935215,686.14654 c 0.297253,1.48627 0,145.05945 0,145.05945" id="path4165"></path><path style="fill:none;stroke:#000000;stroke-width:0.5;stroke-linecap:butt;stroke-linejoin:miter;stroke-miterlimit:4;stroke-dasharray:none;stroke-opacity:1" d="M 44.885196,793.75211 H 288.63262" id="path4167"></path><path style="fill:none;stroke:#000000;stroke-width:1px;stroke-linecap:butt;stroke-linejoin:miter;stroke-opacity:1" d="m 71.935215,793.75211 c 98.985235,-95.12094 186.674855,0.29725 186.674855,0.29725" id="path4169"></path><text xml:space="preserve" style="font-style:normal;font-weight:normal;line-height:0%;font-family:sans-serif;letter-spacing:0px;word-spacing:0px;fill:#000000;fill-opacity:1;stroke:none" x="214.04539" y="753.48334" id="text4190"><tspan id="tspan4192" x="214.04539" y="753.48334" style="font-size:7.23884201px;line-height:1.25;font-family:sans-serif">y = x(50-x)/125</tspan></text><path style="fill:#f5f5a5;fill-opacity:1;stroke:none;stroke-width:0.14862648;stroke-linejoin:miter;stroke-miterlimit:4;stroke-dasharray:none;stroke-dashoffset:0;stroke-opacity:1" d="m 75.502776,791.37983 c 19.304657,-18.14509 41.828304,-30.96321 63.543394,-36.1623 9.17139,-2.19584 14.87162,-2.82363 25.41512,-2.79908 8.98199,0.0209 12.06193,0.29573 20.21321,1.80353 20.71975,3.83269 42.47017,14.25597 61.24973,29.35222 2.52549,2.03015 5.99631,5.03614 7.71295,6.67997 l 3.12116,2.98878 -91.6338,0.014 -91.633793,0.014 2.012029,-1.89118 z" id="path4198"></path><text xml:space="preserve" style="font-style:normal;font-weight:normal;line-height:0%;font-family:sans-serif;letter-spacing:0px;word-spacing:0px;fill:#000000;fill-opacity:1;stroke:none" x="156.65231" y="784.23999" id="text4194"><tspan id="tspan4196" x="156.65231" y="784.23999" style="font-size:18px;line-height:1.25;font-family:sans-serif">A</tspan></text></g></svg> 