<?xml version="1.0" encoding="UTF-8"?> <svg xmlns:cc="http://creativecommons.org/ns#" xmlns:rdf="http://www.w3.org/1999/02/22-rdf-syntax-ns#" xmlns:svg="http://www.w3.org/2000/svg" xmlns="http://www.w3.org/2000/svg" xmlns:sodipodi="http://sodipodi.sourceforge.net/DTD/sodipodi-0.dtd" xmlns:inkscape="http://www.inkscape.org/namespaces/inkscape" width="243.74742" height="145.10899" id="svg2" version="1.1"><defs id="defs4"></defs><metadata id="metadata7"></metadata><g id="layer1" transform="translate(-44.885196,-686.09751)"><path style="fill:none;stroke:#000000;stroke-width:0.5;stroke-linecap:butt;stroke-linejoin:miter;stroke-miterlimit:4;stroke-dasharray:none;stroke-opacity:1" d="m 71.935215,686.14654 c 0.297253,1.48627 0,145.05945 0,145.05945" id="path4165"></path><path style="fill:none;stroke:#000000;stroke-width:0.5;stroke-linecap:butt;stroke-linejoin:miter;stroke-miterlimit:4;stroke-dasharray:none;stroke-opacity:1" d="M 44.885196,793.75211 H 288.63262" id="path4167"></path><path style="fill:none;stroke:#000000;stroke-width:1px;stroke-linecap:butt;stroke-linejoin:miter;stroke-opacity:1" d="m 71.637963,758.37901 c 20.213197,-44.58794 62.964127,-72.75099 95.418197,-26.45552 31.27747,44.61706 73.42148,-38.34563 73.42148,-38.34563" id="path4595"></path><text xml:space="preserve" style="font-style:normal;font-weight:normal;line-height:0%;font-family:sans-serif;letter-spacing:0px;word-spacing:0px;fill:#000000;fill-opacity:1;stroke:none" x="119.17455" y="801.40552" id="text4597"><tspan id="tspan4599" x="119.17455" y="801.40552" style="font-size:8.51124668px;line-height:1.25;font-family:sans-serif">x = a</tspan></text><text xml:space="preserve" style="font-style:normal;font-weight:normal;line-height:0%;font-family:sans-serif;letter-spacing:0px;word-spacing:0px;fill:#000000;fill-opacity:1;stroke:none" x="212.97571" y="801.70276" id="text4601"><tspan id="tspan4603" x="212.97571" y="801.70276" style="font-size:8.51124668px;line-height:1.25;font-family:sans-serif">x = b</tspan></text><path style="fill:none;stroke:#000000;stroke-width:0.5;stroke-linecap:butt;stroke-linejoin:miter;stroke-miterlimit:4;stroke-dasharray:0.5, 2;stroke-dashoffset:0;stroke-opacity:1" d="m 129.89954,793.45486 v -84.7171" id="path4605"></path><path style="fill:none;stroke:#000000;stroke-width:0.5;stroke-linecap:butt;stroke-linejoin:miter;stroke-miterlimit:4;stroke-dasharray:0.5, 2;stroke-dashoffset:0;stroke-opacity:1" d="M 224.72324,793.1576 V 719.43887" id="path4607"></path><path style="fill:#f5e4be;fill-opacity:1;stroke:none;stroke-width:0.14862648;stroke-linejoin:miter;stroke-miterlimit:4;stroke-dasharray:none;stroke-dashoffset:0;stroke-opacity:1" d="m 130.57446,751.03743 v -42.23358 l 2.00645,0.19722 c 4.27055,0.41977 8.95307,1.82988 12.97915,3.90859 7.63244,3.9407 13.30096,9.18711 20.98734,19.42449 1.53437,2.04362 3.45341,4.42044 4.26453,5.28184 3.19156,3.38939 7.88485,6.34301 11.78179,7.41461 2.87972,0.79188 8.31801,0.71039 11.44424,-0.17149 7.65491,-2.15937 15.691,-7.9112 23.88471,-17.09547 1.91424,-2.14566 4.06098,-4.67034 4.77054,-5.6104 0.70955,-0.94006 1.34091,-1.7092 1.40302,-1.7092 0.0621,0 0.11291,16.38606 0.11291,36.41348 v 36.41349 H 177.3918 130.57446 Z" id="path4609"></path><text xml:space="preserve" style="font-style:normal;font-weight:normal;line-height:0%;font-family:sans-serif;letter-spacing:0px;word-spacing:0px;fill:#000000;fill-opacity:1;stroke:none" x="212.65829" y="702.0097" id="text5119"><tspan id="tspan5121" x="212.65829" y="702.0097" style="font-size:12.66572571px;line-height:1.25;font-family:sans-serif">f(x)</tspan></text></g></svg> 