<?xml version="1.0" encoding="UTF-8"?> <svg xmlns:cc="http://creativecommons.org/ns#" xmlns:rdf="http://www.w3.org/1999/02/22-rdf-syntax-ns#" xmlns:svg="http://www.w3.org/2000/svg" xmlns="http://www.w3.org/2000/svg" xmlns:sodipodi="http://sodipodi.sourceforge.net/DTD/sodipodi-0.dtd" xmlns:inkscape="http://www.inkscape.org/namespaces/inkscape" width="248.01012" height="145.10899" id="svg2" version="1.1"><defs id="defs4"><marker style="overflow:visible" id="marker1156" refX="0" refY="0" orient="auto"><path transform="scale(-0.6)" d="M 8.7185878,4.0337352 -2.2072895,0.01601326 8.7185884,-4.0017078 c -1.7454984,2.3720609 -1.7354408,5.6174519 -6e-7,8.035443 z" style="fill:#000000;fill-opacity:1;fill-rule:evenodd;stroke:#000000;stroke-width:0.625;stroke-linejoin:round;stroke-opacity:1" id="path1154"></path></marker><marker style="overflow:visible" id="marker1134" refX="0" refY="0" orient="auto"><path transform="scale(-0.6)" d="M 8.7185878,4.0337352 -2.2072895,0.01601326 8.7185884,-4.0017078 c -1.7454984,2.3720609 -1.7354408,5.6174519 -6e-7,8.035443 z" style="fill:#000000;fill-opacity:1;fill-rule:evenodd;stroke:#000000;stroke-width:0.625;stroke-linejoin:round;stroke-opacity:1" id="path1132"></path></marker><marker orient="auto" refY="0" refX="0" id="Arrow2Mend" style="overflow:visible"><path id="path877" style="fill:#000000;fill-opacity:1;fill-rule:evenodd;stroke:#000000;stroke-width:0.625;stroke-linejoin:round;stroke-opacity:1" d="M 8.7185878,4.0337352 -2.2072895,0.01601326 8.7185884,-4.0017078 c -1.7454984,2.3720609 -1.7354408,5.6174519 -6e-7,8.035443 z" transform="scale(-0.6)"></path></marker></defs><metadata id="metadata7"></metadata><g id="layer1" transform="translate(-40.622504,-686.09751)"><path style="fill:none;stroke:#000000;stroke-width:0.5;stroke-linecap:butt;stroke-linejoin:miter;stroke-miterlimit:4;stroke-dasharray:none;stroke-opacity:1" d="m 71.935215,686.14654 c 0.297253,1.48627 0,145.05945 0,145.05945" id="path4165"></path><path style="fill:none;stroke:#000000;stroke-width:0.5;stroke-linecap:butt;stroke-linejoin:miter;stroke-miterlimit:4;stroke-dasharray:none;stroke-opacity:1" d="M 44.885196,763.43231 H 288.63262" id="path4167"></path><text xml:space="preserve" style="font-style:normal;font-weight:normal;line-height:0%;font-family:sans-serif;letter-spacing:0px;word-spacing:0px;fill:#000000;fill-opacity:1;stroke:none" x="101.93388" y="777.328" id="text4597"><tspan id="tspan4599" x="101.93388" y="777.328" style="font-size:8.51124668px;line-height:1.25;font-family:sans-serif">x = a</tspan></text><text xml:space="preserve" style="font-style:normal;font-weight:normal;line-height:0%;font-family:sans-serif;letter-spacing:0px;word-spacing:0px;fill:#000000;fill-opacity:1;stroke:none" x="259.94168" y="773.46375" id="text4601"><tspan id="tspan4603" x="259.94168" y="773.46375" style="font-size:8.51124668px;line-height:1.25;font-family:sans-serif">x = b</tspan></text><text xml:space="preserve" style="font-style:normal;font-weight:normal;line-height:0%;font-family:sans-serif;letter-spacing:0px;word-spacing:0px;fill:#000000;fill-opacity:1;stroke:none" x="256.05722" y="698.73993" id="text5119"><tspan id="tspan5121" x="256.05722" y="698.73993" style="font-size:12.66572571px;line-height:1.25;font-family:sans-serif">f(x)</tspan></text><path style="fill:none;stroke:#000000;stroke-width:1px;stroke-linecap:butt;stroke-linejoin:miter;stroke-opacity:1" d="m 40.723655,800.29167 c 63.314885,-13.07913 30.022553,-52.61378 82.041815,-68.07093 52.01927,-15.45715 35.67036,35.67036 59.45059,61.53136 23.78024,25.86101 101.36327,-92.44566 101.36327,-92.44566" id="path824"></path><path style="fill:none;stroke:#000000;stroke-width:0.72886902;stroke-linecap:butt;stroke-linejoin:miter;stroke-miterlimit:4;stroke-dasharray:0.728869, 1.457738;stroke-dashoffset:0;stroke-opacity:1" d="m 114.14514,765.51308 v -30.3198" id="path826"></path><path style="fill:none;stroke:#000000;stroke-width:0.76307178;stroke-linecap:butt;stroke-linejoin:miter;stroke-miterlimit:4;stroke-dasharray:0.76307174, 1.52614349;stroke-dashoffset:0;stroke-opacity:1" d="m 270.50019,721.51964 v 41.02091" id="path828"></path><path style="fill:#eeffaa;fill-opacity:1;stroke:none;stroke-width:0.28086895;stroke-miterlimit:4;stroke-dasharray:none;stroke-dashoffset:0" d="m 114.84977,749.42528 v -13.76373 l 3.04685,-1.12711 c 4.03025,-1.49089 9.67752,-3.03176 13.89657,-3.79171 4.75408,-0.85632 11.13272,-0.85812 14.32657,-0.004 7.84731,2.09849 12.77615,7.39061 16.69589,17.92651 0.86298,2.31959 4.35065,13.84907 4.35065,14.38229 0,0.0778 -11.77122,0.14151 -26.15827,0.14151 h -26.15826 z" id="path830"></path><path style="fill:#ffaaaa;fill-opacity:1;stroke:none;stroke-width:0.28086895;stroke-miterlimit:4;stroke-dasharray:none;stroke-dashoffset:0" d="m 187.52812,796.38316 c -2.02807,-0.67614 -3.04175,-1.33254 -4.73307,-3.06485 -5.209,-5.33525 -9.89579,-14.9333 -13.65999,-27.97422 l -0.45046,-1.56057 h 33.30944 33.30943 l -3.07996,3.33824 c -14.80401,16.04539 -27.00521,25.73337 -36.22368,28.76226 -2.43634,0.80051 -6.79709,1.05743 -8.47171,0.49914 z" id="path832"></path><path style="fill:#eeffaa;fill-opacity:1;stroke:none;stroke-width:0.28086895;stroke-miterlimit:4;stroke-dasharray:none;stroke-dashoffset:0" d="m 238.11761,762.52019 c 6.23317,-6.87934 20.14249,-24.41521 29.02811,-36.59652 l 2.57285,-3.52712 v 20.39623 20.39623 h -16.10348 -16.10347 z" id="path834"></path><text xml:space="preserve" style="font-style:normal;font-weight:normal;font-size:11.67235279px;line-height:1.25;font-family:sans-serif;letter-spacing:0px;word-spacing:0px;fill:#000000;fill-opacity:1;stroke:none;stroke-width:0.29180881" x="98.510727" y="812.38489" id="text838"><tspan id="tspan836" x="98.510727" y="812.38489" style="stroke-width:0.29180881">negative area</tspan></text><text xml:space="preserve" style="font-style:normal;font-weight:normal;font-size:11.67235279px;line-height:1.25;font-family:sans-serif;letter-spacing:0px;word-spacing:0px;fill:#000000;fill-opacity:1;stroke:none;stroke-width:0.29180881" x="159.14931" y="720.70166" id="text842"><tspan id="tspan840" x="159.14931" y="720.70166" style="stroke-width:0.29180881">positive area</tspan></text><path style="fill:none;stroke:#000000;stroke-width:1px;stroke-linecap:butt;stroke-linejoin:miter;stroke-opacity:1;marker-end:url('#Arrow2Mend')" d="m 155.16604,718.24986 c -16.64616,19.61869 -17.83517,28.83354 -17.83517,28.83354" id="path844"></path><path style="fill:none;stroke:#000000;stroke-width:1px;stroke-linecap:butt;stroke-linejoin:miter;stroke-opacity:1;marker-end:url('#marker1156')" d="m 238.69412,716.46634 c 19.91595,14.86265 22.88848,32.10332 22.88848,32.10332" id="path846"></path><path style="fill:none;stroke:#000000;stroke-width:1px;stroke-linecap:butt;stroke-linejoin:miter;stroke-opacity:1;marker-end:url('#marker1134')" d="m 179.83804,812.18179 c 45.4797,-1.78351 19.32144,-30.9143 19.32144,-30.9143" id="path848"></path></g></svg> 