<?xml version="1.0" encoding="UTF-8"?> <svg xmlns:cc="http://creativecommons.org/ns#" xmlns:rdf="http://www.w3.org/1999/02/22-rdf-syntax-ns#" xmlns:svg="http://www.w3.org/2000/svg" xmlns="http://www.w3.org/2000/svg" xmlns:sodipodi="http://sodipodi.sourceforge.net/DTD/sodipodi-0.dtd" xmlns:inkscape="http://www.inkscape.org/namespaces/inkscape" width="115.42361mm" height="96.642822mm" viewBox="0 0 115.42361 96.642822" version="1.1" id="svg8"><defs id="defs2"></defs><metadata id="metadata5"></metadata><g id="layer1" transform="translate(-40.300446,-75.934425)"><g id="g1032" scale="1.66150538703" version="0.11.0" transform="matrix(0.586142,0.000000,0.000000,0.586142,-84.301791,-38.718349)"><g id="surface1"><path id="path963" transform="matrix(1,0,0,-1,213.143,359.594)" d="M 32.380438 0.00025 L 32.380438 161.394781 M 97.134344 0.00025 L 97.134344 161.394781 M 129.51325 0.00025 L 129.51325 161.394781 M 161.892156 0.00025 L 161.892156 161.394781" style="fill:none;stroke-width:0.3985;stroke-linecap:butt;stroke-linejoin:miter;stroke:rgb(75%,75%,75%);stroke-opacity:1;stroke-miterlimit:10;"></path><path id="path965" transform="matrix(1,0,0,-1,213.143,359.594)" d="M 0.00153125 20.176031 L 194.271063 20.176031 M 0.00153125 60.523688 L 194.271063 60.523688 M 0.00153125 80.699469 L 194.271063 80.699469 M 0.00153125 100.871344 L 194.271063 100.871344 M 0.00153125 121.047125 L 194.271063 121.047125 M 0.00153125 141.222906 L 194.271063 141.222906" style="fill:none;stroke-width:0.3985;stroke-linecap:butt;stroke-linejoin:miter;stroke:rgb(75%,75%,75%);stroke-opacity:1;stroke-miterlimit:10;"></path><path id="path967" transform="matrix(1,0,0,-1,213.143,359.594)" d="M 32.380438 38.222906 L 32.380438 42.476813 M 97.134344 38.222906 L 97.134344 42.476813 M 129.51325 38.222906 L 129.51325 42.476813 M 161.892156 38.222906 L 161.892156 42.476813" style="fill:none;stroke-width:0.19925;stroke-linecap:butt;stroke-linejoin:miter;stroke:rgb(50%,50%,50%);stroke-opacity:1;stroke-miterlimit:10;"></path><path id="path969" transform="matrix(1,0,0,-1,213.143,359.594)" d="M 62.630438 20.176031 L 66.884344 20.176031 M 62.630438 60.523688 L 66.884344 60.523688 M 62.630438 80.699469 L 66.884344 80.699469 M 62.630438 100.871344 L 66.884344 100.871344 M 62.630438 121.047125 L 66.884344 121.047125 M 62.630438 141.222906 L 66.884344 141.222906" style="fill:none;stroke-width:0.19925;stroke-linecap:butt;stroke-linejoin:miter;stroke:rgb(50%,50%,50%);stroke-opacity:1;stroke-miterlimit:10;"></path><path id="path971" transform="matrix(1,0,0,-1,213.143,359.594)" d="M 0.00153125 40.347906 L 192.278875 40.347906" style="fill:none;stroke-width:0.3985;stroke-linecap:butt;stroke-linejoin:miter;stroke:rgb(0%,0%,0%);stroke-opacity:1;stroke-miterlimit:10;"></path><path id="path973" d="M 407.414063 319.246094 L 404.226563 317.652344 L 405.421875 319.246094 L 404.226563 320.839844" style="fill-opacity:1;stroke:none;fill:rgb(0%,0%,0%);stroke-width:0;fill-rule:nonzero"></path><path id="path975" transform="matrix(1,0,0,-1,213.143,359.594)" d="M 64.755438 0.00025 L 64.755438 159.402594" style="fill:none;stroke-width:0.3985;stroke-linecap:butt;stroke-linejoin:miter;stroke:rgb(0%,0%,0%);stroke-opacity:1;stroke-miterlimit:10;"></path><path id="path977" d="M 277.898438 198.199219 L 276.304688 201.386719 L 277.898438 200.191406 L 279.496094 201.386719" style="fill-opacity:1;stroke:none;fill:rgb(0%,0%,0%);stroke-width:0;fill-rule:nonzero"></path><g id="g981" style="fill:rgb(0%,0%,0%);fill-opacity:1;"><path id="path979" transform="translate(239.156,331.311)" d="M 6.5625 -2.296875 C 6.734375 -2.296875 6.921875 -2.296875 6.921875 -2.5 C 6.921875 -2.6875 6.734375 -2.6875 6.5625 -2.6875 L 1.171875 -2.6875 C 1 -2.6875 0.828125 -2.6875 0.828125 -2.5 C 0.828125 -2.296875 1 -2.296875 1.171875 -2.296875 Z M 6.5625 -2.296875" style="stroke:none;stroke-width:0"></path></g><g id="g985" style="fill:rgb(0%,0%,0%);fill-opacity:1;"><path id="path983" transform="translate(246.905,331.311)" d="M 2.9375 -6.375 C 2.9375 -6.625 2.9375 -6.640625 2.703125 -6.640625 C 2.078125 -6 1.203125 -6 0.890625 -6 L 0.890625 -5.6875 C 1.09375 -5.6875 1.671875 -5.6875 2.1875 -5.953125 L 2.1875 -0.78125 C 2.1875 -0.421875 2.15625 -0.3125 1.265625 -0.3125 L 0.953125 -0.3125 L 0.953125 0 C 1.296875 -0.03125 2.15625 -0.03125 2.5625 -0.03125 C 2.953125 -0.03125 3.828125 -0.03125 4.171875 0 L 4.171875 -0.3125 L 3.859375 -0.3125 C 2.953125 -0.3125 2.9375 -0.421875 2.9375 -0.78125 Z M 2.9375 -6.375" style="stroke:none;stroke-width:0"></path></g><g id="g989" style="fill:rgb(0%,0%,0%);fill-opacity:1;"><path id="path987" transform="translate(307.787,331.311)" d="M 2.9375 -6.375 C 2.9375 -6.625 2.9375 -6.640625 2.703125 -6.640625 C 2.078125 -6 1.203125 -6 0.890625 -6 L 0.890625 -5.6875 C 1.09375 -5.6875 1.671875 -5.6875 2.1875 -5.953125 L 2.1875 -0.78125 C 2.1875 -0.421875 2.15625 -0.3125 1.265625 -0.3125 L 0.953125 -0.3125 L 0.953125 0 C 1.296875 -0.03125 2.15625 -0.03125 2.5625 -0.03125 C 2.953125 -0.03125 3.828125 -0.03125 4.171875 0 L 4.171875 -0.3125 L 3.859375 -0.3125 C 2.953125 -0.3125 2.9375 -0.421875 2.9375 -0.78125 Z M 2.9375 -6.375" style="stroke:none;stroke-width:0"></path></g><g id="g993" style="fill:rgb(0%,0%,0%);fill-opacity:1;"><path id="path991" transform="translate(340.166,331.311)" d="M 1.265625 -0.765625 L 2.328125 -1.796875 C 3.875 -3.171875 4.46875 -3.703125 4.46875 -4.703125 C 4.46875 -5.84375 3.578125 -6.640625 2.359375 -6.640625 C 1.234375 -6.640625 0.5 -5.71875 0.5 -4.828125 C 0.5 -4.28125 1 -4.28125 1.03125 -4.28125 C 1.203125 -4.28125 1.546875 -4.390625 1.546875 -4.8125 C 1.546875 -5.0625 1.359375 -5.328125 1.015625 -5.328125 C 0.9375 -5.328125 0.921875 -5.328125 0.890625 -5.3125 C 1.109375 -5.96875 1.65625 -6.328125 2.234375 -6.328125 C 3.140625 -6.328125 3.5625 -5.515625 3.5625 -4.703125 C 3.5625 -3.90625 3.078125 -3.125 2.515625 -2.5 L 0.609375 -0.375 C 0.5 -0.265625 0.5 -0.234375 0.5 0 L 4.203125 0 L 4.46875 -1.734375 L 4.234375 -1.734375 C 4.171875 -1.4375 4.109375 -1 4 -0.84375 C 3.9375 -0.765625 3.28125 -0.765625 3.0625 -0.765625 Z M 1.265625 -0.765625" style="stroke:none;stroke-width:0"></path></g><g id="g997" style="fill:rgb(0%,0%,0%);fill-opacity:1;"><path id="path995" transform="translate(372.544,331.311)" d="M 2.890625 -3.515625 C 3.703125 -3.78125 4.28125 -4.46875 4.28125 -5.265625 C 4.28125 -6.078125 3.40625 -6.640625 2.453125 -6.640625 C 1.453125 -6.640625 0.6875 -6.046875 0.6875 -5.28125 C 0.6875 -4.953125 0.90625 -4.765625 1.203125 -4.765625 C 1.5 -4.765625 1.703125 -4.984375 1.703125 -5.28125 C 1.703125 -5.765625 1.234375 -5.765625 1.09375 -5.765625 C 1.390625 -6.265625 2.046875 -6.390625 2.40625 -6.390625 C 2.828125 -6.390625 3.375 -6.171875 3.375 -5.28125 C 3.375 -5.15625 3.34375 -4.578125 3.09375 -4.140625 C 2.796875 -3.65625 2.453125 -3.625 2.203125 -3.625 C 2.125 -3.609375 1.890625 -3.59375 1.8125 -3.59375 C 1.734375 -3.578125 1.671875 -3.5625 1.671875 -3.46875 C 1.671875 -3.359375 1.734375 -3.359375 1.90625 -3.359375 L 2.34375 -3.359375 C 3.15625 -3.359375 3.53125 -2.6875 3.53125 -1.703125 C 3.53125 -0.34375 2.84375 -0.0625 2.40625 -0.0625 C 1.96875 -0.0625 1.21875 -0.234375 0.875 -0.8125 C 1.21875 -0.765625 1.53125 -0.984375 1.53125 -1.359375 C 1.53125 -1.71875 1.265625 -1.921875 0.984375 -1.921875 C 0.734375 -1.921875 0.421875 -1.78125 0.421875 -1.34375 C 0.421875 -0.4375 1.34375 0.21875 2.4375 0.21875 C 3.65625 0.21875 4.5625 -0.6875 4.5625 -1.703125 C 4.5625 -2.515625 3.921875 -3.296875 2.890625 -3.515625 Z M 2.890625 -3.515625" style="stroke:none;stroke-width:0"></path></g><g id="g1001" style="fill:rgb(0%,0%,0%);fill-opacity:1;"><path id="path999" transform="translate(259.524,342.214)" d="M 6.5625 -2.296875 C 6.734375 -2.296875 6.921875 -2.296875 6.921875 -2.5 C 6.921875 -2.6875 6.734375 -2.6875 6.5625 -2.6875 L 1.171875 -2.6875 C 1 -2.6875 0.828125 -2.6875 0.828125 -2.5 C 0.828125 -2.296875 1 -2.296875 1.171875 -2.296875 Z M 6.5625 -2.296875" style="stroke:none;stroke-width:0"></path></g><g id="g1005" style="fill:rgb(0%,0%,0%);fill-opacity:1;"><path id="path1003" transform="translate(267.273,342.214)" d="M 2.9375 -6.375 C 2.9375 -6.625 2.9375 -6.640625 2.703125 -6.640625 C 2.078125 -6 1.203125 -6 0.890625 -6 L 0.890625 -5.6875 C 1.09375 -5.6875 1.671875 -5.6875 2.1875 -5.953125 L 2.1875 -0.78125 C 2.1875 -0.421875 2.15625 -0.3125 1.265625 -0.3125 L 0.953125 -0.3125 L 0.953125 0 C 1.296875 -0.03125 2.15625 -0.03125 2.5625 -0.03125 C 2.953125 -0.03125 3.828125 -0.03125 4.171875 0 L 4.171875 -0.3125 L 3.859375 -0.3125 C 2.953125 -0.3125 2.9375 -0.421875 2.9375 -0.78125 Z M 2.9375 -6.375" style="stroke:none;stroke-width:0"></path></g><g id="g1009" style="fill:rgb(0%,0%,0%);fill-opacity:1;"><path id="path1007" transform="translate(267.273,302.281)" d="M 2.9375 -6.375 C 2.9375 -6.625 2.9375 -6.640625 2.703125 -6.640625 C 2.078125 -6 1.203125 -6 0.890625 -6 L 0.890625 -5.6875 C 1.09375 -5.6875 1.671875 -5.6875 2.1875 -5.953125 L 2.1875 -0.78125 C 2.1875 -0.421875 2.15625 -0.3125 1.265625 -0.3125 L 0.953125 -0.3125 L 0.953125 0 C 1.296875 -0.03125 2.15625 -0.03125 2.5625 -0.03125 C 2.953125 -0.03125 3.828125 -0.03125 4.171875 0 L 4.171875 -0.3125 L 3.859375 -0.3125 C 2.953125 -0.3125 2.9375 -0.421875 2.9375 -0.78125 Z M 2.9375 -6.375" style="stroke:none;stroke-width:0"></path></g><g id="g1013" style="fill:rgb(0%,0%,0%);fill-opacity:1;"><path id="path1011" transform="translate(267.273,282.107)" d="M 1.265625 -0.765625 L 2.328125 -1.796875 C 3.875 -3.171875 4.46875 -3.703125 4.46875 -4.703125 C 4.46875 -5.84375 3.578125 -6.640625 2.359375 -6.640625 C 1.234375 -6.640625 0.5 -5.71875 0.5 -4.828125 C 0.5 -4.28125 1 -4.28125 1.03125 -4.28125 C 1.203125 -4.28125 1.546875 -4.390625 1.546875 -4.8125 C 1.546875 -5.0625 1.359375 -5.328125 1.015625 -5.328125 C 0.9375 -5.328125 0.921875 -5.328125 0.890625 -5.3125 C 1.109375 -5.96875 1.65625 -6.328125 2.234375 -6.328125 C 3.140625 -6.328125 3.5625 -5.515625 3.5625 -4.703125 C 3.5625 -3.90625 3.078125 -3.125 2.515625 -2.5 L 0.609375 -0.375 C 0.5 -0.265625 0.5 -0.234375 0.5 0 L 4.203125 0 L 4.46875 -1.734375 L 4.234375 -1.734375 C 4.171875 -1.4375 4.109375 -1 4 -0.84375 C 3.9375 -0.765625 3.28125 -0.765625 3.0625 -0.765625 Z M 1.265625 -0.765625" style="stroke:none;stroke-width:0"></path></g><g id="g1017" style="fill:rgb(0%,0%,0%);fill-opacity:1;"><path id="path1015" transform="translate(267.273,261.932)" d="M 2.890625 -3.515625 C 3.703125 -3.78125 4.28125 -4.46875 4.28125 -5.265625 C 4.28125 -6.078125 3.40625 -6.640625 2.453125 -6.640625 C 1.453125 -6.640625 0.6875 -6.046875 0.6875 -5.28125 C 0.6875 -4.953125 0.90625 -4.765625 1.203125 -4.765625 C 1.5 -4.765625 1.703125 -4.984375 1.703125 -5.28125 C 1.703125 -5.765625 1.234375 -5.765625 1.09375 -5.765625 C 1.390625 -6.265625 2.046875 -6.390625 2.40625 -6.390625 C 2.828125 -6.390625 3.375 -6.171875 3.375 -5.28125 C 3.375 -5.15625 3.34375 -4.578125 3.09375 -4.140625 C 2.796875 -3.65625 2.453125 -3.625 2.203125 -3.625 C 2.125 -3.609375 1.890625 -3.59375 1.8125 -3.59375 C 1.734375 -3.578125 1.671875 -3.5625 1.671875 -3.46875 C 1.671875 -3.359375 1.734375 -3.359375 1.90625 -3.359375 L 2.34375 -3.359375 C 3.15625 -3.359375 3.53125 -2.6875 3.53125 -1.703125 C 3.53125 -0.34375 2.84375 -0.0625 2.40625 -0.0625 C 1.96875 -0.0625 1.21875 -0.234375 0.875 -0.8125 C 1.21875 -0.765625 1.53125 -0.984375 1.53125 -1.359375 C 1.53125 -1.71875 1.265625 -1.921875 0.984375 -1.921875 C 0.734375 -1.921875 0.421875 -1.78125 0.421875 -1.34375 C 0.421875 -0.4375 1.34375 0.21875 2.4375 0.21875 C 3.65625 0.21875 4.5625 -0.6875 4.5625 -1.703125 C 4.5625 -2.515625 3.921875 -3.296875 2.890625 -3.515625 Z M 2.890625 -3.515625" style="stroke:none;stroke-width:0"></path></g><g id="g1021" style="fill:rgb(0%,0%,0%);fill-opacity:1;"><path id="path1019" transform="translate(267.273,241.758)" d="M 2.9375 -1.640625 L 2.9375 -0.78125 C 2.9375 -0.421875 2.90625 -0.3125 2.171875 -0.3125 L 1.96875 -0.3125 L 1.96875 0 C 2.375 -0.03125 2.890625 -0.03125 3.3125 -0.03125 C 3.734375 -0.03125 4.25 -0.03125 4.671875 0 L 4.671875 -0.3125 L 4.453125 -0.3125 C 3.71875 -0.3125 3.703125 -0.421875 3.703125 -0.78125 L 3.703125 -1.640625 L 4.6875 -1.640625 L 4.6875 -1.953125 L 3.703125 -1.953125 L 3.703125 -6.484375 C 3.703125 -6.6875 3.703125 -6.75 3.53125 -6.75 C 3.453125 -6.75 3.421875 -6.75 3.34375 -6.625 L 0.28125 -1.953125 L 0.28125 -1.640625 Z M 2.984375 -1.953125 L 0.5625 -1.953125 L 2.984375 -5.671875 Z M 2.984375 -1.953125" style="stroke:none;stroke-width:0"></path></g><g id="g1025" style="fill:rgb(0%,0%,0%);fill-opacity:1;"><path id="path1023" transform="translate(267.273,221.584)" d="M 4.46875 -2 C 4.46875 -3.1875 3.65625 -4.1875 2.578125 -4.1875 C 2.109375 -4.1875 1.671875 -4.03125 1.3125 -3.671875 L 1.3125 -5.625 C 1.515625 -5.5625 1.84375 -5.5 2.15625 -5.5 C 3.390625 -5.5 4.09375 -6.40625 4.09375 -6.53125 C 4.09375 -6.59375 4.0625 -6.640625 3.984375 -6.640625 C 3.984375 -6.640625 3.953125 -6.640625 3.90625 -6.609375 C 3.703125 -6.515625 3.21875 -6.3125 2.546875 -6.3125 C 2.15625 -6.3125 1.6875 -6.390625 1.21875 -6.59375 C 1.140625 -6.625 1.125 -6.625 1.109375 -6.625 C 1 -6.625 1 -6.546875 1 -6.390625 L 1 -3.4375 C 1 -3.265625 1 -3.1875 1.140625 -3.1875 C 1.21875 -3.1875 1.234375 -3.203125 1.28125 -3.265625 C 1.390625 -3.421875 1.75 -3.96875 2.5625 -3.96875 C 3.078125 -3.96875 3.328125 -3.515625 3.40625 -3.328125 C 3.5625 -2.953125 3.59375 -2.578125 3.59375 -2.078125 C 3.59375 -1.71875 3.59375 -1.125 3.34375 -0.703125 C 3.109375 -0.3125 2.734375 -0.0625 2.28125 -0.0625 C 1.5625 -0.0625 0.984375 -0.59375 0.8125 -1.171875 C 0.84375 -1.171875 0.875 -1.15625 0.984375 -1.15625 C 1.3125 -1.15625 1.484375 -1.40625 1.484375 -1.640625 C 1.484375 -1.890625 1.3125 -2.140625 0.984375 -2.140625 C 0.84375 -2.140625 0.5 -2.0625 0.5 -1.609375 C 0.5 -0.75 1.1875 0.21875 2.296875 0.21875 C 3.453125 0.21875 4.46875 -0.734375 4.46875 -2 Z M 4.46875 -2" style="stroke:none;stroke-width:0"></path></g><g id="g1029" clip-rule="nonzero" clip-path="url('#clip1')"><path id="path1027" transform="matrix(1,0,0,-1,213.143,359.594)" d="M 0.00153125 43.078375 L 0.649969 43.133063 L 1.298406 43.191656 L 1.95075 43.25025 L 3.247625 43.367438 L 3.899969 43.429938 L 5.196844 43.554938 L 5.849188 43.621344 L 7.146063 43.754156 L 7.798406 43.820563 L 8.446844 43.890875 L 9.095281 43.965094 L 9.747625 44.039313 L 11.0445 44.18775 L 11.696844 44.265875 L 12.345281 44.347906 L 12.993719 44.426031 L 13.646063 44.508063 L 14.942938 44.679938 L 15.595281 44.769781 L 16.892156 44.949469 L 17.5445 45.043219 L 18.192938 45.136969 L 18.841375 45.234625 L 19.493719 45.336188 L 20.790594 45.539313 L 21.442938 45.644781 L 22.091375 45.75025 L 22.739813 45.859625 L 23.392156 45.972906 L 24.040594 46.086188 L 24.689031 46.203375 L 25.341375 46.320563 L 25.989813 46.441656 L 26.63825 46.566656 L 27.290594 46.691656 L 27.939031 46.820563 L 28.587469 46.953375 L 29.239813 47.086188 L 30.536688 47.359625 L 31.189031 47.504156 L 31.837469 47.648688 L 32.485906 47.797125 L 33.13825 47.949469 L 33.786688 48.101813 L 34.435125 48.258063 L 35.087469 48.418219 L 35.735906 48.582281 L 36.384344 48.75025 L 37.036688 48.918219 L 38.333563 49.269781 L 38.985906 49.453375 L 39.634344 49.636969 L 40.282781 49.824469 L 40.931219 50.015875 L 41.583563 50.211188 L 42.232 50.410406 L 42.880438 50.617438 L 43.532781 50.824469 L 44.829656 51.254156 L 45.482 51.472906 L 46.130438 51.699469 L 46.778875 51.929938 L 47.431219 52.164313 L 48.079656 52.402594 L 48.728094 52.648688 L 49.380438 52.898688 L 50.028875 53.152594 L 50.677313 53.414313 L 51.329656 53.676031 L 52.626531 54.222906 L 53.278875 54.504156 L 54.57575 55.082281 L 55.228094 55.383063 L 55.876531 55.68775 L 56.524969 55.996344 L 57.177313 56.316656 L 57.82575 56.640875 L 58.474188 56.969 L 59.126531 57.304938 L 60.423406 58.00025 L 61.07575 58.359625 L 61.724188 58.722906 L 62.372625 59.094 L 63.024969 59.476813 L 63.673406 59.863531 L 64.321844 60.261969 L 64.974188 60.6565 L 65.622625 61.070563 L 66.271063 61.488531 L 66.923406 61.918219 L 67.571844 62.355719 L 68.220281 62.801031 L 68.872625 63.258063 L 69.521063 63.722906 L 70.1695 64.195563 L 70.821844 64.679938 L 71.470281 65.172125 L 72.118719 65.676031 L 72.771063 66.18775 L 73.4195 66.711188 L 74.067938 67.246344 L 74.720281 67.789313 L 75.368719 68.347906 L 76.017156 68.914313 L 76.6695 69.492438 L 77.317938 70.082281 L 77.966375 70.68775 L 78.618719 71.301031 L 79.267156 71.929938 L 79.915594 72.570563 L 80.567938 73.222906 L 81.216375 73.886969 L 81.864813 74.566656 L 82.517156 75.261969 L 83.165594 75.969 L 83.814031 76.691656 L 84.466375 77.429938 L 85.114813 78.179938 L 85.76325 78.945563 L 86.415594 79.730719 L 87.064031 80.527594 L 87.712469 81.340094 L 88.364813 82.172125 L 89.01325 83.019781 L 89.661688 83.883063 L 90.314031 84.769781 L 90.962469 85.668219 L 91.610906 86.586188 L 92.26325 87.523688 L 92.911688 88.480719 L 93.560125 89.453375 L 94.212469 90.449469 L 94.860906 91.465094 L 95.509344 92.50025 L 96.161688 93.558844 L 96.810125 94.636969 L 97.458563 95.738531 L 98.110906 96.859625 L 98.759344 98.008063 L 99.407781 99.176031 L 100.060125 100.367438 L 100.708563 101.582281 L 101.357 102.824469 L 102.009344 104.090094 L 102.657781 105.383063 L 103.306219 106.699469 L 103.958563 108.047125 L 104.607 109.418219 L 105.255438 110.820563 L 105.907781 112.246344 L 106.556219 113.703375 L 107.204656 115.191656 L 107.857 116.707281 L 108.505438 118.254156 L 109.153875 119.836188 L 109.806219 121.445563 L 110.454656 123.090094 L 111.103094 124.765875 L 111.755438 126.476813 L 112.403875 128.222906 L 113.052313 130.004156 L 113.704656 131.824469 L 114.353094 133.676031 L 115.001531 135.566656 L 115.653875 137.50025 L 116.302313 139.465094 L 116.95075 141.476813 L 117.603094 143.523688 L 118.251531 145.617438 L 118.899969 147.754156 L 119.552313 149.929938 L 120.20075 152.148688 L 120.849188 154.414313 L 121.501531 156.726813 L 122.149969 159.086188 L 122.798406 161.496344 L 123.45075 163.949469 L 124.099188 166.453375 L 124.747625 169.008063 L 125.399969 171.621344 L 126.048406 174.2815 L 126.696844 176.996344 L 127.349188 179.765875 L 127.997625 182.590094 L 128.646063 185.472906 L 129.298406 188.410406 L 129.946844 191.414313 L 130.595281 194.476813 L 131.247625 197.601813 L 131.896063 200.789313 L 132.5445 204.039313 L 133.196844 207.359625 L 133.845281 210.746344 L 134.493719 214.199469 L 135.146063 217.722906 L 135.7945 221.316656 L 136.442938 224.984625 L 137.095281 228.726813 L 137.743719 232.547125 L 138.392156 236.441656 L 139.0445 240.414313 L 139.692938 244.476813 L 140.341375 248.617438 L 140.993719 252.836188 L 141.642156 257.144781 L 142.290594 261.535406 L 142.942938 266.019781 L 143.591375 270.594 L 144.239813 275.261969 L 144.892156 280.019781 L 145.540594 284.879156 L 146.189031 289.832281 L 146.841375 294.890875 L 147.489813 300.051031 L 148.13825 305.316656 L 148.790594 310.683844 L 149.439031 316.168219 L 150.087469 321.754156 L 150.739813 327.453375 L 151.38825 333.277594 L 152.036688 339.215094 L 152.689031 345.273688 L 153.337469 351.449469 L 153.985906 357.758063 L 154.63825 364.191656 L 155.286688 370.754156 L 155.935125 377.453375 L 156.587469 384.285406 L 157.235906 391.261969 L 157.884344 398.367438 L 158.536688 405.62525 L 159.185125 413.0315 L 159.833563 420.582281 L 160.485906 428.289313 L 161.134344 436.152594 L 161.782781 444.179938 L 162.435125 452.363531 L 163.083563 460.711188 L 163.732 469.238531 L 164.384344 477.933844 L 165.032781 486.801031 L 165.681219 495.844 L 166.333563 505.082281 L 166.982 514.50025 L 167.630438 524.109625 L 168.282781 533.918219 L 168.931219 543.926031 L 169.579656 554.121344 L 170.232 564.539313 L 170.880438 575.168219 L 171.528875 586.004156 L 172.177313 597.06275 L 172.829656 608.347906 L 173.478094 619.863531 L 174.126531 631.601813 L 174.778875 643.594 L 175.427313 655.824469 L 176.07575 668.2815 L 176.728094 681.027594 L 177.376531 694.015875 L 178.024969 707.258063 L 178.677313 720.777594 L 179.32575 734.566656 L 179.974188 748.629156 L 180.626531 762.996344 L 181.274969 777.640875 L 181.923406 792.586188 L 182.57575 807.832281 L 183.224188 823.383063 L 183.872625 839.273688 L 184.524969 855.469 L 185.173406 871.980719 L 185.821844 888.847906 L 186.474188 906.027594 L 187.122625 923.574469 L 187.771063 941.484625 L 188.423406 959.75025 L 189.071844 978.386969 L 189.720281 997.410406 L 190.372625 1016.773688 L 191.021063 1036.601813 L 191.6695 1056.785406 L 192.321844 1077.383063 L 192.970281 1098.422125 L 193.618719 1119.851813 L 194.271063 1141.742438" style="fill:none;stroke-width:1.19553;stroke-linecap:butt;stroke-linejoin:miter;stroke:rgb(0%,0%,100%);stroke-opacity:1;stroke-miterlimit:10;"></path></g></g></g></g></svg> 