<?xml version="1.0" encoding="UTF-8"?> <svg xmlns:cc="http://creativecommons.org/ns#" xmlns:rdf="http://www.w3.org/1999/02/22-rdf-syntax-ns#" xmlns:svg="http://www.w3.org/2000/svg" xmlns="http://www.w3.org/2000/svg" xmlns:sodipodi="http://sodipodi.sourceforge.net/DTD/sodipodi-0.dtd" xmlns:inkscape="http://www.inkscape.org/namespaces/inkscape" width="152.22169mm" height="127.95139mm" viewBox="0 0 152.22169 127.95139" version="1.1" id="svg8"><defs id="defs2"></defs><metadata id="metadata5"></metadata><g id="layer1" transform="translate(44.921368,-1106.0104)"><g id="g1028" scale="1.66150538703" version="0.11.0" transform="matrix(0.586142,0.000000,0.000000,0.586142,-170.124620,990.864608)"><g id="surface1"><path id="path887" transform="matrix(1,0,0,-1,222.63,2952.225)" d="M -0.00109375 2544.158594 L -0.00109375 2747.728906 M 24.315313 2544.158594 L 24.315313 2747.728906 M 48.635625 2544.158594 L 48.635625 2747.728906 M 72.952031 2544.158594 L 72.952031 2747.728906 M 97.268438 2544.158594 L 97.268438 2747.728906 M 145.90125 2544.158594 L 145.90125 2747.728906 M 170.217656 2544.158594 L 170.217656 2747.728906 M 194.537969 2544.158594 L 194.537969 2747.728906 M 218.854375 2544.158594 L 218.854375 2747.728906 M 243.170781 2544.158594 L 243.170781 2747.728906" style="fill:none;stroke-width:0.3985;stroke-linecap:butt;stroke-linejoin:miter;stroke:rgb(75%,75%,75%);stroke-opacity:1;stroke-miterlimit:10;"></path><path id="path889" transform="matrix(1,0,0,-1,222.63,2952.225)" d="M -0.00109375 2544.158594 L 243.170781 2544.158594 M -0.00109375 2564.514062 L 243.170781 2564.514062 M -0.00109375 2584.869531 L 243.170781 2584.869531 M -0.00109375 2605.228906 L 243.170781 2605.228906 M -0.00109375 2625.584375 L 243.170781 2625.584375 M -0.00109375 2666.299219 L 243.170781 2666.299219 M -0.00109375 2686.658594 L 243.170781 2686.658594 M -0.00109375 2707.014062 L 243.170781 2707.014062 M -0.00109375 2727.373437 L 243.170781 2727.373437 M -0.00109375 2747.728906 L 243.170781 2747.728906" style="fill:none;stroke-width:0.3985;stroke-linecap:butt;stroke-linejoin:miter;stroke:rgb(75%,75%,75%);stroke-opacity:1;stroke-miterlimit:10;"></path><path id="path891" transform="matrix(1,0,0,-1,222.63,2952.225)" d="M -0.00109375 2643.81875 L -0.00109375 2648.06875 M 24.315313 2643.81875 L 24.315313 2648.06875 M 48.635625 2643.81875 L 48.635625 2648.06875 M 72.952031 2643.81875 L 72.952031 2648.06875 M 97.268438 2643.81875 L 97.268438 2648.06875 M 145.90125 2643.81875 L 145.90125 2648.06875 M 170.217656 2643.81875 L 170.217656 2648.06875 M 194.537969 2643.81875 L 194.537969 2648.06875 M 218.854375 2643.81875 L 218.854375 2648.06875 M 243.170781 2643.81875 L 243.170781 2648.06875" style="fill:none;stroke-width:0.19925;stroke-linecap:butt;stroke-linejoin:miter;stroke:rgb(50%,50%,50%);stroke-opacity:1;stroke-miterlimit:10;"></path><path id="path893" transform="matrix(1,0,0,-1,222.63,2952.225)" d="M 119.459844 2544.158594 L 123.709844 2544.158594 M 119.459844 2564.514062 L 123.709844 2564.514062 M 119.459844 2584.869531 L 123.709844 2584.869531 M 119.459844 2605.228906 L 123.709844 2605.228906 M 119.459844 2625.584375 L 123.709844 2625.584375 M 119.459844 2666.299219 L 123.709844 2666.299219 M 119.459844 2686.658594 L 123.709844 2686.658594 M 119.459844 2707.014062 L 123.709844 2707.014062 M 119.459844 2727.373437 L 123.709844 2727.373437 M 119.459844 2747.728906 L 123.709844 2747.728906" style="fill:none;stroke-width:0.19925;stroke-linecap:butt;stroke-linejoin:miter;stroke:rgb(50%,50%,50%);stroke-opacity:1;stroke-miterlimit:10;"></path><path id="path895" transform="matrix(1,0,0,-1,222.63,2952.225)" d="M -0.00109375 2645.94375 L 241.178594 2645.94375" style="fill:none;stroke-width:0.3985;stroke-linecap:butt;stroke-linejoin:miter;stroke:rgb(0%,0%,0%);stroke-opacity:1;stroke-miterlimit:10;"></path><path id="path897" d="M 465.800781 306.28125 L 462.613281 304.6875 L 463.808594 306.28125 L 462.613281 307.875" style="fill-opacity:1;stroke:none;fill:rgb(0%,0%,0%);stroke-width:0;fill-rule:nonzero"></path><path id="path899" transform="matrix(1,0,0,-1,222.63,2952.225)" d="M 121.584844 2544.158594 L 121.584844 2745.736719" style="fill:none;stroke-width:0.3985;stroke-linecap:butt;stroke-linejoin:miter;stroke:rgb(0%,0%,0%);stroke-opacity:1;stroke-miterlimit:10;"></path><path id="path901" d="M 344.214844 204.496094 L 342.621094 207.683594 L 344.214844 206.488281 L 345.808594 207.683594" style="fill-opacity:1;stroke:none;fill:rgb(0%,0%,0%);stroke-width:0;fill-rule:nonzero"></path><g id="g905" style="fill:rgb(0%,0%,0%);fill-opacity:1;"><path id="path903" transform="translate(216.264,318.38)" d="M 6.5625 -2.296875 C 6.734375 -2.296875 6.921875 -2.296875 6.921875 -2.5 C 6.921875 -2.6875 6.734375 -2.6875 6.5625 -2.6875 L 1.171875 -2.6875 C 1 -2.6875 0.828125 -2.6875 0.828125 -2.5 C 0.828125 -2.296875 1 -2.296875 1.171875 -2.296875 Z M 6.5625 -2.296875" style="stroke:none;stroke-width:0"></path></g><g id="g909" style="fill:rgb(0%,0%,0%);fill-opacity:1;"><path id="path907" transform="translate(224.013,318.38)" d="M 4.46875 -2 C 4.46875 -3.1875 3.65625 -4.1875 2.578125 -4.1875 C 2.109375 -4.1875 1.671875 -4.03125 1.3125 -3.671875 L 1.3125 -5.625 C 1.515625 -5.5625 1.84375 -5.5 2.15625 -5.5 C 3.390625 -5.5 4.09375 -6.40625 4.09375 -6.53125 C 4.09375 -6.59375 4.0625 -6.640625 3.984375 -6.640625 C 3.984375 -6.640625 3.953125 -6.640625 3.90625 -6.609375 C 3.703125 -6.515625 3.21875 -6.3125 2.546875 -6.3125 C 2.15625 -6.3125 1.6875 -6.390625 1.21875 -6.59375 C 1.140625 -6.625 1.125 -6.625 1.109375 -6.625 C 1 -6.625 1 -6.546875 1 -6.390625 L 1 -3.4375 C 1 -3.265625 1 -3.1875 1.140625 -3.1875 C 1.21875 -3.1875 1.234375 -3.203125 1.28125 -3.265625 C 1.390625 -3.421875 1.75 -3.96875 2.5625 -3.96875 C 3.078125 -3.96875 3.328125 -3.515625 3.40625 -3.328125 C 3.5625 -2.953125 3.59375 -2.578125 3.59375 -2.078125 C 3.59375 -1.71875 3.59375 -1.125 3.34375 -0.703125 C 3.109375 -0.3125 2.734375 -0.0625 2.28125 -0.0625 C 1.5625 -0.0625 0.984375 -0.59375 0.8125 -1.171875 C 0.84375 -1.171875 0.875 -1.15625 0.984375 -1.15625 C 1.3125 -1.15625 1.484375 -1.40625 1.484375 -1.640625 C 1.484375 -1.890625 1.3125 -2.140625 0.984375 -2.140625 C 0.84375 -2.140625 0.5 -2.0625 0.5 -1.609375 C 0.5 -0.75 1.1875 0.21875 2.296875 0.21875 C 3.453125 0.21875 4.46875 -0.734375 4.46875 -2 Z M 4.46875 -2" style="stroke:none;stroke-width:0"></path></g><g id="g913" style="fill:rgb(0%,0%,0%);fill-opacity:1;"><path id="path911" transform="translate(240.581,318.38)" d="M 6.5625 -2.296875 C 6.734375 -2.296875 6.921875 -2.296875 6.921875 -2.5 C 6.921875 -2.6875 6.734375 -2.6875 6.5625 -2.6875 L 1.171875 -2.6875 C 1 -2.6875 0.828125 -2.6875 0.828125 -2.5 C 0.828125 -2.296875 1 -2.296875 1.171875 -2.296875 Z M 6.5625 -2.296875" style="stroke:none;stroke-width:0"></path></g><g id="g917" style="fill:rgb(0%,0%,0%);fill-opacity:1;"><path id="path915" transform="translate(248.33,318.38)" d="M 2.9375 -1.640625 L 2.9375 -0.78125 C 2.9375 -0.421875 2.90625 -0.3125 2.171875 -0.3125 L 1.96875 -0.3125 L 1.96875 0 C 2.375 -0.03125 2.890625 -0.03125 3.3125 -0.03125 C 3.734375 -0.03125 4.25 -0.03125 4.671875 0 L 4.671875 -0.3125 L 4.453125 -0.3125 C 3.71875 -0.3125 3.703125 -0.421875 3.703125 -0.78125 L 3.703125 -1.640625 L 4.6875 -1.640625 L 4.6875 -1.953125 L 3.703125 -1.953125 L 3.703125 -6.484375 C 3.703125 -6.6875 3.703125 -6.75 3.53125 -6.75 C 3.453125 -6.75 3.421875 -6.75 3.34375 -6.625 L 0.28125 -1.953125 L 0.28125 -1.640625 Z M 2.984375 -1.953125 L 0.5625 -1.953125 L 2.984375 -5.671875 Z M 2.984375 -1.953125" style="stroke:none;stroke-width:0"></path></g><g id="g921" style="fill:rgb(0%,0%,0%);fill-opacity:1;"><path id="path919" transform="translate(264.898,318.38)" d="M 6.5625 -2.296875 C 6.734375 -2.296875 6.921875 -2.296875 6.921875 -2.5 C 6.921875 -2.6875 6.734375 -2.6875 6.5625 -2.6875 L 1.171875 -2.6875 C 1 -2.6875 0.828125 -2.6875 0.828125 -2.5 C 0.828125 -2.296875 1 -2.296875 1.171875 -2.296875 Z M 6.5625 -2.296875" style="stroke:none;stroke-width:0"></path></g><g id="g925" style="fill:rgb(0%,0%,0%);fill-opacity:1;"><path id="path923" transform="translate(272.647,318.38)" d="M 2.890625 -3.515625 C 3.703125 -3.78125 4.28125 -4.46875 4.28125 -5.265625 C 4.28125 -6.078125 3.40625 -6.640625 2.453125 -6.640625 C 1.453125 -6.640625 0.6875 -6.046875 0.6875 -5.28125 C 0.6875 -4.953125 0.90625 -4.765625 1.203125 -4.765625 C 1.5 -4.765625 1.703125 -4.984375 1.703125 -5.28125 C 1.703125 -5.765625 1.234375 -5.765625 1.09375 -5.765625 C 1.390625 -6.265625 2.046875 -6.390625 2.40625 -6.390625 C 2.828125 -6.390625 3.375 -6.171875 3.375 -5.28125 C 3.375 -5.15625 3.34375 -4.578125 3.09375 -4.140625 C 2.796875 -3.65625 2.453125 -3.625 2.203125 -3.625 C 2.125 -3.609375 1.890625 -3.59375 1.8125 -3.59375 C 1.734375 -3.578125 1.671875 -3.5625 1.671875 -3.46875 C 1.671875 -3.359375 1.734375 -3.359375 1.90625 -3.359375 L 2.34375 -3.359375 C 3.15625 -3.359375 3.53125 -2.6875 3.53125 -1.703125 C 3.53125 -0.34375 2.84375 -0.0625 2.40625 -0.0625 C 1.96875 -0.0625 1.21875 -0.234375 0.875 -0.8125 C 1.21875 -0.765625 1.53125 -0.984375 1.53125 -1.359375 C 1.53125 -1.71875 1.265625 -1.921875 0.984375 -1.921875 C 0.734375 -1.921875 0.421875 -1.78125 0.421875 -1.34375 C 0.421875 -0.4375 1.34375 0.21875 2.4375 0.21875 C 3.65625 0.21875 4.5625 -0.6875 4.5625 -1.703125 C 4.5625 -2.515625 3.921875 -3.296875 2.890625 -3.515625 Z M 2.890625 -3.515625" style="stroke:none;stroke-width:0"></path></g><g id="g929" style="fill:rgb(0%,0%,0%);fill-opacity:1;"><path id="path927" transform="translate(289.215,318.38)" d="M 6.5625 -2.296875 C 6.734375 -2.296875 6.921875 -2.296875 6.921875 -2.5 C 6.921875 -2.6875 6.734375 -2.6875 6.5625 -2.6875 L 1.171875 -2.6875 C 1 -2.6875 0.828125 -2.6875 0.828125 -2.5 C 0.828125 -2.296875 1 -2.296875 1.171875 -2.296875 Z M 6.5625 -2.296875" style="stroke:none;stroke-width:0"></path></g><g id="g933" style="fill:rgb(0%,0%,0%);fill-opacity:1;"><path id="path931" transform="translate(296.964,318.38)" d="M 1.265625 -0.765625 L 2.328125 -1.796875 C 3.875 -3.171875 4.46875 -3.703125 4.46875 -4.703125 C 4.46875 -5.84375 3.578125 -6.640625 2.359375 -6.640625 C 1.234375 -6.640625 0.5 -5.71875 0.5 -4.828125 C 0.5 -4.28125 1 -4.28125 1.03125 -4.28125 C 1.203125 -4.28125 1.546875 -4.390625 1.546875 -4.8125 C 1.546875 -5.0625 1.359375 -5.328125 1.015625 -5.328125 C 0.9375 -5.328125 0.921875 -5.328125 0.890625 -5.3125 C 1.109375 -5.96875 1.65625 -6.328125 2.234375 -6.328125 C 3.140625 -6.328125 3.5625 -5.515625 3.5625 -4.703125 C 3.5625 -3.90625 3.078125 -3.125 2.515625 -2.5 L 0.609375 -0.375 C 0.5 -0.265625 0.5 -0.234375 0.5 0 L 4.203125 0 L 4.46875 -1.734375 L 4.234375 -1.734375 C 4.171875 -1.4375 4.109375 -1 4 -0.84375 C 3.9375 -0.765625 3.28125 -0.765625 3.0625 -0.765625 Z M 1.265625 -0.765625" style="stroke:none;stroke-width:0"></path></g><g id="g937" style="fill:rgb(0%,0%,0%);fill-opacity:1;"><path id="path935" transform="translate(313.532,318.38)" d="M 6.5625 -2.296875 C 6.734375 -2.296875 6.921875 -2.296875 6.921875 -2.5 C 6.921875 -2.6875 6.734375 -2.6875 6.5625 -2.6875 L 1.171875 -2.6875 C 1 -2.6875 0.828125 -2.6875 0.828125 -2.5 C 0.828125 -2.296875 1 -2.296875 1.171875 -2.296875 Z M 6.5625 -2.296875" style="stroke:none;stroke-width:0"></path></g><g id="g941" style="fill:rgb(0%,0%,0%);fill-opacity:1;"><path id="path939" transform="translate(321.28,318.38)" d="M 2.9375 -6.375 C 2.9375 -6.625 2.9375 -6.640625 2.703125 -6.640625 C 2.078125 -6 1.203125 -6 0.890625 -6 L 0.890625 -5.6875 C 1.09375 -5.6875 1.671875 -5.6875 2.1875 -5.953125 L 2.1875 -0.78125 C 2.1875 -0.421875 2.15625 -0.3125 1.265625 -0.3125 L 0.953125 -0.3125 L 0.953125 0 C 1.296875 -0.03125 2.15625 -0.03125 2.5625 -0.03125 C 2.953125 -0.03125 3.828125 -0.03125 4.171875 0 L 4.171875 -0.3125 L 3.859375 -0.3125 C 2.953125 -0.3125 2.9375 -0.421875 2.9375 -0.78125 Z M 2.9375 -6.375" style="stroke:none;stroke-width:0"></path></g><g id="g945" style="fill:rgb(0%,0%,0%);fill-opacity:1;"><path id="path943" transform="translate(366.04,318.38)" d="M 2.9375 -6.375 C 2.9375 -6.625 2.9375 -6.640625 2.703125 -6.640625 C 2.078125 -6 1.203125 -6 0.890625 -6 L 0.890625 -5.6875 C 1.09375 -5.6875 1.671875 -5.6875 2.1875 -5.953125 L 2.1875 -0.78125 C 2.1875 -0.421875 2.15625 -0.3125 1.265625 -0.3125 L 0.953125 -0.3125 L 0.953125 0 C 1.296875 -0.03125 2.15625 -0.03125 2.5625 -0.03125 C 2.953125 -0.03125 3.828125 -0.03125 4.171875 0 L 4.171875 -0.3125 L 3.859375 -0.3125 C 2.953125 -0.3125 2.9375 -0.421875 2.9375 -0.78125 Z M 2.9375 -6.375" style="stroke:none;stroke-width:0"></path></g><g id="g949" style="fill:rgb(0%,0%,0%);fill-opacity:1;"><path id="path947" transform="translate(390.356,318.38)" d="M 1.265625 -0.765625 L 2.328125 -1.796875 C 3.875 -3.171875 4.46875 -3.703125 4.46875 -4.703125 C 4.46875 -5.84375 3.578125 -6.640625 2.359375 -6.640625 C 1.234375 -6.640625 0.5 -5.71875 0.5 -4.828125 C 0.5 -4.28125 1 -4.28125 1.03125 -4.28125 C 1.203125 -4.28125 1.546875 -4.390625 1.546875 -4.8125 C 1.546875 -5.0625 1.359375 -5.328125 1.015625 -5.328125 C 0.9375 -5.328125 0.921875 -5.328125 0.890625 -5.3125 C 1.109375 -5.96875 1.65625 -6.328125 2.234375 -6.328125 C 3.140625 -6.328125 3.5625 -5.515625 3.5625 -4.703125 C 3.5625 -3.90625 3.078125 -3.125 2.515625 -2.5 L 0.609375 -0.375 C 0.5 -0.265625 0.5 -0.234375 0.5 0 L 4.203125 0 L 4.46875 -1.734375 L 4.234375 -1.734375 C 4.171875 -1.4375 4.109375 -1 4 -0.84375 C 3.9375 -0.765625 3.28125 -0.765625 3.0625 -0.765625 Z M 1.265625 -0.765625" style="stroke:none;stroke-width:0"></path></g><g id="g953" style="fill:rgb(0%,0%,0%);fill-opacity:1;"><path id="path951" transform="translate(414.673,318.38)" d="M 2.890625 -3.515625 C 3.703125 -3.78125 4.28125 -4.46875 4.28125 -5.265625 C 4.28125 -6.078125 3.40625 -6.640625 2.453125 -6.640625 C 1.453125 -6.640625 0.6875 -6.046875 0.6875 -5.28125 C 0.6875 -4.953125 0.90625 -4.765625 1.203125 -4.765625 C 1.5 -4.765625 1.703125 -4.984375 1.703125 -5.28125 C 1.703125 -5.765625 1.234375 -5.765625 1.09375 -5.765625 C 1.390625 -6.265625 2.046875 -6.390625 2.40625 -6.390625 C 2.828125 -6.390625 3.375 -6.171875 3.375 -5.28125 C 3.375 -5.15625 3.34375 -4.578125 3.09375 -4.140625 C 2.796875 -3.65625 2.453125 -3.625 2.203125 -3.625 C 2.125 -3.609375 1.890625 -3.59375 1.8125 -3.59375 C 1.734375 -3.578125 1.671875 -3.5625 1.671875 -3.46875 C 1.671875 -3.359375 1.734375 -3.359375 1.90625 -3.359375 L 2.34375 -3.359375 C 3.15625 -3.359375 3.53125 -2.6875 3.53125 -1.703125 C 3.53125 -0.34375 2.84375 -0.0625 2.40625 -0.0625 C 1.96875 -0.0625 1.21875 -0.234375 0.875 -0.8125 C 1.21875 -0.765625 1.53125 -0.984375 1.53125 -1.359375 C 1.53125 -1.71875 1.265625 -1.921875 0.984375 -1.921875 C 0.734375 -1.921875 0.421875 -1.78125 0.421875 -1.34375 C 0.421875 -0.4375 1.34375 0.21875 2.4375 0.21875 C 3.65625 0.21875 4.5625 -0.6875 4.5625 -1.703125 C 4.5625 -2.515625 3.921875 -3.296875 2.890625 -3.515625 Z M 2.890625 -3.515625" style="stroke:none;stroke-width:0"></path></g><g id="g957" style="fill:rgb(0%,0%,0%);fill-opacity:1;"><path id="path955" transform="translate(438.99,318.38)" d="M 2.9375 -1.640625 L 2.9375 -0.78125 C 2.9375 -0.421875 2.90625 -0.3125 2.171875 -0.3125 L 1.96875 -0.3125 L 1.96875 0 C 2.375 -0.03125 2.890625 -0.03125 3.3125 -0.03125 C 3.734375 -0.03125 4.25 -0.03125 4.671875 0 L 4.671875 -0.3125 L 4.453125 -0.3125 C 3.71875 -0.3125 3.703125 -0.421875 3.703125 -0.78125 L 3.703125 -1.640625 L 4.6875 -1.640625 L 4.6875 -1.953125 L 3.703125 -1.953125 L 3.703125 -6.484375 C 3.703125 -6.6875 3.703125 -6.75 3.53125 -6.75 C 3.453125 -6.75 3.421875 -6.75 3.34375 -6.625 L 0.28125 -1.953125 L 0.28125 -1.640625 Z M 2.984375 -1.953125 L 0.5625 -1.953125 L 2.984375 -5.671875 Z M 2.984375 -1.953125" style="stroke:none;stroke-width:0"></path></g><g id="g961" style="fill:rgb(0%,0%,0%);fill-opacity:1;"><path id="path959" transform="translate(463.307,318.38)" d="M 4.46875 -2 C 4.46875 -3.1875 3.65625 -4.1875 2.578125 -4.1875 C 2.109375 -4.1875 1.671875 -4.03125 1.3125 -3.671875 L 1.3125 -5.625 C 1.515625 -5.5625 1.84375 -5.5 2.15625 -5.5 C 3.390625 -5.5 4.09375 -6.40625 4.09375 -6.53125 C 4.09375 -6.59375 4.0625 -6.640625 3.984375 -6.640625 C 3.984375 -6.640625 3.953125 -6.640625 3.90625 -6.609375 C 3.703125 -6.515625 3.21875 -6.3125 2.546875 -6.3125 C 2.15625 -6.3125 1.6875 -6.390625 1.21875 -6.59375 C 1.140625 -6.625 1.125 -6.625 1.109375 -6.625 C 1 -6.625 1 -6.546875 1 -6.390625 L 1 -3.4375 C 1 -3.265625 1 -3.1875 1.140625 -3.1875 C 1.21875 -3.1875 1.234375 -3.203125 1.28125 -3.265625 C 1.390625 -3.421875 1.75 -3.96875 2.5625 -3.96875 C 3.078125 -3.96875 3.328125 -3.515625 3.40625 -3.328125 C 3.5625 -2.953125 3.59375 -2.578125 3.59375 -2.078125 C 3.59375 -1.71875 3.59375 -1.125 3.34375 -0.703125 C 3.109375 -0.3125 2.734375 -0.0625 2.28125 -0.0625 C 1.5625 -0.0625 0.984375 -0.59375 0.8125 -1.171875 C 0.84375 -1.171875 0.875 -1.15625 0.984375 -1.15625 C 1.3125 -1.15625 1.484375 -1.40625 1.484375 -1.640625 C 1.484375 -1.890625 1.3125 -2.140625 0.984375 -2.140625 C 0.84375 -2.140625 0.5 -2.0625 0.5 -1.609375 C 0.5 -0.75 1.1875 0.21875 2.296875 0.21875 C 3.453125 0.21875 4.46875 -0.734375 4.46875 -2 Z M 4.46875 -2" style="stroke:none;stroke-width:0"></path></g><g id="g965" style="fill:rgb(0%,0%,0%);fill-opacity:1;"><path id="path963" transform="translate(325.838,410.896)" d="M 6.5625 -2.296875 C 6.734375 -2.296875 6.921875 -2.296875 6.921875 -2.5 C 6.921875 -2.6875 6.734375 -2.6875 6.5625 -2.6875 L 1.171875 -2.6875 C 1 -2.6875 0.828125 -2.6875 0.828125 -2.5 C 0.828125 -2.296875 1 -2.296875 1.171875 -2.296875 Z M 6.5625 -2.296875" style="stroke:none;stroke-width:0"></path></g><g id="g969" style="fill:rgb(0%,0%,0%);fill-opacity:1;"><path id="path967" transform="translate(333.586,410.896)" d="M 4.46875 -2 C 4.46875 -3.1875 3.65625 -4.1875 2.578125 -4.1875 C 2.109375 -4.1875 1.671875 -4.03125 1.3125 -3.671875 L 1.3125 -5.625 C 1.515625 -5.5625 1.84375 -5.5 2.15625 -5.5 C 3.390625 -5.5 4.09375 -6.40625 4.09375 -6.53125 C 4.09375 -6.59375 4.0625 -6.640625 3.984375 -6.640625 C 3.984375 -6.640625 3.953125 -6.640625 3.90625 -6.609375 C 3.703125 -6.515625 3.21875 -6.3125 2.546875 -6.3125 C 2.15625 -6.3125 1.6875 -6.390625 1.21875 -6.59375 C 1.140625 -6.625 1.125 -6.625 1.109375 -6.625 C 1 -6.625 1 -6.546875 1 -6.390625 L 1 -3.4375 C 1 -3.265625 1 -3.1875 1.140625 -3.1875 C 1.21875 -3.1875 1.234375 -3.203125 1.28125 -3.265625 C 1.390625 -3.421875 1.75 -3.96875 2.5625 -3.96875 C 3.078125 -3.96875 3.328125 -3.515625 3.40625 -3.328125 C 3.5625 -2.953125 3.59375 -2.578125 3.59375 -2.078125 C 3.59375 -1.71875 3.59375 -1.125 3.34375 -0.703125 C 3.109375 -0.3125 2.734375 -0.0625 2.28125 -0.0625 C 1.5625 -0.0625 0.984375 -0.59375 0.8125 -1.171875 C 0.84375 -1.171875 0.875 -1.15625 0.984375 -1.15625 C 1.3125 -1.15625 1.484375 -1.40625 1.484375 -1.640625 C 1.484375 -1.890625 1.3125 -2.140625 0.984375 -2.140625 C 0.84375 -2.140625 0.5 -2.0625 0.5 -1.609375 C 0.5 -0.75 1.1875 0.21875 2.296875 0.21875 C 3.453125 0.21875 4.46875 -0.734375 4.46875 -2 Z M 4.46875 -2" style="stroke:none;stroke-width:0"></path></g><g id="g973" style="fill:rgb(0%,0%,0%);fill-opacity:1;"><path id="path971" transform="translate(325.838,390.539)" d="M 6.5625 -2.296875 C 6.734375 -2.296875 6.921875 -2.296875 6.921875 -2.5 C 6.921875 -2.6875 6.734375 -2.6875 6.5625 -2.6875 L 1.171875 -2.6875 C 1 -2.6875 0.828125 -2.6875 0.828125 -2.5 C 0.828125 -2.296875 1 -2.296875 1.171875 -2.296875 Z M 6.5625 -2.296875" style="stroke:none;stroke-width:0"></path></g><g id="g977" style="fill:rgb(0%,0%,0%);fill-opacity:1;"><path id="path975" transform="translate(333.586,390.539)" d="M 2.9375 -1.640625 L 2.9375 -0.78125 C 2.9375 -0.421875 2.90625 -0.3125 2.171875 -0.3125 L 1.96875 -0.3125 L 1.96875 0 C 2.375 -0.03125 2.890625 -0.03125 3.3125 -0.03125 C 3.734375 -0.03125 4.25 -0.03125 4.671875 0 L 4.671875 -0.3125 L 4.453125 -0.3125 C 3.71875 -0.3125 3.703125 -0.421875 3.703125 -0.78125 L 3.703125 -1.640625 L 4.6875 -1.640625 L 4.6875 -1.953125 L 3.703125 -1.953125 L 3.703125 -6.484375 C 3.703125 -6.6875 3.703125 -6.75 3.53125 -6.75 C 3.453125 -6.75 3.421875 -6.75 3.34375 -6.625 L 0.28125 -1.953125 L 0.28125 -1.640625 Z M 2.984375 -1.953125 L 0.5625 -1.953125 L 2.984375 -5.671875 Z M 2.984375 -1.953125" style="stroke:none;stroke-width:0"></path></g><g id="g981" style="fill:rgb(0%,0%,0%);fill-opacity:1;"><path id="path979" transform="translate(325.838,370.182)" d="M 6.5625 -2.296875 C 6.734375 -2.296875 6.921875 -2.296875 6.921875 -2.5 C 6.921875 -2.6875 6.734375 -2.6875 6.5625 -2.6875 L 1.171875 -2.6875 C 1 -2.6875 0.828125 -2.6875 0.828125 -2.5 C 0.828125 -2.296875 1 -2.296875 1.171875 -2.296875 Z M 6.5625 -2.296875" style="stroke:none;stroke-width:0"></path></g><g id="g985" style="fill:rgb(0%,0%,0%);fill-opacity:1;"><path id="path983" transform="translate(333.586,370.182)" d="M 2.890625 -3.515625 C 3.703125 -3.78125 4.28125 -4.46875 4.28125 -5.265625 C 4.28125 -6.078125 3.40625 -6.640625 2.453125 -6.640625 C 1.453125 -6.640625 0.6875 -6.046875 0.6875 -5.28125 C 0.6875 -4.953125 0.90625 -4.765625 1.203125 -4.765625 C 1.5 -4.765625 1.703125 -4.984375 1.703125 -5.28125 C 1.703125 -5.765625 1.234375 -5.765625 1.09375 -5.765625 C 1.390625 -6.265625 2.046875 -6.390625 2.40625 -6.390625 C 2.828125 -6.390625 3.375 -6.171875 3.375 -5.28125 C 3.375 -5.15625 3.34375 -4.578125 3.09375 -4.140625 C 2.796875 -3.65625 2.453125 -3.625 2.203125 -3.625 C 2.125 -3.609375 1.890625 -3.59375 1.8125 -3.59375 C 1.734375 -3.578125 1.671875 -3.5625 1.671875 -3.46875 C 1.671875 -3.359375 1.734375 -3.359375 1.90625 -3.359375 L 2.34375 -3.359375 C 3.15625 -3.359375 3.53125 -2.6875 3.53125 -1.703125 C 3.53125 -0.34375 2.84375 -0.0625 2.40625 -0.0625 C 1.96875 -0.0625 1.21875 -0.234375 0.875 -0.8125 C 1.21875 -0.765625 1.53125 -0.984375 1.53125 -1.359375 C 1.53125 -1.71875 1.265625 -1.921875 0.984375 -1.921875 C 0.734375 -1.921875 0.421875 -1.78125 0.421875 -1.34375 C 0.421875 -0.4375 1.34375 0.21875 2.4375 0.21875 C 3.65625 0.21875 4.5625 -0.6875 4.5625 -1.703125 C 4.5625 -2.515625 3.921875 -3.296875 2.890625 -3.515625 Z M 2.890625 -3.515625" style="stroke:none;stroke-width:0"></path></g><g id="g989" style="fill:rgb(0%,0%,0%);fill-opacity:1;"><path id="path987" transform="translate(325.838,349.825)" d="M 6.5625 -2.296875 C 6.734375 -2.296875 6.921875 -2.296875 6.921875 -2.5 C 6.921875 -2.6875 6.734375 -2.6875 6.5625 -2.6875 L 1.171875 -2.6875 C 1 -2.6875 0.828125 -2.6875 0.828125 -2.5 C 0.828125 -2.296875 1 -2.296875 1.171875 -2.296875 Z M 6.5625 -2.296875" style="stroke:none;stroke-width:0"></path></g><g id="g993" style="fill:rgb(0%,0%,0%);fill-opacity:1;"><path id="path991" transform="translate(333.586,349.825)" d="M 1.265625 -0.765625 L 2.328125 -1.796875 C 3.875 -3.171875 4.46875 -3.703125 4.46875 -4.703125 C 4.46875 -5.84375 3.578125 -6.640625 2.359375 -6.640625 C 1.234375 -6.640625 0.5 -5.71875 0.5 -4.828125 C 0.5 -4.28125 1 -4.28125 1.03125 -4.28125 C 1.203125 -4.28125 1.546875 -4.390625 1.546875 -4.8125 C 1.546875 -5.0625 1.359375 -5.328125 1.015625 -5.328125 C 0.9375 -5.328125 0.921875 -5.328125 0.890625 -5.3125 C 1.109375 -5.96875 1.65625 -6.328125 2.234375 -6.328125 C 3.140625 -6.328125 3.5625 -5.515625 3.5625 -4.703125 C 3.5625 -3.90625 3.078125 -3.125 2.515625 -2.5 L 0.609375 -0.375 C 0.5 -0.265625 0.5 -0.234375 0.5 0 L 4.203125 0 L 4.46875 -1.734375 L 4.234375 -1.734375 C 4.171875 -1.4375 4.109375 -1 4 -0.84375 C 3.9375 -0.765625 3.28125 -0.765625 3.0625 -0.765625 Z M 1.265625 -0.765625" style="stroke:none;stroke-width:0"></path></g><g id="g997" style="fill:rgb(0%,0%,0%);fill-opacity:1;"><path id="path995" transform="translate(325.838,329.468)" d="M 6.5625 -2.296875 C 6.734375 -2.296875 6.921875 -2.296875 6.921875 -2.5 C 6.921875 -2.6875 6.734375 -2.6875 6.5625 -2.6875 L 1.171875 -2.6875 C 1 -2.6875 0.828125 -2.6875 0.828125 -2.5 C 0.828125 -2.296875 1 -2.296875 1.171875 -2.296875 Z M 6.5625 -2.296875" style="stroke:none;stroke-width:0"></path></g><g id="g1001" style="fill:rgb(0%,0%,0%);fill-opacity:1;"><path id="path999" transform="translate(333.587,329.468)" d="M 2.9375 -6.375 C 2.9375 -6.625 2.9375 -6.640625 2.703125 -6.640625 C 2.078125 -6 1.203125 -6 0.890625 -6 L 0.890625 -5.6875 C 1.09375 -5.6875 1.671875 -5.6875 2.1875 -5.953125 L 2.1875 -0.78125 C 2.1875 -0.421875 2.15625 -0.3125 1.265625 -0.3125 L 0.953125 -0.3125 L 0.953125 0 C 1.296875 -0.03125 2.15625 -0.03125 2.5625 -0.03125 C 2.953125 -0.03125 3.828125 -0.03125 4.171875 0 L 4.171875 -0.3125 L 3.859375 -0.3125 C 2.953125 -0.3125 2.9375 -0.421875 2.9375 -0.78125 Z M 2.9375 -6.375" style="stroke:none;stroke-width:0"></path></g><g id="g1005" style="fill:rgb(0%,0%,0%);fill-opacity:1;"><path id="path1003" transform="translate(333.586,289.169)" d="M 2.9375 -6.375 C 2.9375 -6.625 2.9375 -6.640625 2.703125 -6.640625 C 2.078125 -6 1.203125 -6 0.890625 -6 L 0.890625 -5.6875 C 1.09375 -5.6875 1.671875 -5.6875 2.1875 -5.953125 L 2.1875 -0.78125 C 2.1875 -0.421875 2.15625 -0.3125 1.265625 -0.3125 L 0.953125 -0.3125 L 0.953125 0 C 1.296875 -0.03125 2.15625 -0.03125 2.5625 -0.03125 C 2.953125 -0.03125 3.828125 -0.03125 4.171875 0 L 4.171875 -0.3125 L 3.859375 -0.3125 C 2.953125 -0.3125 2.9375 -0.421875 2.9375 -0.78125 Z M 2.9375 -6.375" style="stroke:none;stroke-width:0"></path></g><g id="g1009" style="fill:rgb(0%,0%,0%);fill-opacity:1;"><path id="path1007" transform="translate(333.586,268.812)" d="M 1.265625 -0.765625 L 2.328125 -1.796875 C 3.875 -3.171875 4.46875 -3.703125 4.46875 -4.703125 C 4.46875 -5.84375 3.578125 -6.640625 2.359375 -6.640625 C 1.234375 -6.640625 0.5 -5.71875 0.5 -4.828125 C 0.5 -4.28125 1 -4.28125 1.03125 -4.28125 C 1.203125 -4.28125 1.546875 -4.390625 1.546875 -4.8125 C 1.546875 -5.0625 1.359375 -5.328125 1.015625 -5.328125 C 0.9375 -5.328125 0.921875 -5.328125 0.890625 -5.3125 C 1.109375 -5.96875 1.65625 -6.328125 2.234375 -6.328125 C 3.140625 -6.328125 3.5625 -5.515625 3.5625 -4.703125 C 3.5625 -3.90625 3.078125 -3.125 2.515625 -2.5 L 0.609375 -0.375 C 0.5 -0.265625 0.5 -0.234375 0.5 0 L 4.203125 0 L 4.46875 -1.734375 L 4.234375 -1.734375 C 4.171875 -1.4375 4.109375 -1 4 -0.84375 C 3.9375 -0.765625 3.28125 -0.765625 3.0625 -0.765625 Z M 1.265625 -0.765625" style="stroke:none;stroke-width:0"></path></g><g id="g1013" style="fill:rgb(0%,0%,0%);fill-opacity:1;"><path id="path1011" transform="translate(333.586,248.455)" d="M 2.890625 -3.515625 C 3.703125 -3.78125 4.28125 -4.46875 4.28125 -5.265625 C 4.28125 -6.078125 3.40625 -6.640625 2.453125 -6.640625 C 1.453125 -6.640625 0.6875 -6.046875 0.6875 -5.28125 C 0.6875 -4.953125 0.90625 -4.765625 1.203125 -4.765625 C 1.5 -4.765625 1.703125 -4.984375 1.703125 -5.28125 C 1.703125 -5.765625 1.234375 -5.765625 1.09375 -5.765625 C 1.390625 -6.265625 2.046875 -6.390625 2.40625 -6.390625 C 2.828125 -6.390625 3.375 -6.171875 3.375 -5.28125 C 3.375 -5.15625 3.34375 -4.578125 3.09375 -4.140625 C 2.796875 -3.65625 2.453125 -3.625 2.203125 -3.625 C 2.125 -3.609375 1.890625 -3.59375 1.8125 -3.59375 C 1.734375 -3.578125 1.671875 -3.5625 1.671875 -3.46875 C 1.671875 -3.359375 1.734375 -3.359375 1.90625 -3.359375 L 2.34375 -3.359375 C 3.15625 -3.359375 3.53125 -2.6875 3.53125 -1.703125 C 3.53125 -0.34375 2.84375 -0.0625 2.40625 -0.0625 C 1.96875 -0.0625 1.21875 -0.234375 0.875 -0.8125 C 1.21875 -0.765625 1.53125 -0.984375 1.53125 -1.359375 C 1.53125 -1.71875 1.265625 -1.921875 0.984375 -1.921875 C 0.734375 -1.921875 0.421875 -1.78125 0.421875 -1.34375 C 0.421875 -0.4375 1.34375 0.21875 2.4375 0.21875 C 3.65625 0.21875 4.5625 -0.6875 4.5625 -1.703125 C 4.5625 -2.515625 3.921875 -3.296875 2.890625 -3.515625 Z M 2.890625 -3.515625" style="stroke:none;stroke-width:0"></path></g><g id="g1017" style="fill:rgb(0%,0%,0%);fill-opacity:1;"><path id="path1015" transform="translate(333.586,228.098)" d="M 2.9375 -1.640625 L 2.9375 -0.78125 C 2.9375 -0.421875 2.90625 -0.3125 2.171875 -0.3125 L 1.96875 -0.3125 L 1.96875 0 C 2.375 -0.03125 2.890625 -0.03125 3.3125 -0.03125 C 3.734375 -0.03125 4.25 -0.03125 4.671875 0 L 4.671875 -0.3125 L 4.453125 -0.3125 C 3.71875 -0.3125 3.703125 -0.421875 3.703125 -0.78125 L 3.703125 -1.640625 L 4.6875 -1.640625 L 4.6875 -1.953125 L 3.703125 -1.953125 L 3.703125 -6.484375 C 3.703125 -6.6875 3.703125 -6.75 3.53125 -6.75 C 3.453125 -6.75 3.421875 -6.75 3.34375 -6.625 L 0.28125 -1.953125 L 0.28125 -1.640625 Z M 2.984375 -1.953125 L 0.5625 -1.953125 L 2.984375 -5.671875 Z M 2.984375 -1.953125" style="stroke:none;stroke-width:0"></path></g><g id="g1021" style="fill:rgb(0%,0%,0%);fill-opacity:1;"><path id="path1019" transform="translate(333.586,207.741)" d="M 4.46875 -2 C 4.46875 -3.1875 3.65625 -4.1875 2.578125 -4.1875 C 2.109375 -4.1875 1.671875 -4.03125 1.3125 -3.671875 L 1.3125 -5.625 C 1.515625 -5.5625 1.84375 -5.5 2.15625 -5.5 C 3.390625 -5.5 4.09375 -6.40625 4.09375 -6.53125 C 4.09375 -6.59375 4.0625 -6.640625 3.984375 -6.640625 C 3.984375 -6.640625 3.953125 -6.640625 3.90625 -6.609375 C 3.703125 -6.515625 3.21875 -6.3125 2.546875 -6.3125 C 2.15625 -6.3125 1.6875 -6.390625 1.21875 -6.59375 C 1.140625 -6.625 1.125 -6.625 1.109375 -6.625 C 1 -6.625 1 -6.546875 1 -6.390625 L 1 -3.4375 C 1 -3.265625 1 -3.1875 1.140625 -3.1875 C 1.21875 -3.1875 1.234375 -3.203125 1.28125 -3.265625 C 1.390625 -3.421875 1.75 -3.96875 2.5625 -3.96875 C 3.078125 -3.96875 3.328125 -3.515625 3.40625 -3.328125 C 3.5625 -2.953125 3.59375 -2.578125 3.59375 -2.078125 C 3.59375 -1.71875 3.59375 -1.125 3.34375 -0.703125 C 3.109375 -0.3125 2.734375 -0.0625 2.28125 -0.0625 C 1.5625 -0.0625 0.984375 -0.59375 0.8125 -1.171875 C 0.84375 -1.171875 0.875 -1.15625 0.984375 -1.15625 C 1.3125 -1.15625 1.484375 -1.40625 1.484375 -1.640625 C 1.484375 -1.890625 1.3125 -2.140625 0.984375 -2.140625 C 0.84375 -2.140625 0.5 -2.0625 0.5 -1.609375 C 0.5 -0.75 1.1875 0.21875 2.296875 0.21875 C 3.453125 0.21875 4.46875 -0.734375 4.46875 -2 Z M 4.46875 -2" style="stroke:none;stroke-width:0"></path></g><g id="g1025" clip-rule="nonzero" clip-path="url('#clip1')"><path id="path1023" transform="matrix(1,0,0,-1,222.63,2952.225)" d="M -0.00109375 4274.529688 L 0.811406 4233.314844 L 1.627813 4192.736719 L 2.440313 4152.7875 L 3.252813 4113.459375 L 4.065313 4074.752344 L 4.877813 4036.658594 L 5.694219 3999.174219 L 6.506719 3962.295312 L 7.319219 3926.021875 L 8.131719 3890.342187 L 8.944219 3855.252344 L 9.760625 3820.752344 L 10.573125 3786.834375 L 11.385625 3753.494531 L 12.198125 3720.728906 L 13.010625 3688.529687 L 13.827031 3656.896875 L 14.639531 3625.822656 L 15.452031 3595.307031 L 16.264531 3565.338281 L 17.077031 3535.916406 L 17.893438 3507.0375 L 18.705938 3478.697656 L 19.518438 3450.885156 L 20.330938 3423.603906 L 21.143438 3396.846094 L 21.955938 3370.603906 L 22.772344 3344.877344 L 23.584844 3319.6625 L 24.397344 3294.951562 L 25.209844 3270.740625 L 26.022344 3247.025781 L 26.83875 3223.803125 L 27.65125 3201.064844 L 28.46375 3178.810937 L 29.27625 3157.0375 L 30.08875 3135.732812 L 30.905156 3114.896875 L 31.717656 3094.525781 L 32.530156 3074.611719 L 33.342656 3055.154687 L 34.155156 3036.150781 L 34.971563 3017.588281 L 35.784063 2999.467187 L 36.596563 2981.783594 L 37.409063 2964.533594 L 38.221563 2947.705469 L 39.037969 2931.307031 L 39.850469 2915.322656 L 40.662969 2899.752344 L 41.475469 2884.592187 L 42.287969 2869.834375 L 43.104375 2855.478906 L 43.916875 2841.517969 L 44.729375 2827.947656 L 45.541875 2814.764062 L 46.354375 2801.963281 L 47.166875 2789.5375 L 47.983281 2777.486719 L 48.795781 2765.803125 L 49.608281 2754.478906 L 50.420781 2743.517969 L 51.233281 2732.908594 L 52.049688 2722.650781 L 52.862188 2712.740625 L 53.674688 2703.166406 L 54.487188 2693.928125 L 55.299688 2685.025781 L 56.116094 2676.447656 L 56.928594 2668.189844 L 57.741094 2660.252344 L 58.553594 2652.627344 L 59.366094 2645.310937 L 60.1825 2638.299219 L 60.995 2631.584375 L 61.8075 2625.166406 L 62.62 2619.0375 L 63.4325 2613.197656 L 64.248906 2607.635156 L 65.061406 2602.35 L 65.873906 2597.338281 L 66.686406 2592.592187 L 67.498906 2588.111719 L 68.315313 2583.889062 L 69.127813 2579.916406 L 69.940313 2576.197656 L 70.752813 2572.721094 L 71.565313 2569.486719 L 72.377813 2566.482812 L 73.194219 2563.713281 L 74.006719 2561.170312 L 74.819219 2558.85 L 75.631719 2556.744531 L 76.444219 2554.853906 L 77.260625 2553.170312 L 78.073125 2551.689844 L 78.885625 2550.408594 L 79.698125 2549.322656 L 80.510625 2548.424219 L 81.327031 2547.713281 L 82.139531 2547.182031 L 82.952031 2546.826562 L 83.764531 2546.642969 L 84.577031 2546.623437 L 85.393438 2546.771875 L 86.205938 2547.072656 L 87.018438 2547.529687 L 87.830938 2548.135156 L 88.643438 2548.885156 L 89.459844 2549.771875 L 90.272344 2550.795312 L 91.084844 2551.951562 L 91.897344 2553.232812 L 92.709844 2554.63125 L 93.522344 2556.150781 L 94.33875 2557.779687 L 95.15125 2559.517969 L 95.96375 2561.357812 L 96.77625 2563.299219 L 97.58875 2565.330469 L 98.405156 2567.451562 L 99.217656 2569.658594 L 100.030156 2571.947656 L 100.842656 2574.307031 L 101.655156 2576.740625 L 102.471563 2579.240625 L 103.284063 2581.803125 L 104.096563 2584.424219 L 104.909063 2587.096094 L 105.721563 2589.814844 L 106.537969 2592.576562 L 107.350469 2595.38125 L 108.162969 2598.217187 L 108.975469 2601.084375 L 109.787969 2603.975 L 110.604375 2606.889062 L 111.416875 2609.81875 L 112.229375 2612.760156 L 113.041875 2615.705469 L 113.854375 2618.654687 L 114.670781 2621.603906 L 115.483281 2624.545312 L 116.295781 2627.475 L 117.108281 2630.389062 L 117.920781 2633.283594 L 118.737188 2636.150781 L 119.549688 2638.990625 L 120.362188 2641.795312 L 121.174688 2644.564844 L 121.987188 2647.2875 L 122.799688 2649.963281 L 123.616094 2652.584375 L 124.428594 2655.150781 L 125.241094 2657.654687 L 126.053594 2660.096094 L 126.866094 2662.463281 L 127.6825 2664.75625 L 128.495 2666.967187 L 129.3075 2669.096094 L 130.12 2671.135156 L 130.9325 2673.084375 L 131.748906 2674.932031 L 132.561406 2676.678125 L 133.373906 2678.314844 L 134.186406 2679.842187 L 134.998906 2681.252344 L 135.815313 2682.541406 L 136.627813 2683.705469 L 137.440313 2684.740625 L 138.252813 2685.639062 L 139.065313 2686.396875 L 139.881719 2687.014062 L 140.694219 2687.482812 L 141.506719 2687.799219 L 142.319219 2687.955469 L 143.131719 2687.951562 L 143.948125 2687.779687 L 144.760625 2687.435937 L 145.573125 2686.920312 L 146.385625 2686.221094 L 147.198125 2685.338281 L 148.010625 2684.264062 L 148.827031 2682.998437 L 149.639531 2681.533594 L 150.452031 2679.865625 L 151.264531 2677.990625 L 152.077031 2675.900781 L 152.893438 2673.596094 L 153.705938 2671.06875 L 154.518438 2668.314844 L 155.330938 2665.334375 L 156.143438 2662.115625 L 156.959844 2658.658594 L 157.772344 2654.955469 L 158.584844 2651.002344 L 159.397344 2646.799219 L 160.209844 2642.338281 L 161.02625 2637.611719 L 161.83875 2632.619531 L 162.65125 2627.357812 L 163.46375 2621.814844 L 164.27625 2615.994531 L 165.092656 2609.889062 L 165.905156 2603.490625 L 166.717656 2596.803125 L 167.530156 2589.810937 L 168.342656 2582.517969 L 169.159063 2574.916406 L 169.971563 2567.002344 L 170.784063 2558.771875 L 171.596563 2550.217187 L 172.409063 2541.334375 L 173.221563 2532.123437 L 174.037969 2522.576562 L 174.850469 2512.689844 L 175.662969 2502.459375 L 176.475469 2491.877344 L 177.287969 2480.939844 L 178.104375 2469.646875 L 178.916875 2457.990625 L 179.729375 2445.967187 L 180.541875 2433.56875 L 181.354375 2420.795312 L 182.170781 2407.642969 L 182.983281 2394.1 L 183.795781 2380.170312 L 184.608281 2365.842187 L 185.420781 2351.115625 L 186.237188 2335.986719 L 187.049688 2320.447656 L 187.862188 2304.494531 L 188.674688 2288.127344 L 189.487188 2271.334375 L 190.303594 2254.115625 L 191.116094 2236.463281 L 191.928594 2218.377344 L 192.741094 2199.85 L 193.553594 2180.873437 L 194.366094 2161.451562 L 195.1825 2141.572656 L 195.995 2121.236719 L 196.8075 2100.435937 L 197.62 2079.166406 L 198.4325 2057.428125 L 199.248906 2035.209375 L 200.061406 2012.510156 L 200.873906 1989.322656 L 201.686406 1965.642969 L 202.498906 1941.471094 L 203.315313 1916.799219 L 204.127813 1891.619531 L 204.940313 1865.932031 L 205.752813 1839.732812 L 206.565313 1813.014062 L 207.381719 1785.771875 L 208.194219 1757.998437 L 209.006719 1729.697656 L 209.819219 1700.861719 L 210.631719 1671.478906 L 211.448125 1641.553125 L 212.260625 1611.076562 L 213.073125 1580.045312 L 213.885625 1548.455469 L 214.698125 1516.299219 L 215.514531 1483.576562 L 216.327031 1450.279687 L 217.139531 1416.404687 L 217.952031 1381.947656 L 218.764531 1346.904687 L 219.577031 1311.271875 L 220.393438 1275.0375 L 221.205938 1238.205469 L 222.018438 1200.767969 L 222.830938 1162.721094 L 223.643438 1124.060937 L 224.459844 1084.779687 L 225.272344 1044.877344 L 226.084844 1004.346094 L 226.897344 963.178125 L 227.709844 921.377344 L 228.52625 878.935937 L 229.33875 835.842187 L 230.15125 792.103906 L 230.96375 747.709375 L 231.77625 702.650781 L 232.592656 656.932031 L 233.405156 610.541406 L 234.217656 563.478906 L 235.030156 515.732812 L 235.842656 467.310937 L 236.659063 418.197656 L 237.471563 368.392969 L 238.284063 317.889062 L 239.096563 266.689844 L 239.909063 214.779687 L 240.725469 162.1625 L 241.537969 108.830469 L 242.350469 54.775781 L 243.162969 -0.0015625" style="fill:none;stroke-width:1.19553;stroke-linecap:butt;stroke-linejoin:miter;stroke:rgb(0%,0%,100%);stroke-opacity:1;stroke-miterlimit:10;"></path></g></g></g></g></svg> 