<?xml version="1.0" encoding="UTF-8"?> <svg xmlns:cc="http://creativecommons.org/ns#" xmlns:rdf="http://www.w3.org/1999/02/22-rdf-syntax-ns#" xmlns:svg="http://www.w3.org/2000/svg" xmlns="http://www.w3.org/2000/svg" xmlns:sodipodi="http://sodipodi.sourceforge.net/DTD/sodipodi-0.dtd" xmlns:inkscape="http://www.inkscape.org/namespaces/inkscape" width="152.22169mm" height="127.95139mm" viewBox="0 0 152.22169 127.95139" version="1.1" id="svg8"><defs id="defs2"></defs><metadata id="metadata5"></metadata><g id="layer1" transform="translate(44.921368,-1106.0104)"><g id="g1028" scale="1.66150538703" version="0.11.0" transform="matrix(0.586142,0.000000,0.000000,0.586142,-170.083870,990.442221)"><g id="surface1"><path id="path887" transform="matrix(1,0,0,-1,-142.122,408.101)" d="M 364.754812 -0.0005625 L 364.754812 203.573656 M 389.075125 -0.0005625 L 389.075125 203.573656 M 413.391531 -0.0005625 L 413.391531 203.573656 M 437.707937 -0.0005625 L 437.707937 203.573656 M 462.024344 -0.0005625 L 462.024344 203.573656 M 510.657156 -0.0005625 L 510.657156 203.573656 M 534.977469 -0.0005625 L 534.977469 203.573656 M 559.293875 -0.0005625 L 559.293875 203.573656 M 583.610281 -0.0005625 L 583.610281 203.573656 M 607.926687 -0.0005625 L 607.926687 203.573656" style="fill:none;stroke-width:0.3985;stroke-linecap:butt;stroke-linejoin:miter;stroke:rgb(75%,75%,75%);stroke-opacity:1;stroke-miterlimit:10;"></path><path id="path889" transform="matrix(1,0,0,-1,-142.122,408.101)" d="M 364.754812 -0.0005625 L 607.926687 -0.0005625 M 364.754812 20.358812 L 607.926687 20.358812 M 364.754812 40.714281 L 607.926687 40.714281 M 364.754812 61.073656 L 607.926687 61.073656 M 364.754812 81.429125 L 607.926687 81.429125 M 364.754812 122.143969 L 607.926687 122.143969 M 364.754812 142.499438 L 607.926687 142.499438 M 364.754812 162.858813 L 607.926687 162.858813 M 364.754812 183.214281 L 607.926687 183.214281 M 364.754812 203.573656 L 607.926687 203.573656" style="fill:none;stroke-width:0.3985;stroke-linecap:butt;stroke-linejoin:miter;stroke:rgb(75%,75%,75%);stroke-opacity:1;stroke-miterlimit:10;"></path><path id="path891" transform="matrix(1,0,0,-1,-142.122,408.101)" d="M 364.754812 99.6635 L 364.754812 103.909594 M 389.075125 99.6635 L 389.075125 103.909594 M 413.391531 99.6635 L 413.391531 103.909594 M 437.707937 99.6635 L 437.707937 103.909594 M 462.024344 99.6635 L 462.024344 103.909594 M 510.657156 99.6635 L 510.657156 103.909594 M 534.977469 99.6635 L 534.977469 103.909594 M 559.293875 99.6635 L 559.293875 103.909594 M 583.610281 99.6635 L 583.610281 103.909594 M 607.926687 99.6635 L 607.926687 103.909594" style="fill:none;stroke-width:0.19925;stroke-linecap:butt;stroke-linejoin:miter;stroke:rgb(50%,50%,50%);stroke-opacity:1;stroke-miterlimit:10;"></path><path id="path893" transform="matrix(1,0,0,-1,-142.122,408.101)" d="M 484.21575 -0.0005625 L 488.469656 -0.0005625 M 484.21575 20.358812 L 488.469656 20.358812 M 484.21575 40.714281 L 488.469656 40.714281 M 484.21575 61.073656 L 488.469656 61.073656 M 484.21575 81.429125 L 488.469656 81.429125 M 484.21575 122.143969 L 488.469656 122.143969 M 484.21575 142.499438 L 488.469656 142.499438 M 484.21575 162.858813 L 488.469656 162.858813 M 484.21575 183.214281 L 488.469656 183.214281 M 484.21575 203.573656 L 488.469656 203.573656" style="fill:none;stroke-width:0.19925;stroke-linecap:butt;stroke-linejoin:miter;stroke:rgb(50%,50%,50%);stroke-opacity:1;stroke-miterlimit:10;"></path><path id="path895" transform="matrix(1,0,0,-1,-142.122,408.101)" d="M 364.754812 101.7885 L 605.9345 101.7885" style="fill:none;stroke-width:0.3985;stroke-linecap:butt;stroke-linejoin:miter;stroke:rgb(0%,0%,0%);stroke-opacity:1;stroke-miterlimit:10;"></path><path id="path897" d="M 465.804688 306.3125 L 462.617188 304.71875 L 463.8125 306.3125 L 462.617188 307.910156" style="fill-opacity:1;stroke:none;fill:rgb(0%,0%,0%);stroke-width:0;fill-rule:nonzero"></path><path id="path899" transform="matrix(1,0,0,-1,-142.122,408.101)" d="M 486.34075 -0.0005625 L 486.34075 201.581469" style="fill:none;stroke-width:0.3985;stroke-linecap:butt;stroke-linejoin:miter;stroke:rgb(0%,0%,0%);stroke-opacity:1;stroke-miterlimit:10;"></path><path id="path901" d="M 344.21875 204.527344 L 342.625 207.714844 L 344.21875 206.519531 L 345.8125 207.714844" style="fill-opacity:1;stroke:none;fill:rgb(0%,0%,0%);stroke-width:0;fill-rule:nonzero"></path><g id="g905" style="fill:rgb(0%,0%,0%);fill-opacity:1;"><path id="path903" transform="translate(216.265,318.38)" d="M 6.5625 -2.296875 C 6.734375 -2.296875 6.921875 -2.296875 6.921875 -2.5 C 6.921875 -2.6875 6.734375 -2.6875 6.5625 -2.6875 L 1.171875 -2.6875 C 1 -2.6875 0.828125 -2.6875 0.828125 -2.5 C 0.828125 -2.296875 1 -2.296875 1.171875 -2.296875 Z M 6.5625 -2.296875" style="stroke:none;stroke-width:0"></path></g><g id="g909" style="fill:rgb(0%,0%,0%);fill-opacity:1;"><path id="path907" transform="translate(224.013,318.38)" d="M 4.46875 -2 C 4.46875 -3.1875 3.65625 -4.1875 2.578125 -4.1875 C 2.109375 -4.1875 1.671875 -4.03125 1.3125 -3.671875 L 1.3125 -5.625 C 1.515625 -5.5625 1.84375 -5.5 2.15625 -5.5 C 3.390625 -5.5 4.09375 -6.40625 4.09375 -6.53125 C 4.09375 -6.59375 4.0625 -6.640625 3.984375 -6.640625 C 3.984375 -6.640625 3.953125 -6.640625 3.90625 -6.609375 C 3.703125 -6.515625 3.21875 -6.3125 2.546875 -6.3125 C 2.15625 -6.3125 1.6875 -6.390625 1.21875 -6.59375 C 1.140625 -6.625 1.125 -6.625 1.109375 -6.625 C 1 -6.625 1 -6.546875 1 -6.390625 L 1 -3.4375 C 1 -3.265625 1 -3.1875 1.140625 -3.1875 C 1.21875 -3.1875 1.234375 -3.203125 1.28125 -3.265625 C 1.390625 -3.421875 1.75 -3.96875 2.5625 -3.96875 C 3.078125 -3.96875 3.328125 -3.515625 3.40625 -3.328125 C 3.5625 -2.953125 3.59375 -2.578125 3.59375 -2.078125 C 3.59375 -1.71875 3.59375 -1.125 3.34375 -0.703125 C 3.109375 -0.3125 2.734375 -0.0625 2.28125 -0.0625 C 1.5625 -0.0625 0.984375 -0.59375 0.8125 -1.171875 C 0.84375 -1.171875 0.875 -1.15625 0.984375 -1.15625 C 1.3125 -1.15625 1.484375 -1.40625 1.484375 -1.640625 C 1.484375 -1.890625 1.3125 -2.140625 0.984375 -2.140625 C 0.84375 -2.140625 0.5 -2.0625 0.5 -1.609375 C 0.5 -0.75 1.1875 0.21875 2.296875 0.21875 C 3.453125 0.21875 4.46875 -0.734375 4.46875 -2 Z M 4.46875 -2" style="stroke:none;stroke-width:0"></path></g><g id="g913" style="fill:rgb(0%,0%,0%);fill-opacity:1;"><path id="path911" transform="translate(240.581,318.38)" d="M 6.5625 -2.296875 C 6.734375 -2.296875 6.921875 -2.296875 6.921875 -2.5 C 6.921875 -2.6875 6.734375 -2.6875 6.5625 -2.6875 L 1.171875 -2.6875 C 1 -2.6875 0.828125 -2.6875 0.828125 -2.5 C 0.828125 -2.296875 1 -2.296875 1.171875 -2.296875 Z M 6.5625 -2.296875" style="stroke:none;stroke-width:0"></path></g><g id="g917" style="fill:rgb(0%,0%,0%);fill-opacity:1;"><path id="path915" transform="translate(248.33,318.38)" d="M 2.9375 -1.640625 L 2.9375 -0.78125 C 2.9375 -0.421875 2.90625 -0.3125 2.171875 -0.3125 L 1.96875 -0.3125 L 1.96875 0 C 2.375 -0.03125 2.890625 -0.03125 3.3125 -0.03125 C 3.734375 -0.03125 4.25 -0.03125 4.671875 0 L 4.671875 -0.3125 L 4.453125 -0.3125 C 3.71875 -0.3125 3.703125 -0.421875 3.703125 -0.78125 L 3.703125 -1.640625 L 4.6875 -1.640625 L 4.6875 -1.953125 L 3.703125 -1.953125 L 3.703125 -6.484375 C 3.703125 -6.6875 3.703125 -6.75 3.53125 -6.75 C 3.453125 -6.75 3.421875 -6.75 3.34375 -6.625 L 0.28125 -1.953125 L 0.28125 -1.640625 Z M 2.984375 -1.953125 L 0.5625 -1.953125 L 2.984375 -5.671875 Z M 2.984375 -1.953125" style="stroke:none;stroke-width:0"></path></g><g id="g921" style="fill:rgb(0%,0%,0%);fill-opacity:1;"><path id="path919" transform="translate(264.898,318.38)" d="M 6.5625 -2.296875 C 6.734375 -2.296875 6.921875 -2.296875 6.921875 -2.5 C 6.921875 -2.6875 6.734375 -2.6875 6.5625 -2.6875 L 1.171875 -2.6875 C 1 -2.6875 0.828125 -2.6875 0.828125 -2.5 C 0.828125 -2.296875 1 -2.296875 1.171875 -2.296875 Z M 6.5625 -2.296875" style="stroke:none;stroke-width:0"></path></g><g id="g925" style="fill:rgb(0%,0%,0%);fill-opacity:1;"><path id="path923" transform="translate(272.647,318.38)" d="M 2.890625 -3.515625 C 3.703125 -3.78125 4.28125 -4.46875 4.28125 -5.265625 C 4.28125 -6.078125 3.40625 -6.640625 2.453125 -6.640625 C 1.453125 -6.640625 0.6875 -6.046875 0.6875 -5.28125 C 0.6875 -4.953125 0.90625 -4.765625 1.203125 -4.765625 C 1.5 -4.765625 1.703125 -4.984375 1.703125 -5.28125 C 1.703125 -5.765625 1.234375 -5.765625 1.09375 -5.765625 C 1.390625 -6.265625 2.046875 -6.390625 2.40625 -6.390625 C 2.828125 -6.390625 3.375 -6.171875 3.375 -5.28125 C 3.375 -5.15625 3.34375 -4.578125 3.09375 -4.140625 C 2.796875 -3.65625 2.453125 -3.625 2.203125 -3.625 C 2.125 -3.609375 1.890625 -3.59375 1.8125 -3.59375 C 1.734375 -3.578125 1.671875 -3.5625 1.671875 -3.46875 C 1.671875 -3.359375 1.734375 -3.359375 1.90625 -3.359375 L 2.34375 -3.359375 C 3.15625 -3.359375 3.53125 -2.6875 3.53125 -1.703125 C 3.53125 -0.34375 2.84375 -0.0625 2.40625 -0.0625 C 1.96875 -0.0625 1.21875 -0.234375 0.875 -0.8125 C 1.21875 -0.765625 1.53125 -0.984375 1.53125 -1.359375 C 1.53125 -1.71875 1.265625 -1.921875 0.984375 -1.921875 C 0.734375 -1.921875 0.421875 -1.78125 0.421875 -1.34375 C 0.421875 -0.4375 1.34375 0.21875 2.4375 0.21875 C 3.65625 0.21875 4.5625 -0.6875 4.5625 -1.703125 C 4.5625 -2.515625 3.921875 -3.296875 2.890625 -3.515625 Z M 2.890625 -3.515625" style="stroke:none;stroke-width:0"></path></g><g id="g929" style="fill:rgb(0%,0%,0%);fill-opacity:1;"><path id="path927" transform="translate(289.215,318.38)" d="M 6.5625 -2.296875 C 6.734375 -2.296875 6.921875 -2.296875 6.921875 -2.5 C 6.921875 -2.6875 6.734375 -2.6875 6.5625 -2.6875 L 1.171875 -2.6875 C 1 -2.6875 0.828125 -2.6875 0.828125 -2.5 C 0.828125 -2.296875 1 -2.296875 1.171875 -2.296875 Z M 6.5625 -2.296875" style="stroke:none;stroke-width:0"></path></g><g id="g933" style="fill:rgb(0%,0%,0%);fill-opacity:1;"><path id="path931" transform="translate(296.964,318.38)" d="M 1.265625 -0.765625 L 2.328125 -1.796875 C 3.875 -3.171875 4.46875 -3.703125 4.46875 -4.703125 C 4.46875 -5.84375 3.578125 -6.640625 2.359375 -6.640625 C 1.234375 -6.640625 0.5 -5.71875 0.5 -4.828125 C 0.5 -4.28125 1 -4.28125 1.03125 -4.28125 C 1.203125 -4.28125 1.546875 -4.390625 1.546875 -4.8125 C 1.546875 -5.0625 1.359375 -5.328125 1.015625 -5.328125 C 0.9375 -5.328125 0.921875 -5.328125 0.890625 -5.3125 C 1.109375 -5.96875 1.65625 -6.328125 2.234375 -6.328125 C 3.140625 -6.328125 3.5625 -5.515625 3.5625 -4.703125 C 3.5625 -3.90625 3.078125 -3.125 2.515625 -2.5 L 0.609375 -0.375 C 0.5 -0.265625 0.5 -0.234375 0.5 0 L 4.203125 0 L 4.46875 -1.734375 L 4.234375 -1.734375 C 4.171875 -1.4375 4.109375 -1 4 -0.84375 C 3.9375 -0.765625 3.28125 -0.765625 3.0625 -0.765625 Z M 1.265625 -0.765625" style="stroke:none;stroke-width:0"></path></g><g id="g937" style="fill:rgb(0%,0%,0%);fill-opacity:1;"><path id="path935" transform="translate(313.532,318.38)" d="M 6.5625 -2.296875 C 6.734375 -2.296875 6.921875 -2.296875 6.921875 -2.5 C 6.921875 -2.6875 6.734375 -2.6875 6.5625 -2.6875 L 1.171875 -2.6875 C 1 -2.6875 0.828125 -2.6875 0.828125 -2.5 C 0.828125 -2.296875 1 -2.296875 1.171875 -2.296875 Z M 6.5625 -2.296875" style="stroke:none;stroke-width:0"></path></g><g id="g941" style="fill:rgb(0%,0%,0%);fill-opacity:1;"><path id="path939" transform="translate(321.28,318.38)" d="M 2.9375 -6.375 C 2.9375 -6.625 2.9375 -6.640625 2.703125 -6.640625 C 2.078125 -6 1.203125 -6 0.890625 -6 L 0.890625 -5.6875 C 1.09375 -5.6875 1.671875 -5.6875 2.1875 -5.953125 L 2.1875 -0.78125 C 2.1875 -0.421875 2.15625 -0.3125 1.265625 -0.3125 L 0.953125 -0.3125 L 0.953125 0 C 1.296875 -0.03125 2.15625 -0.03125 2.5625 -0.03125 C 2.953125 -0.03125 3.828125 -0.03125 4.171875 0 L 4.171875 -0.3125 L 3.859375 -0.3125 C 2.953125 -0.3125 2.9375 -0.421875 2.9375 -0.78125 Z M 2.9375 -6.375" style="stroke:none;stroke-width:0"></path></g><g id="g945" style="fill:rgb(0%,0%,0%);fill-opacity:1;"><path id="path943" transform="translate(366.04,318.38)" d="M 2.9375 -6.375 C 2.9375 -6.625 2.9375 -6.640625 2.703125 -6.640625 C 2.078125 -6 1.203125 -6 0.890625 -6 L 0.890625 -5.6875 C 1.09375 -5.6875 1.671875 -5.6875 2.1875 -5.953125 L 2.1875 -0.78125 C 2.1875 -0.421875 2.15625 -0.3125 1.265625 -0.3125 L 0.953125 -0.3125 L 0.953125 0 C 1.296875 -0.03125 2.15625 -0.03125 2.5625 -0.03125 C 2.953125 -0.03125 3.828125 -0.03125 4.171875 0 L 4.171875 -0.3125 L 3.859375 -0.3125 C 2.953125 -0.3125 2.9375 -0.421875 2.9375 -0.78125 Z M 2.9375 -6.375" style="stroke:none;stroke-width:0"></path></g><g id="g949" style="fill:rgb(0%,0%,0%);fill-opacity:1;"><path id="path947" transform="translate(390.356,318.38)" d="M 1.265625 -0.765625 L 2.328125 -1.796875 C 3.875 -3.171875 4.46875 -3.703125 4.46875 -4.703125 C 4.46875 -5.84375 3.578125 -6.640625 2.359375 -6.640625 C 1.234375 -6.640625 0.5 -5.71875 0.5 -4.828125 C 0.5 -4.28125 1 -4.28125 1.03125 -4.28125 C 1.203125 -4.28125 1.546875 -4.390625 1.546875 -4.8125 C 1.546875 -5.0625 1.359375 -5.328125 1.015625 -5.328125 C 0.9375 -5.328125 0.921875 -5.328125 0.890625 -5.3125 C 1.109375 -5.96875 1.65625 -6.328125 2.234375 -6.328125 C 3.140625 -6.328125 3.5625 -5.515625 3.5625 -4.703125 C 3.5625 -3.90625 3.078125 -3.125 2.515625 -2.5 L 0.609375 -0.375 C 0.5 -0.265625 0.5 -0.234375 0.5 0 L 4.203125 0 L 4.46875 -1.734375 L 4.234375 -1.734375 C 4.171875 -1.4375 4.109375 -1 4 -0.84375 C 3.9375 -0.765625 3.28125 -0.765625 3.0625 -0.765625 Z M 1.265625 -0.765625" style="stroke:none;stroke-width:0"></path></g><g id="g953" style="fill:rgb(0%,0%,0%);fill-opacity:1;"><path id="path951" transform="translate(414.673,318.38)" d="M 2.890625 -3.515625 C 3.703125 -3.78125 4.28125 -4.46875 4.28125 -5.265625 C 4.28125 -6.078125 3.40625 -6.640625 2.453125 -6.640625 C 1.453125 -6.640625 0.6875 -6.046875 0.6875 -5.28125 C 0.6875 -4.953125 0.90625 -4.765625 1.203125 -4.765625 C 1.5 -4.765625 1.703125 -4.984375 1.703125 -5.28125 C 1.703125 -5.765625 1.234375 -5.765625 1.09375 -5.765625 C 1.390625 -6.265625 2.046875 -6.390625 2.40625 -6.390625 C 2.828125 -6.390625 3.375 -6.171875 3.375 -5.28125 C 3.375 -5.15625 3.34375 -4.578125 3.09375 -4.140625 C 2.796875 -3.65625 2.453125 -3.625 2.203125 -3.625 C 2.125 -3.609375 1.890625 -3.59375 1.8125 -3.59375 C 1.734375 -3.578125 1.671875 -3.5625 1.671875 -3.46875 C 1.671875 -3.359375 1.734375 -3.359375 1.90625 -3.359375 L 2.34375 -3.359375 C 3.15625 -3.359375 3.53125 -2.6875 3.53125 -1.703125 C 3.53125 -0.34375 2.84375 -0.0625 2.40625 -0.0625 C 1.96875 -0.0625 1.21875 -0.234375 0.875 -0.8125 C 1.21875 -0.765625 1.53125 -0.984375 1.53125 -1.359375 C 1.53125 -1.71875 1.265625 -1.921875 0.984375 -1.921875 C 0.734375 -1.921875 0.421875 -1.78125 0.421875 -1.34375 C 0.421875 -0.4375 1.34375 0.21875 2.4375 0.21875 C 3.65625 0.21875 4.5625 -0.6875 4.5625 -1.703125 C 4.5625 -2.515625 3.921875 -3.296875 2.890625 -3.515625 Z M 2.890625 -3.515625" style="stroke:none;stroke-width:0"></path></g><g id="g957" style="fill:rgb(0%,0%,0%);fill-opacity:1;"><path id="path955" transform="translate(438.99,318.38)" d="M 2.9375 -1.640625 L 2.9375 -0.78125 C 2.9375 -0.421875 2.90625 -0.3125 2.171875 -0.3125 L 1.96875 -0.3125 L 1.96875 0 C 2.375 -0.03125 2.890625 -0.03125 3.3125 -0.03125 C 3.734375 -0.03125 4.25 -0.03125 4.671875 0 L 4.671875 -0.3125 L 4.453125 -0.3125 C 3.71875 -0.3125 3.703125 -0.421875 3.703125 -0.78125 L 3.703125 -1.640625 L 4.6875 -1.640625 L 4.6875 -1.953125 L 3.703125 -1.953125 L 3.703125 -6.484375 C 3.703125 -6.6875 3.703125 -6.75 3.53125 -6.75 C 3.453125 -6.75 3.421875 -6.75 3.34375 -6.625 L 0.28125 -1.953125 L 0.28125 -1.640625 Z M 2.984375 -1.953125 L 0.5625 -1.953125 L 2.984375 -5.671875 Z M 2.984375 -1.953125" style="stroke:none;stroke-width:0"></path></g><g id="g961" style="fill:rgb(0%,0%,0%);fill-opacity:1;"><path id="path959" transform="translate(463.307,318.38)" d="M 4.46875 -2 C 4.46875 -3.1875 3.65625 -4.1875 2.578125 -4.1875 C 2.109375 -4.1875 1.671875 -4.03125 1.3125 -3.671875 L 1.3125 -5.625 C 1.515625 -5.5625 1.84375 -5.5 2.15625 -5.5 C 3.390625 -5.5 4.09375 -6.40625 4.09375 -6.53125 C 4.09375 -6.59375 4.0625 -6.640625 3.984375 -6.640625 C 3.984375 -6.640625 3.953125 -6.640625 3.90625 -6.609375 C 3.703125 -6.515625 3.21875 -6.3125 2.546875 -6.3125 C 2.15625 -6.3125 1.6875 -6.390625 1.21875 -6.59375 C 1.140625 -6.625 1.125 -6.625 1.109375 -6.625 C 1 -6.625 1 -6.546875 1 -6.390625 L 1 -3.4375 C 1 -3.265625 1 -3.1875 1.140625 -3.1875 C 1.21875 -3.1875 1.234375 -3.203125 1.28125 -3.265625 C 1.390625 -3.421875 1.75 -3.96875 2.5625 -3.96875 C 3.078125 -3.96875 3.328125 -3.515625 3.40625 -3.328125 C 3.5625 -2.953125 3.59375 -2.578125 3.59375 -2.078125 C 3.59375 -1.71875 3.59375 -1.125 3.34375 -0.703125 C 3.109375 -0.3125 2.734375 -0.0625 2.28125 -0.0625 C 1.5625 -0.0625 0.984375 -0.59375 0.8125 -1.171875 C 0.84375 -1.171875 0.875 -1.15625 0.984375 -1.15625 C 1.3125 -1.15625 1.484375 -1.40625 1.484375 -1.640625 C 1.484375 -1.890625 1.3125 -2.140625 0.984375 -2.140625 C 0.84375 -2.140625 0.5 -2.0625 0.5 -1.609375 C 0.5 -0.75 1.1875 0.21875 2.296875 0.21875 C 3.453125 0.21875 4.46875 -0.734375 4.46875 -2 Z M 4.46875 -2" style="stroke:none;stroke-width:0"></path></g><g id="g965" style="fill:rgb(0%,0%,0%);fill-opacity:1;"><path id="path963" transform="translate(325.837,410.896)" d="M 6.5625 -2.296875 C 6.734375 -2.296875 6.921875 -2.296875 6.921875 -2.5 C 6.921875 -2.6875 6.734375 -2.6875 6.5625 -2.6875 L 1.171875 -2.6875 C 1 -2.6875 0.828125 -2.6875 0.828125 -2.5 C 0.828125 -2.296875 1 -2.296875 1.171875 -2.296875 Z M 6.5625 -2.296875" style="stroke:none;stroke-width:0"></path></g><g id="g969" style="fill:rgb(0%,0%,0%);fill-opacity:1;"><path id="path967" transform="translate(333.586,410.896)" d="M 4.46875 -2 C 4.46875 -3.1875 3.65625 -4.1875 2.578125 -4.1875 C 2.109375 -4.1875 1.671875 -4.03125 1.3125 -3.671875 L 1.3125 -5.625 C 1.515625 -5.5625 1.84375 -5.5 2.15625 -5.5 C 3.390625 -5.5 4.09375 -6.40625 4.09375 -6.53125 C 4.09375 -6.59375 4.0625 -6.640625 3.984375 -6.640625 C 3.984375 -6.640625 3.953125 -6.640625 3.90625 -6.609375 C 3.703125 -6.515625 3.21875 -6.3125 2.546875 -6.3125 C 2.15625 -6.3125 1.6875 -6.390625 1.21875 -6.59375 C 1.140625 -6.625 1.125 -6.625 1.109375 -6.625 C 1 -6.625 1 -6.546875 1 -6.390625 L 1 -3.4375 C 1 -3.265625 1 -3.1875 1.140625 -3.1875 C 1.21875 -3.1875 1.234375 -3.203125 1.28125 -3.265625 C 1.390625 -3.421875 1.75 -3.96875 2.5625 -3.96875 C 3.078125 -3.96875 3.328125 -3.515625 3.40625 -3.328125 C 3.5625 -2.953125 3.59375 -2.578125 3.59375 -2.078125 C 3.59375 -1.71875 3.59375 -1.125 3.34375 -0.703125 C 3.109375 -0.3125 2.734375 -0.0625 2.28125 -0.0625 C 1.5625 -0.0625 0.984375 -0.59375 0.8125 -1.171875 C 0.84375 -1.171875 0.875 -1.15625 0.984375 -1.15625 C 1.3125 -1.15625 1.484375 -1.40625 1.484375 -1.640625 C 1.484375 -1.890625 1.3125 -2.140625 0.984375 -2.140625 C 0.84375 -2.140625 0.5 -2.0625 0.5 -1.609375 C 0.5 -0.75 1.1875 0.21875 2.296875 0.21875 C 3.453125 0.21875 4.46875 -0.734375 4.46875 -2 Z M 4.46875 -2" style="stroke:none;stroke-width:0"></path></g><g id="g973" style="fill:rgb(0%,0%,0%);fill-opacity:1;"><path id="path971" transform="translate(325.837,390.539)" d="M 6.5625 -2.296875 C 6.734375 -2.296875 6.921875 -2.296875 6.921875 -2.5 C 6.921875 -2.6875 6.734375 -2.6875 6.5625 -2.6875 L 1.171875 -2.6875 C 1 -2.6875 0.828125 -2.6875 0.828125 -2.5 C 0.828125 -2.296875 1 -2.296875 1.171875 -2.296875 Z M 6.5625 -2.296875" style="stroke:none;stroke-width:0"></path></g><g id="g977" style="fill:rgb(0%,0%,0%);fill-opacity:1;"><path id="path975" transform="translate(333.586,390.539)" d="M 2.9375 -1.640625 L 2.9375 -0.78125 C 2.9375 -0.421875 2.90625 -0.3125 2.171875 -0.3125 L 1.96875 -0.3125 L 1.96875 0 C 2.375 -0.03125 2.890625 -0.03125 3.3125 -0.03125 C 3.734375 -0.03125 4.25 -0.03125 4.671875 0 L 4.671875 -0.3125 L 4.453125 -0.3125 C 3.71875 -0.3125 3.703125 -0.421875 3.703125 -0.78125 L 3.703125 -1.640625 L 4.6875 -1.640625 L 4.6875 -1.953125 L 3.703125 -1.953125 L 3.703125 -6.484375 C 3.703125 -6.6875 3.703125 -6.75 3.53125 -6.75 C 3.453125 -6.75 3.421875 -6.75 3.34375 -6.625 L 0.28125 -1.953125 L 0.28125 -1.640625 Z M 2.984375 -1.953125 L 0.5625 -1.953125 L 2.984375 -5.671875 Z M 2.984375 -1.953125" style="stroke:none;stroke-width:0"></path></g><g id="g981" style="fill:rgb(0%,0%,0%);fill-opacity:1;"><path id="path979" transform="translate(325.837,370.182)" d="M 6.5625 -2.296875 C 6.734375 -2.296875 6.921875 -2.296875 6.921875 -2.5 C 6.921875 -2.6875 6.734375 -2.6875 6.5625 -2.6875 L 1.171875 -2.6875 C 1 -2.6875 0.828125 -2.6875 0.828125 -2.5 C 0.828125 -2.296875 1 -2.296875 1.171875 -2.296875 Z M 6.5625 -2.296875" style="stroke:none;stroke-width:0"></path></g><g id="g985" style="fill:rgb(0%,0%,0%);fill-opacity:1;"><path id="path983" transform="translate(333.586,370.182)" d="M 2.890625 -3.515625 C 3.703125 -3.78125 4.28125 -4.46875 4.28125 -5.265625 C 4.28125 -6.078125 3.40625 -6.640625 2.453125 -6.640625 C 1.453125 -6.640625 0.6875 -6.046875 0.6875 -5.28125 C 0.6875 -4.953125 0.90625 -4.765625 1.203125 -4.765625 C 1.5 -4.765625 1.703125 -4.984375 1.703125 -5.28125 C 1.703125 -5.765625 1.234375 -5.765625 1.09375 -5.765625 C 1.390625 -6.265625 2.046875 -6.390625 2.40625 -6.390625 C 2.828125 -6.390625 3.375 -6.171875 3.375 -5.28125 C 3.375 -5.15625 3.34375 -4.578125 3.09375 -4.140625 C 2.796875 -3.65625 2.453125 -3.625 2.203125 -3.625 C 2.125 -3.609375 1.890625 -3.59375 1.8125 -3.59375 C 1.734375 -3.578125 1.671875 -3.5625 1.671875 -3.46875 C 1.671875 -3.359375 1.734375 -3.359375 1.90625 -3.359375 L 2.34375 -3.359375 C 3.15625 -3.359375 3.53125 -2.6875 3.53125 -1.703125 C 3.53125 -0.34375 2.84375 -0.0625 2.40625 -0.0625 C 1.96875 -0.0625 1.21875 -0.234375 0.875 -0.8125 C 1.21875 -0.765625 1.53125 -0.984375 1.53125 -1.359375 C 1.53125 -1.71875 1.265625 -1.921875 0.984375 -1.921875 C 0.734375 -1.921875 0.421875 -1.78125 0.421875 -1.34375 C 0.421875 -0.4375 1.34375 0.21875 2.4375 0.21875 C 3.65625 0.21875 4.5625 -0.6875 4.5625 -1.703125 C 4.5625 -2.515625 3.921875 -3.296875 2.890625 -3.515625 Z M 2.890625 -3.515625" style="stroke:none;stroke-width:0"></path></g><g id="g989" style="fill:rgb(0%,0%,0%);fill-opacity:1;"><path id="path987" transform="translate(325.837,349.825)" d="M 6.5625 -2.296875 C 6.734375 -2.296875 6.921875 -2.296875 6.921875 -2.5 C 6.921875 -2.6875 6.734375 -2.6875 6.5625 -2.6875 L 1.171875 -2.6875 C 1 -2.6875 0.828125 -2.6875 0.828125 -2.5 C 0.828125 -2.296875 1 -2.296875 1.171875 -2.296875 Z M 6.5625 -2.296875" style="stroke:none;stroke-width:0"></path></g><g id="g993" style="fill:rgb(0%,0%,0%);fill-opacity:1;"><path id="path991" transform="translate(333.586,349.825)" d="M 1.265625 -0.765625 L 2.328125 -1.796875 C 3.875 -3.171875 4.46875 -3.703125 4.46875 -4.703125 C 4.46875 -5.84375 3.578125 -6.640625 2.359375 -6.640625 C 1.234375 -6.640625 0.5 -5.71875 0.5 -4.828125 C 0.5 -4.28125 1 -4.28125 1.03125 -4.28125 C 1.203125 -4.28125 1.546875 -4.390625 1.546875 -4.8125 C 1.546875 -5.0625 1.359375 -5.328125 1.015625 -5.328125 C 0.9375 -5.328125 0.921875 -5.328125 0.890625 -5.3125 C 1.109375 -5.96875 1.65625 -6.328125 2.234375 -6.328125 C 3.140625 -6.328125 3.5625 -5.515625 3.5625 -4.703125 C 3.5625 -3.90625 3.078125 -3.125 2.515625 -2.5 L 0.609375 -0.375 C 0.5 -0.265625 0.5 -0.234375 0.5 0 L 4.203125 0 L 4.46875 -1.734375 L 4.234375 -1.734375 C 4.171875 -1.4375 4.109375 -1 4 -0.84375 C 3.9375 -0.765625 3.28125 -0.765625 3.0625 -0.765625 Z M 1.265625 -0.765625" style="stroke:none;stroke-width:0"></path></g><g id="g997" style="fill:rgb(0%,0%,0%);fill-opacity:1;"><path id="path995" transform="translate(325.837,329.468)" d="M 6.5625 -2.296875 C 6.734375 -2.296875 6.921875 -2.296875 6.921875 -2.5 C 6.921875 -2.6875 6.734375 -2.6875 6.5625 -2.6875 L 1.171875 -2.6875 C 1 -2.6875 0.828125 -2.6875 0.828125 -2.5 C 0.828125 -2.296875 1 -2.296875 1.171875 -2.296875 Z M 6.5625 -2.296875" style="stroke:none;stroke-width:0"></path></g><g id="g1001" style="fill:rgb(0%,0%,0%);fill-opacity:1;"><path id="path999" transform="translate(333.586,329.468)" d="M 2.9375 -6.375 C 2.9375 -6.625 2.9375 -6.640625 2.703125 -6.640625 C 2.078125 -6 1.203125 -6 0.890625 -6 L 0.890625 -5.6875 C 1.09375 -5.6875 1.671875 -5.6875 2.1875 -5.953125 L 2.1875 -0.78125 C 2.1875 -0.421875 2.15625 -0.3125 1.265625 -0.3125 L 0.953125 -0.3125 L 0.953125 0 C 1.296875 -0.03125 2.15625 -0.03125 2.5625 -0.03125 C 2.953125 -0.03125 3.828125 -0.03125 4.171875 0 L 4.171875 -0.3125 L 3.859375 -0.3125 C 2.953125 -0.3125 2.9375 -0.421875 2.9375 -0.78125 Z M 2.9375 -6.375" style="stroke:none;stroke-width:0"></path></g><g id="g1005" style="fill:rgb(0%,0%,0%);fill-opacity:1;"><path id="path1003" transform="translate(333.586,289.169)" d="M 2.9375 -6.375 C 2.9375 -6.625 2.9375 -6.640625 2.703125 -6.640625 C 2.078125 -6 1.203125 -6 0.890625 -6 L 0.890625 -5.6875 C 1.09375 -5.6875 1.671875 -5.6875 2.1875 -5.953125 L 2.1875 -0.78125 C 2.1875 -0.421875 2.15625 -0.3125 1.265625 -0.3125 L 0.953125 -0.3125 L 0.953125 0 C 1.296875 -0.03125 2.15625 -0.03125 2.5625 -0.03125 C 2.953125 -0.03125 3.828125 -0.03125 4.171875 0 L 4.171875 -0.3125 L 3.859375 -0.3125 C 2.953125 -0.3125 2.9375 -0.421875 2.9375 -0.78125 Z M 2.9375 -6.375" style="stroke:none;stroke-width:0"></path></g><g id="g1009" style="fill:rgb(0%,0%,0%);fill-opacity:1;"><path id="path1007" transform="translate(333.586,268.812)" d="M 1.265625 -0.765625 L 2.328125 -1.796875 C 3.875 -3.171875 4.46875 -3.703125 4.46875 -4.703125 C 4.46875 -5.84375 3.578125 -6.640625 2.359375 -6.640625 C 1.234375 -6.640625 0.5 -5.71875 0.5 -4.828125 C 0.5 -4.28125 1 -4.28125 1.03125 -4.28125 C 1.203125 -4.28125 1.546875 -4.390625 1.546875 -4.8125 C 1.546875 -5.0625 1.359375 -5.328125 1.015625 -5.328125 C 0.9375 -5.328125 0.921875 -5.328125 0.890625 -5.3125 C 1.109375 -5.96875 1.65625 -6.328125 2.234375 -6.328125 C 3.140625 -6.328125 3.5625 -5.515625 3.5625 -4.703125 C 3.5625 -3.90625 3.078125 -3.125 2.515625 -2.5 L 0.609375 -0.375 C 0.5 -0.265625 0.5 -0.234375 0.5 0 L 4.203125 0 L 4.46875 -1.734375 L 4.234375 -1.734375 C 4.171875 -1.4375 4.109375 -1 4 -0.84375 C 3.9375 -0.765625 3.28125 -0.765625 3.0625 -0.765625 Z M 1.265625 -0.765625" style="stroke:none;stroke-width:0"></path></g><g id="g1013" style="fill:rgb(0%,0%,0%);fill-opacity:1;"><path id="path1011" transform="translate(333.586,248.455)" d="M 2.890625 -3.515625 C 3.703125 -3.78125 4.28125 -4.46875 4.28125 -5.265625 C 4.28125 -6.078125 3.40625 -6.640625 2.453125 -6.640625 C 1.453125 -6.640625 0.6875 -6.046875 0.6875 -5.28125 C 0.6875 -4.953125 0.90625 -4.765625 1.203125 -4.765625 C 1.5 -4.765625 1.703125 -4.984375 1.703125 -5.28125 C 1.703125 -5.765625 1.234375 -5.765625 1.09375 -5.765625 C 1.390625 -6.265625 2.046875 -6.390625 2.40625 -6.390625 C 2.828125 -6.390625 3.375 -6.171875 3.375 -5.28125 C 3.375 -5.15625 3.34375 -4.578125 3.09375 -4.140625 C 2.796875 -3.65625 2.453125 -3.625 2.203125 -3.625 C 2.125 -3.609375 1.890625 -3.59375 1.8125 -3.59375 C 1.734375 -3.578125 1.671875 -3.5625 1.671875 -3.46875 C 1.671875 -3.359375 1.734375 -3.359375 1.90625 -3.359375 L 2.34375 -3.359375 C 3.15625 -3.359375 3.53125 -2.6875 3.53125 -1.703125 C 3.53125 -0.34375 2.84375 -0.0625 2.40625 -0.0625 C 1.96875 -0.0625 1.21875 -0.234375 0.875 -0.8125 C 1.21875 -0.765625 1.53125 -0.984375 1.53125 -1.359375 C 1.53125 -1.71875 1.265625 -1.921875 0.984375 -1.921875 C 0.734375 -1.921875 0.421875 -1.78125 0.421875 -1.34375 C 0.421875 -0.4375 1.34375 0.21875 2.4375 0.21875 C 3.65625 0.21875 4.5625 -0.6875 4.5625 -1.703125 C 4.5625 -2.515625 3.921875 -3.296875 2.890625 -3.515625 Z M 2.890625 -3.515625" style="stroke:none;stroke-width:0"></path></g><g id="g1017" style="fill:rgb(0%,0%,0%);fill-opacity:1;"><path id="path1015" transform="translate(333.586,228.098)" d="M 2.9375 -1.640625 L 2.9375 -0.78125 C 2.9375 -0.421875 2.90625 -0.3125 2.171875 -0.3125 L 1.96875 -0.3125 L 1.96875 0 C 2.375 -0.03125 2.890625 -0.03125 3.3125 -0.03125 C 3.734375 -0.03125 4.25 -0.03125 4.671875 0 L 4.671875 -0.3125 L 4.453125 -0.3125 C 3.71875 -0.3125 3.703125 -0.421875 3.703125 -0.78125 L 3.703125 -1.640625 L 4.6875 -1.640625 L 4.6875 -1.953125 L 3.703125 -1.953125 L 3.703125 -6.484375 C 3.703125 -6.6875 3.703125 -6.75 3.53125 -6.75 C 3.453125 -6.75 3.421875 -6.75 3.34375 -6.625 L 0.28125 -1.953125 L 0.28125 -1.640625 Z M 2.984375 -1.953125 L 0.5625 -1.953125 L 2.984375 -5.671875 Z M 2.984375 -1.953125" style="stroke:none;stroke-width:0"></path></g><g id="g1021" style="fill:rgb(0%,0%,0%);fill-opacity:1;"><path id="path1019" transform="translate(333.586,207.741)" d="M 4.46875 -2 C 4.46875 -3.1875 3.65625 -4.1875 2.578125 -4.1875 C 2.109375 -4.1875 1.671875 -4.03125 1.3125 -3.671875 L 1.3125 -5.625 C 1.515625 -5.5625 1.84375 -5.5 2.15625 -5.5 C 3.390625 -5.5 4.09375 -6.40625 4.09375 -6.53125 C 4.09375 -6.59375 4.0625 -6.640625 3.984375 -6.640625 C 3.984375 -6.640625 3.953125 -6.640625 3.90625 -6.609375 C 3.703125 -6.515625 3.21875 -6.3125 2.546875 -6.3125 C 2.15625 -6.3125 1.6875 -6.390625 1.21875 -6.59375 C 1.140625 -6.625 1.125 -6.625 1.109375 -6.625 C 1 -6.625 1 -6.546875 1 -6.390625 L 1 -3.4375 C 1 -3.265625 1 -3.1875 1.140625 -3.1875 C 1.21875 -3.1875 1.234375 -3.203125 1.28125 -3.265625 C 1.390625 -3.421875 1.75 -3.96875 2.5625 -3.96875 C 3.078125 -3.96875 3.328125 -3.515625 3.40625 -3.328125 C 3.5625 -2.953125 3.59375 -2.578125 3.59375 -2.078125 C 3.59375 -1.71875 3.59375 -1.125 3.34375 -0.703125 C 3.109375 -0.3125 2.734375 -0.0625 2.28125 -0.0625 C 1.5625 -0.0625 0.984375 -0.59375 0.8125 -1.171875 C 0.84375 -1.171875 0.875 -1.15625 0.984375 -1.15625 C 1.3125 -1.15625 1.484375 -1.40625 1.484375 -1.640625 C 1.484375 -1.890625 1.3125 -2.140625 0.984375 -2.140625 C 0.84375 -2.140625 0.5 -2.0625 0.5 -1.609375 C 0.5 -0.75 1.1875 0.21875 2.296875 0.21875 C 3.453125 0.21875 4.46875 -0.734375 4.46875 -2 Z M 4.46875 -2" style="stroke:none;stroke-width:0"></path></g><g id="g1025" clip-rule="nonzero" clip-path="url('#clip1')"><path id="path1023" transform="matrix(1,0,0,-1,-142.122,408.101)" d="M 0.00090625 8244.714281 L 3.254812 8136.147875 L 6.504812 8028.308031 L 9.758719 7921.186937 L 13.012625 7814.808031 L 16.266531 7709.155687 L 19.516531 7604.229906 L 22.770437 7500.034594 L 26.024344 7396.558031 L 29.27825 7293.81975 L 32.532156 7191.811937 L 35.782156 7090.530687 L 39.036062 6989.979906 L 42.289969 6890.143969 L 45.543875 6791.050219 L 48.797781 6692.683031 L 52.047781 6595.046312 L 55.301687 6498.136156 L 58.555594 6401.94475 L 61.8095 6306.495531 L 65.0595 6211.772875 L 68.313406 6117.776781 L 71.567312 6024.511156 L 74.821219 5931.964281 L 78.075125 5840.155687 L 81.325125 5749.077562 L 84.579031 5658.726 L 87.832937 5569.101 L 91.086844 5480.198656 L 94.34075 5392.034594 L 97.59075 5304.597094 L 100.844656 5217.886156 L 104.098562 5131.909594 L 107.352469 5046.647875 L 110.602469 4962.124437 L 113.856375 4878.331469 L 117.110281 4795.268969 L 120.364187 4712.929125 L 123.618094 4631.315844 L 126.868094 4550.433031 L 130.122 4470.284594 L 133.375906 4390.862719 L 136.629812 4312.171312 L 139.879812 4234.19475 L 143.133719 4156.960375 L 146.387625 4080.452563 L 149.641531 4004.675219 L 152.895437 3929.624438 L 156.145437 3855.292406 L 159.399344 3781.702563 L 162.65325 3708.835375 L 165.907156 3636.702563 L 169.161062 3565.292406 L 172.411062 3494.608813 L 175.664969 3424.659594 L 178.918875 3355.436938 L 182.172781 3286.94475 L 185.422781 3219.179125 L 188.676687 3152.136156 L 191.930594 3085.831469 L 195.1845 3020.253344 L 198.438406 2955.401781 L 201.688406 2891.284594 L 204.942312 2827.88225 L 208.196219 2765.218188 L 211.450125 2703.284594 L 214.704031 2642.077563 L 217.954031 2581.601 L 221.207937 2521.847094 L 224.461844 2462.823656 L 227.71575 2404.534594 L 230.96575 2346.972094 L 234.219656 2290.136156 L 237.473562 2234.022875 L 240.727469 2178.647875 L 243.981375 2123.999438 L 247.231375 2070.077563 L 250.485281 2016.88225 L 253.739187 1964.421313 L 256.993094 1912.683031 L 260.243094 1861.679125 L 263.497 1811.397875 L 266.750906 1761.851 L 270.004812 1713.030688 L 273.258719 1664.936938 L 276.508719 1617.573656 L 279.762625 1570.936938 L 283.016531 1525.034594 L 286.270437 1479.854906 L 289.524344 1435.405688 L 292.774344 1391.686938 L 296.02825 1348.69475 L 299.282156 1306.429125 L 302.536062 1264.897875 L 305.786062 1224.089281 L 309.039969 1184.015063 L 312.293875 1144.6635 L 315.547781 1106.046313 L 318.801687 1068.155688 L 322.051687 1030.991625 L 325.305594 994.558031 L 328.5595 958.851 L 331.813406 923.874438 L 335.067312 889.628344 L 338.317312 856.108813 L 341.571219 823.315844 L 344.825125 791.25725 L 348.079031 759.921313 L 351.329031 729.315844 L 354.582937 699.440844 L 357.836844 670.292406 L 361.09075 641.874438 L 364.344656 614.183031 L 367.594656 587.222094 L 370.848562 560.991625 L 374.102469 535.483813 L 377.356375 510.710375 L 380.610281 486.6635 L 383.860281 463.343188 L 387.114187 440.753344 L 390.368094 418.893969 L 393.622 397.761156 L 396.872 377.358813 L 400.125906 357.683031 L 403.379812 338.733813 L 406.633719 320.518969 L 409.887625 303.026781 L 413.137625 286.268969 L 416.391531 270.233813 L 419.645437 254.933031 L 422.899344 240.358813 L 426.149344 226.511156 L 429.40325 213.393969 L 432.657156 201.003344 L 435.911062 189.343188 L 439.164969 178.4135 L 442.414969 168.210375 L 445.668875 158.737719 L 448.922781 149.991625 L 452.176687 141.972094 L 455.430594 134.686938 L 458.680594 128.124438 L 461.9345 122.292406 L 465.188406 117.190844 L 468.442312 112.81975 L 471.692312 109.171313 L 474.946219 106.25725 L 478.200125 104.06975 L 481.454031 102.608813 L 484.707937 101.878344 L 487.957937 101.878344 L 491.211844 102.604906 L 494.46575 104.058031 L 497.719656 106.241625 L 500.973562 109.155688 L 504.223562 112.796313 L 507.477469 117.167406 L 510.731375 122.265063 L 513.985281 128.093188 L 517.235281 134.647875 L 520.489187 141.933031 L 523.743094 149.94475 L 526.997 158.686938 L 530.250906 168.155688 L 533.500906 178.354906 L 536.754812 189.284594 L 540.008719 200.940844 L 543.262625 213.323656 L 546.516531 226.436938 L 549.766531 240.280688 L 553.020437 254.851 L 556.274344 270.151781 L 559.52825 286.179125 L 562.77825 302.936938 L 566.032156 320.421313 L 569.286062 338.636156 L 572.539969 357.577563 L 575.793875 377.249438 L 579.043875 397.647875 L 582.297781 418.776781 L 585.551687 440.636156 L 588.805594 463.222094 L 592.055594 486.534594 L 595.3095 510.577563 L 598.563406 535.351 L 601.817312 560.851 L 605.071219 587.081469 L 608.321219 614.0385 L 611.575125 641.726 L 614.829031 670.140063 L 618.082937 699.284594 L 621.336844 729.155688 L 624.586844 759.75725 L 627.84075 791.085375 L 631.094656 823.143969 L 634.348562 855.929125 L 637.598562 889.44475 L 640.852469 923.690844 L 644.106375 958.6635 L 647.360281 994.362719 L 650.614187 1030.792406 L 653.864187 1067.952563 L 657.118094 1105.839281 L 660.372 1144.456469 L 663.625906 1183.800219 L 666.879812 1223.874438 L 670.129812 1264.675219 L 673.383719 1306.206469 L 676.637625 1348.464281 L 679.891531 1391.452563 L 683.141531 1435.167406 L 686.395437 1479.612719 L 689.649344 1524.7885 L 692.90325 1570.690844 L 696.157156 1617.31975 L 699.407156 1664.679125 L 702.661062 1712.768969 L 705.914969 1761.585375 L 709.168875 1811.13225 L 712.422781 1861.405688 L 715.672781 1912.409594 L 718.926687 1964.140063 L 722.180594 2016.601 L 725.4345 2069.7885 L 728.6845 2123.706469 L 731.938406 2178.351 L 735.192312 2233.726 L 738.446219 2289.831469 L 741.700125 2346.6635 L 744.950125 2404.222094 L 748.204031 2462.511156 L 751.457937 2521.526781 L 754.711844 2581.280688 L 757.961844 2641.753344 L 761.21575 2702.956469 L 764.469656 2764.886156 L 767.723562 2827.546313 L 770.977469 2890.933031 L 774.227469 2955.058031 L 777.481375 3019.901781 L 780.735281 3085.476 L 783.989187 3151.780688 L 787.243094 3218.811938 L 790.493094 3286.577563 L 793.747 3355.06975 L 797.000906 3424.284594 L 800.254812 3494.229906 L 803.504812 3564.9135 L 806.758719 3636.315844 L 810.012625 3708.448656 L 813.266531 3781.308031 L 816.520437 3854.897875 L 819.770437 3929.214281 L 823.024344 4004.268969 L 826.27825 4080.046313 L 829.532156 4156.546312 L 832.786062 4233.780687 L 836.036062 4311.741625 L 839.289969 4390.436937 L 842.543875 4469.854906 L 845.797781 4550.003344 L 849.047781 4630.878344 L 852.301687 4712.491625 L 855.555594 4794.823656 L 858.8095 4877.886156 L 862.063406 4961.675219 L 865.313406 5046.19475 L 868.567312 5131.448656 L 871.821219 5217.425219 L 875.075125 5304.128344 L 878.325125 5391.561937 L 881.579031 5479.722094 L 884.832937 5568.612719 L 888.086844 5658.241625 L 891.34075 5748.589281 L 894.59075 5839.6635 L 897.844656 5931.468187 L 901.098562 6024.003344 L 904.352469 6117.276781 L 907.606375 6211.265062 L 910.856375 6305.983812 L 914.110281 6401.433031 L 917.364187 6497.620531 L 920.618094 6594.522875 L 923.868094 6692.155687 L 927.122 6790.518969 L 930.375906 6889.608812 L 933.629812 6989.429125 L 936.883719 7089.987719 L 940.133719 7191.265062 L 943.387625 7293.272875 L 946.641531 7396.003344 L 949.895437 7499.468187 L 953.149344 7603.671312 L 956.399344 7708.589281 L 959.65325 7814.237719 L 962.907156 7920.616625 L 966.161062 8027.733812 L 969.411062 8135.565844 L 972.664969 8244.128344" style="fill:none;stroke-width:1.19553;stroke-linecap:butt;stroke-linejoin:miter;stroke:rgb(0%,0%,100%);stroke-opacity:1;stroke-miterlimit:10;"></path></g></g></g></g></svg> 