<?xml version="1.0" encoding="UTF-8"?> <svg xmlns:cc="http://creativecommons.org/ns#" xmlns:rdf="http://www.w3.org/1999/02/22-rdf-syntax-ns#" xmlns:svg="http://www.w3.org/2000/svg" xmlns="http://www.w3.org/2000/svg" xmlns:sodipodi="http://sodipodi.sourceforge.net/DTD/sodipodi-0.dtd" xmlns:inkscape="http://www.inkscape.org/namespaces/inkscape" width="152.22169mm" height="127.95139mm" viewBox="0 0 152.22169 127.95139" version="1.1" id="svg8"><defs id="defs2"></defs><metadata id="metadata5"></metadata><g id="layer1" transform="translate(44.921368,-1106.0104)"><g id="g1028" scale="1.66150538703" version="0.11.0" transform="matrix(0.586142,0.000000,0.000000,0.586142,-170.436630,991.085421)"><g id="surface1"><path id="path887" transform="matrix(1,0,0,-1,-142.122,9304.135)" d="M 364.754812 8896.146719 L 364.754812 9099.720938 M 389.075125 8896.146719 L 389.075125 9099.720938 M 413.391531 8896.146719 L 413.391531 9099.720938 M 437.707937 8896.146719 L 437.707937 9099.720938 M 462.024344 8896.146719 L 462.024344 9099.720938 M 510.657156 8896.146719 L 510.657156 9099.720938 M 534.977469 8896.146719 L 534.977469 9099.720938 M 559.293875 8896.146719 L 559.293875 9099.720938 M 583.610281 8896.146719 L 583.610281 9099.720938 M 607.926687 8896.146719 L 607.926687 9099.720938" style="fill:none;stroke-width:0.3985;stroke-linecap:butt;stroke-linejoin:miter;stroke:rgb(75%,75%,75%);stroke-opacity:1;stroke-miterlimit:10;"></path><path id="path889" transform="matrix(1,0,0,-1,-142.122,9304.135)" d="M 364.754812 8896.146719 L 607.926687 8896.146719 M 364.754812 8916.506094 L 607.926687 8916.506094 M 364.754812 8936.861563 L 607.926687 8936.861563 M 364.754812 8957.220938 L 607.926687 8957.220938 M 364.754812 8977.576406 L 607.926687 8977.576406 M 364.754812 9018.29125 L 607.926687 9018.29125 M 364.754812 9038.650625 L 607.926687 9038.650625 M 364.754812 9059.006094 L 607.926687 9059.006094 M 364.754812 9079.365469 L 607.926687 9079.365469 M 364.754812 9099.720938 L 607.926687 9099.720938" style="fill:none;stroke-width:0.3985;stroke-linecap:butt;stroke-linejoin:miter;stroke:rgb(75%,75%,75%);stroke-opacity:1;stroke-miterlimit:10;"></path><path id="path891" transform="matrix(1,0,0,-1,-142.122,9304.135)" d="M 364.754812 8995.810781 L 364.754812 9000.060781 M 389.075125 8995.810781 L 389.075125 9000.060781 M 413.391531 8995.810781 L 413.391531 9000.060781 M 437.707937 8995.810781 L 437.707937 9000.060781 M 462.024344 8995.810781 L 462.024344 9000.060781 M 510.657156 8995.810781 L 510.657156 9000.060781 M 534.977469 8995.810781 L 534.977469 9000.060781 M 559.293875 8995.810781 L 559.293875 9000.060781 M 583.610281 8995.810781 L 583.610281 9000.060781 M 607.926687 8995.810781 L 607.926687 9000.060781" style="fill:none;stroke-width:0.19925;stroke-linecap:butt;stroke-linejoin:miter;stroke:rgb(50%,50%,50%);stroke-opacity:1;stroke-miterlimit:10;"></path><path id="path893" transform="matrix(1,0,0,-1,-142.122,9304.135)" d="M 484.21575 8896.146719 L 488.469656 8896.146719 M 484.21575 8916.506094 L 488.469656 8916.506094 M 484.21575 8936.861563 L 488.469656 8936.861563 M 484.21575 8957.220938 L 488.469656 8957.220938 M 484.21575 8977.576406 L 488.469656 8977.576406 M 484.21575 9018.29125 L 488.469656 9018.29125 M 484.21575 9038.650625 L 488.469656 9038.650625 M 484.21575 9059.006094 L 488.469656 9059.006094 M 484.21575 9079.365469 L 488.469656 9079.365469 M 484.21575 9099.720938 L 488.469656 9099.720938" style="fill:none;stroke-width:0.19925;stroke-linecap:butt;stroke-linejoin:miter;stroke:rgb(50%,50%,50%);stroke-opacity:1;stroke-miterlimit:10;"></path><path id="path895" transform="matrix(1,0,0,-1,-142.122,9304.135)" d="M 364.754812 8997.935781 L 605.9345 8997.935781" style="fill:none;stroke-width:0.3985;stroke-linecap:butt;stroke-linejoin:miter;stroke:rgb(0%,0%,0%);stroke-opacity:1;stroke-miterlimit:10;"></path><path id="path897" d="M 465.804688 306.199219 L 462.617188 304.605469 L 463.8125 306.199219 L 462.617188 307.792969" style="fill-opacity:1;stroke:none;fill:rgb(0%,0%,0%);stroke-width:0;fill-rule:nonzero"></path><path id="path899" transform="matrix(1,0,0,-1,-142.122,9304.135)" d="M 486.34075 8896.146719 L 486.34075 9097.72875" style="fill:none;stroke-width:0.3985;stroke-linecap:butt;stroke-linejoin:miter;stroke:rgb(0%,0%,0%);stroke-opacity:1;stroke-miterlimit:10;"></path><path id="path901" d="M 344.21875 204.414063 L 342.625 207.601563 L 344.21875 206.40625 L 345.8125 207.601563" style="fill-opacity:1;stroke:none;fill:rgb(0%,0%,0%);stroke-width:0;fill-rule:nonzero"></path><g id="g905" style="fill:rgb(0%,0%,0%);fill-opacity:1;"><path id="path903" transform="translate(216.265,318.38)" d="M 6.5625 -2.296875 C 6.734375 -2.296875 6.921875 -2.296875 6.921875 -2.5 C 6.921875 -2.6875 6.734375 -2.6875 6.5625 -2.6875 L 1.171875 -2.6875 C 1 -2.6875 0.828125 -2.6875 0.828125 -2.5 C 0.828125 -2.296875 1 -2.296875 1.171875 -2.296875 Z M 6.5625 -2.296875" style="stroke:none;stroke-width:0"></path></g><g id="g909" style="fill:rgb(0%,0%,0%);fill-opacity:1;"><path id="path907" transform="translate(224.013,318.38)" d="M 4.46875 -2 C 4.46875 -3.1875 3.65625 -4.1875 2.578125 -4.1875 C 2.109375 -4.1875 1.671875 -4.03125 1.3125 -3.671875 L 1.3125 -5.625 C 1.515625 -5.5625 1.84375 -5.5 2.15625 -5.5 C 3.390625 -5.5 4.09375 -6.40625 4.09375 -6.53125 C 4.09375 -6.59375 4.0625 -6.640625 3.984375 -6.640625 C 3.984375 -6.640625 3.953125 -6.640625 3.90625 -6.609375 C 3.703125 -6.515625 3.21875 -6.3125 2.546875 -6.3125 C 2.15625 -6.3125 1.6875 -6.390625 1.21875 -6.59375 C 1.140625 -6.625 1.125 -6.625 1.109375 -6.625 C 1 -6.625 1 -6.546875 1 -6.390625 L 1 -3.4375 C 1 -3.265625 1 -3.1875 1.140625 -3.1875 C 1.21875 -3.1875 1.234375 -3.203125 1.28125 -3.265625 C 1.390625 -3.421875 1.75 -3.96875 2.5625 -3.96875 C 3.078125 -3.96875 3.328125 -3.515625 3.40625 -3.328125 C 3.5625 -2.953125 3.59375 -2.578125 3.59375 -2.078125 C 3.59375 -1.71875 3.59375 -1.125 3.34375 -0.703125 C 3.109375 -0.3125 2.734375 -0.0625 2.28125 -0.0625 C 1.5625 -0.0625 0.984375 -0.59375 0.8125 -1.171875 C 0.84375 -1.171875 0.875 -1.15625 0.984375 -1.15625 C 1.3125 -1.15625 1.484375 -1.40625 1.484375 -1.640625 C 1.484375 -1.890625 1.3125 -2.140625 0.984375 -2.140625 C 0.84375 -2.140625 0.5 -2.0625 0.5 -1.609375 C 0.5 -0.75 1.1875 0.21875 2.296875 0.21875 C 3.453125 0.21875 4.46875 -0.734375 4.46875 -2 Z M 4.46875 -2" style="stroke:none;stroke-width:0"></path></g><g id="g913" style="fill:rgb(0%,0%,0%);fill-opacity:1;"><path id="path911" transform="translate(240.581,318.38)" d="M 6.5625 -2.296875 C 6.734375 -2.296875 6.921875 -2.296875 6.921875 -2.5 C 6.921875 -2.6875 6.734375 -2.6875 6.5625 -2.6875 L 1.171875 -2.6875 C 1 -2.6875 0.828125 -2.6875 0.828125 -2.5 C 0.828125 -2.296875 1 -2.296875 1.171875 -2.296875 Z M 6.5625 -2.296875" style="stroke:none;stroke-width:0"></path></g><g id="g917" style="fill:rgb(0%,0%,0%);fill-opacity:1;"><path id="path915" transform="translate(248.33,318.38)" d="M 2.9375 -1.640625 L 2.9375 -0.78125 C 2.9375 -0.421875 2.90625 -0.3125 2.171875 -0.3125 L 1.96875 -0.3125 L 1.96875 0 C 2.375 -0.03125 2.890625 -0.03125 3.3125 -0.03125 C 3.734375 -0.03125 4.25 -0.03125 4.671875 0 L 4.671875 -0.3125 L 4.453125 -0.3125 C 3.71875 -0.3125 3.703125 -0.421875 3.703125 -0.78125 L 3.703125 -1.640625 L 4.6875 -1.640625 L 4.6875 -1.953125 L 3.703125 -1.953125 L 3.703125 -6.484375 C 3.703125 -6.6875 3.703125 -6.75 3.53125 -6.75 C 3.453125 -6.75 3.421875 -6.75 3.34375 -6.625 L 0.28125 -1.953125 L 0.28125 -1.640625 Z M 2.984375 -1.953125 L 0.5625 -1.953125 L 2.984375 -5.671875 Z M 2.984375 -1.953125" style="stroke:none;stroke-width:0"></path></g><g id="g921" style="fill:rgb(0%,0%,0%);fill-opacity:1;"><path id="path919" transform="translate(264.898,318.38)" d="M 6.5625 -2.296875 C 6.734375 -2.296875 6.921875 -2.296875 6.921875 -2.5 C 6.921875 -2.6875 6.734375 -2.6875 6.5625 -2.6875 L 1.171875 -2.6875 C 1 -2.6875 0.828125 -2.6875 0.828125 -2.5 C 0.828125 -2.296875 1 -2.296875 1.171875 -2.296875 Z M 6.5625 -2.296875" style="stroke:none;stroke-width:0"></path></g><g id="g925" style="fill:rgb(0%,0%,0%);fill-opacity:1;"><path id="path923" transform="translate(272.647,318.38)" d="M 2.890625 -3.515625 C 3.703125 -3.78125 4.28125 -4.46875 4.28125 -5.265625 C 4.28125 -6.078125 3.40625 -6.640625 2.453125 -6.640625 C 1.453125 -6.640625 0.6875 -6.046875 0.6875 -5.28125 C 0.6875 -4.953125 0.90625 -4.765625 1.203125 -4.765625 C 1.5 -4.765625 1.703125 -4.984375 1.703125 -5.28125 C 1.703125 -5.765625 1.234375 -5.765625 1.09375 -5.765625 C 1.390625 -6.265625 2.046875 -6.390625 2.40625 -6.390625 C 2.828125 -6.390625 3.375 -6.171875 3.375 -5.28125 C 3.375 -5.15625 3.34375 -4.578125 3.09375 -4.140625 C 2.796875 -3.65625 2.453125 -3.625 2.203125 -3.625 C 2.125 -3.609375 1.890625 -3.59375 1.8125 -3.59375 C 1.734375 -3.578125 1.671875 -3.5625 1.671875 -3.46875 C 1.671875 -3.359375 1.734375 -3.359375 1.90625 -3.359375 L 2.34375 -3.359375 C 3.15625 -3.359375 3.53125 -2.6875 3.53125 -1.703125 C 3.53125 -0.34375 2.84375 -0.0625 2.40625 -0.0625 C 1.96875 -0.0625 1.21875 -0.234375 0.875 -0.8125 C 1.21875 -0.765625 1.53125 -0.984375 1.53125 -1.359375 C 1.53125 -1.71875 1.265625 -1.921875 0.984375 -1.921875 C 0.734375 -1.921875 0.421875 -1.78125 0.421875 -1.34375 C 0.421875 -0.4375 1.34375 0.21875 2.4375 0.21875 C 3.65625 0.21875 4.5625 -0.6875 4.5625 -1.703125 C 4.5625 -2.515625 3.921875 -3.296875 2.890625 -3.515625 Z M 2.890625 -3.515625" style="stroke:none;stroke-width:0"></path></g><g id="g929" style="fill:rgb(0%,0%,0%);fill-opacity:1;"><path id="path927" transform="translate(289.215,318.38)" d="M 6.5625 -2.296875 C 6.734375 -2.296875 6.921875 -2.296875 6.921875 -2.5 C 6.921875 -2.6875 6.734375 -2.6875 6.5625 -2.6875 L 1.171875 -2.6875 C 1 -2.6875 0.828125 -2.6875 0.828125 -2.5 C 0.828125 -2.296875 1 -2.296875 1.171875 -2.296875 Z M 6.5625 -2.296875" style="stroke:none;stroke-width:0"></path></g><g id="g933" style="fill:rgb(0%,0%,0%);fill-opacity:1;"><path id="path931" transform="translate(296.964,318.38)" d="M 1.265625 -0.765625 L 2.328125 -1.796875 C 3.875 -3.171875 4.46875 -3.703125 4.46875 -4.703125 C 4.46875 -5.84375 3.578125 -6.640625 2.359375 -6.640625 C 1.234375 -6.640625 0.5 -5.71875 0.5 -4.828125 C 0.5 -4.28125 1 -4.28125 1.03125 -4.28125 C 1.203125 -4.28125 1.546875 -4.390625 1.546875 -4.8125 C 1.546875 -5.0625 1.359375 -5.328125 1.015625 -5.328125 C 0.9375 -5.328125 0.921875 -5.328125 0.890625 -5.3125 C 1.109375 -5.96875 1.65625 -6.328125 2.234375 -6.328125 C 3.140625 -6.328125 3.5625 -5.515625 3.5625 -4.703125 C 3.5625 -3.90625 3.078125 -3.125 2.515625 -2.5 L 0.609375 -0.375 C 0.5 -0.265625 0.5 -0.234375 0.5 0 L 4.203125 0 L 4.46875 -1.734375 L 4.234375 -1.734375 C 4.171875 -1.4375 4.109375 -1 4 -0.84375 C 3.9375 -0.765625 3.28125 -0.765625 3.0625 -0.765625 Z M 1.265625 -0.765625" style="stroke:none;stroke-width:0"></path></g><g id="g937" style="fill:rgb(0%,0%,0%);fill-opacity:1;"><path id="path935" transform="translate(313.532,318.38)" d="M 6.5625 -2.296875 C 6.734375 -2.296875 6.921875 -2.296875 6.921875 -2.5 C 6.921875 -2.6875 6.734375 -2.6875 6.5625 -2.6875 L 1.171875 -2.6875 C 1 -2.6875 0.828125 -2.6875 0.828125 -2.5 C 0.828125 -2.296875 1 -2.296875 1.171875 -2.296875 Z M 6.5625 -2.296875" style="stroke:none;stroke-width:0"></path></g><g id="g941" style="fill:rgb(0%,0%,0%);fill-opacity:1;"><path id="path939" transform="translate(321.28,318.38)" d="M 2.9375 -6.375 C 2.9375 -6.625 2.9375 -6.640625 2.703125 -6.640625 C 2.078125 -6 1.203125 -6 0.890625 -6 L 0.890625 -5.6875 C 1.09375 -5.6875 1.671875 -5.6875 2.1875 -5.953125 L 2.1875 -0.78125 C 2.1875 -0.421875 2.15625 -0.3125 1.265625 -0.3125 L 0.953125 -0.3125 L 0.953125 0 C 1.296875 -0.03125 2.15625 -0.03125 2.5625 -0.03125 C 2.953125 -0.03125 3.828125 -0.03125 4.171875 0 L 4.171875 -0.3125 L 3.859375 -0.3125 C 2.953125 -0.3125 2.9375 -0.421875 2.9375 -0.78125 Z M 2.9375 -6.375" style="stroke:none;stroke-width:0"></path></g><g id="g945" style="fill:rgb(0%,0%,0%);fill-opacity:1;"><path id="path943" transform="translate(366.04,318.38)" d="M 2.9375 -6.375 C 2.9375 -6.625 2.9375 -6.640625 2.703125 -6.640625 C 2.078125 -6 1.203125 -6 0.890625 -6 L 0.890625 -5.6875 C 1.09375 -5.6875 1.671875 -5.6875 2.1875 -5.953125 L 2.1875 -0.78125 C 2.1875 -0.421875 2.15625 -0.3125 1.265625 -0.3125 L 0.953125 -0.3125 L 0.953125 0 C 1.296875 -0.03125 2.15625 -0.03125 2.5625 -0.03125 C 2.953125 -0.03125 3.828125 -0.03125 4.171875 0 L 4.171875 -0.3125 L 3.859375 -0.3125 C 2.953125 -0.3125 2.9375 -0.421875 2.9375 -0.78125 Z M 2.9375 -6.375" style="stroke:none;stroke-width:0"></path></g><g id="g949" style="fill:rgb(0%,0%,0%);fill-opacity:1;"><path id="path947" transform="translate(390.356,318.38)" d="M 1.265625 -0.765625 L 2.328125 -1.796875 C 3.875 -3.171875 4.46875 -3.703125 4.46875 -4.703125 C 4.46875 -5.84375 3.578125 -6.640625 2.359375 -6.640625 C 1.234375 -6.640625 0.5 -5.71875 0.5 -4.828125 C 0.5 -4.28125 1 -4.28125 1.03125 -4.28125 C 1.203125 -4.28125 1.546875 -4.390625 1.546875 -4.8125 C 1.546875 -5.0625 1.359375 -5.328125 1.015625 -5.328125 C 0.9375 -5.328125 0.921875 -5.328125 0.890625 -5.3125 C 1.109375 -5.96875 1.65625 -6.328125 2.234375 -6.328125 C 3.140625 -6.328125 3.5625 -5.515625 3.5625 -4.703125 C 3.5625 -3.90625 3.078125 -3.125 2.515625 -2.5 L 0.609375 -0.375 C 0.5 -0.265625 0.5 -0.234375 0.5 0 L 4.203125 0 L 4.46875 -1.734375 L 4.234375 -1.734375 C 4.171875 -1.4375 4.109375 -1 4 -0.84375 C 3.9375 -0.765625 3.28125 -0.765625 3.0625 -0.765625 Z M 1.265625 -0.765625" style="stroke:none;stroke-width:0"></path></g><g id="g953" style="fill:rgb(0%,0%,0%);fill-opacity:1;"><path id="path951" transform="translate(414.673,318.38)" d="M 2.890625 -3.515625 C 3.703125 -3.78125 4.28125 -4.46875 4.28125 -5.265625 C 4.28125 -6.078125 3.40625 -6.640625 2.453125 -6.640625 C 1.453125 -6.640625 0.6875 -6.046875 0.6875 -5.28125 C 0.6875 -4.953125 0.90625 -4.765625 1.203125 -4.765625 C 1.5 -4.765625 1.703125 -4.984375 1.703125 -5.28125 C 1.703125 -5.765625 1.234375 -5.765625 1.09375 -5.765625 C 1.390625 -6.265625 2.046875 -6.390625 2.40625 -6.390625 C 2.828125 -6.390625 3.375 -6.171875 3.375 -5.28125 C 3.375 -5.15625 3.34375 -4.578125 3.09375 -4.140625 C 2.796875 -3.65625 2.453125 -3.625 2.203125 -3.625 C 2.125 -3.609375 1.890625 -3.59375 1.8125 -3.59375 C 1.734375 -3.578125 1.671875 -3.5625 1.671875 -3.46875 C 1.671875 -3.359375 1.734375 -3.359375 1.90625 -3.359375 L 2.34375 -3.359375 C 3.15625 -3.359375 3.53125 -2.6875 3.53125 -1.703125 C 3.53125 -0.34375 2.84375 -0.0625 2.40625 -0.0625 C 1.96875 -0.0625 1.21875 -0.234375 0.875 -0.8125 C 1.21875 -0.765625 1.53125 -0.984375 1.53125 -1.359375 C 1.53125 -1.71875 1.265625 -1.921875 0.984375 -1.921875 C 0.734375 -1.921875 0.421875 -1.78125 0.421875 -1.34375 C 0.421875 -0.4375 1.34375 0.21875 2.4375 0.21875 C 3.65625 0.21875 4.5625 -0.6875 4.5625 -1.703125 C 4.5625 -2.515625 3.921875 -3.296875 2.890625 -3.515625 Z M 2.890625 -3.515625" style="stroke:none;stroke-width:0"></path></g><g id="g957" style="fill:rgb(0%,0%,0%);fill-opacity:1;"><path id="path955" transform="translate(438.99,318.38)" d="M 2.9375 -1.640625 L 2.9375 -0.78125 C 2.9375 -0.421875 2.90625 -0.3125 2.171875 -0.3125 L 1.96875 -0.3125 L 1.96875 0 C 2.375 -0.03125 2.890625 -0.03125 3.3125 -0.03125 C 3.734375 -0.03125 4.25 -0.03125 4.671875 0 L 4.671875 -0.3125 L 4.453125 -0.3125 C 3.71875 -0.3125 3.703125 -0.421875 3.703125 -0.78125 L 3.703125 -1.640625 L 4.6875 -1.640625 L 4.6875 -1.953125 L 3.703125 -1.953125 L 3.703125 -6.484375 C 3.703125 -6.6875 3.703125 -6.75 3.53125 -6.75 C 3.453125 -6.75 3.421875 -6.75 3.34375 -6.625 L 0.28125 -1.953125 L 0.28125 -1.640625 Z M 2.984375 -1.953125 L 0.5625 -1.953125 L 2.984375 -5.671875 Z M 2.984375 -1.953125" style="stroke:none;stroke-width:0"></path></g><g id="g961" style="fill:rgb(0%,0%,0%);fill-opacity:1;"><path id="path959" transform="translate(463.307,318.38)" d="M 4.46875 -2 C 4.46875 -3.1875 3.65625 -4.1875 2.578125 -4.1875 C 2.109375 -4.1875 1.671875 -4.03125 1.3125 -3.671875 L 1.3125 -5.625 C 1.515625 -5.5625 1.84375 -5.5 2.15625 -5.5 C 3.390625 -5.5 4.09375 -6.40625 4.09375 -6.53125 C 4.09375 -6.59375 4.0625 -6.640625 3.984375 -6.640625 C 3.984375 -6.640625 3.953125 -6.640625 3.90625 -6.609375 C 3.703125 -6.515625 3.21875 -6.3125 2.546875 -6.3125 C 2.15625 -6.3125 1.6875 -6.390625 1.21875 -6.59375 C 1.140625 -6.625 1.125 -6.625 1.109375 -6.625 C 1 -6.625 1 -6.546875 1 -6.390625 L 1 -3.4375 C 1 -3.265625 1 -3.1875 1.140625 -3.1875 C 1.21875 -3.1875 1.234375 -3.203125 1.28125 -3.265625 C 1.390625 -3.421875 1.75 -3.96875 2.5625 -3.96875 C 3.078125 -3.96875 3.328125 -3.515625 3.40625 -3.328125 C 3.5625 -2.953125 3.59375 -2.578125 3.59375 -2.078125 C 3.59375 -1.71875 3.59375 -1.125 3.34375 -0.703125 C 3.109375 -0.3125 2.734375 -0.0625 2.28125 -0.0625 C 1.5625 -0.0625 0.984375 -0.59375 0.8125 -1.171875 C 0.84375 -1.171875 0.875 -1.15625 0.984375 -1.15625 C 1.3125 -1.15625 1.484375 -1.40625 1.484375 -1.640625 C 1.484375 -1.890625 1.3125 -2.140625 0.984375 -2.140625 C 0.84375 -2.140625 0.5 -2.0625 0.5 -1.609375 C 0.5 -0.75 1.1875 0.21875 2.296875 0.21875 C 3.453125 0.21875 4.46875 -0.734375 4.46875 -2 Z M 4.46875 -2" style="stroke:none;stroke-width:0"></path></g><g id="g965" style="fill:rgb(0%,0%,0%);fill-opacity:1;"><path id="path963" transform="translate(325.837,410.896)" d="M 6.5625 -2.296875 C 6.734375 -2.296875 6.921875 -2.296875 6.921875 -2.5 C 6.921875 -2.6875 6.734375 -2.6875 6.5625 -2.6875 L 1.171875 -2.6875 C 1 -2.6875 0.828125 -2.6875 0.828125 -2.5 C 0.828125 -2.296875 1 -2.296875 1.171875 -2.296875 Z M 6.5625 -2.296875" style="stroke:none;stroke-width:0"></path></g><g id="g969" style="fill:rgb(0%,0%,0%);fill-opacity:1;"><path id="path967" transform="translate(333.586,410.896)" d="M 4.46875 -2 C 4.46875 -3.1875 3.65625 -4.1875 2.578125 -4.1875 C 2.109375 -4.1875 1.671875 -4.03125 1.3125 -3.671875 L 1.3125 -5.625 C 1.515625 -5.5625 1.84375 -5.5 2.15625 -5.5 C 3.390625 -5.5 4.09375 -6.40625 4.09375 -6.53125 C 4.09375 -6.59375 4.0625 -6.640625 3.984375 -6.640625 C 3.984375 -6.640625 3.953125 -6.640625 3.90625 -6.609375 C 3.703125 -6.515625 3.21875 -6.3125 2.546875 -6.3125 C 2.15625 -6.3125 1.6875 -6.390625 1.21875 -6.59375 C 1.140625 -6.625 1.125 -6.625 1.109375 -6.625 C 1 -6.625 1 -6.546875 1 -6.390625 L 1 -3.4375 C 1 -3.265625 1 -3.1875 1.140625 -3.1875 C 1.21875 -3.1875 1.234375 -3.203125 1.28125 -3.265625 C 1.390625 -3.421875 1.75 -3.96875 2.5625 -3.96875 C 3.078125 -3.96875 3.328125 -3.515625 3.40625 -3.328125 C 3.5625 -2.953125 3.59375 -2.578125 3.59375 -2.078125 C 3.59375 -1.71875 3.59375 -1.125 3.34375 -0.703125 C 3.109375 -0.3125 2.734375 -0.0625 2.28125 -0.0625 C 1.5625 -0.0625 0.984375 -0.59375 0.8125 -1.171875 C 0.84375 -1.171875 0.875 -1.15625 0.984375 -1.15625 C 1.3125 -1.15625 1.484375 -1.40625 1.484375 -1.640625 C 1.484375 -1.890625 1.3125 -2.140625 0.984375 -2.140625 C 0.84375 -2.140625 0.5 -2.0625 0.5 -1.609375 C 0.5 -0.75 1.1875 0.21875 2.296875 0.21875 C 3.453125 0.21875 4.46875 -0.734375 4.46875 -2 Z M 4.46875 -2" style="stroke:none;stroke-width:0"></path></g><g id="g973" style="fill:rgb(0%,0%,0%);fill-opacity:1;"><path id="path971" transform="translate(325.837,390.539)" d="M 6.5625 -2.296875 C 6.734375 -2.296875 6.921875 -2.296875 6.921875 -2.5 C 6.921875 -2.6875 6.734375 -2.6875 6.5625 -2.6875 L 1.171875 -2.6875 C 1 -2.6875 0.828125 -2.6875 0.828125 -2.5 C 0.828125 -2.296875 1 -2.296875 1.171875 -2.296875 Z M 6.5625 -2.296875" style="stroke:none;stroke-width:0"></path></g><g id="g977" style="fill:rgb(0%,0%,0%);fill-opacity:1;"><path id="path975" transform="translate(333.586,390.539)" d="M 2.9375 -1.640625 L 2.9375 -0.78125 C 2.9375 -0.421875 2.90625 -0.3125 2.171875 -0.3125 L 1.96875 -0.3125 L 1.96875 0 C 2.375 -0.03125 2.890625 -0.03125 3.3125 -0.03125 C 3.734375 -0.03125 4.25 -0.03125 4.671875 0 L 4.671875 -0.3125 L 4.453125 -0.3125 C 3.71875 -0.3125 3.703125 -0.421875 3.703125 -0.78125 L 3.703125 -1.640625 L 4.6875 -1.640625 L 4.6875 -1.953125 L 3.703125 -1.953125 L 3.703125 -6.484375 C 3.703125 -6.6875 3.703125 -6.75 3.53125 -6.75 C 3.453125 -6.75 3.421875 -6.75 3.34375 -6.625 L 0.28125 -1.953125 L 0.28125 -1.640625 Z M 2.984375 -1.953125 L 0.5625 -1.953125 L 2.984375 -5.671875 Z M 2.984375 -1.953125" style="stroke:none;stroke-width:0"></path></g><g id="g981" style="fill:rgb(0%,0%,0%);fill-opacity:1;"><path id="path979" transform="translate(325.837,370.182)" d="M 6.5625 -2.296875 C 6.734375 -2.296875 6.921875 -2.296875 6.921875 -2.5 C 6.921875 -2.6875 6.734375 -2.6875 6.5625 -2.6875 L 1.171875 -2.6875 C 1 -2.6875 0.828125 -2.6875 0.828125 -2.5 C 0.828125 -2.296875 1 -2.296875 1.171875 -2.296875 Z M 6.5625 -2.296875" style="stroke:none;stroke-width:0"></path></g><g id="g985" style="fill:rgb(0%,0%,0%);fill-opacity:1;"><path id="path983" transform="translate(333.586,370.182)" d="M 2.890625 -3.515625 C 3.703125 -3.78125 4.28125 -4.46875 4.28125 -5.265625 C 4.28125 -6.078125 3.40625 -6.640625 2.453125 -6.640625 C 1.453125 -6.640625 0.6875 -6.046875 0.6875 -5.28125 C 0.6875 -4.953125 0.90625 -4.765625 1.203125 -4.765625 C 1.5 -4.765625 1.703125 -4.984375 1.703125 -5.28125 C 1.703125 -5.765625 1.234375 -5.765625 1.09375 -5.765625 C 1.390625 -6.265625 2.046875 -6.390625 2.40625 -6.390625 C 2.828125 -6.390625 3.375 -6.171875 3.375 -5.28125 C 3.375 -5.15625 3.34375 -4.578125 3.09375 -4.140625 C 2.796875 -3.65625 2.453125 -3.625 2.203125 -3.625 C 2.125 -3.609375 1.890625 -3.59375 1.8125 -3.59375 C 1.734375 -3.578125 1.671875 -3.5625 1.671875 -3.46875 C 1.671875 -3.359375 1.734375 -3.359375 1.90625 -3.359375 L 2.34375 -3.359375 C 3.15625 -3.359375 3.53125 -2.6875 3.53125 -1.703125 C 3.53125 -0.34375 2.84375 -0.0625 2.40625 -0.0625 C 1.96875 -0.0625 1.21875 -0.234375 0.875 -0.8125 C 1.21875 -0.765625 1.53125 -0.984375 1.53125 -1.359375 C 1.53125 -1.71875 1.265625 -1.921875 0.984375 -1.921875 C 0.734375 -1.921875 0.421875 -1.78125 0.421875 -1.34375 C 0.421875 -0.4375 1.34375 0.21875 2.4375 0.21875 C 3.65625 0.21875 4.5625 -0.6875 4.5625 -1.703125 C 4.5625 -2.515625 3.921875 -3.296875 2.890625 -3.515625 Z M 2.890625 -3.515625" style="stroke:none;stroke-width:0"></path></g><g id="g989" style="fill:rgb(0%,0%,0%);fill-opacity:1;"><path id="path987" transform="translate(325.837,349.825)" d="M 6.5625 -2.296875 C 6.734375 -2.296875 6.921875 -2.296875 6.921875 -2.5 C 6.921875 -2.6875 6.734375 -2.6875 6.5625 -2.6875 L 1.171875 -2.6875 C 1 -2.6875 0.828125 -2.6875 0.828125 -2.5 C 0.828125 -2.296875 1 -2.296875 1.171875 -2.296875 Z M 6.5625 -2.296875" style="stroke:none;stroke-width:0"></path></g><g id="g993" style="fill:rgb(0%,0%,0%);fill-opacity:1;"><path id="path991" transform="translate(333.586,349.825)" d="M 1.265625 -0.765625 L 2.328125 -1.796875 C 3.875 -3.171875 4.46875 -3.703125 4.46875 -4.703125 C 4.46875 -5.84375 3.578125 -6.640625 2.359375 -6.640625 C 1.234375 -6.640625 0.5 -5.71875 0.5 -4.828125 C 0.5 -4.28125 1 -4.28125 1.03125 -4.28125 C 1.203125 -4.28125 1.546875 -4.390625 1.546875 -4.8125 C 1.546875 -5.0625 1.359375 -5.328125 1.015625 -5.328125 C 0.9375 -5.328125 0.921875 -5.328125 0.890625 -5.3125 C 1.109375 -5.96875 1.65625 -6.328125 2.234375 -6.328125 C 3.140625 -6.328125 3.5625 -5.515625 3.5625 -4.703125 C 3.5625 -3.90625 3.078125 -3.125 2.515625 -2.5 L 0.609375 -0.375 C 0.5 -0.265625 0.5 -0.234375 0.5 0 L 4.203125 0 L 4.46875 -1.734375 L 4.234375 -1.734375 C 4.171875 -1.4375 4.109375 -1 4 -0.84375 C 3.9375 -0.765625 3.28125 -0.765625 3.0625 -0.765625 Z M 1.265625 -0.765625" style="stroke:none;stroke-width:0"></path></g><g id="g997" style="fill:rgb(0%,0%,0%);fill-opacity:1;"><path id="path995" transform="translate(325.837,329.468)" d="M 6.5625 -2.296875 C 6.734375 -2.296875 6.921875 -2.296875 6.921875 -2.5 C 6.921875 -2.6875 6.734375 -2.6875 6.5625 -2.6875 L 1.171875 -2.6875 C 1 -2.6875 0.828125 -2.6875 0.828125 -2.5 C 0.828125 -2.296875 1 -2.296875 1.171875 -2.296875 Z M 6.5625 -2.296875" style="stroke:none;stroke-width:0"></path></g><g id="g1001" style="fill:rgb(0%,0%,0%);fill-opacity:1;"><path id="path999" transform="translate(333.586,329.468)" d="M 2.9375 -6.375 C 2.9375 -6.625 2.9375 -6.640625 2.703125 -6.640625 C 2.078125 -6 1.203125 -6 0.890625 -6 L 0.890625 -5.6875 C 1.09375 -5.6875 1.671875 -5.6875 2.1875 -5.953125 L 2.1875 -0.78125 C 2.1875 -0.421875 2.15625 -0.3125 1.265625 -0.3125 L 0.953125 -0.3125 L 0.953125 0 C 1.296875 -0.03125 2.15625 -0.03125 2.5625 -0.03125 C 2.953125 -0.03125 3.828125 -0.03125 4.171875 0 L 4.171875 -0.3125 L 3.859375 -0.3125 C 2.953125 -0.3125 2.9375 -0.421875 2.9375 -0.78125 Z M 2.9375 -6.375" style="stroke:none;stroke-width:0"></path></g><g id="g1005" style="fill:rgb(0%,0%,0%);fill-opacity:1;"><path id="path1003" transform="translate(333.586,289.169)" d="M 2.9375 -6.375 C 2.9375 -6.625 2.9375 -6.640625 2.703125 -6.640625 C 2.078125 -6 1.203125 -6 0.890625 -6 L 0.890625 -5.6875 C 1.09375 -5.6875 1.671875 -5.6875 2.1875 -5.953125 L 2.1875 -0.78125 C 2.1875 -0.421875 2.15625 -0.3125 1.265625 -0.3125 L 0.953125 -0.3125 L 0.953125 0 C 1.296875 -0.03125 2.15625 -0.03125 2.5625 -0.03125 C 2.953125 -0.03125 3.828125 -0.03125 4.171875 0 L 4.171875 -0.3125 L 3.859375 -0.3125 C 2.953125 -0.3125 2.9375 -0.421875 2.9375 -0.78125 Z M 2.9375 -6.375" style="stroke:none;stroke-width:0"></path></g><g id="g1009" style="fill:rgb(0%,0%,0%);fill-opacity:1;"><path id="path1007" transform="translate(333.586,268.812)" d="M 1.265625 -0.765625 L 2.328125 -1.796875 C 3.875 -3.171875 4.46875 -3.703125 4.46875 -4.703125 C 4.46875 -5.84375 3.578125 -6.640625 2.359375 -6.640625 C 1.234375 -6.640625 0.5 -5.71875 0.5 -4.828125 C 0.5 -4.28125 1 -4.28125 1.03125 -4.28125 C 1.203125 -4.28125 1.546875 -4.390625 1.546875 -4.8125 C 1.546875 -5.0625 1.359375 -5.328125 1.015625 -5.328125 C 0.9375 -5.328125 0.921875 -5.328125 0.890625 -5.3125 C 1.109375 -5.96875 1.65625 -6.328125 2.234375 -6.328125 C 3.140625 -6.328125 3.5625 -5.515625 3.5625 -4.703125 C 3.5625 -3.90625 3.078125 -3.125 2.515625 -2.5 L 0.609375 -0.375 C 0.5 -0.265625 0.5 -0.234375 0.5 0 L 4.203125 0 L 4.46875 -1.734375 L 4.234375 -1.734375 C 4.171875 -1.4375 4.109375 -1 4 -0.84375 C 3.9375 -0.765625 3.28125 -0.765625 3.0625 -0.765625 Z M 1.265625 -0.765625" style="stroke:none;stroke-width:0"></path></g><g id="g1013" style="fill:rgb(0%,0%,0%);fill-opacity:1;"><path id="path1011" transform="translate(333.586,248.455)" d="M 2.890625 -3.515625 C 3.703125 -3.78125 4.28125 -4.46875 4.28125 -5.265625 C 4.28125 -6.078125 3.40625 -6.640625 2.453125 -6.640625 C 1.453125 -6.640625 0.6875 -6.046875 0.6875 -5.28125 C 0.6875 -4.953125 0.90625 -4.765625 1.203125 -4.765625 C 1.5 -4.765625 1.703125 -4.984375 1.703125 -5.28125 C 1.703125 -5.765625 1.234375 -5.765625 1.09375 -5.765625 C 1.390625 -6.265625 2.046875 -6.390625 2.40625 -6.390625 C 2.828125 -6.390625 3.375 -6.171875 3.375 -5.28125 C 3.375 -5.15625 3.34375 -4.578125 3.09375 -4.140625 C 2.796875 -3.65625 2.453125 -3.625 2.203125 -3.625 C 2.125 -3.609375 1.890625 -3.59375 1.8125 -3.59375 C 1.734375 -3.578125 1.671875 -3.5625 1.671875 -3.46875 C 1.671875 -3.359375 1.734375 -3.359375 1.90625 -3.359375 L 2.34375 -3.359375 C 3.15625 -3.359375 3.53125 -2.6875 3.53125 -1.703125 C 3.53125 -0.34375 2.84375 -0.0625 2.40625 -0.0625 C 1.96875 -0.0625 1.21875 -0.234375 0.875 -0.8125 C 1.21875 -0.765625 1.53125 -0.984375 1.53125 -1.359375 C 1.53125 -1.71875 1.265625 -1.921875 0.984375 -1.921875 C 0.734375 -1.921875 0.421875 -1.78125 0.421875 -1.34375 C 0.421875 -0.4375 1.34375 0.21875 2.4375 0.21875 C 3.65625 0.21875 4.5625 -0.6875 4.5625 -1.703125 C 4.5625 -2.515625 3.921875 -3.296875 2.890625 -3.515625 Z M 2.890625 -3.515625" style="stroke:none;stroke-width:0"></path></g><g id="g1017" style="fill:rgb(0%,0%,0%);fill-opacity:1;"><path id="path1015" transform="translate(333.586,228.098)" d="M 2.9375 -1.640625 L 2.9375 -0.78125 C 2.9375 -0.421875 2.90625 -0.3125 2.171875 -0.3125 L 1.96875 -0.3125 L 1.96875 0 C 2.375 -0.03125 2.890625 -0.03125 3.3125 -0.03125 C 3.734375 -0.03125 4.25 -0.03125 4.671875 0 L 4.671875 -0.3125 L 4.453125 -0.3125 C 3.71875 -0.3125 3.703125 -0.421875 3.703125 -0.78125 L 3.703125 -1.640625 L 4.6875 -1.640625 L 4.6875 -1.953125 L 3.703125 -1.953125 L 3.703125 -6.484375 C 3.703125 -6.6875 3.703125 -6.75 3.53125 -6.75 C 3.453125 -6.75 3.421875 -6.75 3.34375 -6.625 L 0.28125 -1.953125 L 0.28125 -1.640625 Z M 2.984375 -1.953125 L 0.5625 -1.953125 L 2.984375 -5.671875 Z M 2.984375 -1.953125" style="stroke:none;stroke-width:0"></path></g><g id="g1021" style="fill:rgb(0%,0%,0%);fill-opacity:1;"><path id="path1019" transform="translate(333.586,207.741)" d="M 4.46875 -2 C 4.46875 -3.1875 3.65625 -4.1875 2.578125 -4.1875 C 2.109375 -4.1875 1.671875 -4.03125 1.3125 -3.671875 L 1.3125 -5.625 C 1.515625 -5.5625 1.84375 -5.5 2.15625 -5.5 C 3.390625 -5.5 4.09375 -6.40625 4.09375 -6.53125 C 4.09375 -6.59375 4.0625 -6.640625 3.984375 -6.640625 C 3.984375 -6.640625 3.953125 -6.640625 3.90625 -6.609375 C 3.703125 -6.515625 3.21875 -6.3125 2.546875 -6.3125 C 2.15625 -6.3125 1.6875 -6.390625 1.21875 -6.59375 C 1.140625 -6.625 1.125 -6.625 1.109375 -6.625 C 1 -6.625 1 -6.546875 1 -6.390625 L 1 -3.4375 C 1 -3.265625 1 -3.1875 1.140625 -3.1875 C 1.21875 -3.1875 1.234375 -3.203125 1.28125 -3.265625 C 1.390625 -3.421875 1.75 -3.96875 2.5625 -3.96875 C 3.078125 -3.96875 3.328125 -3.515625 3.40625 -3.328125 C 3.5625 -2.953125 3.59375 -2.578125 3.59375 -2.078125 C 3.59375 -1.71875 3.59375 -1.125 3.34375 -0.703125 C 3.109375 -0.3125 2.734375 -0.0625 2.28125 -0.0625 C 1.5625 -0.0625 0.984375 -0.59375 0.8125 -1.171875 C 0.84375 -1.171875 0.875 -1.15625 0.984375 -1.15625 C 1.3125 -1.15625 1.484375 -1.40625 1.484375 -1.640625 C 1.484375 -1.890625 1.3125 -2.140625 0.984375 -2.140625 C 0.84375 -2.140625 0.5 -2.0625 0.5 -1.609375 C 0.5 -0.75 1.1875 0.21875 2.296875 0.21875 C 3.453125 0.21875 4.46875 -0.734375 4.46875 -2 Z M 4.46875 -2" style="stroke:none;stroke-width:0"></path></g><g id="g1025" clip-rule="nonzero" clip-path="url('#clip1')"><path id="path1023" transform="matrix(1,0,0,-1,-142.122,9304.135)" d="M 0.00090625 -0.00171875 L 3.254812 114.013906 L 6.504812 227.299063 L 9.758719 339.865469 L 13.012625 451.693594 L 16.266531 562.79125 L 19.516531 673.162344 L 22.770437 782.806875 L 26.024344 891.72875 L 29.27825 999.91625 L 32.532156 1107.369375 L 35.782156 1214.095938 L 39.036062 1320.095938 L 42.289969 1425.377188 L 45.543875 1529.920156 L 48.797781 1633.732656 L 52.047781 1736.814688 L 55.301687 1839.170156 L 58.555594 1940.810781 L 61.8095 2041.705313 L 65.0595 2141.877188 L 68.313406 2241.318594 L 71.567312 2340.029531 L 74.821219 2438.025625 L 78.075125 2535.279531 L 81.325125 2631.806875 L 84.579031 2727.60375 L 87.832937 2822.674063 L 91.086844 2917.021719 L 94.34075 3010.635 L 97.59075 3103.517813 L 100.844656 3195.674063 L 104.098562 3287.099844 L 107.352469 3377.806875 L 110.602469 3467.775625 L 113.856375 3557.013906 L 117.110281 3645.525625 L 120.364187 3733.310781 L 123.618094 3820.373281 L 126.868094 3906.701406 L 130.122 3992.295156 L 133.375906 4077.16625 L 136.629812 4161.302969 L 139.879812 4244.724844 L 143.133719 4327.408438 L 146.387625 4409.361563 L 149.641531 4490.588125 L 152.895437 4571.084219 L 156.145437 4650.861563 L 159.399344 4729.900625 L 162.65325 4808.209219 L 165.907156 4885.79125 L 169.161062 4962.646719 L 172.411062 5038.779531 L 175.664969 5114.177969 L 178.918875 5188.845938 L 182.172781 5262.783438 L 185.422781 5335.994375 L 188.676687 5408.482656 L 191.930594 5480.236563 L 195.1845 5551.26 L 198.438406 5621.556875 L 201.688406 5691.123281 L 204.942312 5759.970938 L 208.196219 5828.080313 L 211.450125 5895.463125 L 214.704031 5962.115469 L 217.954031 6028.04125 L 221.207937 6093.244375 L 224.461844 6157.709219 L 227.71575 6221.4475 L 230.96575 6284.459219 L 234.219656 6346.740469 L 237.473562 6408.299063 L 240.727469 6469.123281 L 243.981375 6529.217031 L 247.231375 6588.584219 L 250.485281 6647.224844 L 253.739187 6705.135 L 256.993094 6762.318594 L 260.243094 6818.771719 L 263.497 6874.494375 L 266.750906 6929.490469 L 270.004812 6983.76 L 273.258719 7037.299063 L 276.508719 7090.107656 L 279.762625 7142.189688 L 283.016531 7193.54125 L 286.270437 7244.16625 L 289.524344 7294.060781 L 292.774344 7343.22875 L 296.02825 7391.66625 L 299.282156 7439.377188 L 302.536062 7486.357656 L 305.786062 7532.611563 L 309.039969 7578.135 L 312.293875 7622.927969 L 315.547781 7666.994375 L 318.801687 7710.334219 L 322.051687 7752.943594 L 325.305594 7794.8225 L 328.5595 7835.974844 L 331.813406 7876.400625 L 335.067312 7916.092031 L 338.317312 7955.060781 L 341.571219 7993.299063 L 344.825125 8030.806875 L 348.079031 8067.588125 L 351.329031 8103.638906 L 354.582937 8138.959219 L 357.836844 8173.552969 L 361.09075 8207.420156 L 364.344656 8240.556875 L 367.594656 8272.967031 L 370.848562 8304.646719 L 374.102469 8335.595938 L 377.356375 8365.818594 L 380.610281 8395.310781 L 383.860281 8424.076406 L 387.114187 8452.115469 L 390.368094 8479.420156 L 393.622 8506.002188 L 396.872 8531.849844 L 400.125906 8556.974844 L 403.379812 8581.365469 L 406.633719 8605.029531 L 409.887625 8627.967031 L 413.137625 8650.174063 L 416.391531 8671.654531 L 419.645437 8692.404531 L 422.899344 8712.424063 L 426.149344 8731.717031 L 429.40325 8750.283438 L 432.657156 8768.115469 L 435.911062 8785.224844 L 439.164969 8801.60375 L 442.414969 8817.252188 L 445.668875 8832.174063 L 448.922781 8846.365469 L 452.176687 8859.830313 L 455.430594 8872.564688 L 458.680594 8884.568594 L 461.9345 8895.849844 L 465.188406 8906.396719 L 468.442312 8916.217031 L 471.692312 8925.310781 L 474.946219 8933.674063 L 478.200125 8941.306875 L 481.454031 8948.213125 L 484.707937 8954.388906 L 487.957937 8959.838125 L 491.211844 8964.560781 L 494.46575 8968.549063 L 497.719656 8971.814688 L 500.973562 8974.345938 L 504.223562 8976.150625 L 507.477469 8977.22875 L 510.731375 8977.576406 L 513.985281 8977.1975 L 517.235281 8976.088125 L 520.489187 8974.248281 L 523.743094 8971.681875 L 526.997 8968.388906 L 530.250906 8964.365469 L 533.500906 8959.611563 L 536.754812 8954.131094 L 540.008719 8947.920156 L 543.262625 8940.982656 L 546.516531 8933.318594 L 549.766531 8924.920156 L 553.020437 8915.799063 L 556.274344 8905.943594 L 559.52825 8895.361563 L 562.77825 8884.052969 L 566.032156 8872.013906 L 569.286062 8859.248281 L 572.539969 8845.752188 L 575.793875 8831.525625 L 579.043875 8816.5725 L 582.297781 8800.892813 L 585.551687 8784.47875 L 588.805594 8767.342031 L 592.055594 8749.474844 L 595.3095 8730.877188 L 598.563406 8711.552969 L 601.817312 8691.498281 L 605.071219 8670.717031 L 608.321219 8649.205313 L 611.575125 8626.967031 L 614.829031 8603.998281 L 618.082937 8580.299063 L 621.336844 8555.873281 L 624.586844 8530.720938 L 627.84075 8504.838125 L 631.094656 8478.224844 L 634.348562 8450.885 L 637.598562 8422.818594 L 640.852469 8394.017813 L 644.106375 8364.494375 L 647.360281 8334.240469 L 650.614187 8303.256094 L 653.864187 8271.545156 L 657.118094 8239.10375 L 660.372 8205.931875 L 663.625906 8172.037344 L 666.879812 8137.408438 L 670.129812 8102.052969 L 673.383719 8065.970938 L 676.637625 8029.158438 L 679.891531 7991.615469 L 683.141531 7953.345938 L 686.395437 7914.349844 L 689.649344 7874.623281 L 692.90325 7834.16625 L 696.157156 7792.982656 L 699.407156 7751.068594 L 702.661062 7708.427969 L 705.914969 7665.056875 L 709.168875 7620.959219 L 712.422781 7576.131094 L 715.672781 7530.576406 L 718.926687 7484.29125 L 722.180594 7437.275625 L 725.4345 7389.533438 L 728.6845 7341.064688 L 731.938406 7291.865469 L 735.192312 7241.939688 L 738.446219 7191.275625 L 741.700125 7139.892813 L 744.950125 7087.779531 L 748.204031 7034.939688 L 751.457937 6981.369375 L 754.711844 6927.064688 L 757.961844 6872.037344 L 761.21575 6816.279531 L 764.469656 6759.795156 L 767.723562 6702.584219 L 770.977469 6644.642813 L 774.227469 6585.967031 L 777.481375 6526.564688 L 780.735281 6466.439688 L 783.989187 6405.584219 L 787.243094 6343.998281 L 790.493094 6281.677969 L 793.747 6218.635 L 797.000906 6154.865469 L 800.254812 6090.365469 L 803.504812 6025.131094 L 806.758719 5959.174063 L 810.012625 5892.490469 L 813.266531 5825.076406 L 816.520437 5756.931875 L 819.770437 5688.060781 L 823.024344 5618.455313 L 826.27825 5548.127188 L 829.532156 5477.068594 L 832.786062 5405.283438 L 836.036062 5332.767813 L 839.289969 5259.517813 L 842.543875 5185.545156 L 845.797781 5110.845938 L 849.047781 5035.41625 L 852.301687 4959.252188 L 855.555594 4882.365469 L 858.8095 4804.752188 L 862.063406 4726.408438 L 865.313406 4647.338125 L 868.567312 4567.529531 L 871.821219 4486.998281 L 875.075125 4405.740469 L 878.325125 4323.756094 L 881.579031 4241.04125 L 884.832937 4157.595938 L 888.086844 4073.41625 L 891.34075 3988.513906 L 894.59075 3902.885 L 897.844656 3816.525625 L 901.098562 3729.439688 L 904.352469 3641.615469 L 907.606375 3553.0725 L 910.856375 3463.799063 L 914.110281 3373.799063 L 917.364187 3283.056875 L 920.618094 3191.599844 L 923.868094 3099.412344 L 927.122 3006.498281 L 930.375906 2912.85375 L 933.629812 2818.47875 L 936.883719 2723.369375 L 940.133719 2627.537344 L 943.387625 2530.97875 L 946.641531 2433.693594 L 949.895437 2335.677969 L 953.149344 2236.920156 L 956.399344 2137.4475 L 959.65325 2037.244375 L 962.907156 1936.314688 L 966.161062 1834.642813 L 969.411062 1732.256094 L 972.664969 1629.138906" style="fill:none;stroke-width:1.19553;stroke-linecap:butt;stroke-linejoin:miter;stroke:rgb(0%,0%,100%);stroke-opacity:1;stroke-miterlimit:10;"></path></g></g></g></g></svg> 