<?xml version="1.0" encoding="UTF-8"?> <svg xmlns:cc="http://creativecommons.org/ns#" xmlns:rdf="http://www.w3.org/1999/02/22-rdf-syntax-ns#" xmlns:svg="http://www.w3.org/2000/svg" xmlns="http://www.w3.org/2000/svg" xmlns:sodipodi="http://sodipodi.sourceforge.net/DTD/sodipodi-0.dtd" xmlns:inkscape="http://www.inkscape.org/namespaces/inkscape" width="115.42361mm" height="96.642822mm" viewBox="0 0 115.42361 96.642822" version="1.1" id="svg8"><defs id="defs2"></defs><metadata id="metadata5"></metadata><g id="layer1" transform="translate(-40.300446,-75.934425)"><g id="g944" scale="1.66150538703" version="0.11.0" transform="matrix(0.586142,0.000000,0.000000,0.586142,-83.909378,-38.448946)"><g id="surface1"><path id="path859" transform="matrix(1,0,0,-1,213.143,359.594)" d="M 19.427313 0.00025 L 19.427313 161.394781 M 58.278875 0.00025 L 58.278875 161.394781 M 77.704656 0.00025 L 77.704656 161.394781 M 97.134344 0.00025 L 97.134344 161.394781 M 116.560125 0.00025 L 116.560125 161.394781 M 135.985906 0.00025 L 135.985906 161.394781 M 155.411688 0.00025 L 155.411688 161.394781 M 174.841375 0.00025 L 174.841375 161.394781" style="fill:none;stroke-width:0.3985;stroke-linecap:butt;stroke-linejoin:miter;stroke:rgb(75%,75%,75%);stroke-opacity:1;stroke-miterlimit:10;"></path><path id="path861" transform="matrix(1,0,0,-1,213.143,359.594)" d="M 0.00153125 20.176031 L 194.267156 20.176031 M 0.00153125 60.523688 L 194.267156 60.523688 M 0.00153125 80.699469 L 194.267156 80.699469 M 0.00153125 100.871344 L 194.267156 100.871344 M 0.00153125 121.047125 L 194.267156 121.047125 M 0.00153125 141.222906 L 194.267156 141.222906" style="fill:none;stroke-width:0.3985;stroke-linecap:butt;stroke-linejoin:miter;stroke:rgb(75%,75%,75%);stroke-opacity:1;stroke-miterlimit:10;"></path><path id="path863" transform="matrix(1,0,0,-1,213.143,359.594)" d="M 19.427313 38.222906 L 19.427313 42.476813 M 58.278875 38.222906 L 58.278875 42.476813 M 77.704656 38.222906 L 77.704656 42.476813 M 97.134344 38.222906 L 97.134344 42.476813 M 116.560125 38.222906 L 116.560125 42.476813 M 135.985906 38.222906 L 135.985906 42.476813 M 155.411688 38.222906 L 155.411688 42.476813 M 174.841375 38.222906 L 174.841375 42.476813" style="fill:none;stroke-width:0.19925;stroke-linecap:butt;stroke-linejoin:miter;stroke:rgb(50%,50%,50%);stroke-opacity:1;stroke-miterlimit:10;"></path><path id="path865" transform="matrix(1,0,0,-1,213.143,359.594)" d="M 36.728094 20.176031 L 40.978094 20.176031 M 36.728094 60.523688 L 40.978094 60.523688 M 36.728094 80.699469 L 40.978094 80.699469 M 36.728094 100.871344 L 40.978094 100.871344 M 36.728094 121.047125 L 40.978094 121.047125 M 36.728094 141.222906 L 40.978094 141.222906" style="fill:none;stroke-width:0.19925;stroke-linecap:butt;stroke-linejoin:miter;stroke:rgb(50%,50%,50%);stroke-opacity:1;stroke-miterlimit:10;"></path><path id="path867" transform="matrix(1,0,0,-1,213.143,359.594)" d="M 0.00153125 40.347906 L 192.274969 40.347906" style="fill:none;stroke-width:0.3985;stroke-linecap:butt;stroke-linejoin:miter;stroke:rgb(0%,0%,0%);stroke-opacity:1;stroke-miterlimit:10;"></path><path id="path869" d="M 407.410156 319.246094 L 404.222656 317.652344 L 405.417969 319.246094 L 404.222656 320.839844" style="fill-opacity:1;stroke:none;fill:rgb(0%,0%,0%);stroke-width:0;fill-rule:nonzero"></path><path id="path871" transform="matrix(1,0,0,-1,213.143,359.594)" d="M 38.853094 0.00025 L 38.853094 159.402594" style="fill:none;stroke-width:0.3985;stroke-linecap:butt;stroke-linejoin:miter;stroke:rgb(0%,0%,0%);stroke-opacity:1;stroke-miterlimit:10;"></path><path id="path873" d="M 251.996094 198.199219 L 250.402344 201.386719 L 251.996094 200.191406 L 253.589844 201.386719" style="fill-opacity:1;stroke:none;fill:rgb(0%,0%,0%);stroke-width:0;fill-rule:nonzero"></path><g id="g877" style="fill:rgb(0%,0%,0%);fill-opacity:1;"><path id="path875" transform="translate(226.205,331.311)" d="M 6.5625 -2.296875 C 6.734375 -2.296875 6.921875 -2.296875 6.921875 -2.5 C 6.921875 -2.6875 6.734375 -2.6875 6.5625 -2.6875 L 1.171875 -2.6875 C 1 -2.6875 0.828125 -2.6875 0.828125 -2.5 C 0.828125 -2.296875 1 -2.296875 1.171875 -2.296875 Z M 6.5625 -2.296875" style="stroke:none;stroke-width:0"></path></g><g id="g881" style="fill:rgb(0%,0%,0%);fill-opacity:1;"><path id="path879" transform="translate(233.953,331.311)" d="M 2.9375 -6.375 C 2.9375 -6.625 2.9375 -6.640625 2.703125 -6.640625 C 2.078125 -6 1.203125 -6 0.890625 -6 L 0.890625 -5.6875 C 1.09375 -5.6875 1.671875 -5.6875 2.1875 -5.953125 L 2.1875 -0.78125 C 2.1875 -0.421875 2.15625 -0.3125 1.265625 -0.3125 L 0.953125 -0.3125 L 0.953125 0 C 1.296875 -0.03125 2.15625 -0.03125 2.5625 -0.03125 C 2.953125 -0.03125 3.828125 -0.03125 4.171875 0 L 4.171875 -0.3125 L 3.859375 -0.3125 C 2.953125 -0.3125 2.9375 -0.421875 2.9375 -0.78125 Z M 2.9375 -6.375" style="stroke:none;stroke-width:0"></path></g><g id="g885" style="fill:rgb(0%,0%,0%);fill-opacity:1;"><path id="path883" transform="translate(268.932,331.311)" d="M 2.9375 -6.375 C 2.9375 -6.625 2.9375 -6.640625 2.703125 -6.640625 C 2.078125 -6 1.203125 -6 0.890625 -6 L 0.890625 -5.6875 C 1.09375 -5.6875 1.671875 -5.6875 2.1875 -5.953125 L 2.1875 -0.78125 C 2.1875 -0.421875 2.15625 -0.3125 1.265625 -0.3125 L 0.953125 -0.3125 L 0.953125 0 C 1.296875 -0.03125 2.15625 -0.03125 2.5625 -0.03125 C 2.953125 -0.03125 3.828125 -0.03125 4.171875 0 L 4.171875 -0.3125 L 3.859375 -0.3125 C 2.953125 -0.3125 2.9375 -0.421875 2.9375 -0.78125 Z M 2.9375 -6.375" style="stroke:none;stroke-width:0"></path></g><g id="g889" style="fill:rgb(0%,0%,0%);fill-opacity:1;"><path id="path887" transform="translate(288.358,331.311)" d="M 1.265625 -0.765625 L 2.328125 -1.796875 C 3.875 -3.171875 4.46875 -3.703125 4.46875 -4.703125 C 4.46875 -5.84375 3.578125 -6.640625 2.359375 -6.640625 C 1.234375 -6.640625 0.5 -5.71875 0.5 -4.828125 C 0.5 -4.28125 1 -4.28125 1.03125 -4.28125 C 1.203125 -4.28125 1.546875 -4.390625 1.546875 -4.8125 C 1.546875 -5.0625 1.359375 -5.328125 1.015625 -5.328125 C 0.9375 -5.328125 0.921875 -5.328125 0.890625 -5.3125 C 1.109375 -5.96875 1.65625 -6.328125 2.234375 -6.328125 C 3.140625 -6.328125 3.5625 -5.515625 3.5625 -4.703125 C 3.5625 -3.90625 3.078125 -3.125 2.515625 -2.5 L 0.609375 -0.375 C 0.5 -0.265625 0.5 -0.234375 0.5 0 L 4.203125 0 L 4.46875 -1.734375 L 4.234375 -1.734375 C 4.171875 -1.4375 4.109375 -1 4 -0.84375 C 3.9375 -0.765625 3.28125 -0.765625 3.0625 -0.765625 Z M 1.265625 -0.765625" style="stroke:none;stroke-width:0"></path></g><g id="g893" style="fill:rgb(0%,0%,0%);fill-opacity:1;"><path id="path891" transform="translate(307.784,331.311)" d="M 2.890625 -3.515625 C 3.703125 -3.78125 4.28125 -4.46875 4.28125 -5.265625 C 4.28125 -6.078125 3.40625 -6.640625 2.453125 -6.640625 C 1.453125 -6.640625 0.6875 -6.046875 0.6875 -5.28125 C 0.6875 -4.953125 0.90625 -4.765625 1.203125 -4.765625 C 1.5 -4.765625 1.703125 -4.984375 1.703125 -5.28125 C 1.703125 -5.765625 1.234375 -5.765625 1.09375 -5.765625 C 1.390625 -6.265625 2.046875 -6.390625 2.40625 -6.390625 C 2.828125 -6.390625 3.375 -6.171875 3.375 -5.28125 C 3.375 -5.15625 3.34375 -4.578125 3.09375 -4.140625 C 2.796875 -3.65625 2.453125 -3.625 2.203125 -3.625 C 2.125 -3.609375 1.890625 -3.59375 1.8125 -3.59375 C 1.734375 -3.578125 1.671875 -3.5625 1.671875 -3.46875 C 1.671875 -3.359375 1.734375 -3.359375 1.90625 -3.359375 L 2.34375 -3.359375 C 3.15625 -3.359375 3.53125 -2.6875 3.53125 -1.703125 C 3.53125 -0.34375 2.84375 -0.0625 2.40625 -0.0625 C 1.96875 -0.0625 1.21875 -0.234375 0.875 -0.8125 C 1.21875 -0.765625 1.53125 -0.984375 1.53125 -1.359375 C 1.53125 -1.71875 1.265625 -1.921875 0.984375 -1.921875 C 0.734375 -1.921875 0.421875 -1.78125 0.421875 -1.34375 C 0.421875 -0.4375 1.34375 0.21875 2.4375 0.21875 C 3.65625 0.21875 4.5625 -0.6875 4.5625 -1.703125 C 4.5625 -2.515625 3.921875 -3.296875 2.890625 -3.515625 Z M 2.890625 -3.515625" style="stroke:none;stroke-width:0"></path></g><g id="g897" style="fill:rgb(0%,0%,0%);fill-opacity:1;"><path id="path895" transform="translate(327.211,331.311)" d="M 2.9375 -1.640625 L 2.9375 -0.78125 C 2.9375 -0.421875 2.90625 -0.3125 2.171875 -0.3125 L 1.96875 -0.3125 L 1.96875 0 C 2.375 -0.03125 2.890625 -0.03125 3.3125 -0.03125 C 3.734375 -0.03125 4.25 -0.03125 4.671875 0 L 4.671875 -0.3125 L 4.453125 -0.3125 C 3.71875 -0.3125 3.703125 -0.421875 3.703125 -0.78125 L 3.703125 -1.640625 L 4.6875 -1.640625 L 4.6875 -1.953125 L 3.703125 -1.953125 L 3.703125 -6.484375 C 3.703125 -6.6875 3.703125 -6.75 3.53125 -6.75 C 3.453125 -6.75 3.421875 -6.75 3.34375 -6.625 L 0.28125 -1.953125 L 0.28125 -1.640625 Z M 2.984375 -1.953125 L 0.5625 -1.953125 L 2.984375 -5.671875 Z M 2.984375 -1.953125" style="stroke:none;stroke-width:0"></path></g><g id="g901" style="fill:rgb(0%,0%,0%);fill-opacity:1;"><path id="path899" transform="translate(346.637,331.311)" d="M 4.46875 -2 C 4.46875 -3.1875 3.65625 -4.1875 2.578125 -4.1875 C 2.109375 -4.1875 1.671875 -4.03125 1.3125 -3.671875 L 1.3125 -5.625 C 1.515625 -5.5625 1.84375 -5.5 2.15625 -5.5 C 3.390625 -5.5 4.09375 -6.40625 4.09375 -6.53125 C 4.09375 -6.59375 4.0625 -6.640625 3.984375 -6.640625 C 3.984375 -6.640625 3.953125 -6.640625 3.90625 -6.609375 C 3.703125 -6.515625 3.21875 -6.3125 2.546875 -6.3125 C 2.15625 -6.3125 1.6875 -6.390625 1.21875 -6.59375 C 1.140625 -6.625 1.125 -6.625 1.109375 -6.625 C 1 -6.625 1 -6.546875 1 -6.390625 L 1 -3.4375 C 1 -3.265625 1 -3.1875 1.140625 -3.1875 C 1.21875 -3.1875 1.234375 -3.203125 1.28125 -3.265625 C 1.390625 -3.421875 1.75 -3.96875 2.5625 -3.96875 C 3.078125 -3.96875 3.328125 -3.515625 3.40625 -3.328125 C 3.5625 -2.953125 3.59375 -2.578125 3.59375 -2.078125 C 3.59375 -1.71875 3.59375 -1.125 3.34375 -0.703125 C 3.109375 -0.3125 2.734375 -0.0625 2.28125 -0.0625 C 1.5625 -0.0625 0.984375 -0.59375 0.8125 -1.171875 C 0.84375 -1.171875 0.875 -1.15625 0.984375 -1.15625 C 1.3125 -1.15625 1.484375 -1.40625 1.484375 -1.640625 C 1.484375 -1.890625 1.3125 -2.140625 0.984375 -2.140625 C 0.84375 -2.140625 0.5 -2.0625 0.5 -1.609375 C 0.5 -0.75 1.1875 0.21875 2.296875 0.21875 C 3.453125 0.21875 4.46875 -0.734375 4.46875 -2 Z M 4.46875 -2" style="stroke:none;stroke-width:0"></path></g><g id="g905" style="fill:rgb(0%,0%,0%);fill-opacity:1;"><path id="path903" transform="translate(366.063,331.311)" d="M 1.3125 -3.265625 L 1.3125 -3.515625 C 1.3125 -6.03125 2.546875 -6.390625 3.0625 -6.390625 C 3.296875 -6.390625 3.71875 -6.328125 3.9375 -5.984375 C 3.78125 -5.984375 3.390625 -5.984375 3.390625 -5.546875 C 3.390625 -5.234375 3.625 -5.078125 3.84375 -5.078125 C 4 -5.078125 4.3125 -5.171875 4.3125 -5.5625 C 4.3125 -6.15625 3.875 -6.640625 3.046875 -6.640625 C 1.765625 -6.640625 0.421875 -5.359375 0.421875 -3.15625 C 0.421875 -0.484375 1.578125 0.21875 2.5 0.21875 C 3.609375 0.21875 4.5625 -0.71875 4.5625 -2.03125 C 4.5625 -3.296875 3.671875 -4.25 2.5625 -4.25 C 1.890625 -4.25 1.515625 -3.75 1.3125 -3.265625 Z M 2.5 -0.0625 C 1.875 -0.0625 1.578125 -0.65625 1.515625 -0.8125 C 1.328125 -1.28125 1.328125 -2.078125 1.328125 -2.25 C 1.328125 -3.03125 1.65625 -4.03125 2.546875 -4.03125 C 2.71875 -4.03125 3.171875 -4.03125 3.484375 -3.40625 C 3.65625 -3.046875 3.65625 -2.53125 3.65625 -2.046875 C 3.65625 -1.5625 3.65625 -1.0625 3.484375 -0.703125 C 3.1875 -0.109375 2.734375 -0.0625 2.5 -0.0625 Z M 2.5 -0.0625" style="stroke:none;stroke-width:0"></path></g><g id="g909" style="fill:rgb(0%,0%,0%);fill-opacity:1;"><path id="path907" transform="translate(385.49,331.311)" d="M 4.75 -6.078125 C 4.828125 -6.1875 4.828125 -6.203125 4.828125 -6.421875 L 2.40625 -6.421875 C 1.203125 -6.421875 1.171875 -6.546875 1.140625 -6.734375 L 0.890625 -6.734375 L 0.5625 -4.6875 L 0.8125 -4.6875 C 0.84375 -4.84375 0.921875 -5.46875 1.0625 -5.59375 C 1.125 -5.65625 1.90625 -5.65625 2.03125 -5.65625 L 4.09375 -5.65625 C 3.984375 -5.5 3.203125 -4.40625 2.984375 -4.078125 C 2.078125 -2.734375 1.75 -1.34375 1.75 -0.328125 C 1.75 -0.234375 1.75 0.21875 2.21875 0.21875 C 2.671875 0.21875 2.671875 -0.234375 2.671875 -0.328125 L 2.671875 -0.84375 C 2.671875 -1.390625 2.703125 -1.9375 2.78125 -2.46875 C 2.828125 -2.703125 2.953125 -3.5625 3.40625 -4.171875 Z M 4.75 -6.078125" style="stroke:none;stroke-width:0"></path></g><g id="g913" style="fill:rgb(0%,0%,0%);fill-opacity:1;"><path id="path911" transform="translate(233.62,342.214)" d="M 6.5625 -2.296875 C 6.734375 -2.296875 6.921875 -2.296875 6.921875 -2.5 C 6.921875 -2.6875 6.734375 -2.6875 6.5625 -2.6875 L 1.171875 -2.6875 C 1 -2.6875 0.828125 -2.6875 0.828125 -2.5 C 0.828125 -2.296875 1 -2.296875 1.171875 -2.296875 Z M 6.5625 -2.296875" style="stroke:none;stroke-width:0"></path></g><g id="g917" style="fill:rgb(0%,0%,0%);fill-opacity:1;"><path id="path915" transform="translate(241.369,342.214)" d="M 2.9375 -6.375 C 2.9375 -6.625 2.9375 -6.640625 2.703125 -6.640625 C 2.078125 -6 1.203125 -6 0.890625 -6 L 0.890625 -5.6875 C 1.09375 -5.6875 1.671875 -5.6875 2.1875 -5.953125 L 2.1875 -0.78125 C 2.1875 -0.421875 2.15625 -0.3125 1.265625 -0.3125 L 0.953125 -0.3125 L 0.953125 0 C 1.296875 -0.03125 2.15625 -0.03125 2.5625 -0.03125 C 2.953125 -0.03125 3.828125 -0.03125 4.171875 0 L 4.171875 -0.3125 L 3.859375 -0.3125 C 2.953125 -0.3125 2.9375 -0.421875 2.9375 -0.78125 Z M 2.9375 -6.375" style="stroke:none;stroke-width:0"></path></g><g id="g921" style="fill:rgb(0%,0%,0%);fill-opacity:1;"><path id="path919" transform="translate(241.369,302.281)" d="M 2.9375 -6.375 C 2.9375 -6.625 2.9375 -6.640625 2.703125 -6.640625 C 2.078125 -6 1.203125 -6 0.890625 -6 L 0.890625 -5.6875 C 1.09375 -5.6875 1.671875 -5.6875 2.1875 -5.953125 L 2.1875 -0.78125 C 2.1875 -0.421875 2.15625 -0.3125 1.265625 -0.3125 L 0.953125 -0.3125 L 0.953125 0 C 1.296875 -0.03125 2.15625 -0.03125 2.5625 -0.03125 C 2.953125 -0.03125 3.828125 -0.03125 4.171875 0 L 4.171875 -0.3125 L 3.859375 -0.3125 C 2.953125 -0.3125 2.9375 -0.421875 2.9375 -0.78125 Z M 2.9375 -6.375" style="stroke:none;stroke-width:0"></path></g><g id="g925" style="fill:rgb(0%,0%,0%);fill-opacity:1;"><path id="path923" transform="translate(241.369,282.107)" d="M 1.265625 -0.765625 L 2.328125 -1.796875 C 3.875 -3.171875 4.46875 -3.703125 4.46875 -4.703125 C 4.46875 -5.84375 3.578125 -6.640625 2.359375 -6.640625 C 1.234375 -6.640625 0.5 -5.71875 0.5 -4.828125 C 0.5 -4.28125 1 -4.28125 1.03125 -4.28125 C 1.203125 -4.28125 1.546875 -4.390625 1.546875 -4.8125 C 1.546875 -5.0625 1.359375 -5.328125 1.015625 -5.328125 C 0.9375 -5.328125 0.921875 -5.328125 0.890625 -5.3125 C 1.109375 -5.96875 1.65625 -6.328125 2.234375 -6.328125 C 3.140625 -6.328125 3.5625 -5.515625 3.5625 -4.703125 C 3.5625 -3.90625 3.078125 -3.125 2.515625 -2.5 L 0.609375 -0.375 C 0.5 -0.265625 0.5 -0.234375 0.5 0 L 4.203125 0 L 4.46875 -1.734375 L 4.234375 -1.734375 C 4.171875 -1.4375 4.109375 -1 4 -0.84375 C 3.9375 -0.765625 3.28125 -0.765625 3.0625 -0.765625 Z M 1.265625 -0.765625" style="stroke:none;stroke-width:0"></path></g><g id="g929" style="fill:rgb(0%,0%,0%);fill-opacity:1;"><path id="path927" transform="translate(241.369,261.932)" d="M 2.890625 -3.515625 C 3.703125 -3.78125 4.28125 -4.46875 4.28125 -5.265625 C 4.28125 -6.078125 3.40625 -6.640625 2.453125 -6.640625 C 1.453125 -6.640625 0.6875 -6.046875 0.6875 -5.28125 C 0.6875 -4.953125 0.90625 -4.765625 1.203125 -4.765625 C 1.5 -4.765625 1.703125 -4.984375 1.703125 -5.28125 C 1.703125 -5.765625 1.234375 -5.765625 1.09375 -5.765625 C 1.390625 -6.265625 2.046875 -6.390625 2.40625 -6.390625 C 2.828125 -6.390625 3.375 -6.171875 3.375 -5.28125 C 3.375 -5.15625 3.34375 -4.578125 3.09375 -4.140625 C 2.796875 -3.65625 2.453125 -3.625 2.203125 -3.625 C 2.125 -3.609375 1.890625 -3.59375 1.8125 -3.59375 C 1.734375 -3.578125 1.671875 -3.5625 1.671875 -3.46875 C 1.671875 -3.359375 1.734375 -3.359375 1.90625 -3.359375 L 2.34375 -3.359375 C 3.15625 -3.359375 3.53125 -2.6875 3.53125 -1.703125 C 3.53125 -0.34375 2.84375 -0.0625 2.40625 -0.0625 C 1.96875 -0.0625 1.21875 -0.234375 0.875 -0.8125 C 1.21875 -0.765625 1.53125 -0.984375 1.53125 -1.359375 C 1.53125 -1.71875 1.265625 -1.921875 0.984375 -1.921875 C 0.734375 -1.921875 0.421875 -1.78125 0.421875 -1.34375 C 0.421875 -0.4375 1.34375 0.21875 2.4375 0.21875 C 3.65625 0.21875 4.5625 -0.6875 4.5625 -1.703125 C 4.5625 -2.515625 3.921875 -3.296875 2.890625 -3.515625 Z M 2.890625 -3.515625" style="stroke:none;stroke-width:0"></path></g><g id="g933" style="fill:rgb(0%,0%,0%);fill-opacity:1;"><path id="path931" transform="translate(241.369,241.758)" d="M 2.9375 -1.640625 L 2.9375 -0.78125 C 2.9375 -0.421875 2.90625 -0.3125 2.171875 -0.3125 L 1.96875 -0.3125 L 1.96875 0 C 2.375 -0.03125 2.890625 -0.03125 3.3125 -0.03125 C 3.734375 -0.03125 4.25 -0.03125 4.671875 0 L 4.671875 -0.3125 L 4.453125 -0.3125 C 3.71875 -0.3125 3.703125 -0.421875 3.703125 -0.78125 L 3.703125 -1.640625 L 4.6875 -1.640625 L 4.6875 -1.953125 L 3.703125 -1.953125 L 3.703125 -6.484375 C 3.703125 -6.6875 3.703125 -6.75 3.53125 -6.75 C 3.453125 -6.75 3.421875 -6.75 3.34375 -6.625 L 0.28125 -1.953125 L 0.28125 -1.640625 Z M 2.984375 -1.953125 L 0.5625 -1.953125 L 2.984375 -5.671875 Z M 2.984375 -1.953125" style="stroke:none;stroke-width:0"></path></g><g id="g937" style="fill:rgb(0%,0%,0%);fill-opacity:1;"><path id="path935" transform="translate(241.369,221.584)" d="M 4.46875 -2 C 4.46875 -3.1875 3.65625 -4.1875 2.578125 -4.1875 C 2.109375 -4.1875 1.671875 -4.03125 1.3125 -3.671875 L 1.3125 -5.625 C 1.515625 -5.5625 1.84375 -5.5 2.15625 -5.5 C 3.390625 -5.5 4.09375 -6.40625 4.09375 -6.53125 C 4.09375 -6.59375 4.0625 -6.640625 3.984375 -6.640625 C 3.984375 -6.640625 3.953125 -6.640625 3.90625 -6.609375 C 3.703125 -6.515625 3.21875 -6.3125 2.546875 -6.3125 C 2.15625 -6.3125 1.6875 -6.390625 1.21875 -6.59375 C 1.140625 -6.625 1.125 -6.625 1.109375 -6.625 C 1 -6.625 1 -6.546875 1 -6.390625 L 1 -3.4375 C 1 -3.265625 1 -3.1875 1.140625 -3.1875 C 1.21875 -3.1875 1.234375 -3.203125 1.28125 -3.265625 C 1.390625 -3.421875 1.75 -3.96875 2.5625 -3.96875 C 3.078125 -3.96875 3.328125 -3.515625 3.40625 -3.328125 C 3.5625 -2.953125 3.59375 -2.578125 3.59375 -2.078125 C 3.59375 -1.71875 3.59375 -1.125 3.34375 -0.703125 C 3.109375 -0.3125 2.734375 -0.0625 2.28125 -0.0625 C 1.5625 -0.0625 0.984375 -0.59375 0.8125 -1.171875 C 0.84375 -1.171875 0.875 -1.15625 0.984375 -1.15625 C 1.3125 -1.15625 1.484375 -1.40625 1.484375 -1.640625 C 1.484375 -1.890625 1.3125 -2.140625 0.984375 -2.140625 C 0.84375 -2.140625 0.5 -2.0625 0.5 -1.609375 C 0.5 -0.75 1.1875 0.21875 2.296875 0.21875 C 3.453125 0.21875 4.46875 -0.734375 4.46875 -2 Z M 4.46875 -2" style="stroke:none;stroke-width:0"></path></g><g id="g941" clip-rule="nonzero" clip-path="url('#clip1')"><path id="path939" transform="matrix(1,0,0,-1,213.143,359.594)" d="M 0.00153125 56.871344 L 1.298406 56.980719 L 1.95075 57.039313 L 2.599188 57.090094 L 3.247625 57.148688 L 3.899969 57.203375 L 4.548406 57.261969 L 5.196844 57.316656 L 5.849188 57.37525 L 6.497625 57.433844 L 7.146063 57.488531 L 7.7945 57.547125 L 8.446844 57.605719 L 9.095281 57.660406 L 9.743719 57.719 L 10.396063 57.777594 L 11.692938 57.894781 L 12.345281 57.953375 L 12.993719 58.011969 L 13.642156 58.074469 L 14.2945 58.133063 L 15.591375 58.25025 L 16.243719 58.308844 L 17.540594 58.433844 L 18.192938 58.492438 L 18.841375 58.551031 L 19.489813 58.613531 L 20.142156 58.672125 L 21.439031 58.797125 L 22.091375 58.859625 L 22.739813 58.922125 L 23.38825 58.980719 L 24.040594 59.043219 L 24.689031 59.109625 L 25.337469 59.172125 L 25.989813 59.234625 L 26.63825 59.297125 L 27.286688 59.363531 L 27.935125 59.426031 L 28.587469 59.488531 L 29.235906 59.554938 L 29.884344 59.617438 L 30.536688 59.683844 L 31.185125 59.746344 L 31.833563 59.81275 L 32.485906 59.87525 L 33.782781 60.008063 L 34.435125 60.074469 L 35.083563 60.136969 L 35.732 60.207281 L 36.384344 60.273688 L 37.681219 60.4065 L 38.333563 60.472906 L 38.982 60.535406 L 39.630438 60.605719 L 40.282781 60.672125 L 40.931219 60.738531 L 41.579656 60.808844 L 42.232 60.87525 L 43.528875 61.015875 L 44.181219 61.086188 L 44.829656 61.152594 L 45.478094 61.222906 L 46.130438 61.293219 L 47.427313 61.433844 L 48.079656 61.504156 L 49.376531 61.644781 L 50.024969 61.719 L 50.677313 61.789313 L 51.32575 61.859625 L 51.974188 61.933844 L 52.626531 62.004156 L 53.923406 62.152594 L 54.57575 62.222906 L 55.872625 62.371344 L 56.524969 62.445563 L 57.821844 62.594 L 58.474188 62.668219 L 59.771063 62.816656 L 60.423406 62.890875 L 61.071844 62.969 L 61.720281 63.043219 L 62.372625 63.121344 L 63.021063 63.195563 L 63.6695 63.273688 L 64.321844 63.347906 L 65.618719 63.504156 L 66.271063 63.582281 L 67.567938 63.738531 L 68.220281 63.816656 L 69.517156 63.972906 L 70.1695 64.051031 L 70.817938 64.133063 L 72.114813 64.289313 L 72.767156 64.371344 L 73.415594 64.453375 L 74.064031 64.5315 L 74.716375 64.613531 L 76.01325 64.777594 L 76.665594 64.859625 L 77.962469 65.023688 L 78.614813 65.105719 L 79.911688 65.269781 L 80.564031 65.355719 L 81.212469 65.43775 L 81.860906 65.523688 L 82.51325 65.605719 L 83.810125 65.777594 L 84.462469 65.863531 L 85.110906 65.945563 L 85.759344 66.0315 L 86.411688 66.117438 L 87.060125 66.203375 L 87.708563 66.293219 L 88.360906 66.379156 L 89.009344 66.465094 L 89.657781 66.554938 L 90.310125 66.640875 L 90.958563 66.730719 L 91.607 66.816656 L 92.255438 66.9065 L 92.907781 66.996344 L 93.556219 67.082281 L 94.204656 67.172125 L 94.857 67.261969 L 95.505438 67.351813 L 96.153875 67.445563 L 96.806219 67.535406 L 97.454656 67.62525 L 98.103094 67.719 L 98.755438 67.808844 L 99.403875 67.902594 L 100.052313 67.992438 L 100.704656 68.086188 L 102.001531 68.273688 L 102.653875 68.367438 L 103.95075 68.554938 L 104.603094 68.648688 L 105.251531 68.742438 L 105.899969 68.840094 L 106.552313 68.933844 L 107.20075 69.027594 L 107.849188 69.12525 L 108.501531 69.222906 L 109.149969 69.320563 L 109.798406 69.414313 L 110.45075 69.511969 L 111.747625 69.707281 L 112.399969 69.808844 L 113.696844 70.004156 L 114.345281 70.105719 L 114.997625 70.203375 L 115.646063 70.304938 L 116.2945 70.402594 L 116.946844 70.504156 L 118.243719 70.707281 L 118.896063 70.808844 L 120.192938 71.011969 L 120.845281 71.117438 L 121.493719 71.219 L 122.142156 71.324469 L 122.7945 71.426031 L 123.442938 71.5315 L 124.091375 71.633063 L 124.743719 71.738531 L 126.040594 71.949469 L 126.692938 72.054938 L 127.341375 72.164313 L 127.989813 72.269781 L 128.642156 72.37525 L 129.290594 72.484625 L 129.939031 72.590094 L 130.591375 72.699469 L 131.239813 72.808844 L 131.88825 72.914313 L 132.540594 73.023688 L 133.837469 73.242438 L 134.485906 73.355719 L 135.13825 73.465094 L 135.786688 73.574469 L 136.435125 73.68775 L 137.087469 73.797125 L 138.384344 74.023688 L 139.036688 74.136969 L 140.333563 74.363531 L 140.985906 74.476813 L 141.634344 74.590094 L 142.282781 74.707281 L 142.935125 74.820563 L 143.583563 74.93775 L 144.232 75.051031 L 144.884344 75.168219 L 146.181219 75.402594 L 146.833563 75.519781 L 147.482 75.636969 L 148.130438 75.758063 L 148.782781 75.87525 L 149.431219 75.992438 L 150.079656 76.113531 L 150.732 76.234625 L 151.380438 76.351813 L 152.028875 76.472906 L 152.681219 76.594 L 153.329656 76.715094 L 153.978094 76.840094 L 154.626531 76.961188 L 155.278875 77.082281 L 155.927313 77.207281 L 156.57575 77.328375 L 157.228094 77.453375 L 158.524969 77.703375 L 159.177313 77.828375 L 160.474188 78.078375 L 161.126531 78.203375 L 161.774969 78.332281 L 162.423406 78.457281 L 163.07575 78.586188 L 164.372625 78.844 L 165.024969 78.972906 L 166.321844 79.230719 L 166.974188 79.363531 L 167.622625 79.492438 L 168.271063 79.62525 L 168.923406 79.754156 L 170.220281 80.019781 L 170.872625 80.152594 L 172.1695 80.418219 L 172.821844 80.554938 L 173.470281 80.68775 L 174.118719 80.824469 L 174.767156 80.957281 L 175.4195 81.094 L 176.716375 81.367438 L 177.368719 81.504156 L 178.017156 81.644781 L 178.665594 81.7815 L 179.317938 81.922125 L 179.966375 82.058844 L 180.614813 82.199469 L 181.267156 82.340094 L 182.564031 82.621344 L 183.216375 82.761969 L 183.864813 82.9065 L 184.51325 83.047125 L 185.165594 83.191656 L 186.462469 83.480719 L 187.114813 83.62525 L 188.411688 83.914313 L 189.064031 84.058844 L 189.712469 84.207281 L 190.360906 84.351813 L 191.01325 84.50025 L 192.310125 84.797125 L 192.962469 84.945563 L 193.610906 85.097906 L 194.259344 85.246344" style="fill:none;stroke-width:1.19553;stroke-linecap:butt;stroke-linejoin:miter;stroke:rgb(0%,0%,100%);stroke-opacity:1;stroke-miterlimit:10;"></path></g></g></g></g></svg> 