<?xml version="1.0" encoding="UTF-8"?> <svg xmlns:cc="http://creativecommons.org/ns#" xmlns:rdf="http://www.w3.org/1999/02/22-rdf-syntax-ns#" xmlns:svg="http://www.w3.org/2000/svg" xmlns="http://www.w3.org/2000/svg" xmlns:sodipodi="http://sodipodi.sourceforge.net/DTD/sodipodi-0.dtd" xmlns:inkscape="http://www.inkscape.org/namespaces/inkscape" width="115.42361mm" height="96.642822mm" viewBox="0 0 115.42361 96.642822" version="1.1" id="svg8"><defs id="defs2"></defs><metadata id="metadata5"></metadata><g id="layer1" transform="translate(-40.300446,-75.934425)"><g id="g944" scale="1.66150538703" version="0.11.0" transform="matrix(0.586142,0.000000,0.000000,0.586142,-83.519258,-39.822779)"><g id="surface1"><path id="path861" transform="matrix(1,0,0,-1,213.143,359.594)" d="M 16.189031 0.00025 L 16.189031 161.394781 M 80.946844 0.00025 L 80.946844 161.394781 M 113.32575 0.00025 L 113.32575 161.394781 M 145.704656 0.00025 L 145.704656 161.394781 M 178.083563 0.00025 L 178.083563 161.394781" style="fill:none;stroke-width:0.3985;stroke-linecap:butt;stroke-linejoin:miter;stroke:rgb(75%,75%,75%);stroke-opacity:1;stroke-miterlimit:10;"></path><path id="path863" transform="matrix(1,0,0,-1,213.143,359.594)" d="M 0.00153125 20.176031 L 194.271063 20.176031 M 0.00153125 60.523688 L 194.271063 60.523688 M 0.00153125 80.699469 L 194.271063 80.699469 M 0.00153125 100.871344 L 194.271063 100.871344 M 0.00153125 121.047125 L 194.271063 121.047125 M 0.00153125 141.222906 L 194.271063 141.222906" style="fill:none;stroke-width:0.3985;stroke-linecap:butt;stroke-linejoin:miter;stroke:rgb(75%,75%,75%);stroke-opacity:1;stroke-miterlimit:10;"></path><path id="path865" transform="matrix(1,0,0,-1,213.143,359.594)" d="M 16.189031 38.222906 L 16.189031 42.476813 M 80.946844 38.222906 L 80.946844 42.476813 M 113.32575 38.222906 L 113.32575 42.476813 M 145.704656 38.222906 L 145.704656 42.476813 M 178.083563 38.222906 L 178.083563 42.476813" style="fill:none;stroke-width:0.19925;stroke-linecap:butt;stroke-linejoin:miter;stroke:rgb(50%,50%,50%);stroke-opacity:1;stroke-miterlimit:10;"></path><path id="path867" transform="matrix(1,0,0,-1,213.143,359.594)" d="M 46.442938 20.176031 L 50.692938 20.176031 M 46.442938 60.523688 L 50.692938 60.523688 M 46.442938 80.699469 L 50.692938 80.699469 M 46.442938 100.871344 L 50.692938 100.871344 M 46.442938 121.047125 L 50.692938 121.047125 M 46.442938 141.222906 L 50.692938 141.222906" style="fill:none;stroke-width:0.19925;stroke-linecap:butt;stroke-linejoin:miter;stroke:rgb(50%,50%,50%);stroke-opacity:1;stroke-miterlimit:10;"></path><path id="path869" transform="matrix(1,0,0,-1,213.143,359.594)" d="M 0.00153125 40.347906 L 192.278875 40.347906" style="fill:none;stroke-width:0.3985;stroke-linecap:butt;stroke-linejoin:miter;stroke:rgb(0%,0%,0%);stroke-opacity:1;stroke-miterlimit:10;"></path><path id="path871" d="M 407.414063 319.246094 L 404.226563 317.652344 L 405.421875 319.246094 L 404.226563 320.839844" style="fill-opacity:1;stroke:none;fill:rgb(0%,0%,0%);stroke-width:0;fill-rule:nonzero"></path><path id="path873" transform="matrix(1,0,0,-1,213.143,359.594)" d="M 48.567938 0.00025 L 48.567938 159.402594" style="fill:none;stroke-width:0.3985;stroke-linecap:butt;stroke-linejoin:miter;stroke:rgb(0%,0%,0%);stroke-opacity:1;stroke-miterlimit:10;"></path><path id="path875" d="M 261.710938 198.199219 L 260.117188 201.386719 L 261.710938 200.191406 L 263.304688 201.386719" style="fill-opacity:1;stroke:none;fill:rgb(0%,0%,0%);stroke-width:0;fill-rule:nonzero"></path><g id="g879" style="fill:rgb(0%,0%,0%);fill-opacity:1;"><path id="path877" transform="translate(220.477,331.311)" d="M 6.5625 -2.296875 C 6.734375 -2.296875 6.921875 -2.296875 6.921875 -2.5 C 6.921875 -2.6875 6.734375 -2.6875 6.5625 -2.6875 L 1.171875 -2.6875 C 1 -2.6875 0.828125 -2.6875 0.828125 -2.5 C 0.828125 -2.296875 1 -2.296875 1.171875 -2.296875 Z M 6.5625 -2.296875" style="stroke:none;stroke-width:0"></path></g><g id="g885" style="fill:rgb(0%,0%,0%);fill-opacity:1;"><path id="path881" transform="translate(228.225,331.311)" d="M 2.9375 -6.375 C 2.9375 -6.625 2.9375 -6.640625 2.703125 -6.640625 C 2.078125 -6 1.203125 -6 0.890625 -6 L 0.890625 -5.6875 C 1.09375 -5.6875 1.671875 -5.6875 2.1875 -5.953125 L 2.1875 -0.78125 C 2.1875 -0.421875 2.15625 -0.3125 1.265625 -0.3125 L 0.953125 -0.3125 L 0.953125 0 C 1.296875 -0.03125 2.15625 -0.03125 2.5625 -0.03125 C 2.953125 -0.03125 3.828125 -0.03125 4.171875 0 L 4.171875 -0.3125 L 3.859375 -0.3125 C 2.953125 -0.3125 2.9375 -0.421875 2.9375 -0.78125 Z M 2.9375 -6.375" style="stroke:none;stroke-width:0"></path><path id="path883" transform="translate(233.2063,331.311)" d="M 4.578125 -3.1875 C 4.578125 -3.984375 4.53125 -4.78125 4.1875 -5.515625 C 3.734375 -6.484375 2.90625 -6.640625 2.5 -6.640625 C 1.890625 -6.640625 1.171875 -6.375 0.75 -5.453125 C 0.4375 -4.765625 0.390625 -3.984375 0.390625 -3.1875 C 0.390625 -2.4375 0.421875 -1.546875 0.84375 -0.78125 C 1.265625 0.015625 2 0.21875 2.484375 0.21875 C 3.015625 0.21875 3.78125 0.015625 4.21875 -0.9375 C 4.53125 -1.625 4.578125 -2.40625 4.578125 -3.1875 Z M 2.484375 0 C 2.09375 0 1.5 -0.25 1.328125 -1.203125 C 1.21875 -1.796875 1.21875 -2.71875 1.21875 -3.3125 C 1.21875 -3.953125 1.21875 -4.609375 1.296875 -5.140625 C 1.484375 -6.328125 2.234375 -6.421875 2.484375 -6.421875 C 2.8125 -6.421875 3.46875 -6.234375 3.65625 -5.25 C 3.765625 -4.6875 3.765625 -3.9375 3.765625 -3.3125 C 3.765625 -2.5625 3.765625 -1.890625 3.65625 -1.25 C 3.5 -0.296875 2.9375 0 2.484375 0 Z M 2.484375 0" style="stroke:none;stroke-width:0"></path></g><g id="g891" style="fill:rgb(0%,0%,0%);fill-opacity:1;"><path id="path887" transform="translate(289.108,331.311)" d="M 2.9375 -6.375 C 2.9375 -6.625 2.9375 -6.640625 2.703125 -6.640625 C 2.078125 -6 1.203125 -6 0.890625 -6 L 0.890625 -5.6875 C 1.09375 -5.6875 1.671875 -5.6875 2.1875 -5.953125 L 2.1875 -0.78125 C 2.1875 -0.421875 2.15625 -0.3125 1.265625 -0.3125 L 0.953125 -0.3125 L 0.953125 0 C 1.296875 -0.03125 2.15625 -0.03125 2.5625 -0.03125 C 2.953125 -0.03125 3.828125 -0.03125 4.171875 0 L 4.171875 -0.3125 L 3.859375 -0.3125 C 2.953125 -0.3125 2.9375 -0.421875 2.9375 -0.78125 Z M 2.9375 -6.375" style="stroke:none;stroke-width:0"></path><path id="path889" transform="translate(294.0893,331.311)" d="M 4.578125 -3.1875 C 4.578125 -3.984375 4.53125 -4.78125 4.1875 -5.515625 C 3.734375 -6.484375 2.90625 -6.640625 2.5 -6.640625 C 1.890625 -6.640625 1.171875 -6.375 0.75 -5.453125 C 0.4375 -4.765625 0.390625 -3.984375 0.390625 -3.1875 C 0.390625 -2.4375 0.421875 -1.546875 0.84375 -0.78125 C 1.265625 0.015625 2 0.21875 2.484375 0.21875 C 3.015625 0.21875 3.78125 0.015625 4.21875 -0.9375 C 4.53125 -1.625 4.578125 -2.40625 4.578125 -3.1875 Z M 2.484375 0 C 2.09375 0 1.5 -0.25 1.328125 -1.203125 C 1.21875 -1.796875 1.21875 -2.71875 1.21875 -3.3125 C 1.21875 -3.953125 1.21875 -4.609375 1.296875 -5.140625 C 1.484375 -6.328125 2.234375 -6.421875 2.484375 -6.421875 C 2.8125 -6.421875 3.46875 -6.234375 3.65625 -5.25 C 3.765625 -4.6875 3.765625 -3.9375 3.765625 -3.3125 C 3.765625 -2.5625 3.765625 -1.890625 3.65625 -1.25 C 3.5 -0.296875 2.9375 0 2.484375 0 Z M 2.484375 0" style="stroke:none;stroke-width:0"></path></g><g id="g897" style="fill:rgb(0%,0%,0%);fill-opacity:1;"><path id="path893" transform="translate(321.486,331.311)" d="M 1.265625 -0.765625 L 2.328125 -1.796875 C 3.875 -3.171875 4.46875 -3.703125 4.46875 -4.703125 C 4.46875 -5.84375 3.578125 -6.640625 2.359375 -6.640625 C 1.234375 -6.640625 0.5 -5.71875 0.5 -4.828125 C 0.5 -4.28125 1 -4.28125 1.03125 -4.28125 C 1.203125 -4.28125 1.546875 -4.390625 1.546875 -4.8125 C 1.546875 -5.0625 1.359375 -5.328125 1.015625 -5.328125 C 0.9375 -5.328125 0.921875 -5.328125 0.890625 -5.3125 C 1.109375 -5.96875 1.65625 -6.328125 2.234375 -6.328125 C 3.140625 -6.328125 3.5625 -5.515625 3.5625 -4.703125 C 3.5625 -3.90625 3.078125 -3.125 2.515625 -2.5 L 0.609375 -0.375 C 0.5 -0.265625 0.5 -0.234375 0.5 0 L 4.203125 0 L 4.46875 -1.734375 L 4.234375 -1.734375 C 4.171875 -1.4375 4.109375 -1 4 -0.84375 C 3.9375 -0.765625 3.28125 -0.765625 3.0625 -0.765625 Z M 1.265625 -0.765625" style="stroke:none;stroke-width:0"></path><path id="path895" transform="translate(326.4673,331.311)" d="M 4.578125 -3.1875 C 4.578125 -3.984375 4.53125 -4.78125 4.1875 -5.515625 C 3.734375 -6.484375 2.90625 -6.640625 2.5 -6.640625 C 1.890625 -6.640625 1.171875 -6.375 0.75 -5.453125 C 0.4375 -4.765625 0.390625 -3.984375 0.390625 -3.1875 C 0.390625 -2.4375 0.421875 -1.546875 0.84375 -0.78125 C 1.265625 0.015625 2 0.21875 2.484375 0.21875 C 3.015625 0.21875 3.78125 0.015625 4.21875 -0.9375 C 4.53125 -1.625 4.578125 -2.40625 4.578125 -3.1875 Z M 2.484375 0 C 2.09375 0 1.5 -0.25 1.328125 -1.203125 C 1.21875 -1.796875 1.21875 -2.71875 1.21875 -3.3125 C 1.21875 -3.953125 1.21875 -4.609375 1.296875 -5.140625 C 1.484375 -6.328125 2.234375 -6.421875 2.484375 -6.421875 C 2.8125 -6.421875 3.46875 -6.234375 3.65625 -5.25 C 3.765625 -4.6875 3.765625 -3.9375 3.765625 -3.3125 C 3.765625 -2.5625 3.765625 -1.890625 3.65625 -1.25 C 3.5 -0.296875 2.9375 0 2.484375 0 Z M 2.484375 0" style="stroke:none;stroke-width:0"></path></g><g id="g903" style="fill:rgb(0%,0%,0%);fill-opacity:1;"><path id="path899" transform="translate(353.864,331.311)" d="M 2.890625 -3.515625 C 3.703125 -3.78125 4.28125 -4.46875 4.28125 -5.265625 C 4.28125 -6.078125 3.40625 -6.640625 2.453125 -6.640625 C 1.453125 -6.640625 0.6875 -6.046875 0.6875 -5.28125 C 0.6875 -4.953125 0.90625 -4.765625 1.203125 -4.765625 C 1.5 -4.765625 1.703125 -4.984375 1.703125 -5.28125 C 1.703125 -5.765625 1.234375 -5.765625 1.09375 -5.765625 C 1.390625 -6.265625 2.046875 -6.390625 2.40625 -6.390625 C 2.828125 -6.390625 3.375 -6.171875 3.375 -5.28125 C 3.375 -5.15625 3.34375 -4.578125 3.09375 -4.140625 C 2.796875 -3.65625 2.453125 -3.625 2.203125 -3.625 C 2.125 -3.609375 1.890625 -3.59375 1.8125 -3.59375 C 1.734375 -3.578125 1.671875 -3.5625 1.671875 -3.46875 C 1.671875 -3.359375 1.734375 -3.359375 1.90625 -3.359375 L 2.34375 -3.359375 C 3.15625 -3.359375 3.53125 -2.6875 3.53125 -1.703125 C 3.53125 -0.34375 2.84375 -0.0625 2.40625 -0.0625 C 1.96875 -0.0625 1.21875 -0.234375 0.875 -0.8125 C 1.21875 -0.765625 1.53125 -0.984375 1.53125 -1.359375 C 1.53125 -1.71875 1.265625 -1.921875 0.984375 -1.921875 C 0.734375 -1.921875 0.421875 -1.78125 0.421875 -1.34375 C 0.421875 -0.4375 1.34375 0.21875 2.4375 0.21875 C 3.65625 0.21875 4.5625 -0.6875 4.5625 -1.703125 C 4.5625 -2.515625 3.921875 -3.296875 2.890625 -3.515625 Z M 2.890625 -3.515625" style="stroke:none;stroke-width:0"></path><path id="path901" transform="translate(358.8453,331.311)" d="M 4.578125 -3.1875 C 4.578125 -3.984375 4.53125 -4.78125 4.1875 -5.515625 C 3.734375 -6.484375 2.90625 -6.640625 2.5 -6.640625 C 1.890625 -6.640625 1.171875 -6.375 0.75 -5.453125 C 0.4375 -4.765625 0.390625 -3.984375 0.390625 -3.1875 C 0.390625 -2.4375 0.421875 -1.546875 0.84375 -0.78125 C 1.265625 0.015625 2 0.21875 2.484375 0.21875 C 3.015625 0.21875 3.78125 0.015625 4.21875 -0.9375 C 4.53125 -1.625 4.578125 -2.40625 4.578125 -3.1875 Z M 2.484375 0 C 2.09375 0 1.5 -0.25 1.328125 -1.203125 C 1.21875 -1.796875 1.21875 -2.71875 1.21875 -3.3125 C 1.21875 -3.953125 1.21875 -4.609375 1.296875 -5.140625 C 1.484375 -6.328125 2.234375 -6.421875 2.484375 -6.421875 C 2.8125 -6.421875 3.46875 -6.234375 3.65625 -5.25 C 3.765625 -4.6875 3.765625 -3.9375 3.765625 -3.3125 C 3.765625 -2.5625 3.765625 -1.890625 3.65625 -1.25 C 3.5 -0.296875 2.9375 0 2.484375 0 Z M 2.484375 0" style="stroke:none;stroke-width:0"></path></g><g id="g909" style="fill:rgb(0%,0%,0%);fill-opacity:1;"><path id="path905" transform="translate(386.242,331.311)" d="M 2.9375 -1.640625 L 2.9375 -0.78125 C 2.9375 -0.421875 2.90625 -0.3125 2.171875 -0.3125 L 1.96875 -0.3125 L 1.96875 0 C 2.375 -0.03125 2.890625 -0.03125 3.3125 -0.03125 C 3.734375 -0.03125 4.25 -0.03125 4.671875 0 L 4.671875 -0.3125 L 4.453125 -0.3125 C 3.71875 -0.3125 3.703125 -0.421875 3.703125 -0.78125 L 3.703125 -1.640625 L 4.6875 -1.640625 L 4.6875 -1.953125 L 3.703125 -1.953125 L 3.703125 -6.484375 C 3.703125 -6.6875 3.703125 -6.75 3.53125 -6.75 C 3.453125 -6.75 3.421875 -6.75 3.34375 -6.625 L 0.28125 -1.953125 L 0.28125 -1.640625 Z M 2.984375 -1.953125 L 0.5625 -1.953125 L 2.984375 -5.671875 Z M 2.984375 -1.953125" style="stroke:none;stroke-width:0"></path><path id="path907" transform="translate(391.2233,331.311)" d="M 4.578125 -3.1875 C 4.578125 -3.984375 4.53125 -4.78125 4.1875 -5.515625 C 3.734375 -6.484375 2.90625 -6.640625 2.5 -6.640625 C 1.890625 -6.640625 1.171875 -6.375 0.75 -5.453125 C 0.4375 -4.765625 0.390625 -3.984375 0.390625 -3.1875 C 0.390625 -2.4375 0.421875 -1.546875 0.84375 -0.78125 C 1.265625 0.015625 2 0.21875 2.484375 0.21875 C 3.015625 0.21875 3.78125 0.015625 4.21875 -0.9375 C 4.53125 -1.625 4.578125 -2.40625 4.578125 -3.1875 Z M 2.484375 0 C 2.09375 0 1.5 -0.25 1.328125 -1.203125 C 1.21875 -1.796875 1.21875 -2.71875 1.21875 -3.3125 C 1.21875 -3.953125 1.21875 -4.609375 1.296875 -5.140625 C 1.484375 -6.328125 2.234375 -6.421875 2.484375 -6.421875 C 2.8125 -6.421875 3.46875 -6.234375 3.65625 -5.25 C 3.765625 -4.6875 3.765625 -3.9375 3.765625 -3.3125 C 3.765625 -2.5625 3.765625 -1.890625 3.65625 -1.25 C 3.5 -0.296875 2.9375 0 2.484375 0 Z M 2.484375 0" style="stroke:none;stroke-width:0"></path></g><g id="g913" style="fill:rgb(0%,0%,0%);fill-opacity:1;"><path id="path911" transform="translate(243.335,342.214)" d="M 6.5625 -2.296875 C 6.734375 -2.296875 6.921875 -2.296875 6.921875 -2.5 C 6.921875 -2.6875 6.734375 -2.6875 6.5625 -2.6875 L 1.171875 -2.6875 C 1 -2.6875 0.828125 -2.6875 0.828125 -2.5 C 0.828125 -2.296875 1 -2.296875 1.171875 -2.296875 Z M 6.5625 -2.296875" style="stroke:none;stroke-width:0"></path></g><g id="g917" style="fill:rgb(0%,0%,0%);fill-opacity:1;"><path id="path915" transform="translate(251.084,342.214)" d="M 2.9375 -6.375 C 2.9375 -6.625 2.9375 -6.640625 2.703125 -6.640625 C 2.078125 -6 1.203125 -6 0.890625 -6 L 0.890625 -5.6875 C 1.09375 -5.6875 1.671875 -5.6875 2.1875 -5.953125 L 2.1875 -0.78125 C 2.1875 -0.421875 2.15625 -0.3125 1.265625 -0.3125 L 0.953125 -0.3125 L 0.953125 0 C 1.296875 -0.03125 2.15625 -0.03125 2.5625 -0.03125 C 2.953125 -0.03125 3.828125 -0.03125 4.171875 0 L 4.171875 -0.3125 L 3.859375 -0.3125 C 2.953125 -0.3125 2.9375 -0.421875 2.9375 -0.78125 Z M 2.9375 -6.375" style="stroke:none;stroke-width:0"></path></g><g id="g921" style="fill:rgb(0%,0%,0%);fill-opacity:1;"><path id="path919" transform="translate(251.084,302.281)" d="M 2.9375 -6.375 C 2.9375 -6.625 2.9375 -6.640625 2.703125 -6.640625 C 2.078125 -6 1.203125 -6 0.890625 -6 L 0.890625 -5.6875 C 1.09375 -5.6875 1.671875 -5.6875 2.1875 -5.953125 L 2.1875 -0.78125 C 2.1875 -0.421875 2.15625 -0.3125 1.265625 -0.3125 L 0.953125 -0.3125 L 0.953125 0 C 1.296875 -0.03125 2.15625 -0.03125 2.5625 -0.03125 C 2.953125 -0.03125 3.828125 -0.03125 4.171875 0 L 4.171875 -0.3125 L 3.859375 -0.3125 C 2.953125 -0.3125 2.9375 -0.421875 2.9375 -0.78125 Z M 2.9375 -6.375" style="stroke:none;stroke-width:0"></path></g><g id="g925" style="fill:rgb(0%,0%,0%);fill-opacity:1;"><path id="path923" transform="translate(251.084,282.107)" d="M 1.265625 -0.765625 L 2.328125 -1.796875 C 3.875 -3.171875 4.46875 -3.703125 4.46875 -4.703125 C 4.46875 -5.84375 3.578125 -6.640625 2.359375 -6.640625 C 1.234375 -6.640625 0.5 -5.71875 0.5 -4.828125 C 0.5 -4.28125 1 -4.28125 1.03125 -4.28125 C 1.203125 -4.28125 1.546875 -4.390625 1.546875 -4.8125 C 1.546875 -5.0625 1.359375 -5.328125 1.015625 -5.328125 C 0.9375 -5.328125 0.921875 -5.328125 0.890625 -5.3125 C 1.109375 -5.96875 1.65625 -6.328125 2.234375 -6.328125 C 3.140625 -6.328125 3.5625 -5.515625 3.5625 -4.703125 C 3.5625 -3.90625 3.078125 -3.125 2.515625 -2.5 L 0.609375 -0.375 C 0.5 -0.265625 0.5 -0.234375 0.5 0 L 4.203125 0 L 4.46875 -1.734375 L 4.234375 -1.734375 C 4.171875 -1.4375 4.109375 -1 4 -0.84375 C 3.9375 -0.765625 3.28125 -0.765625 3.0625 -0.765625 Z M 1.265625 -0.765625" style="stroke:none;stroke-width:0"></path></g><g id="g929" style="fill:rgb(0%,0%,0%);fill-opacity:1;"><path id="path927" transform="translate(251.084,261.932)" d="M 2.890625 -3.515625 C 3.703125 -3.78125 4.28125 -4.46875 4.28125 -5.265625 C 4.28125 -6.078125 3.40625 -6.640625 2.453125 -6.640625 C 1.453125 -6.640625 0.6875 -6.046875 0.6875 -5.28125 C 0.6875 -4.953125 0.90625 -4.765625 1.203125 -4.765625 C 1.5 -4.765625 1.703125 -4.984375 1.703125 -5.28125 C 1.703125 -5.765625 1.234375 -5.765625 1.09375 -5.765625 C 1.390625 -6.265625 2.046875 -6.390625 2.40625 -6.390625 C 2.828125 -6.390625 3.375 -6.171875 3.375 -5.28125 C 3.375 -5.15625 3.34375 -4.578125 3.09375 -4.140625 C 2.796875 -3.65625 2.453125 -3.625 2.203125 -3.625 C 2.125 -3.609375 1.890625 -3.59375 1.8125 -3.59375 C 1.734375 -3.578125 1.671875 -3.5625 1.671875 -3.46875 C 1.671875 -3.359375 1.734375 -3.359375 1.90625 -3.359375 L 2.34375 -3.359375 C 3.15625 -3.359375 3.53125 -2.6875 3.53125 -1.703125 C 3.53125 -0.34375 2.84375 -0.0625 2.40625 -0.0625 C 1.96875 -0.0625 1.21875 -0.234375 0.875 -0.8125 C 1.21875 -0.765625 1.53125 -0.984375 1.53125 -1.359375 C 1.53125 -1.71875 1.265625 -1.921875 0.984375 -1.921875 C 0.734375 -1.921875 0.421875 -1.78125 0.421875 -1.34375 C 0.421875 -0.4375 1.34375 0.21875 2.4375 0.21875 C 3.65625 0.21875 4.5625 -0.6875 4.5625 -1.703125 C 4.5625 -2.515625 3.921875 -3.296875 2.890625 -3.515625 Z M 2.890625 -3.515625" style="stroke:none;stroke-width:0"></path></g><g id="g933" style="fill:rgb(0%,0%,0%);fill-opacity:1;"><path id="path931" transform="translate(251.084,241.758)" d="M 2.9375 -1.640625 L 2.9375 -0.78125 C 2.9375 -0.421875 2.90625 -0.3125 2.171875 -0.3125 L 1.96875 -0.3125 L 1.96875 0 C 2.375 -0.03125 2.890625 -0.03125 3.3125 -0.03125 C 3.734375 -0.03125 4.25 -0.03125 4.671875 0 L 4.671875 -0.3125 L 4.453125 -0.3125 C 3.71875 -0.3125 3.703125 -0.421875 3.703125 -0.78125 L 3.703125 -1.640625 L 4.6875 -1.640625 L 4.6875 -1.953125 L 3.703125 -1.953125 L 3.703125 -6.484375 C 3.703125 -6.6875 3.703125 -6.75 3.53125 -6.75 C 3.453125 -6.75 3.421875 -6.75 3.34375 -6.625 L 0.28125 -1.953125 L 0.28125 -1.640625 Z M 2.984375 -1.953125 L 0.5625 -1.953125 L 2.984375 -5.671875 Z M 2.984375 -1.953125" style="stroke:none;stroke-width:0"></path></g><g id="g937" style="fill:rgb(0%,0%,0%);fill-opacity:1;"><path id="path935" transform="translate(251.084,221.584)" d="M 4.46875 -2 C 4.46875 -3.1875 3.65625 -4.1875 2.578125 -4.1875 C 2.109375 -4.1875 1.671875 -4.03125 1.3125 -3.671875 L 1.3125 -5.625 C 1.515625 -5.5625 1.84375 -5.5 2.15625 -5.5 C 3.390625 -5.5 4.09375 -6.40625 4.09375 -6.53125 C 4.09375 -6.59375 4.0625 -6.640625 3.984375 -6.640625 C 3.984375 -6.640625 3.953125 -6.640625 3.90625 -6.609375 C 3.703125 -6.515625 3.21875 -6.3125 2.546875 -6.3125 C 2.15625 -6.3125 1.6875 -6.390625 1.21875 -6.59375 C 1.140625 -6.625 1.125 -6.625 1.109375 -6.625 C 1 -6.625 1 -6.546875 1 -6.390625 L 1 -3.4375 C 1 -3.265625 1 -3.1875 1.140625 -3.1875 C 1.21875 -3.1875 1.234375 -3.203125 1.28125 -3.265625 C 1.390625 -3.421875 1.75 -3.96875 2.5625 -3.96875 C 3.078125 -3.96875 3.328125 -3.515625 3.40625 -3.328125 C 3.5625 -2.953125 3.59375 -2.578125 3.59375 -2.078125 C 3.59375 -1.71875 3.59375 -1.125 3.34375 -0.703125 C 3.109375 -0.3125 2.734375 -0.0625 2.28125 -0.0625 C 1.5625 -0.0625 0.984375 -0.59375 0.8125 -1.171875 C 0.84375 -1.171875 0.875 -1.15625 0.984375 -1.15625 C 1.3125 -1.15625 1.484375 -1.40625 1.484375 -1.640625 C 1.484375 -1.890625 1.3125 -2.140625 0.984375 -2.140625 C 0.84375 -2.140625 0.5 -2.0625 0.5 -1.609375 C 0.5 -0.75 1.1875 0.21875 2.296875 0.21875 C 3.453125 0.21875 4.46875 -0.734375 4.46875 -2 Z M 4.46875 -2" style="stroke:none;stroke-width:0"></path></g><g id="g941" clip-rule="nonzero" clip-path="url('#clip1')"><path id="path939" transform="matrix(1,0,0,-1,213.143,359.594)" d="M 0.00153125 44.851813 L 0.649969 44.941656 L 1.298406 45.035406 L 1.95075 45.129156 L 3.247625 45.324469 L 3.899969 45.426031 L 4.548406 45.527594 L 5.196844 45.633063 L 5.849188 45.742438 L 7.146063 45.961188 L 7.798406 46.074469 L 8.446844 46.191656 L 9.095281 46.31275 L 9.747625 46.433844 L 10.396063 46.554938 L 11.0445 46.679938 L 11.696844 46.808844 L 12.993719 47.074469 L 13.646063 47.211188 L 14.2945 47.347906 L 14.942938 47.492438 L 15.595281 47.636969 L 16.892156 47.933844 L 17.5445 48.090094 L 18.192938 48.246344 L 18.841375 48.4065 L 19.493719 48.570563 L 20.142156 48.734625 L 20.790594 48.9065 L 21.442938 49.078375 L 22.739813 49.43775 L 23.392156 49.621344 L 24.040594 49.808844 L 24.689031 50.00025 L 25.341375 50.195563 L 25.989813 50.394781 L 26.63825 50.601813 L 27.290594 50.808844 L 27.939031 51.019781 L 28.587469 51.234625 L 29.239813 51.457281 L 29.88825 51.679938 L 30.536688 51.910406 L 31.189031 52.144781 L 31.837469 52.383063 L 32.485906 52.629156 L 33.13825 52.879156 L 33.786688 53.129156 L 34.435125 53.390875 L 35.087469 53.6565 L 35.735906 53.926031 L 36.384344 54.199469 L 37.036688 54.480719 L 37.685125 54.765875 L 38.333563 55.058844 L 38.985906 55.359625 L 39.634344 55.660406 L 40.282781 55.972906 L 40.931219 56.289313 L 41.583563 56.609625 L 42.232 56.941656 L 42.880438 57.277594 L 43.532781 57.621344 L 44.181219 57.972906 L 44.829656 58.328375 L 45.482 58.691656 L 46.130438 59.066656 L 46.778875 59.445563 L 47.431219 59.828375 L 48.728094 60.62525 L 49.380438 61.035406 L 50.028875 61.453375 L 50.677313 61.883063 L 51.329656 62.320563 L 51.978094 62.765875 L 52.626531 63.219 L 53.278875 63.683844 L 53.927313 64.1565 L 54.57575 64.636969 L 55.228094 65.129156 L 55.876531 65.633063 L 56.524969 66.144781 L 57.177313 66.668219 L 57.82575 67.199469 L 58.474188 67.746344 L 59.126531 68.301031 L 59.774969 68.867438 L 60.423406 69.445563 L 61.07575 70.035406 L 61.724188 70.636969 L 62.372625 71.25025 L 63.024969 71.87525 L 63.673406 72.515875 L 64.321844 73.168219 L 64.974188 73.832281 L 65.622625 74.511969 L 66.271063 75.203375 L 66.923406 75.910406 L 67.571844 76.629156 L 68.220281 77.367438 L 68.872625 78.117438 L 69.521063 78.883063 L 70.1695 79.664313 L 70.821844 80.461188 L 71.470281 81.273688 L 72.118719 82.101813 L 72.771063 82.949469 L 73.4195 83.81275 L 74.067938 84.691656 L 74.720281 85.590094 L 75.368719 86.508063 L 76.017156 87.445563 L 76.6695 88.398688 L 77.317938 89.37525 L 77.966375 90.367438 L 78.618719 91.383063 L 79.267156 92.414313 L 79.915594 93.469 L 80.567938 94.547125 L 81.216375 95.644781 L 81.864813 96.765875 L 82.517156 97.910406 L 83.165594 99.078375 L 83.814031 100.265875 L 84.466375 101.480719 L 85.114813 102.719 L 85.76325 103.984625 L 86.415594 105.273688 L 87.064031 106.590094 L 87.712469 107.933844 L 88.364813 109.304938 L 89.01325 110.699469 L 89.661688 112.129156 L 90.314031 113.582281 L 90.962469 115.066656 L 91.610906 116.582281 L 92.26325 118.12525 L 92.911688 119.703375 L 93.560125 121.31275 L 94.212469 122.953375 L 94.860906 124.62525 L 95.509344 126.332281 L 96.161688 128.078375 L 96.810125 129.855719 L 97.458563 131.672125 L 98.110906 133.523688 L 98.759344 135.410406 L 99.407781 137.336188 L 100.060125 139.304938 L 100.708563 141.308844 L 101.357 143.355719 L 102.009344 145.441656 L 102.657781 147.570563 L 103.306219 149.746344 L 103.958563 151.965094 L 104.607 154.226813 L 105.255438 156.535406 L 105.907781 158.890875 L 106.556219 161.289313 L 107.204656 163.742438 L 107.857 166.242438 L 108.505438 168.797125 L 109.153875 171.398688 L 109.806219 174.054938 L 110.454656 176.765875 L 111.103094 179.5315 L 111.755438 182.351813 L 112.403875 185.230719 L 113.052313 188.168219 L 113.704656 191.164313 L 114.353094 194.222906 L 115.001531 197.340094 L 115.653875 200.523688 L 116.302313 203.769781 L 116.95075 207.082281 L 117.603094 210.461188 L 118.251531 213.910406 L 118.899969 217.426031 L 119.552313 221.015875 L 120.20075 224.679938 L 120.849188 228.414313 L 121.501531 232.226813 L 122.149969 236.113531 L 122.798406 240.086188 L 123.45075 244.136969 L 124.099188 248.269781 L 124.747625 252.480719 L 125.399969 256.7815 L 126.048406 261.172125 L 126.696844 265.644781 L 127.349188 270.211188 L 127.997625 274.871344 L 128.646063 279.621344 L 129.298406 284.472906 L 129.946844 289.422125 L 130.595281 294.469 L 131.247625 299.617438 L 131.896063 304.871344 L 132.5445 310.234625 L 133.196844 315.699469 L 133.845281 321.285406 L 134.493719 326.984625 L 135.146063 332.789313 L 135.7945 338.715094 L 136.442938 344.769781 L 137.095281 350.933844 L 137.743719 357.230719 L 138.392156 363.648688 L 139.0445 370.203375 L 139.692938 376.886969 L 140.341375 383.715094 L 140.993719 390.672125 L 141.642156 397.773688 L 142.290594 405.023688 L 142.942938 412.410406 L 143.591375 419.949469 L 144.239813 427.644781 L 144.892156 435.492438 L 145.540594 443.504156 L 146.189031 451.672125 L 146.841375 460.008063 L 147.489813 468.515875 L 148.13825 477.195563 L 148.790594 486.06275 L 149.439031 495.094 L 150.087469 504.304938 L 150.739813 513.707281 L 151.38825 523.304938 L 152.036688 533.094 L 152.689031 543.082281 L 153.337469 553.261969 L 153.985906 563.6565 L 154.63825 574.269781 L 155.286688 585.094 L 155.935125 596.140875 L 156.587469 607.402594 L 157.235906 618.894781 L 157.884344 630.62525 L 158.536688 642.597906 L 159.185125 654.793219 L 159.833563 667.242438 L 160.485906 679.941656 L 161.134344 692.914313 L 161.782781 706.136969 L 162.435125 719.644781 L 163.083563 733.4065 L 163.732 747.461188 L 164.384344 761.793219 L 165.032781 776.414313 L 165.681219 791.351813 L 166.333563 806.554938 L 166.982 822.086188 L 167.630438 837.922125 L 168.282781 854.097906 L 168.931219 870.605719 L 169.579656 887.426031 L 170.232 904.605719 L 170.880438 922.117438 L 171.528875 939.992438 L 172.177313 958.211188 L 172.829656 976.832281 L 173.478094 995.797125 L 174.126531 1015.160406 L 174.778875 1034.926031 L 175.427313 1055.101813 L 176.07575 1075.644781 L 176.728094 1096.648688 L 177.376531 1118.06275 L 178.024969 1139.898688 L 178.677313 1162.191656 L 179.32575 1184.922125 L 179.974188 1208.133063 L 180.626531 1231.777594 L 181.274969 1255.949469 L 181.923406 1280.574469 L 182.57575 1305.730719 L 183.224188 1331.363531 L 183.872625 1357.539313 L 184.524969 1384.246344 L 185.173406 1411.484625 L 185.821844 1439.273688 L 186.474188 1467.617438 L 187.122625 1496.566656 L 187.771063 1526.06275 L 188.423406 1556.183844 L 189.071844 1586.9065 L 189.720281 1618.261969 L 190.372625 1650.261969 L 191.021063 1682.902594 L 191.6695 1716.195563 L 192.321844 1750.133063 L 192.970281 1784.804938 L 193.618719 1820.136969 L 194.271063 1856.234625" style="fill:none;stroke-width:1.19553;stroke-linecap:butt;stroke-linejoin:miter;stroke:rgb(0%,0%,100%);stroke-opacity:1;stroke-miterlimit:10;"></path></g></g></g></g></svg> 