<?xml version="1.0" encoding="UTF-8"?> <svg xmlns:cc="http://creativecommons.org/ns#" xmlns:rdf="http://www.w3.org/1999/02/22-rdf-syntax-ns#" xmlns:svg="http://www.w3.org/2000/svg" xmlns="http://www.w3.org/2000/svg" xmlns:sodipodi="http://sodipodi.sourceforge.net/DTD/sodipodi-0.dtd" xmlns:inkscape="http://www.inkscape.org/namespaces/inkscape" width="115.42361mm" height="96.642822mm" viewBox="0 0 115.42361 96.642822" version="1.1" id="svg8"><defs id="defs2"></defs><metadata id="metadata5"></metadata><g id="layer1" transform="translate(-40.300446,-75.934425)"><g id="g944" scale="1.66150538703" version="0.11.0" transform="matrix(0.586142,0.000000,0.000000,0.586142,-84.301792,-38.465401)"><g id="surface1"><path id="path861" transform="matrix(1,0,0,-1,213.143,379.675)" d="M 16.189031 20.08125 L 16.189031 181.475781 M 80.946844 20.08125 L 80.946844 181.475781 M 113.32575 20.08125 L 113.32575 181.475781 M 145.704656 20.08125 L 145.704656 181.475781 M 178.083563 20.08125 L 178.083563 181.475781" style="fill:none;stroke-width:0.3985;stroke-linecap:butt;stroke-linejoin:miter;stroke:rgb(75%,75%,75%);stroke-opacity:1;stroke-miterlimit:10;"></path><path id="path863" transform="matrix(1,0,0,-1,213.143,379.675)" d="M 0.00153125 40.257031 L 194.271063 40.257031 M 0.00153125 80.604688 L 194.271063 80.604688 M 0.00153125 100.780469 L 194.271063 100.780469 M 0.00153125 120.952344 L 194.271063 120.952344 M 0.00153125 141.128125 L 194.271063 141.128125 M 0.00153125 161.303906 L 194.271063 161.303906" style="fill:none;stroke-width:0.3985;stroke-linecap:butt;stroke-linejoin:miter;stroke:rgb(75%,75%,75%);stroke-opacity:1;stroke-miterlimit:10;"></path><path id="path865" transform="matrix(1,0,0,-1,213.143,379.675)" d="M 16.189031 58.303906 L 16.189031 62.557813 M 80.946844 58.303906 L 80.946844 62.557813 M 113.32575 58.303906 L 113.32575 62.557813 M 145.704656 58.303906 L 145.704656 62.557813 M 178.083563 58.303906 L 178.083563 62.557813" style="fill:none;stroke-width:0.19925;stroke-linecap:butt;stroke-linejoin:miter;stroke:rgb(50%,50%,50%);stroke-opacity:1;stroke-miterlimit:10;"></path><path id="path867" transform="matrix(1,0,0,-1,213.143,379.675)" d="M 46.442938 40.257031 L 50.692938 40.257031 M 46.442938 80.604688 L 50.692938 80.604688 M 46.442938 100.780469 L 50.692938 100.780469 M 46.442938 120.952344 L 50.692938 120.952344 M 46.442938 141.128125 L 50.692938 141.128125 M 46.442938 161.303906 L 50.692938 161.303906" style="fill:none;stroke-width:0.19925;stroke-linecap:butt;stroke-linejoin:miter;stroke:rgb(50%,50%,50%);stroke-opacity:1;stroke-miterlimit:10;"></path><path id="path869" transform="matrix(1,0,0,-1,213.143,379.675)" d="M 0.00153125 60.428906 L 192.278875 60.428906" style="fill:none;stroke-width:0.3985;stroke-linecap:butt;stroke-linejoin:miter;stroke:rgb(0%,0%,0%);stroke-opacity:1;stroke-miterlimit:10;"></path><path id="path871" d="M 407.414063 319.246094 L 404.226563 317.652344 L 405.421875 319.246094 L 404.226563 320.839844" style="fill-opacity:1;stroke:none;fill:rgb(0%,0%,0%);stroke-width:0;fill-rule:nonzero"></path><path id="path873" transform="matrix(1,0,0,-1,213.143,379.675)" d="M 48.567938 20.08125 L 48.567938 179.483594" style="fill:none;stroke-width:0.3985;stroke-linecap:butt;stroke-linejoin:miter;stroke:rgb(0%,0%,0%);stroke-opacity:1;stroke-miterlimit:10;"></path><path id="path875" d="M 261.710938 198.199219 L 260.117188 201.386719 L 261.710938 200.191406 L 263.304688 201.386719" style="fill-opacity:1;stroke:none;fill:rgb(0%,0%,0%);stroke-width:0;fill-rule:nonzero"></path><g id="g879" style="fill:rgb(0%,0%,0%);fill-opacity:1;"><path id="path877" transform="translate(220.477,331.311)" d="M 6.5625 -2.296875 C 6.734375 -2.296875 6.921875 -2.296875 6.921875 -2.5 C 6.921875 -2.6875 6.734375 -2.6875 6.5625 -2.6875 L 1.171875 -2.6875 C 1 -2.6875 0.828125 -2.6875 0.828125 -2.5 C 0.828125 -2.296875 1 -2.296875 1.171875 -2.296875 Z M 6.5625 -2.296875" style="stroke:none;stroke-width:0"></path></g><g id="g885" style="fill:rgb(0%,0%,0%);fill-opacity:1;"><path id="path881" transform="translate(228.225,331.311)" d="M 2.9375 -6.375 C 2.9375 -6.625 2.9375 -6.640625 2.703125 -6.640625 C 2.078125 -6 1.203125 -6 0.890625 -6 L 0.890625 -5.6875 C 1.09375 -5.6875 1.671875 -5.6875 2.1875 -5.953125 L 2.1875 -0.78125 C 2.1875 -0.421875 2.15625 -0.3125 1.265625 -0.3125 L 0.953125 -0.3125 L 0.953125 0 C 1.296875 -0.03125 2.15625 -0.03125 2.5625 -0.03125 C 2.953125 -0.03125 3.828125 -0.03125 4.171875 0 L 4.171875 -0.3125 L 3.859375 -0.3125 C 2.953125 -0.3125 2.9375 -0.421875 2.9375 -0.78125 Z M 2.9375 -6.375" style="stroke:none;stroke-width:0"></path><path id="path883" transform="translate(233.2063,331.311)" d="M 4.578125 -3.1875 C 4.578125 -3.984375 4.53125 -4.78125 4.1875 -5.515625 C 3.734375 -6.484375 2.90625 -6.640625 2.5 -6.640625 C 1.890625 -6.640625 1.171875 -6.375 0.75 -5.453125 C 0.4375 -4.765625 0.390625 -3.984375 0.390625 -3.1875 C 0.390625 -2.4375 0.421875 -1.546875 0.84375 -0.78125 C 1.265625 0.015625 2 0.21875 2.484375 0.21875 C 3.015625 0.21875 3.78125 0.015625 4.21875 -0.9375 C 4.53125 -1.625 4.578125 -2.40625 4.578125 -3.1875 Z M 2.484375 0 C 2.09375 0 1.5 -0.25 1.328125 -1.203125 C 1.21875 -1.796875 1.21875 -2.71875 1.21875 -3.3125 C 1.21875 -3.953125 1.21875 -4.609375 1.296875 -5.140625 C 1.484375 -6.328125 2.234375 -6.421875 2.484375 -6.421875 C 2.8125 -6.421875 3.46875 -6.234375 3.65625 -5.25 C 3.765625 -4.6875 3.765625 -3.9375 3.765625 -3.3125 C 3.765625 -2.5625 3.765625 -1.890625 3.65625 -1.25 C 3.5 -0.296875 2.9375 0 2.484375 0 Z M 2.484375 0" style="stroke:none;stroke-width:0"></path></g><g id="g891" style="fill:rgb(0%,0%,0%);fill-opacity:1;"><path id="path887" transform="translate(289.108,331.311)" d="M 2.9375 -6.375 C 2.9375 -6.625 2.9375 -6.640625 2.703125 -6.640625 C 2.078125 -6 1.203125 -6 0.890625 -6 L 0.890625 -5.6875 C 1.09375 -5.6875 1.671875 -5.6875 2.1875 -5.953125 L 2.1875 -0.78125 C 2.1875 -0.421875 2.15625 -0.3125 1.265625 -0.3125 L 0.953125 -0.3125 L 0.953125 0 C 1.296875 -0.03125 2.15625 -0.03125 2.5625 -0.03125 C 2.953125 -0.03125 3.828125 -0.03125 4.171875 0 L 4.171875 -0.3125 L 3.859375 -0.3125 C 2.953125 -0.3125 2.9375 -0.421875 2.9375 -0.78125 Z M 2.9375 -6.375" style="stroke:none;stroke-width:0"></path><path id="path889" transform="translate(294.0893,331.311)" d="M 4.578125 -3.1875 C 4.578125 -3.984375 4.53125 -4.78125 4.1875 -5.515625 C 3.734375 -6.484375 2.90625 -6.640625 2.5 -6.640625 C 1.890625 -6.640625 1.171875 -6.375 0.75 -5.453125 C 0.4375 -4.765625 0.390625 -3.984375 0.390625 -3.1875 C 0.390625 -2.4375 0.421875 -1.546875 0.84375 -0.78125 C 1.265625 0.015625 2 0.21875 2.484375 0.21875 C 3.015625 0.21875 3.78125 0.015625 4.21875 -0.9375 C 4.53125 -1.625 4.578125 -2.40625 4.578125 -3.1875 Z M 2.484375 0 C 2.09375 0 1.5 -0.25 1.328125 -1.203125 C 1.21875 -1.796875 1.21875 -2.71875 1.21875 -3.3125 C 1.21875 -3.953125 1.21875 -4.609375 1.296875 -5.140625 C 1.484375 -6.328125 2.234375 -6.421875 2.484375 -6.421875 C 2.8125 -6.421875 3.46875 -6.234375 3.65625 -5.25 C 3.765625 -4.6875 3.765625 -3.9375 3.765625 -3.3125 C 3.765625 -2.5625 3.765625 -1.890625 3.65625 -1.25 C 3.5 -0.296875 2.9375 0 2.484375 0 Z M 2.484375 0" style="stroke:none;stroke-width:0"></path></g><g id="g897" style="fill:rgb(0%,0%,0%);fill-opacity:1;"><path id="path893" transform="translate(321.486,331.311)" d="M 1.265625 -0.765625 L 2.328125 -1.796875 C 3.875 -3.171875 4.46875 -3.703125 4.46875 -4.703125 C 4.46875 -5.84375 3.578125 -6.640625 2.359375 -6.640625 C 1.234375 -6.640625 0.5 -5.71875 0.5 -4.828125 C 0.5 -4.28125 1 -4.28125 1.03125 -4.28125 C 1.203125 -4.28125 1.546875 -4.390625 1.546875 -4.8125 C 1.546875 -5.0625 1.359375 -5.328125 1.015625 -5.328125 C 0.9375 -5.328125 0.921875 -5.328125 0.890625 -5.3125 C 1.109375 -5.96875 1.65625 -6.328125 2.234375 -6.328125 C 3.140625 -6.328125 3.5625 -5.515625 3.5625 -4.703125 C 3.5625 -3.90625 3.078125 -3.125 2.515625 -2.5 L 0.609375 -0.375 C 0.5 -0.265625 0.5 -0.234375 0.5 0 L 4.203125 0 L 4.46875 -1.734375 L 4.234375 -1.734375 C 4.171875 -1.4375 4.109375 -1 4 -0.84375 C 3.9375 -0.765625 3.28125 -0.765625 3.0625 -0.765625 Z M 1.265625 -0.765625" style="stroke:none;stroke-width:0"></path><path id="path895" transform="translate(326.4673,331.311)" d="M 4.578125 -3.1875 C 4.578125 -3.984375 4.53125 -4.78125 4.1875 -5.515625 C 3.734375 -6.484375 2.90625 -6.640625 2.5 -6.640625 C 1.890625 -6.640625 1.171875 -6.375 0.75 -5.453125 C 0.4375 -4.765625 0.390625 -3.984375 0.390625 -3.1875 C 0.390625 -2.4375 0.421875 -1.546875 0.84375 -0.78125 C 1.265625 0.015625 2 0.21875 2.484375 0.21875 C 3.015625 0.21875 3.78125 0.015625 4.21875 -0.9375 C 4.53125 -1.625 4.578125 -2.40625 4.578125 -3.1875 Z M 2.484375 0 C 2.09375 0 1.5 -0.25 1.328125 -1.203125 C 1.21875 -1.796875 1.21875 -2.71875 1.21875 -3.3125 C 1.21875 -3.953125 1.21875 -4.609375 1.296875 -5.140625 C 1.484375 -6.328125 2.234375 -6.421875 2.484375 -6.421875 C 2.8125 -6.421875 3.46875 -6.234375 3.65625 -5.25 C 3.765625 -4.6875 3.765625 -3.9375 3.765625 -3.3125 C 3.765625 -2.5625 3.765625 -1.890625 3.65625 -1.25 C 3.5 -0.296875 2.9375 0 2.484375 0 Z M 2.484375 0" style="stroke:none;stroke-width:0"></path></g><g id="g903" style="fill:rgb(0%,0%,0%);fill-opacity:1;"><path id="path899" transform="translate(353.864,331.311)" d="M 2.890625 -3.515625 C 3.703125 -3.78125 4.28125 -4.46875 4.28125 -5.265625 C 4.28125 -6.078125 3.40625 -6.640625 2.453125 -6.640625 C 1.453125 -6.640625 0.6875 -6.046875 0.6875 -5.28125 C 0.6875 -4.953125 0.90625 -4.765625 1.203125 -4.765625 C 1.5 -4.765625 1.703125 -4.984375 1.703125 -5.28125 C 1.703125 -5.765625 1.234375 -5.765625 1.09375 -5.765625 C 1.390625 -6.265625 2.046875 -6.390625 2.40625 -6.390625 C 2.828125 -6.390625 3.375 -6.171875 3.375 -5.28125 C 3.375 -5.15625 3.34375 -4.578125 3.09375 -4.140625 C 2.796875 -3.65625 2.453125 -3.625 2.203125 -3.625 C 2.125 -3.609375 1.890625 -3.59375 1.8125 -3.59375 C 1.734375 -3.578125 1.671875 -3.5625 1.671875 -3.46875 C 1.671875 -3.359375 1.734375 -3.359375 1.90625 -3.359375 L 2.34375 -3.359375 C 3.15625 -3.359375 3.53125 -2.6875 3.53125 -1.703125 C 3.53125 -0.34375 2.84375 -0.0625 2.40625 -0.0625 C 1.96875 -0.0625 1.21875 -0.234375 0.875 -0.8125 C 1.21875 -0.765625 1.53125 -0.984375 1.53125 -1.359375 C 1.53125 -1.71875 1.265625 -1.921875 0.984375 -1.921875 C 0.734375 -1.921875 0.421875 -1.78125 0.421875 -1.34375 C 0.421875 -0.4375 1.34375 0.21875 2.4375 0.21875 C 3.65625 0.21875 4.5625 -0.6875 4.5625 -1.703125 C 4.5625 -2.515625 3.921875 -3.296875 2.890625 -3.515625 Z M 2.890625 -3.515625" style="stroke:none;stroke-width:0"></path><path id="path901" transform="translate(358.8453,331.311)" d="M 4.578125 -3.1875 C 4.578125 -3.984375 4.53125 -4.78125 4.1875 -5.515625 C 3.734375 -6.484375 2.90625 -6.640625 2.5 -6.640625 C 1.890625 -6.640625 1.171875 -6.375 0.75 -5.453125 C 0.4375 -4.765625 0.390625 -3.984375 0.390625 -3.1875 C 0.390625 -2.4375 0.421875 -1.546875 0.84375 -0.78125 C 1.265625 0.015625 2 0.21875 2.484375 0.21875 C 3.015625 0.21875 3.78125 0.015625 4.21875 -0.9375 C 4.53125 -1.625 4.578125 -2.40625 4.578125 -3.1875 Z M 2.484375 0 C 2.09375 0 1.5 -0.25 1.328125 -1.203125 C 1.21875 -1.796875 1.21875 -2.71875 1.21875 -3.3125 C 1.21875 -3.953125 1.21875 -4.609375 1.296875 -5.140625 C 1.484375 -6.328125 2.234375 -6.421875 2.484375 -6.421875 C 2.8125 -6.421875 3.46875 -6.234375 3.65625 -5.25 C 3.765625 -4.6875 3.765625 -3.9375 3.765625 -3.3125 C 3.765625 -2.5625 3.765625 -1.890625 3.65625 -1.25 C 3.5 -0.296875 2.9375 0 2.484375 0 Z M 2.484375 0" style="stroke:none;stroke-width:0"></path></g><g id="g909" style="fill:rgb(0%,0%,0%);fill-opacity:1;"><path id="path905" transform="translate(386.242,331.311)" d="M 2.9375 -1.640625 L 2.9375 -0.78125 C 2.9375 -0.421875 2.90625 -0.3125 2.171875 -0.3125 L 1.96875 -0.3125 L 1.96875 0 C 2.375 -0.03125 2.890625 -0.03125 3.3125 -0.03125 C 3.734375 -0.03125 4.25 -0.03125 4.671875 0 L 4.671875 -0.3125 L 4.453125 -0.3125 C 3.71875 -0.3125 3.703125 -0.421875 3.703125 -0.78125 L 3.703125 -1.640625 L 4.6875 -1.640625 L 4.6875 -1.953125 L 3.703125 -1.953125 L 3.703125 -6.484375 C 3.703125 -6.6875 3.703125 -6.75 3.53125 -6.75 C 3.453125 -6.75 3.421875 -6.75 3.34375 -6.625 L 0.28125 -1.953125 L 0.28125 -1.640625 Z M 2.984375 -1.953125 L 0.5625 -1.953125 L 2.984375 -5.671875 Z M 2.984375 -1.953125" style="stroke:none;stroke-width:0"></path><path id="path907" transform="translate(391.2233,331.311)" d="M 4.578125 -3.1875 C 4.578125 -3.984375 4.53125 -4.78125 4.1875 -5.515625 C 3.734375 -6.484375 2.90625 -6.640625 2.5 -6.640625 C 1.890625 -6.640625 1.171875 -6.375 0.75 -5.453125 C 0.4375 -4.765625 0.390625 -3.984375 0.390625 -3.1875 C 0.390625 -2.4375 0.421875 -1.546875 0.84375 -0.78125 C 1.265625 0.015625 2 0.21875 2.484375 0.21875 C 3.015625 0.21875 3.78125 0.015625 4.21875 -0.9375 C 4.53125 -1.625 4.578125 -2.40625 4.578125 -3.1875 Z M 2.484375 0 C 2.09375 0 1.5 -0.25 1.328125 -1.203125 C 1.21875 -1.796875 1.21875 -2.71875 1.21875 -3.3125 C 1.21875 -3.953125 1.21875 -4.609375 1.296875 -5.140625 C 1.484375 -6.328125 2.234375 -6.421875 2.484375 -6.421875 C 2.8125 -6.421875 3.46875 -6.234375 3.65625 -5.25 C 3.765625 -4.6875 3.765625 -3.9375 3.765625 -3.3125 C 3.765625 -2.5625 3.765625 -1.890625 3.65625 -1.25 C 3.5 -0.296875 2.9375 0 2.484375 0 Z M 2.484375 0" style="stroke:none;stroke-width:0"></path></g><g id="g913" style="fill:rgb(0%,0%,0%);fill-opacity:1;"><path id="path911" transform="translate(243.335,342.214)" d="M 6.5625 -2.296875 C 6.734375 -2.296875 6.921875 -2.296875 6.921875 -2.5 C 6.921875 -2.6875 6.734375 -2.6875 6.5625 -2.6875 L 1.171875 -2.6875 C 1 -2.6875 0.828125 -2.6875 0.828125 -2.5 C 0.828125 -2.296875 1 -2.296875 1.171875 -2.296875 Z M 6.5625 -2.296875" style="stroke:none;stroke-width:0"></path></g><g id="g917" style="fill:rgb(0%,0%,0%);fill-opacity:1;"><path id="path915" transform="translate(251.084,342.214)" d="M 2.9375 -6.375 C 2.9375 -6.625 2.9375 -6.640625 2.703125 -6.640625 C 2.078125 -6 1.203125 -6 0.890625 -6 L 0.890625 -5.6875 C 1.09375 -5.6875 1.671875 -5.6875 2.1875 -5.953125 L 2.1875 -0.78125 C 2.1875 -0.421875 2.15625 -0.3125 1.265625 -0.3125 L 0.953125 -0.3125 L 0.953125 0 C 1.296875 -0.03125 2.15625 -0.03125 2.5625 -0.03125 C 2.953125 -0.03125 3.828125 -0.03125 4.171875 0 L 4.171875 -0.3125 L 3.859375 -0.3125 C 2.953125 -0.3125 2.9375 -0.421875 2.9375 -0.78125 Z M 2.9375 -6.375" style="stroke:none;stroke-width:0"></path></g><g id="g921" style="fill:rgb(0%,0%,0%);fill-opacity:1;"><path id="path919" transform="translate(251.084,302.281)" d="M 2.9375 -6.375 C 2.9375 -6.625 2.9375 -6.640625 2.703125 -6.640625 C 2.078125 -6 1.203125 -6 0.890625 -6 L 0.890625 -5.6875 C 1.09375 -5.6875 1.671875 -5.6875 2.1875 -5.953125 L 2.1875 -0.78125 C 2.1875 -0.421875 2.15625 -0.3125 1.265625 -0.3125 L 0.953125 -0.3125 L 0.953125 0 C 1.296875 -0.03125 2.15625 -0.03125 2.5625 -0.03125 C 2.953125 -0.03125 3.828125 -0.03125 4.171875 0 L 4.171875 -0.3125 L 3.859375 -0.3125 C 2.953125 -0.3125 2.9375 -0.421875 2.9375 -0.78125 Z M 2.9375 -6.375" style="stroke:none;stroke-width:0"></path></g><g id="g925" style="fill:rgb(0%,0%,0%);fill-opacity:1;"><path id="path923" transform="translate(251.084,282.107)" d="M 1.265625 -0.765625 L 2.328125 -1.796875 C 3.875 -3.171875 4.46875 -3.703125 4.46875 -4.703125 C 4.46875 -5.84375 3.578125 -6.640625 2.359375 -6.640625 C 1.234375 -6.640625 0.5 -5.71875 0.5 -4.828125 C 0.5 -4.28125 1 -4.28125 1.03125 -4.28125 C 1.203125 -4.28125 1.546875 -4.390625 1.546875 -4.8125 C 1.546875 -5.0625 1.359375 -5.328125 1.015625 -5.328125 C 0.9375 -5.328125 0.921875 -5.328125 0.890625 -5.3125 C 1.109375 -5.96875 1.65625 -6.328125 2.234375 -6.328125 C 3.140625 -6.328125 3.5625 -5.515625 3.5625 -4.703125 C 3.5625 -3.90625 3.078125 -3.125 2.515625 -2.5 L 0.609375 -0.375 C 0.5 -0.265625 0.5 -0.234375 0.5 0 L 4.203125 0 L 4.46875 -1.734375 L 4.234375 -1.734375 C 4.171875 -1.4375 4.109375 -1 4 -0.84375 C 3.9375 -0.765625 3.28125 -0.765625 3.0625 -0.765625 Z M 1.265625 -0.765625" style="stroke:none;stroke-width:0"></path></g><g id="g929" style="fill:rgb(0%,0%,0%);fill-opacity:1;"><path id="path927" transform="translate(251.084,261.932)" d="M 2.890625 -3.515625 C 3.703125 -3.78125 4.28125 -4.46875 4.28125 -5.265625 C 4.28125 -6.078125 3.40625 -6.640625 2.453125 -6.640625 C 1.453125 -6.640625 0.6875 -6.046875 0.6875 -5.28125 C 0.6875 -4.953125 0.90625 -4.765625 1.203125 -4.765625 C 1.5 -4.765625 1.703125 -4.984375 1.703125 -5.28125 C 1.703125 -5.765625 1.234375 -5.765625 1.09375 -5.765625 C 1.390625 -6.265625 2.046875 -6.390625 2.40625 -6.390625 C 2.828125 -6.390625 3.375 -6.171875 3.375 -5.28125 C 3.375 -5.15625 3.34375 -4.578125 3.09375 -4.140625 C 2.796875 -3.65625 2.453125 -3.625 2.203125 -3.625 C 2.125 -3.609375 1.890625 -3.59375 1.8125 -3.59375 C 1.734375 -3.578125 1.671875 -3.5625 1.671875 -3.46875 C 1.671875 -3.359375 1.734375 -3.359375 1.90625 -3.359375 L 2.34375 -3.359375 C 3.15625 -3.359375 3.53125 -2.6875 3.53125 -1.703125 C 3.53125 -0.34375 2.84375 -0.0625 2.40625 -0.0625 C 1.96875 -0.0625 1.21875 -0.234375 0.875 -0.8125 C 1.21875 -0.765625 1.53125 -0.984375 1.53125 -1.359375 C 1.53125 -1.71875 1.265625 -1.921875 0.984375 -1.921875 C 0.734375 -1.921875 0.421875 -1.78125 0.421875 -1.34375 C 0.421875 -0.4375 1.34375 0.21875 2.4375 0.21875 C 3.65625 0.21875 4.5625 -0.6875 4.5625 -1.703125 C 4.5625 -2.515625 3.921875 -3.296875 2.890625 -3.515625 Z M 2.890625 -3.515625" style="stroke:none;stroke-width:0"></path></g><g id="g933" style="fill:rgb(0%,0%,0%);fill-opacity:1;"><path id="path931" transform="translate(251.084,241.758)" d="M 2.9375 -1.640625 L 2.9375 -0.78125 C 2.9375 -0.421875 2.90625 -0.3125 2.171875 -0.3125 L 1.96875 -0.3125 L 1.96875 0 C 2.375 -0.03125 2.890625 -0.03125 3.3125 -0.03125 C 3.734375 -0.03125 4.25 -0.03125 4.671875 0 L 4.671875 -0.3125 L 4.453125 -0.3125 C 3.71875 -0.3125 3.703125 -0.421875 3.703125 -0.78125 L 3.703125 -1.640625 L 4.6875 -1.640625 L 4.6875 -1.953125 L 3.703125 -1.953125 L 3.703125 -6.484375 C 3.703125 -6.6875 3.703125 -6.75 3.53125 -6.75 C 3.453125 -6.75 3.421875 -6.75 3.34375 -6.625 L 0.28125 -1.953125 L 0.28125 -1.640625 Z M 2.984375 -1.953125 L 0.5625 -1.953125 L 2.984375 -5.671875 Z M 2.984375 -1.953125" style="stroke:none;stroke-width:0"></path></g><g id="g937" style="fill:rgb(0%,0%,0%);fill-opacity:1;"><path id="path935" transform="translate(251.084,221.584)" d="M 4.46875 -2 C 4.46875 -3.1875 3.65625 -4.1875 2.578125 -4.1875 C 2.109375 -4.1875 1.671875 -4.03125 1.3125 -3.671875 L 1.3125 -5.625 C 1.515625 -5.5625 1.84375 -5.5 2.15625 -5.5 C 3.390625 -5.5 4.09375 -6.40625 4.09375 -6.53125 C 4.09375 -6.59375 4.0625 -6.640625 3.984375 -6.640625 C 3.984375 -6.640625 3.953125 -6.640625 3.90625 -6.609375 C 3.703125 -6.515625 3.21875 -6.3125 2.546875 -6.3125 C 2.15625 -6.3125 1.6875 -6.390625 1.21875 -6.59375 C 1.140625 -6.625 1.125 -6.625 1.109375 -6.625 C 1 -6.625 1 -6.546875 1 -6.390625 L 1 -3.4375 C 1 -3.265625 1 -3.1875 1.140625 -3.1875 C 1.21875 -3.1875 1.234375 -3.203125 1.28125 -3.265625 C 1.390625 -3.421875 1.75 -3.96875 2.5625 -3.96875 C 3.078125 -3.96875 3.328125 -3.515625 3.40625 -3.328125 C 3.5625 -2.953125 3.59375 -2.578125 3.59375 -2.078125 C 3.59375 -1.71875 3.59375 -1.125 3.34375 -0.703125 C 3.109375 -0.3125 2.734375 -0.0625 2.28125 -0.0625 C 1.5625 -0.0625 0.984375 -0.59375 0.8125 -1.171875 C 0.84375 -1.171875 0.875 -1.15625 0.984375 -1.15625 C 1.3125 -1.15625 1.484375 -1.40625 1.484375 -1.640625 C 1.484375 -1.890625 1.3125 -2.140625 0.984375 -2.140625 C 0.84375 -2.140625 0.5 -2.0625 0.5 -1.609375 C 0.5 -0.75 1.1875 0.21875 2.296875 0.21875 C 3.453125 0.21875 4.46875 -0.734375 4.46875 -2 Z M 4.46875 -2" style="stroke:none;stroke-width:0"></path></g><g id="g941" clip-rule="nonzero" clip-path="url('#clip1')"><path id="path939" transform="matrix(1,0,0,-1,213.143,379.675)" d="M 48.728094 -0.00078125 L 49.380438 32.51875 L 50.028875 44.382031 L 50.677313 51.8 L 51.329656 57.214063 L 51.978094 61.479688 L 52.626531 64.995313 L 53.278875 67.991406 L 53.927313 70.596875 L 54.57575 72.905469 L 55.228094 74.975781 L 55.876531 76.854688 L 56.524969 78.573438 L 57.177313 80.155469 L 57.82575 81.624219 L 58.474188 82.991406 L 59.126531 84.276563 L 59.774969 85.479688 L 60.423406 86.6125 L 61.07575 87.690625 L 61.724188 88.714063 L 62.372625 89.686719 L 63.024969 90.616406 L 63.673406 91.503125 L 64.321844 92.350781 L 64.974188 93.167188 L 65.622625 93.952344 L 66.271063 94.70625 L 66.923406 95.432813 L 67.571844 96.132031 L 68.220281 96.811719 L 68.872625 97.467969 L 69.521063 98.100781 L 70.1695 98.717969 L 70.821844 99.315625 L 71.470281 99.897656 L 72.118719 100.460156 L 72.771063 101.007031 L 73.4195 101.546094 L 74.067938 102.061719 L 74.720281 102.573438 L 75.368719 103.069531 L 76.017156 103.553906 L 76.6695 104.022656 L 77.317938 104.4875 L 77.966375 104.936719 L 78.618719 105.378125 L 79.267156 105.807813 L 79.915594 106.233594 L 80.567938 106.64375 L 81.216375 107.05 L 81.864813 107.448438 L 82.517156 107.839063 L 83.165594 108.221875 L 83.814031 108.596875 L 84.466375 108.964063 L 85.114813 109.327344 L 85.76325 109.682813 L 86.415594 110.030469 L 87.064031 110.374219 L 87.712469 110.714063 L 88.364813 111.046094 L 89.661688 111.694531 L 90.314031 112.010938 L 91.610906 112.628125 L 92.26325 112.928906 L 92.911688 113.229688 L 93.560125 113.51875 L 94.212469 113.811719 L 94.860906 114.096875 L 95.509344 114.378125 L 96.161688 114.655469 L 96.810125 114.925 L 97.458563 115.198438 L 98.110906 115.464063 L 98.759344 115.725781 L 99.407781 115.983594 L 100.060125 116.241406 L 100.708563 116.495313 L 101.357 116.745313 L 102.009344 116.991406 L 103.306219 117.475781 L 103.958563 117.714063 L 105.255438 118.182813 L 105.907781 118.413281 L 106.556219 118.635938 L 107.204656 118.8625 L 107.857 119.085156 L 109.153875 119.522656 L 109.806219 119.7375 L 110.454656 119.952344 L 111.103094 120.159375 L 111.755438 120.370313 L 112.403875 120.573438 L 113.052313 120.780469 L 113.704656 120.983594 L 114.353094 121.186719 L 115.001531 121.382031 L 115.653875 121.58125 L 116.302313 121.772656 L 116.95075 121.967969 L 117.603094 122.159375 L 118.899969 122.534375 L 119.552313 122.717969 L 120.849188 123.085156 L 121.501531 123.264844 L 122.149969 123.444531 L 122.798406 123.620313 L 123.45075 123.796094 L 124.099188 123.971875 L 124.747625 124.14375 L 125.399969 124.315625 L 126.048406 124.4875 L 126.696844 124.655469 L 127.349188 124.823438 L 128.646063 125.151563 L 129.298406 125.315625 L 130.595281 125.635938 L 131.247625 125.796094 L 131.896063 125.95625 L 132.5445 126.1125 L 133.196844 126.264844 L 133.845281 126.421094 L 134.493719 126.573438 L 135.146063 126.725781 L 135.7945 126.878125 L 136.442938 127.026563 L 137.095281 127.175 L 137.743719 127.323438 L 138.392156 127.467969 L 139.0445 127.6125 L 140.341375 127.901563 L 140.993719 128.042188 L 141.642156 128.186719 L 142.290594 128.327344 L 142.942938 128.464063 L 143.591375 128.604688 L 144.239813 128.741406 L 144.892156 128.878125 L 145.540594 129.010938 L 146.189031 129.147656 L 146.841375 129.280469 L 148.13825 129.546094 L 148.790594 129.678906 L 150.087469 129.936719 L 150.739813 130.065625 L 151.38825 130.194531 L 152.036688 130.319531 L 152.689031 130.448438 L 153.985906 130.698438 L 154.63825 130.819531 L 155.286688 130.944531 L 155.935125 131.065625 L 156.587469 131.186719 L 157.235906 131.307813 L 157.884344 131.432813 L 158.536688 131.55 L 159.833563 131.784375 L 160.485906 131.905469 L 161.134344 132.022656 L 161.782781 132.135938 L 162.435125 132.249219 L 163.083563 132.366406 L 163.732 132.479688 L 164.384344 132.592969 L 165.681219 132.819531 L 166.333563 132.932813 L 167.630438 133.151563 L 168.282781 133.260938 L 169.579656 133.479688 L 170.232 133.589063 L 171.528875 133.8 L 172.177313 133.909375 L 172.829656 134.014844 L 173.478094 134.120313 L 174.126531 134.221875 L 174.778875 134.327344 L 175.427313 134.432813 L 176.07575 134.534375 L 176.728094 134.639844 L 177.376531 134.741406 L 178.024969 134.839063 L 178.677313 134.944531 L 179.32575 135.046094 L 179.974188 135.14375 L 180.626531 135.241406 L 181.274969 135.342969 L 181.923406 135.440625 L 182.57575 135.538281 L 183.872625 135.733594 L 184.524969 135.83125 L 185.173406 135.925 L 185.821844 136.022656 L 186.474188 136.116406 L 187.122625 136.214063 L 187.771063 136.307813 L 188.423406 136.401563 L 189.720281 136.589063 L 190.372625 136.678906 L 191.021063 136.772656 L 191.6695 136.8625 L 192.321844 136.95625 L 193.618719 137.135938 L 194.271063 137.225781" style="fill:none;stroke-width:1.19553;stroke-linecap:butt;stroke-linejoin:miter;stroke:rgb(0%,0%,100%);stroke-opacity:1;stroke-miterlimit:10;"></path></g></g></g></g></svg> 