<?xml version="1.0" encoding="UTF-8"?> <svg xmlns:cc="http://creativecommons.org/ns#" xmlns:rdf="http://www.w3.org/1999/02/22-rdf-syntax-ns#" xmlns:svg="http://www.w3.org/2000/svg" xmlns="http://www.w3.org/2000/svg" xmlns:sodipodi="http://sodipodi.sourceforge.net/DTD/sodipodi-0.dtd" xmlns:inkscape="http://www.inkscape.org/namespaces/inkscape" width="115.42361mm" height="96.642822mm" viewBox="0 0 115.42361 96.642822" version="1.1" id="svg8"><defs id="defs2"></defs><metadata id="metadata5"></metadata><g id="layer1" transform="translate(-40.300446,-75.934425)"><g id="g944" scale="1.66150538703" version="0.11.0" transform="matrix(0.586142,0.000000,0.000000,0.586142,-84.301793,-38.660286)"><g id="surface1"><path id="path859" transform="matrix(1,0,0,-1,213.143,401.942)" d="M 12.95075 42.34825 L 12.95075 203.746688 M 38.853094 42.34825 L 38.853094 203.746688 M 90.661688 42.34825 L 90.661688 203.746688 M 116.564031 42.34825 L 116.564031 203.746688 M 142.466375 42.34825 L 142.466375 203.746688 M 168.368719 42.34825 L 168.368719 203.746688" style="fill:none;stroke-width:0.3985;stroke-linecap:butt;stroke-linejoin:miter;stroke:rgb(75%,75%,75%);stroke-opacity:1;stroke-miterlimit:10;"></path><path id="path861" transform="matrix(1,0,0,-1,213.143,401.942)" d="M 0.00153125 62.524031 L 194.271063 62.524031 M 0.00153125 102.871688 L 194.271063 102.871688 M 0.00153125 123.047469 L 194.271063 123.047469 M 0.00153125 143.22325 L 194.271063 143.22325 M 0.00153125 163.395125 L 194.271063 163.395125 M 0.00153125 183.570906 L 194.271063 183.570906" style="fill:none;stroke-width:0.3985;stroke-linecap:butt;stroke-linejoin:miter;stroke:rgb(75%,75%,75%);stroke-opacity:1;stroke-miterlimit:10;"></path><path id="path863" transform="matrix(1,0,0,-1,213.143,401.942)" d="M 12.95075 80.570906 L 12.95075 84.824813 M 38.853094 80.570906 L 38.853094 84.824813 M 90.661688 80.570906 L 90.661688 84.824813 M 116.564031 80.570906 L 116.564031 84.824813 M 142.466375 80.570906 L 142.466375 84.824813 M 168.368719 80.570906 L 168.368719 84.824813" style="fill:none;stroke-width:0.19925;stroke-linecap:butt;stroke-linejoin:miter;stroke:rgb(50%,50%,50%);stroke-opacity:1;stroke-miterlimit:10;"></path><path id="path865" transform="matrix(1,0,0,-1,213.143,401.942)" d="M 62.630438 62.524031 L 66.884344 62.524031 M 62.630438 102.871688 L 66.884344 102.871688 M 62.630438 123.047469 L 66.884344 123.047469 M 62.630438 143.22325 L 66.884344 143.22325 M 62.630438 163.395125 L 66.884344 163.395125 M 62.630438 183.570906 L 66.884344 183.570906" style="fill:none;stroke-width:0.19925;stroke-linecap:butt;stroke-linejoin:miter;stroke:rgb(50%,50%,50%);stroke-opacity:1;stroke-miterlimit:10;"></path><path id="path867" transform="matrix(1,0,0,-1,213.143,401.942)" d="M 0.00153125 82.699813 L 192.278875 82.699813" style="fill:none;stroke-width:0.3985;stroke-linecap:butt;stroke-linejoin:miter;stroke:rgb(0%,0%,0%);stroke-opacity:1;stroke-miterlimit:10;"></path><path id="path869" d="M 407.414063 319.242188 L 404.226563 317.648438 L 405.421875 319.242188 L 404.226563 320.835938" style="fill-opacity:1;stroke:none;fill:rgb(0%,0%,0%);stroke-width:0;fill-rule:nonzero"></path><path id="path871" transform="matrix(1,0,0,-1,213.143,401.942)" d="M 64.755438 42.34825 L 64.755438 201.7545" style="fill:none;stroke-width:0.3985;stroke-linecap:butt;stroke-linejoin:miter;stroke:rgb(0%,0%,0%);stroke-opacity:1;stroke-miterlimit:10;"></path><path id="path873" d="M 277.898438 198.195313 L 276.304688 201.382813 L 277.898438 200.1875 L 279.496094 201.382813" style="fill-opacity:1;stroke:none;fill:rgb(0%,0%,0%);stroke-width:0;fill-rule:nonzero"></path><g id="g877" style="fill:rgb(0%,0%,0%);fill-opacity:1;"><path id="path875" transform="translate(219.729,331.311)" d="M 6.5625 -2.296875 C 6.734375 -2.296875 6.921875 -2.296875 6.921875 -2.5 C 6.921875 -2.6875 6.734375 -2.6875 6.5625 -2.6875 L 1.171875 -2.6875 C 1 -2.6875 0.828125 -2.6875 0.828125 -2.5 C 0.828125 -2.296875 1 -2.296875 1.171875 -2.296875 Z M 6.5625 -2.296875" style="stroke:none;stroke-width:0"></path></g><g id="g881" style="fill:rgb(0%,0%,0%);fill-opacity:1;"><path id="path879" transform="translate(227.478,331.311)" d="M 2.9375 -1.640625 L 2.9375 -0.78125 C 2.9375 -0.421875 2.90625 -0.3125 2.171875 -0.3125 L 1.96875 -0.3125 L 1.96875 0 C 2.375 -0.03125 2.890625 -0.03125 3.3125 -0.03125 C 3.734375 -0.03125 4.25 -0.03125 4.671875 0 L 4.671875 -0.3125 L 4.453125 -0.3125 C 3.71875 -0.3125 3.703125 -0.421875 3.703125 -0.78125 L 3.703125 -1.640625 L 4.6875 -1.640625 L 4.6875 -1.953125 L 3.703125 -1.953125 L 3.703125 -6.484375 C 3.703125 -6.6875 3.703125 -6.75 3.53125 -6.75 C 3.453125 -6.75 3.421875 -6.75 3.34375 -6.625 L 0.28125 -1.953125 L 0.28125 -1.640625 Z M 2.984375 -1.953125 L 0.5625 -1.953125 L 2.984375 -5.671875 Z M 2.984375 -1.953125" style="stroke:none;stroke-width:0"></path></g><g id="g885" style="fill:rgb(0%,0%,0%);fill-opacity:1;"><path id="path883" transform="translate(245.632,331.311)" d="M 6.5625 -2.296875 C 6.734375 -2.296875 6.921875 -2.296875 6.921875 -2.5 C 6.921875 -2.6875 6.734375 -2.6875 6.5625 -2.6875 L 1.171875 -2.6875 C 1 -2.6875 0.828125 -2.6875 0.828125 -2.5 C 0.828125 -2.296875 1 -2.296875 1.171875 -2.296875 Z M 6.5625 -2.296875" style="stroke:none;stroke-width:0"></path></g><g id="g889" style="fill:rgb(0%,0%,0%);fill-opacity:1;"><path id="path887" transform="translate(253.381,331.311)" d="M 1.265625 -0.765625 L 2.328125 -1.796875 C 3.875 -3.171875 4.46875 -3.703125 4.46875 -4.703125 C 4.46875 -5.84375 3.578125 -6.640625 2.359375 -6.640625 C 1.234375 -6.640625 0.5 -5.71875 0.5 -4.828125 C 0.5 -4.28125 1 -4.28125 1.03125 -4.28125 C 1.203125 -4.28125 1.546875 -4.390625 1.546875 -4.8125 C 1.546875 -5.0625 1.359375 -5.328125 1.015625 -5.328125 C 0.9375 -5.328125 0.921875 -5.328125 0.890625 -5.3125 C 1.109375 -5.96875 1.65625 -6.328125 2.234375 -6.328125 C 3.140625 -6.328125 3.5625 -5.515625 3.5625 -4.703125 C 3.5625 -3.90625 3.078125 -3.125 2.515625 -2.5 L 0.609375 -0.375 C 0.5 -0.265625 0.5 -0.234375 0.5 0 L 4.203125 0 L 4.46875 -1.734375 L 4.234375 -1.734375 C 4.171875 -1.4375 4.109375 -1 4 -0.84375 C 3.9375 -0.765625 3.28125 -0.765625 3.0625 -0.765625 Z M 1.265625 -0.765625" style="stroke:none;stroke-width:0"></path></g><g id="g893" style="fill:rgb(0%,0%,0%);fill-opacity:1;"><path id="path891" transform="translate(301.312,331.311)" d="M 1.265625 -0.765625 L 2.328125 -1.796875 C 3.875 -3.171875 4.46875 -3.703125 4.46875 -4.703125 C 4.46875 -5.84375 3.578125 -6.640625 2.359375 -6.640625 C 1.234375 -6.640625 0.5 -5.71875 0.5 -4.828125 C 0.5 -4.28125 1 -4.28125 1.03125 -4.28125 C 1.203125 -4.28125 1.546875 -4.390625 1.546875 -4.8125 C 1.546875 -5.0625 1.359375 -5.328125 1.015625 -5.328125 C 0.9375 -5.328125 0.921875 -5.328125 0.890625 -5.3125 C 1.109375 -5.96875 1.65625 -6.328125 2.234375 -6.328125 C 3.140625 -6.328125 3.5625 -5.515625 3.5625 -4.703125 C 3.5625 -3.90625 3.078125 -3.125 2.515625 -2.5 L 0.609375 -0.375 C 0.5 -0.265625 0.5 -0.234375 0.5 0 L 4.203125 0 L 4.46875 -1.734375 L 4.234375 -1.734375 C 4.171875 -1.4375 4.109375 -1 4 -0.84375 C 3.9375 -0.765625 3.28125 -0.765625 3.0625 -0.765625 Z M 1.265625 -0.765625" style="stroke:none;stroke-width:0"></path></g><g id="g897" style="fill:rgb(0%,0%,0%);fill-opacity:1;"><path id="path895" transform="translate(327.214,331.311)" d="M 2.9375 -1.640625 L 2.9375 -0.78125 C 2.9375 -0.421875 2.90625 -0.3125 2.171875 -0.3125 L 1.96875 -0.3125 L 1.96875 0 C 2.375 -0.03125 2.890625 -0.03125 3.3125 -0.03125 C 3.734375 -0.03125 4.25 -0.03125 4.671875 0 L 4.671875 -0.3125 L 4.453125 -0.3125 C 3.71875 -0.3125 3.703125 -0.421875 3.703125 -0.78125 L 3.703125 -1.640625 L 4.6875 -1.640625 L 4.6875 -1.953125 L 3.703125 -1.953125 L 3.703125 -6.484375 C 3.703125 -6.6875 3.703125 -6.75 3.53125 -6.75 C 3.453125 -6.75 3.421875 -6.75 3.34375 -6.625 L 0.28125 -1.953125 L 0.28125 -1.640625 Z M 2.984375 -1.953125 L 0.5625 -1.953125 L 2.984375 -5.671875 Z M 2.984375 -1.953125" style="stroke:none;stroke-width:0"></path></g><g id="g901" style="fill:rgb(0%,0%,0%);fill-opacity:1;"><path id="path899" transform="translate(353.117,331.311)" d="M 1.3125 -3.265625 L 1.3125 -3.515625 C 1.3125 -6.03125 2.546875 -6.390625 3.0625 -6.390625 C 3.296875 -6.390625 3.71875 -6.328125 3.9375 -5.984375 C 3.78125 -5.984375 3.390625 -5.984375 3.390625 -5.546875 C 3.390625 -5.234375 3.625 -5.078125 3.84375 -5.078125 C 4 -5.078125 4.3125 -5.171875 4.3125 -5.5625 C 4.3125 -6.15625 3.875 -6.640625 3.046875 -6.640625 C 1.765625 -6.640625 0.421875 -5.359375 0.421875 -3.15625 C 0.421875 -0.484375 1.578125 0.21875 2.5 0.21875 C 3.609375 0.21875 4.5625 -0.71875 4.5625 -2.03125 C 4.5625 -3.296875 3.671875 -4.25 2.5625 -4.25 C 1.890625 -4.25 1.515625 -3.75 1.3125 -3.265625 Z M 2.5 -0.0625 C 1.875 -0.0625 1.578125 -0.65625 1.515625 -0.8125 C 1.328125 -1.28125 1.328125 -2.078125 1.328125 -2.25 C 1.328125 -3.03125 1.65625 -4.03125 2.546875 -4.03125 C 2.71875 -4.03125 3.171875 -4.03125 3.484375 -3.40625 C 3.65625 -3.046875 3.65625 -2.53125 3.65625 -2.046875 C 3.65625 -1.5625 3.65625 -1.0625 3.484375 -0.703125 C 3.1875 -0.109375 2.734375 -0.0625 2.5 -0.0625 Z M 2.5 -0.0625" style="stroke:none;stroke-width:0"></path></g><g id="g905" style="fill:rgb(0%,0%,0%);fill-opacity:1;"><path id="path903" transform="translate(379.02,331.311)" d="M 1.625 -4.5625 C 1.171875 -4.859375 1.125 -5.1875 1.125 -5.359375 C 1.125 -5.96875 1.78125 -6.390625 2.484375 -6.390625 C 3.203125 -6.390625 3.84375 -5.875 3.84375 -5.15625 C 3.84375 -4.578125 3.453125 -4.109375 2.859375 -3.765625 Z M 3.078125 -3.609375 C 3.796875 -3.984375 4.28125 -4.5 4.28125 -5.15625 C 4.28125 -6.078125 3.40625 -6.640625 2.5 -6.640625 C 1.5 -6.640625 0.6875 -5.90625 0.6875 -4.96875 C 0.6875 -4.796875 0.703125 -4.34375 1.125 -3.875 C 1.234375 -3.765625 1.609375 -3.515625 1.859375 -3.34375 C 1.28125 -3.046875 0.421875 -2.5 0.421875 -1.5 C 0.421875 -0.453125 1.4375 0.21875 2.484375 0.21875 C 3.609375 0.21875 4.5625 -0.609375 4.5625 -1.671875 C 4.5625 -2.03125 4.453125 -2.484375 4.0625 -2.90625 C 3.875 -3.109375 3.71875 -3.203125 3.078125 -3.609375 Z M 2.078125 -3.1875 L 3.3125 -2.40625 C 3.59375 -2.21875 4.0625 -1.921875 4.0625 -1.3125 C 4.0625 -0.578125 3.3125 -0.0625 2.5 -0.0625 C 1.640625 -0.0625 0.921875 -0.671875 0.921875 -1.5 C 0.921875 -2.078125 1.234375 -2.71875 2.078125 -3.1875 Z M 2.078125 -3.1875" style="stroke:none;stroke-width:0"></path></g><g id="g909" style="fill:rgb(0%,0%,0%);fill-opacity:1;"><path id="path907" transform="translate(259.524,342.214)" d="M 6.5625 -2.296875 C 6.734375 -2.296875 6.921875 -2.296875 6.921875 -2.5 C 6.921875 -2.6875 6.734375 -2.6875 6.5625 -2.6875 L 1.171875 -2.6875 C 1 -2.6875 0.828125 -2.6875 0.828125 -2.5 C 0.828125 -2.296875 1 -2.296875 1.171875 -2.296875 Z M 6.5625 -2.296875" style="stroke:none;stroke-width:0"></path></g><g id="g913" style="fill:rgb(0%,0%,0%);fill-opacity:1;"><path id="path911" transform="translate(267.272,342.214)" d="M 2.9375 -6.375 C 2.9375 -6.625 2.9375 -6.640625 2.703125 -6.640625 C 2.078125 -6 1.203125 -6 0.890625 -6 L 0.890625 -5.6875 C 1.09375 -5.6875 1.671875 -5.6875 2.1875 -5.953125 L 2.1875 -0.78125 C 2.1875 -0.421875 2.15625 -0.3125 1.265625 -0.3125 L 0.953125 -0.3125 L 0.953125 0 C 1.296875 -0.03125 2.15625 -0.03125 2.5625 -0.03125 C 2.953125 -0.03125 3.828125 -0.03125 4.171875 0 L 4.171875 -0.3125 L 3.859375 -0.3125 C 2.953125 -0.3125 2.9375 -0.421875 2.9375 -0.78125 Z M 2.9375 -6.375" style="stroke:none;stroke-width:0"></path></g><g id="g917" style="fill:rgb(0%,0%,0%);fill-opacity:1;"><path id="path915" transform="translate(267.272,302.281)" d="M 2.9375 -6.375 C 2.9375 -6.625 2.9375 -6.640625 2.703125 -6.640625 C 2.078125 -6 1.203125 -6 0.890625 -6 L 0.890625 -5.6875 C 1.09375 -5.6875 1.671875 -5.6875 2.1875 -5.953125 L 2.1875 -0.78125 C 2.1875 -0.421875 2.15625 -0.3125 1.265625 -0.3125 L 0.953125 -0.3125 L 0.953125 0 C 1.296875 -0.03125 2.15625 -0.03125 2.5625 -0.03125 C 2.953125 -0.03125 3.828125 -0.03125 4.171875 0 L 4.171875 -0.3125 L 3.859375 -0.3125 C 2.953125 -0.3125 2.9375 -0.421875 2.9375 -0.78125 Z M 2.9375 -6.375" style="stroke:none;stroke-width:0"></path></g><g id="g921" style="fill:rgb(0%,0%,0%);fill-opacity:1;"><path id="path919" transform="translate(267.272,282.106)" d="M 1.265625 -0.765625 L 2.328125 -1.796875 C 3.875 -3.171875 4.46875 -3.703125 4.46875 -4.703125 C 4.46875 -5.84375 3.578125 -6.640625 2.359375 -6.640625 C 1.234375 -6.640625 0.5 -5.71875 0.5 -4.828125 C 0.5 -4.28125 1 -4.28125 1.03125 -4.28125 C 1.203125 -4.28125 1.546875 -4.390625 1.546875 -4.8125 C 1.546875 -5.0625 1.359375 -5.328125 1.015625 -5.328125 C 0.9375 -5.328125 0.921875 -5.328125 0.890625 -5.3125 C 1.109375 -5.96875 1.65625 -6.328125 2.234375 -6.328125 C 3.140625 -6.328125 3.5625 -5.515625 3.5625 -4.703125 C 3.5625 -3.90625 3.078125 -3.125 2.515625 -2.5 L 0.609375 -0.375 C 0.5 -0.265625 0.5 -0.234375 0.5 0 L 4.203125 0 L 4.46875 -1.734375 L 4.234375 -1.734375 C 4.171875 -1.4375 4.109375 -1 4 -0.84375 C 3.9375 -0.765625 3.28125 -0.765625 3.0625 -0.765625 Z M 1.265625 -0.765625" style="stroke:none;stroke-width:0"></path></g><g id="g925" style="fill:rgb(0%,0%,0%);fill-opacity:1;"><path id="path923" transform="translate(267.272,261.932)" d="M 2.890625 -3.515625 C 3.703125 -3.78125 4.28125 -4.46875 4.28125 -5.265625 C 4.28125 -6.078125 3.40625 -6.640625 2.453125 -6.640625 C 1.453125 -6.640625 0.6875 -6.046875 0.6875 -5.28125 C 0.6875 -4.953125 0.90625 -4.765625 1.203125 -4.765625 C 1.5 -4.765625 1.703125 -4.984375 1.703125 -5.28125 C 1.703125 -5.765625 1.234375 -5.765625 1.09375 -5.765625 C 1.390625 -6.265625 2.046875 -6.390625 2.40625 -6.390625 C 2.828125 -6.390625 3.375 -6.171875 3.375 -5.28125 C 3.375 -5.15625 3.34375 -4.578125 3.09375 -4.140625 C 2.796875 -3.65625 2.453125 -3.625 2.203125 -3.625 C 2.125 -3.609375 1.890625 -3.59375 1.8125 -3.59375 C 1.734375 -3.578125 1.671875 -3.5625 1.671875 -3.46875 C 1.671875 -3.359375 1.734375 -3.359375 1.90625 -3.359375 L 2.34375 -3.359375 C 3.15625 -3.359375 3.53125 -2.6875 3.53125 -1.703125 C 3.53125 -0.34375 2.84375 -0.0625 2.40625 -0.0625 C 1.96875 -0.0625 1.21875 -0.234375 0.875 -0.8125 C 1.21875 -0.765625 1.53125 -0.984375 1.53125 -1.359375 C 1.53125 -1.71875 1.265625 -1.921875 0.984375 -1.921875 C 0.734375 -1.921875 0.421875 -1.78125 0.421875 -1.34375 C 0.421875 -0.4375 1.34375 0.21875 2.4375 0.21875 C 3.65625 0.21875 4.5625 -0.6875 4.5625 -1.703125 C 4.5625 -2.515625 3.921875 -3.296875 2.890625 -3.515625 Z M 2.890625 -3.515625" style="stroke:none;stroke-width:0"></path></g><g id="g929" style="fill:rgb(0%,0%,0%);fill-opacity:1;"><path id="path927" transform="translate(267.272,241.758)" d="M 2.9375 -1.640625 L 2.9375 -0.78125 C 2.9375 -0.421875 2.90625 -0.3125 2.171875 -0.3125 L 1.96875 -0.3125 L 1.96875 0 C 2.375 -0.03125 2.890625 -0.03125 3.3125 -0.03125 C 3.734375 -0.03125 4.25 -0.03125 4.671875 0 L 4.671875 -0.3125 L 4.453125 -0.3125 C 3.71875 -0.3125 3.703125 -0.421875 3.703125 -0.78125 L 3.703125 -1.640625 L 4.6875 -1.640625 L 4.6875 -1.953125 L 3.703125 -1.953125 L 3.703125 -6.484375 C 3.703125 -6.6875 3.703125 -6.75 3.53125 -6.75 C 3.453125 -6.75 3.421875 -6.75 3.34375 -6.625 L 0.28125 -1.953125 L 0.28125 -1.640625 Z M 2.984375 -1.953125 L 0.5625 -1.953125 L 2.984375 -5.671875 Z M 2.984375 -1.953125" style="stroke:none;stroke-width:0"></path></g><g id="g933" style="fill:rgb(0%,0%,0%);fill-opacity:1;"><path id="path931" transform="translate(267.272,221.584)" d="M 4.46875 -2 C 4.46875 -3.1875 3.65625 -4.1875 2.578125 -4.1875 C 2.109375 -4.1875 1.671875 -4.03125 1.3125 -3.671875 L 1.3125 -5.625 C 1.515625 -5.5625 1.84375 -5.5 2.15625 -5.5 C 3.390625 -5.5 4.09375 -6.40625 4.09375 -6.53125 C 4.09375 -6.59375 4.0625 -6.640625 3.984375 -6.640625 C 3.984375 -6.640625 3.953125 -6.640625 3.90625 -6.609375 C 3.703125 -6.515625 3.21875 -6.3125 2.546875 -6.3125 C 2.15625 -6.3125 1.6875 -6.390625 1.21875 -6.59375 C 1.140625 -6.625 1.125 -6.625 1.109375 -6.625 C 1 -6.625 1 -6.546875 1 -6.390625 L 1 -3.4375 C 1 -3.265625 1 -3.1875 1.140625 -3.1875 C 1.21875 -3.1875 1.234375 -3.203125 1.28125 -3.265625 C 1.390625 -3.421875 1.75 -3.96875 2.5625 -3.96875 C 3.078125 -3.96875 3.328125 -3.515625 3.40625 -3.328125 C 3.5625 -2.953125 3.59375 -2.578125 3.59375 -2.078125 C 3.59375 -1.71875 3.59375 -1.125 3.34375 -0.703125 C 3.109375 -0.3125 2.734375 -0.0625 2.28125 -0.0625 C 1.5625 -0.0625 0.984375 -0.59375 0.8125 -1.171875 C 0.84375 -1.171875 0.875 -1.15625 0.984375 -1.15625 C 1.3125 -1.15625 1.484375 -1.40625 1.484375 -1.640625 C 1.484375 -1.890625 1.3125 -2.140625 0.984375 -2.140625 C 0.84375 -2.140625 0.5 -2.0625 0.5 -1.609375 C 0.5 -0.75 1.1875 0.21875 2.296875 0.21875 C 3.453125 0.21875 4.46875 -0.734375 4.46875 -2 Z M 4.46875 -2" style="stroke:none;stroke-width:0"></path></g><g id="g937" clip-rule="nonzero" clip-path="url('#clip1')"><path id="path935" transform="matrix(1,0,0,-1,213.143,401.942)" d="M 64.970281 0.00059375 L 65.622625 28.090438 L 66.271063 39.399031 L 66.9195 46.59825 L 67.571844 51.899031 L 68.220281 56.086531 L 68.868719 59.555281 L 69.521063 62.516219 L 70.1695 65.094344 L 70.817938 67.383406 L 71.470281 69.438094 L 72.118719 71.301375 L 72.767156 73.0045 L 73.4195 74.582625 L 74.067938 76.039656 L 74.716375 77.399031 L 75.368719 78.676375 L 76.017156 79.875594 L 76.665594 81.008406 L 77.317938 82.078719 L 77.966375 83.094344 L 78.614813 84.063094 L 79.267156 84.988875 L 79.915594 85.871688 L 80.564031 86.719344 L 81.216375 87.531844 L 81.864813 88.313094 L 82.51325 89.063094 L 83.165594 89.789656 L 83.814031 90.488875 L 84.462469 91.164656 L 85.114813 91.820906 L 85.76325 92.453719 L 86.411688 93.067 L 87.064031 93.664656 L 87.712469 94.242781 L 88.360906 94.805281 L 89.01325 95.352156 L 89.661688 95.887313 L 90.310125 96.406844 L 90.962469 96.914656 L 91.610906 97.41075 L 92.259344 97.891219 L 92.911688 98.363875 L 93.560125 98.820906 L 94.208563 99.274031 L 94.860906 99.711531 L 95.509344 100.145125 L 96.157781 100.567 L 96.810125 100.977156 L 97.458563 101.383406 L 98.107 101.781844 L 98.759344 102.168563 L 99.407781 102.551375 L 100.056219 102.926375 L 100.708563 103.293563 L 101.357 103.656844 L 102.005438 104.012313 L 102.657781 104.359969 L 103.306219 104.703719 L 103.954656 105.039656 L 104.607 105.371688 L 105.255438 105.695906 L 105.903875 106.016219 L 106.556219 106.332625 L 107.204656 106.645125 L 107.853094 106.949813 L 108.505438 107.2545 L 109.153875 107.551375 L 109.802313 107.844344 L 110.454656 108.133406 L 111.103094 108.418563 L 111.751531 108.699813 L 112.399969 108.977156 L 113.052313 109.246688 L 114.349188 109.78575 L 115.001531 110.047469 L 115.649969 110.301375 L 116.298406 110.563094 L 116.95075 110.817 L 117.599188 111.067 L 118.247625 111.313094 L 118.899969 111.555281 L 119.548406 111.797469 L 120.196844 112.031844 L 120.849188 112.270125 L 122.146063 112.731063 L 122.798406 112.957625 L 123.446844 113.184188 L 124.095281 113.402938 L 124.747625 113.625594 L 126.0445 114.055281 L 126.696844 114.270125 L 127.345281 114.481063 L 127.993719 114.688094 L 128.646063 114.895125 L 129.942938 115.301375 L 130.595281 115.500594 L 131.243719 115.699813 L 131.892156 115.895125 L 132.5445 116.090438 L 133.841375 116.47325 L 134.493719 116.66075 L 135.790594 117.03575 L 136.442938 117.219344 L 137.739813 117.578719 L 138.392156 117.758406 L 139.689031 118.109969 L 140.341375 118.28575 L 141.63825 118.6295 L 142.290594 118.797469 L 143.587469 119.133406 L 144.239813 119.301375 L 145.536688 119.6295 L 146.189031 119.789656 L 147.485906 120.109969 L 148.13825 120.266219 L 149.435125 120.578719 L 150.087469 120.731063 L 150.735906 120.883406 L 151.384344 121.039656 L 152.036688 121.188094 L 153.333563 121.484969 L 153.985906 121.633406 L 154.634344 121.777938 L 155.282781 121.926375 L 155.935125 122.067 L 157.232 122.356063 L 157.884344 122.496688 L 158.532781 122.633406 L 159.181219 122.777938 L 159.833563 122.914656 L 160.482 123.047469 L 161.130438 123.188094 L 161.778875 123.320906 L 162.431219 123.457625 L 163.728094 123.72325 L 164.380438 123.852156 L 165.028875 123.988875 L 165.677313 124.117781 L 166.329656 124.246688 L 166.978094 124.375594 L 167.626531 124.500594 L 168.278875 124.6295 L 168.927313 124.758406 L 169.57575 124.883406 L 170.228094 125.008406 L 170.876531 125.133406 L 171.524969 125.2545 L 172.177313 125.3795 L 173.474188 125.621688 L 174.126531 125.738875 L 174.774969 125.859969 L 175.423406 125.977156 L 176.07575 126.09825 L 176.724188 126.215438 L 177.372625 126.328719 L 178.024969 126.445906 L 178.673406 126.563094 L 179.321844 126.676375 L 179.974188 126.789656 L 180.622625 126.906844 L 181.271063 127.016219 L 181.923406 127.1295 L 182.571844 127.242781 L 183.220281 127.352156 L 183.872625 127.461531 L 185.1695 127.680281 L 185.821844 127.789656 L 186.470281 127.899031 L 187.118719 128.0045 L 187.771063 128.113875 L 189.067938 128.324813 L 189.720281 128.430281 L 190.368719 128.53575 L 191.017156 128.637313 L 191.6695 128.742781 L 192.966375 128.945906 L 193.618719 129.051375 L 194.267156 129.152938" style="fill:none;stroke-width:1.19553;stroke-linecap:butt;stroke-linejoin:miter;stroke:rgb(0%,0%,100%);stroke-opacity:1;stroke-miterlimit:10;"></path></g><g id="g941" clip-rule="nonzero" clip-path="url('#clip2')"><path id="path939" transform="matrix(1,0,0,-1,213.143,401.942)" d="M 65.189031 685.938094 L 65.622625 384.309188 L 66.056219 283.774031 L 66.489813 233.5045 L 66.923406 203.340438 L 67.357 183.234969 L 67.790594 168.875594 L 68.224188 158.102156 L 68.653875 149.72325 L 69.087469 143.024031 L 69.521063 137.53575 L 69.954656 132.969344 L 70.38825 129.102156 L 70.821844 125.78575 L 71.255438 122.914656 L 71.689031 120.399031 L 72.122625 118.184188 L 72.552313 116.211531 L 72.985906 114.449813 L 73.4195 112.859969 L 73.853094 111.422469 L 74.286688 110.117781 L 74.720281 108.926375 L 75.153875 107.832625 L 75.587469 106.828719 L 76.021063 105.899031 L 76.45075 105.043563 L 76.884344 104.242781 L 77.317938 103.496688 L 77.751531 102.805281 L 78.185125 102.156844 L 78.618719 101.551375 L 79.052313 100.977156 L 79.485906 100.442 L 79.9195 99.934188 L 80.349188 99.453719 L 80.782781 99.000594 L 81.216375 98.574813 L 81.649969 98.164656 L 82.083563 97.777938 L 82.517156 97.41075 L 82.95075 97.059188 L 83.384344 96.727156 L 83.814031 96.406844 L 84.247625 96.102156 L 84.681219 95.813094 L 85.114813 95.531844 L 85.548406 95.266219 L 85.982 95.008406 L 86.415594 94.762313 L 86.849188 94.527938 L 87.282781 94.297469 L 87.712469 94.078719 L 88.146063 93.867781 L 88.579656 93.664656 L 89.01325 93.469344 L 89.446844 93.281844 L 89.880438 93.09825 L 90.314031 92.922469 L 90.747625 92.750594 L 91.181219 92.586531 L 91.610906 92.426375 L 92.0445 92.274031 L 92.911688 91.977156 L 93.345281 91.836531 L 94.212469 91.570906 L 94.646063 91.442 L 95.079656 91.317 L 95.509344 91.195906 L 95.942938 91.074813 L 96.376531 90.961531 L 97.243719 90.742781 L 98.110906 90.531844 L 98.5445 90.434188 L 98.974188 90.332625 L 99.841375 90.145125 L 100.708563 89.965438 L 101.57575 89.793563 L 102.009344 89.711531 L 102.442938 89.633406 L 102.872625 89.555281 L 103.306219 89.477156 L 104.607 89.2545 L 105.040594 89.184188 L 105.474188 89.117781 L 105.907781 89.047469 L 106.341375 88.981063 L 106.771063 88.918563 L 107.204656 88.852156 L 107.63825 88.793563 L 108.071844 88.731063 L 109.372625 88.555281 L 109.806219 88.500594 L 110.239813 88.442 L 110.6695 88.391219 L 111.103094 88.336531 L 111.536688 88.28575 L 111.970281 88.231063 L 112.403875 88.184188 L 113.271063 88.082625 L 113.704656 88.03575 L 114.134344 87.988875 L 114.567938 87.945906 L 115.001531 87.899031 L 115.435125 87.856063 L 115.868719 87.809188 L 116.302313 87.766219 L 116.735906 87.727156 L 117.603094 87.641219 L 118.032781 87.602156 L 119.333563 87.484969 L 119.767156 87.449813 L 120.20075 87.41075 L 121.501531 87.305281 L 121.931219 87.270125 L 122.798406 87.199813 L 123.232 87.168563 L 123.665594 87.133406 L 125.399969 87.008406 L 125.829656 86.977156 L 126.26325 86.945906 L 126.696844 86.918563 L 127.130438 86.887313 L 127.564031 86.859969 L 127.997625 86.828719 L 129.298406 86.746688 L 129.728094 86.719344 L 130.161688 86.692 L 130.595281 86.668563 L 131.462469 86.613875 L 132.329656 86.567 L 132.76325 86.539656 L 133.192938 86.516219 L 135.7945 86.375594 L 136.228094 86.356063 L 136.661688 86.332625 L 137.091375 86.309188 L 137.524969 86.289656 L 137.958563 86.266219 L 138.82575 86.227156 L 139.259344 86.203719 L 140.560125 86.145125 L 140.989813 86.125594 L 142.290594 86.067 L 142.724188 86.051375 L 143.591375 86.012313 L 144.024969 85.996688 L 144.458563 85.977156 L 144.88825 85.957625 L 145.321844 85.942 L 145.755438 85.922469 L 146.622625 85.891219 L 147.056219 85.871688 L 147.923406 85.840438 L 148.353094 85.824813 L 151.821844 85.699813 L 152.251531 85.684188 L 152.685125 85.668563 L 153.118719 85.656844 L 153.985906 85.625594 L 154.4195 85.613875 L 154.853094 85.59825 L 155.286688 85.586531 L 155.720281 85.570906 L 156.149969 85.559188 L 156.583563 85.543563 L 157.017156 85.531844 L 157.45075 85.516219 L 158.317938 85.492781 L 158.751531 85.477156 L 159.618719 85.453719 L 160.048406 85.442 L 160.482 85.426375 L 163.083563 85.356063 L 163.51325 85.344344 L 165.681219 85.28575 L 166.114813 85.277938 L 166.982 85.2545 L 167.411688 85.242781 L 167.845281 85.234969 L 169.146063 85.199813 L 169.579656 85.192 L 170.01325 85.180281 L 170.446844 85.172469 L 170.880438 85.16075 L 171.310125 85.149031 L 171.743719 85.141219 L 172.177313 85.1295 L 172.610906 85.121688 L 173.0445 85.109969 L 173.478094 85.102156 L 173.911688 85.090438 L 174.778875 85.074813 L 175.208563 85.063094 L 176.07575 85.047469 L 176.509344 85.03575 L 177.376531 85.020125 L 177.810125 85.008406 L 178.243719 85.000594 L 178.673406 84.992781 L 179.107 84.984969 L 179.540594 84.97325 L 182.142156 84.926375 L 182.571844 84.914656 L 186.040594 84.852156 L 186.470281 84.844344 L 187.771063 84.820906 L 188.204656 84.817 L 189.939031 84.78575 L 190.368719 84.777938 L 190.802313 84.770125 L 191.235906 84.766219 L 192.970281 84.734969 L 193.403875 84.731063 L 193.837469 84.72325 L 194.267156 84.715438" style="fill:none;stroke-width:1.19553;stroke-linecap:butt;stroke-linejoin:miter;stroke:rgb(0%,39.99939%,0%);stroke-opacity:1;stroke-miterlimit:10;"></path></g></g></g></g></svg> 