<?xml version="1.0" encoding="UTF-8"?> <svg xmlns:cc="http://creativecommons.org/ns#" xmlns:rdf="http://www.w3.org/1999/02/22-rdf-syntax-ns#" xmlns:svg="http://www.w3.org/2000/svg" xmlns="http://www.w3.org/2000/svg" xmlns:sodipodi="http://sodipodi.sourceforge.net/DTD/sodipodi-0.dtd" xmlns:inkscape="http://www.inkscape.org/namespaces/inkscape" version="1.1" id="svg2" xml:space="preserve" width="321.81088" height="256.5455" viewBox="0 0 321.81088 256.5455"><metadata id="metadata8"></metadata><defs id="defs6"></defs><g id="g10" transform="matrix(1.3333333,0,0,-1.3333333,0,256.54549)"><g id="g12"><g id="g14" transform="matrix(1,0,0,-1,0,192.40912)"><path d="M 51.328,4.512 V 189.348" style="fill:#000000;fill-opacity:1;fill-rule:evenodd;stroke:#000000;stroke-width:1.60000002;stroke-linecap:round;stroke-linejoin:miter;stroke-miterlimit:4;stroke-dasharray:none;stroke-opacity:1" id="path16"></path></g><g id="g18" transform="matrix(0,-1,-1,0,0,192.40912)"><path d="m 10.914,-51.328 3.199,-3.203 -11.199,3.203 11.199,3.199 z" style="fill:#000000;fill-opacity:1;fill-rule:evenodd;stroke:#000000;stroke-width:0.80000001;stroke-linecap:butt;stroke-linejoin:miter;stroke-miterlimit:4;stroke-dasharray:none;stroke-opacity:1" id="path20"></path></g><g id="g22" transform="matrix(0,1,1,0,0,192.40912)"><path d="m -182.949,51.328 3.199,-3.199 -11.199,3.199 11.199,3.203 z" style="fill:#000000;fill-opacity:1;fill-rule:evenodd;stroke:#000000;stroke-width:0.80000001;stroke-linecap:butt;stroke-linejoin:miter;stroke-miterlimit:4;stroke-dasharray:none;stroke-opacity:1" id="path24"></path></g><g id="g26" transform="matrix(1,0,0,-1,0,192.40912)"><path d="M 30.16,99.781 H 236.98" style="fill:#000000;fill-opacity:1;fill-rule:evenodd;stroke:#000000;stroke-width:1.60000002;stroke-linecap:round;stroke-linejoin:miter;stroke-miterlimit:4;stroke-dasharray:none;stroke-opacity:1" id="path28"></path></g><g id="g30" transform="matrix(1,0,0,-1,0,192.40912)"><path d="m 36.559,99.781 3.199,-3.199 -11.199,3.199 11.199,3.199 z" style="fill:#000000;fill-opacity:1;fill-rule:evenodd;stroke:#000000;stroke-width:0.80000001;stroke-linecap:butt;stroke-linejoin:miter;stroke-miterlimit:4;stroke-dasharray:none;stroke-opacity:1" id="path32"></path></g><g id="g34" transform="matrix(-1,0,0,1,0,192.40912)"><path d="m -230.582,-99.781 3.203,-3.199 -11.203,3.199 11.203,3.199 z" style="fill:#000000;fill-opacity:1;fill-rule:evenodd;stroke:#000000;stroke-width:0.80000001;stroke-linecap:butt;stroke-linejoin:miter;stroke-miterlimit:4;stroke-dasharray:none;stroke-opacity:1" id="path36"></path></g><g id="g38" transform="matrix(1,0,0,-1,0,192.40912)"><path d="m 51.328,96.727 v 7.328" style="fill:#000000;fill-opacity:1;fill-rule:evenodd;stroke:#000000;stroke-width:1.60000002;stroke-linecap:round;stroke-linejoin:miter;stroke-miterlimit:4;stroke-dasharray:none;stroke-opacity:1" id="path40"></path></g><g id="g42" transform="matrix(1,0,0,-1,0,192.40912)"><path d="m 98.016,96.727 v 7.328" style="fill:#000000;fill-opacity:1;fill-rule:evenodd;stroke:#000000;stroke-width:1.60000002;stroke-linecap:round;stroke-linejoin:miter;stroke-miterlimit:4;stroke-dasharray:none;stroke-opacity:1" id="path44"></path></g><g id="g46" transform="matrix(1,0,0,-1,0,192.40912)"><path d="m 144.699,96.727 v 7.328" style="fill:#000000;fill-opacity:1;fill-rule:evenodd;stroke:#000000;stroke-width:1.60000002;stroke-linecap:round;stroke-linejoin:miter;stroke-miterlimit:4;stroke-dasharray:none;stroke-opacity:1" id="path48"></path></g><g id="g50" transform="matrix(1,0,0,-1,0,192.40912)"><path d="m 191.383,96.727 v 7.328" style="fill:#000000;fill-opacity:1;fill-rule:evenodd;stroke:#000000;stroke-width:1.60000002;stroke-linecap:round;stroke-linejoin:miter;stroke-miterlimit:4;stroke-dasharray:none;stroke-opacity:1" id="path52"></path></g><path d="m 21.672,58.03 h 0.066 0.067 0.062 l 0.031,0.004 h 0.032 l 0.031,0.004 0.031,0.004 0.028,0.004 0.031,0.004 0.027,0.004 0.027,0.007 0.028,0.008 0.027,0.008 0.024,0.012 0.019,0.008 0.027,0.019 0.02,0.012 0.02,0.015 0.019,0.016 0.02,0.02 0.015,0.023 0.004,0.008 0.008,0.012 0.008,0.011 0.004,0.012 0.007,0.012 0.004,0.015 0.004,0.016 0.004,0.012 0.004,0.015 0.004,0.016 v 0.016 l 0.004,0.019 v 0.016 l 0.008,0.015 v 0.02 0.016 c 0,0.41 -0.371,0.41 -0.715,0.41 H 10.648 c -0.347,0 -0.714,0 -0.714,-0.41 0,-0.403 0.367,-0.403 0.714,-0.403 z" style="fill:#000000;fill-opacity:1;fill-rule:nonzero;stroke:none" id="path54"></path><path d="m 29.777,66.382 v 0.019 0.024 0.023 0.02 0.019 0.02 0.015 0.024 0.015 0.016 0.016 0.015 0.02 l -0.004,0.015 v 0.012 0.016 l -0.007,0.012 v 0.011 l -0.004,0.028 -0.004,0.019 -0.008,0.02 -0.004,0.019 -0.008,0.02 -0.008,0.015 -0.011,0.016 -0.012,0.012 -0.012,0.008 -0.011,0.011 -0.02,0.008 -0.019,0.012 -0.008,0.004 -0.012,0.004 h -0.008 l -0.012,0.003 -0.015,0.004 h -0.012 l -0.012,0.004 h -0.011 l -0.012,0.004 H 29.527 29.512 29.496 L 29.48,66.909 H 29.465 29.449 29.43 29.41 29.391 l -0.02,0.004 h -0.019 -0.024 -0.019 c -1.262,-1.305 -3.055,-1.305 -3.707,-1.305 v -0.632 c 0.406,0 1.609,0 2.668,0.531 V 54.948 c 0,-0.73 -0.059,-0.976 -1.895,-0.976 h -0.652 v -0.629 h 6.601 v 0.629 h -0.652 c -1.836,0 -1.895,0.226 -1.895,0.976 z" style="fill:#000000;fill-opacity:1;fill-rule:nonzero;stroke:none" id="path56"></path><path d="m 43.383,59.862 v 0.305 l -0.004,0.305 -0.008,0.304 -0.012,0.305 -0.019,0.305 -0.027,0.304 -0.028,0.301 -0.039,0.301 -0.047,0.297 -0.058,0.301 -0.063,0.293 -0.078,0.293 -0.09,0.292 -0.097,0.29 -0.118,0.285 -0.058,0.144 -0.067,0.145 c -0.937,1.953 -2.605,2.281 -3.465,2.281 -1.218,0 -2.707,-0.531 -3.546,-2.426 -0.649,-1.406 -0.75,-2.992 -0.75,-4.625 0,-1.531 0.078,-3.363 0.914,-4.914 0.879,-1.648 2.363,-2.055 3.363,-2.055 v 0.45 c -0.793,0 -1.996,0.511 -2.359,2.465 -0.227,1.222 -0.227,3.097 -0.227,4.3 0,1.305 0,2.645 0.164,3.746 0.383,2.426 1.914,2.61 2.422,2.61 0.676,0 2.019,-0.367 2.402,-2.387 0.207,-1.141 0.207,-2.687 0.207,-3.969 0,-1.531 0,-2.918 -0.226,-4.218 -0.305,-1.934 -1.465,-2.547 -2.383,-2.547 v 0 -0.45 c 1.098,0 2.648,0.426 3.547,2.364 0.648,1.406 0.75,2.992 0.75,4.605 z" style="fill:#000000;fill-opacity:1;fill-rule:nonzero;stroke:none" id="path58"></path><path d="m 238.805,81.851 h 1.918 c 0.406,0 0.609,0 0.609,0.402 0,0.226 -0.203,0.226 -0.57,0.226 h -1.793 c 0.734,2.891 0.836,3.301 0.836,3.422 0,0.344 -0.242,0.551 -0.59,0.551 -0.063,0 -0.633,-0.019 -0.813,-0.734 l -0.8,-3.239 h -1.914 c -0.407,0 -0.614,0 -0.614,-0.386 0,-0.242 0.164,-0.242 0.574,-0.242 h 1.797 c -1.468,-5.79 -1.55,-6.137 -1.55,-6.5 0,-1.106 0.773,-1.879 1.871,-1.879 2.078,0 3.242,2.98 3.242,3.144 0,0.199 -0.164,0.199 -0.246,0.199 -0.184,0 -0.199,-0.062 -0.305,-0.281 -0.875,-2.125 -1.953,-2.609 -2.648,-2.609 -0.43,0 -0.629,0.265 -0.629,0.933 0,0.493 0.039,0.633 0.117,0.981 z" style="fill:#000000;fill-opacity:1;fill-rule:nonzero;stroke:none" id="path60"></path><path d="m 9.105,184.561 v 0.055 0.051 l -0.003,0.051 v 0.043 l -0.004,0.05 -0.004,0.047 -0.004,0.043 -0.004,0.043 -0.02,0.086 -0.011,0.082 -0.02,0.074 -0.015,0.075 -0.028,0.066 -0.023,0.066 -0.024,0.063 -0.027,0.055 -0.031,0.054 -0.032,0.047 -0.031,0.051 -0.035,0.043 -0.031,0.039 -0.039,0.039 -0.031,0.035 -0.04,0.028 -0.039,0.027 -0.035,0.027 -0.043,0.02 -0.035,0.019 -0.039,0.02 -0.039,0.012 -0.039,0.011 -0.039,0.012 -0.035,0.004 -0.039,0.012 H 8.234 l -0.039,0.004 c -0.515,0 -1.015,-0.543 -1.015,-0.997 0,-0.269 0.105,-0.394 0.332,-0.621 0.433,-0.414 0.703,-0.953 0.703,-1.699 0,-0.867 -1.262,-5.609 -3.688,-5.609 -1.054,0 -1.527,0.722 -1.527,1.801 0,1.156 0.555,2.671 1.199,4.386 0.145,0.356 0.25,0.641 0.25,1.035 0,0.938 -0.664,1.704 -1.699,1.704 -1.945,0 -2.73,-3.008 -2.73,-3.192 0,-0.207 0.203,-0.207 0.242,-0.207 0.211,0 0.23,0.043 0.336,0.375 0.601,2.09 1.492,2.567 2.09,2.567 0.164,0 0.519,0 0.519,-0.665 0,-0.519 -0.207,-1.074 -0.355,-1.449 -0.911,-2.402 -1.18,-3.355 -1.18,-4.246 0,-2.234 1.82,-2.566 2.777,-2.566 3.477,0 4.656,6.855 4.656,7.929 z" style="fill:#000000;fill-opacity:1;fill-rule:nonzero;stroke:none" id="path62"></path><path d="m 16.664,171.886 v 0.015 0.012 l -0.004,0.004 v 0.008 0.004 l -0.004,0.007 v 0.008 l -0.004,0.004 -0.007,0.012 -0.004,0.008 -0.004,0.011 -0.004,0.008 -0.008,0.008 -0.008,0.012 -0.008,0.011 -0.007,0.016 -0.012,0.012 -0.016,0.015 -0.004,0.008 -0.007,0.008 -0.008,0.008 -0.008,0.012 -0.008,0.007 -0.008,0.012 -0.008,0.008 -0.011,0.008 -0.008,0.011 -0.012,0.012 -0.008,0.012 -0.011,0.012 -0.008,0.011 -0.016,0.012 -0.011,0.012 -0.012,0.015 -0.012,0.012 -0.012,0.012 -0.019,0.015 -0.012,0.016 -0.016,0.016 -0.011,0.011 -0.016,0.016 -0.019,0.016 c -2.59,2.613 -3.25,6.523 -3.25,9.691 0,3.606 0.785,7.207 3.336,9.797 0.269,0.246 0.269,0.289 0.269,0.352 0,0.144 -0.086,0.207 -0.207,0.207 -0.211,0 -2.07,-1.411 -3.293,-4.039 -1.059,-2.274 -1.305,-4.575 -1.305,-6.317 0,-1.613 0.227,-4.117 1.368,-6.461 1.242,-2.543 3.019,-3.89 3.23,-3.89 0.121,0 0.207,0.062 0.207,0.203 z" style="fill:#000000;fill-opacity:1;fill-rule:nonzero;stroke:none" id="path64"></path><path d="m 22.387,185.143 h 1.949 c 0.414,0 0.621,0 0.621,0.415 0,0.226 -0.207,0.226 -0.582,0.226 h -1.82 c 0.742,2.938 0.847,3.356 0.847,3.481 0,0.347 -0.25,0.554 -0.597,0.554 -0.063,0 -0.645,-0.019 -0.828,-0.742 l -0.813,-3.293 h -1.945 c -0.414,0 -0.621,0 -0.621,-0.394 0,-0.247 0.164,-0.247 0.582,-0.247 h 1.824 c -1.492,-5.882 -1.578,-6.234 -1.578,-6.605 0,-1.121 0.789,-1.906 1.906,-1.906 2.109,0 3.293,3.023 3.293,3.191 0,0.203 -0.168,0.203 -0.25,0.203 -0.187,0 -0.203,-0.062 -0.309,-0.285 -0.89,-2.16 -1.988,-2.652 -2.695,-2.652 -0.433,0 -0.637,0.269 -0.637,0.949 0,0.5 0.039,0.641 0.118,0.996 z" style="fill:#000000;fill-opacity:1;fill-rule:nonzero;stroke:none" id="path66"></path><path d="m 31.59,182.034 -0.004,0.156 v 0.161 l -0.004,0.164 -0.004,0.168 -0.015,0.351 -0.028,0.363 -0.035,0.383 -0.043,0.391 -0.059,0.406 -0.066,0.418 -0.082,0.422 -0.094,0.434 -0.113,0.437 -0.125,0.441 -0.145,0.438 -0.164,0.445 -0.089,0.223 -0.094,0.223 -0.098,0.222 -0.105,0.219 c -1.243,2.543 -3.02,3.891 -3.231,3.891 -0.125,0 -0.207,-0.082 -0.207,-0.207 0,-0.063 0,-0.106 0.391,-0.481 2.035,-2.043 3.215,-5.34 3.215,-9.668 0,-3.543 -0.77,-7.183 -3.336,-9.793 -0.27,-0.25 -0.27,-0.289 -0.27,-0.355 0,-0.118 0.082,-0.203 0.207,-0.203 0.211,0 2.071,1.406 3.293,4.039 1.055,2.277 1.305,4.574 1.305,6.312 z" style="fill:#000000;fill-opacity:1;fill-rule:nonzero;stroke:none" id="path68"></path><path d="m 98.246,77.483 0.156,0.055 0.157,0.059 0.152,0.066 0.148,0.07 0.145,0.075 0.141,0.078 0.136,0.082 0.137,0.09 0.129,0.089 0.121,0.098 0.125,0.098 0.117,0.105 0.113,0.106 0.11,0.113 0.101,0.113 0.098,0.121 0.094,0.121 0.086,0.121 0.086,0.125 0.078,0.129 0.07,0.133 0.067,0.141 0.062,0.137 0.055,0.136 0.05,0.141 0.04,0.144 0.039,0.145 0.031,0.148 0.023,0.149 0.016,0.148 0.012,0.153 0.004,0.152 c 0,1.699 -1.821,2.859 -3.813,2.859 -2.09,0 -3.66,-1.242 -3.66,-2.816 0,-0.684 0.453,-1.078 1.055,-1.078 0.64,0 1.054,0.457 1.054,1.054 0,1.036 -0.972,1.036 -1.281,1.036 0.637,1.015 2.008,1.285 2.75,1.285 0.852,0 1.992,-0.453 1.992,-2.321 0,-0.246 -0.043,-1.449 -0.582,-2.359 -0.621,-0.992 -1.328,-1.055 -1.844,-1.078 -0.164,-0.02 -0.664,-0.063 -0.804,-0.063 -0.168,-0.019 -0.313,-0.039 -0.313,-0.242 0,-0.23 0.145,-0.23 0.5,-0.23 h 0.91 c 1.696,0 2.461,-1.41 2.461,-3.438 0,-2.82 -1.425,-3.418 -2.34,-3.418 -0.89,0 -2.441,0.352 -3.167,1.575 0.726,-0.102 1.367,0.351 1.367,1.136 0,0.75 -0.559,1.16 -1.16,1.16 -0.497,0 -1.161,-0.289 -1.161,-1.199 0,-1.886 1.93,-3.254 4.188,-3.254 2.523,0 4.41,1.887 4.41,4 0,1.696 -1.305,3.313 -3.461,3.75 z" style="fill:#000000;fill-opacity:1;fill-rule:nonzero;stroke:none" id="path70"></path><path d="m 142.199,77.8 v 0.496 c 0,5.238 2.571,5.984 3.625,5.984 0.5,0 1.367,-0.125 1.824,-0.828 -0.312,0 -1.136,0 -1.136,-0.934 0,-0.64 0.492,-0.949 0.949,-0.949 0.328,0 0.953,0.184 0.953,0.992 0,1.243 -0.91,2.239 -2.633,2.239 -2.648,0 -5.445,-2.676 -5.445,-7.25 0,-5.532 2.402,-7 4.328,-7 2.301,0 4.27,1.949 4.27,4.679 0,2.633 -1.844,4.618 -4.145,4.618 l -0.019,-0.473 c 0.332,0 1.285,0 1.925,-1.285 0.371,-0.77 0.371,-1.824 0.371,-2.84 0,-0.992 0,-2.027 -0.351,-2.773 -0.621,-1.243 -1.574,-1.344 -2.051,-1.344 v 0 c -1.305,0 -1.926,1.242 -2.051,1.554 -0.367,0.973 -0.367,2.625 -0.367,3 0,1.614 0.66,3.688 2.524,3.688 l 0.019,0.473 c -1.41,0 -2.176,-1.055 -2.59,-2.047 z" style="fill:#000000;fill-opacity:1;fill-rule:nonzero;stroke:none" id="path72"></path><path d="m 193.48,77.589 v -0.66 c 0,-4.848 -2.152,-5.797 -3.355,-5.797 -0.352,0 -1.469,0.039 -2.027,0.742 0.91,0 1.074,0.602 1.074,0.953 0,0.645 -0.492,0.957 -0.949,0.957 -0.332,0 -0.953,-0.187 -0.953,-0.996 0,-1.387 1.117,-2.238 2.875,-2.238 2.675,0 5.203,2.816 5.203,7.269 0,5.571 -2.383,6.981 -4.231,6.981 -1.137,0 -2.152,-0.375 -3.043,-1.305 -0.847,-0.934 -1.324,-1.805 -1.324,-3.355 0,-2.59 1.824,-4.622 4.141,-4.622 l 0.023,0.477 c -0.332,0 -1.285,0 -1.93,1.305 -0.371,0.765 -0.371,1.804 -0.371,2.816 0,1.121 0,2.094 0.434,2.856 0.558,1.035 1.348,1.308 2.07,1.308 0.953,0 1.641,-0.703 1.992,-1.637 0.246,-0.664 0.329,-1.968 0.329,-2.921 0,-1.715 -0.704,-3.727 -2.524,-3.727 v 0 l -0.023,-0.477 c 1.261,0 2.117,0.872 2.589,2.071 z" style="fill:#000000;fill-opacity:1;fill-rule:nonzero;stroke:none" id="path74"></path><path d="m 26.477,156.405 2.191,2.125 c 3.23,2.863 4.473,3.981 4.473,6.051 0,2.359 -1.864,4.02 -4.391,4.02 -2.336,0 -3.871,-1.911 -3.871,-3.75 0,-1.161 1.035,-1.161 1.098,-1.161 0.351,0 1.074,0.25 1.074,1.098 0,0.535 -0.371,1.078 -1.098,1.078 -0.164,0 -0.207,0 -0.269,-0.023 0.48,1.347 1.597,2.113 2.8,2.113 1.883,0 2.77,-1.676 2.77,-3.375 0,-1.656 -1.035,-3.293 -2.172,-4.578 l -3.977,-4.43 c -0.226,-0.226 -0.226,-0.265 -0.226,-0.765 h 7.684 l 0.578,3.605 h -0.52 c -0.101,-0.625 -0.246,-1.535 -0.457,-1.848 -0.141,-0.16 -1.508,-0.16 -1.965,-0.16 z" style="fill:#000000;fill-opacity:1;fill-rule:nonzero;stroke:none" id="path76"></path><path d="m 43.344,161.433 v 0.312 l -0.004,0.309 -0.008,0.312 -0.012,0.305 -0.023,0.312 -0.024,0.309 -0.027,0.309 -0.043,0.3 -0.047,0.305 -0.058,0.305 -0.067,0.297 -0.078,0.3 -0.09,0.297 -0.101,0.293 -0.117,0.293 -0.063,0.145 -0.066,0.144 c -0.95,1.988 -2.649,2.321 -3.52,2.321 -1.242,0 -2.754,-0.54 -3.601,-2.465 -0.665,-1.43 -0.77,-3.043 -0.77,-4.703 0,-1.555 0.086,-3.418 0.934,-4.993 0.894,-1.675 2.402,-2.089 3.418,-2.089 v 0.457 c -0.809,0 -2.032,0.519 -2.399,2.507 -0.23,1.243 -0.23,3.145 -0.23,4.368 0,1.328 0,2.691 0.168,3.808 0.39,2.465 1.945,2.652 2.461,2.652 0.683,0 2.05,-0.375 2.441,-2.425 0.211,-1.16 0.211,-2.731 0.211,-4.035 0,-1.555 0,-2.965 -0.231,-4.286 -0.312,-1.968 -1.492,-2.589 -2.421,-2.589 v 0 -0.457 c 1.117,0 2.691,0.437 3.601,2.402 0.66,1.43 0.766,3.043 0.766,4.68 z" style="fill:#000000;fill-opacity:1;fill-rule:nonzero;stroke:none" id="path78"></path><g id="g80" transform="matrix(1,0,0,-1,0,192.40912)"><path d="M 50.168,32.535 H 97.395" style="fill:none;stroke:#000000;stroke-width:3.20000005;stroke-linecap:round;stroke-linejoin:round;stroke-miterlimit:4;stroke-dasharray:none;stroke-opacity:1" id="path82"></path></g><g id="g84" transform="matrix(1,0,0,-1,0,192.40912)"><path d="m 100.922,32.535 c 0,1.801 -1.461,3.258 -3.258,3.258 -1.801,0 -3.258,-1.457 -3.258,-3.258 0,-1.797 1.457,-3.254 3.258,-3.254 1.797,0 3.258,1.457 3.258,3.254 z" style="fill:#ffffff;fill-opacity:1;fill-rule:nonzero;stroke:#000000;stroke-width:0.80000001;stroke-linecap:round;stroke-linejoin:miter;stroke-miterlimit:4;stroke-dasharray:none;stroke-opacity:1" id="path86"></path></g><g id="g88" transform="matrix(1,0,0,-1,0,192.40912)"><path d="m 54.504,32.602 c 0,1.8 -1.461,3.257 -3.258,3.257 -1.801,0 -3.258,-1.457 -3.258,-3.257 0,-1.797 1.457,-3.254 3.258,-3.254 1.797,0 3.258,1.457 3.258,3.254 z" style="fill:#000000;fill-opacity:1;fill-rule:nonzero;stroke:#000000;stroke-width:0.80000001;stroke-linecap:round;stroke-linejoin:miter;stroke-miterlimit:4;stroke-dasharray:none;stroke-opacity:1" id="path90"></path></g><g id="g92" transform="matrix(1,0,0,-1,0,192.40912)"><path d="m 96.848,135.676 h 47.23" style="fill:none;stroke:#000000;stroke-width:3.20000005;stroke-linecap:round;stroke-linejoin:round;stroke-miterlimit:4;stroke-dasharray:none;stroke-opacity:1" id="path94"></path></g><g id="g96" transform="matrix(1,0,0,-1,0,192.40912)"><path d="m 147.602,135.676 c 0,1.797 -1.461,3.254 -3.258,3.254 -1.801,0 -3.258,-1.457 -3.258,-3.254 0,-1.801 1.457,-3.258 3.258,-3.258 1.797,0 3.258,1.457 3.258,3.258 z" style="fill:#ffffff;fill-opacity:1;fill-rule:nonzero;stroke:#000000;stroke-width:0.80000001;stroke-linecap:round;stroke-linejoin:miter;stroke-miterlimit:4;stroke-dasharray:none;stroke-opacity:1" id="path98"></path></g><g id="g100" transform="matrix(1,0,0,-1,0,192.40912)"><path d="m 101.184,135.742 c 0,1.797 -1.457,3.254 -3.258,3.254 -1.797,0 -3.258,-1.457 -3.258,-3.254 0,-1.801 1.461,-3.258 3.258,-3.258 1.801,0 3.258,1.457 3.258,3.258 z" style="fill:#000000;fill-opacity:1;fill-rule:nonzero;stroke:#000000;stroke-width:0.80000001;stroke-linecap:round;stroke-linejoin:miter;stroke-miterlimit:4;stroke-dasharray:none;stroke-opacity:1" id="path102"></path></g><g id="g104" transform="matrix(1,0,0,-1,0,192.40912)"><path d="m 143.902,99.691 h 47.227" style="fill:none;stroke:#000000;stroke-width:3.20000005;stroke-linecap:round;stroke-linejoin:round;stroke-miterlimit:4;stroke-dasharray:none;stroke-opacity:1" id="path106"></path></g><g id="g108" transform="matrix(1,0,0,-1,0,192.40912)"><path d="m 194.656,99.691 c 0,1.801 -1.461,3.258 -3.258,3.258 -1.8,0 -3.257,-1.457 -3.257,-3.258 0,-1.796 1.457,-3.257 3.257,-3.257 1.797,0 3.258,1.461 3.258,3.257 z" style="fill:#ffffff;fill-opacity:1;fill-rule:nonzero;stroke:#000000;stroke-width:0.80000001;stroke-linecap:round;stroke-linejoin:miter;stroke-miterlimit:4;stroke-dasharray:none;stroke-opacity:1" id="path110"></path></g><g id="g112" transform="matrix(1,0,0,-1,0,192.40912)"><path d="m 148.238,99.758 c 0,1.801 -1.461,3.258 -3.258,3.258 -1.8,0 -3.257,-1.457 -3.257,-3.258 0,-1.797 1.457,-3.258 3.257,-3.258 1.797,0 3.258,1.461 3.258,3.258 z" style="fill:#000000;fill-opacity:1;fill-rule:nonzero;stroke:#000000;stroke-width:0.80000001;stroke-linecap:round;stroke-linejoin:miter;stroke-miterlimit:4;stroke-dasharray:none;stroke-opacity:1" id="path114"></path></g></g></g></svg> 