<?xml version="1.0" encoding="UTF-8"?> <svg xmlns:cc="http://creativecommons.org/ns#" xmlns:rdf="http://www.w3.org/1999/02/22-rdf-syntax-ns#" xmlns:svg="http://www.w3.org/2000/svg" xmlns="http://www.w3.org/2000/svg" xmlns:sodipodi="http://sodipodi.sourceforge.net/DTD/sodipodi-0.dtd" xmlns:inkscape="http://www.inkscape.org/namespaces/inkscape" width="118.23867mm" height="49.807526mm" viewBox="0 0 418.95592 176.48336" id="svg2" version="1.1"><defs id="defs4"><marker orient="auto" refY="0" refX="0" id="marker8101" style="overflow:visible"><path id="path8103" style="fill:#000000;fill-opacity:1;fill-rule:evenodd;stroke:#000000;stroke-width:0.625;stroke-linejoin:round;stroke-opacity:1" d="M 8.7185878,4.0337352 -2.2072895,0.01601326 8.7185884,-4.0017078 c -1.7454984,2.3720609 -1.7354408,5.6174519 -6e-7,8.035443 z" transform="scale(-0.6)"></path></marker><marker orient="auto" refY="0" refX="0" id="marker8013" style="overflow:visible"><path id="path8015" d="M 0,0 5,-5 -12.5,0 5,5 Z" style="fill:#000000;fill-opacity:1;fill-rule:evenodd;stroke:#000000;stroke-width:1.00000003pt;stroke-opacity:1" transform="matrix(0.4,0,0,0.4,4,0)"></path></marker><marker style="overflow:visible" id="marker7486" refX="0" refY="0" orient="auto"><path transform="scale(-0.6)" d="M 8.7185878,4.0337352 -2.2072895,0.01601326 8.7185884,-4.0017078 c -1.7454984,2.3720609 -1.7354408,5.6174519 -6e-7,8.035443 z" style="fill:#000000;fill-opacity:1;fill-rule:evenodd;stroke:#000000;stroke-width:0.625;stroke-linejoin:round;stroke-opacity:1" id="path7488"></path></marker><marker style="overflow:visible" id="marker7386" refX="0" refY="0" orient="auto"><path transform="matrix(0.4,0,0,0.4,4,0)" style="fill:#000000;fill-opacity:1;fill-rule:evenodd;stroke:#000000;stroke-width:1.00000003pt;stroke-opacity:1" d="M 0,0 5,-5 -12.5,0 5,5 Z" id="path7388"></path></marker><marker orient="auto" refY="0" refX="0" id="marker4840" style="overflow:visible"><path id="path4842" d="m -2.5,-1 c 0,2.76 -2.24,5 -5,5 -2.76,0 -5,-2.24 -5,-5 0,-2.76 2.24,-5 5,-5 2.76,0 5,2.24 5,5 z" style="fill:#000000;fill-opacity:1;fill-rule:evenodd;stroke:#000000;stroke-width:1.00000003pt;stroke-opacity:1" transform="matrix(0.2,0,0,0.2,1.48,0.2)"></path></marker><marker orient="auto" refY="0" refX="0" id="marker4788" style="overflow:visible"><path id="path4790" d="m -2.5,-1 c 0,2.76 -2.24,5 -5,5 -2.76,0 -5,-2.24 -5,-5 0,-2.76 2.24,-5 5,-5 2.76,0 5,2.24 5,5 z" style="fill:#000000;fill-opacity:1;fill-rule:evenodd;stroke:#000000;stroke-width:1.00000003pt;stroke-opacity:1" transform="matrix(0.2,0,0,0.2,1.48,0.2)"></path></marker><marker style="overflow:visible" id="marker4658" refX="0" refY="0" orient="auto"><path transform="matrix(0.2,0,0,0.2,1.48,0.2)" style="fill:#000000;fill-opacity:1;fill-rule:evenodd;stroke:#000000;stroke-width:1.00000003pt;stroke-opacity:1" d="m -2.5,-1 c 0,2.76 -2.24,5 -5,5 -2.76,0 -5,-2.24 -5,-5 0,-2.76 2.24,-5 5,-5 2.76,0 5,2.24 5,5 z" id="path4660"></path></marker><marker orient="auto" refY="0" refX="0" id="marker4574" style="overflow:visible"><path id="path4576" d="M 0,-7.0710768 -7.0710894,0 0,7.0710589 7.0710462,0 Z" style="fill:#000000;fill-opacity:1;fill-rule:evenodd;stroke:#000000;stroke-width:1.00000003pt;stroke-opacity:1" transform="scale(0.2)"></path></marker><marker orient="auto" refY="0" refX="0" id="marker4540" style="overflow:visible"><path id="path4542" d="M 0,-7.0710768 -7.0710894,0 0,7.0710589 7.0710462,0 Z" style="fill:#000000;fill-opacity:1;fill-rule:evenodd;stroke:#000000;stroke-width:1.00000003pt;stroke-opacity:1" transform="scale(0.2)"></path></marker><marker style="overflow:visible" id="marker4494" refX="0" refY="0" orient="auto"><path transform="scale(0.2)" style="fill:#000000;fill-opacity:1;fill-rule:evenodd;stroke:#000000;stroke-width:1.00000003pt;stroke-opacity:1" d="M 0,-7.0710768 -7.0710894,0 0,7.0710589 7.0710462,0 Z" id="path4496"></path></marker></defs><metadata id="metadata7"></metadata><g id="layer1" transform="translate(-62.550216,-430.74399)"><text xml:space="preserve" style="font-style:normal;font-weight:normal;line-height:0%;font-family:sans-serif;letter-spacing:0px;word-spacing:0px;fill:#000000;fill-opacity:1;stroke:none;stroke-width:1px;stroke-linecap:butt;stroke-linejoin:miter;stroke-opacity:1" x="116.55342" y="430.74399" id="text7899"><tspan id="tspan7901" x="116.55342" y="430.74399" style="font-size:40px;line-height:1.25"></tspan></text><path style="fill:none;fill-rule:evenodd;stroke:#000000;stroke-width:1px;stroke-linecap:butt;stroke-linejoin:miter;stroke-opacity:1" d="m 105.39405,475.38147 c 0,1.65324 0,121.51313 0,121.51313" id="path7989"></path><path style="fill:none;fill-rule:evenodd;stroke:#000000;stroke-width:1px;stroke-linecap:butt;stroke-linejoin:miter;stroke-opacity:1" d="M 67.782837,539.03121 H 238.06655" id="path7991"></path><path id="path7993" d="m 348.83363,474.96816 c 0,1.65324 0,121.51313 0,121.51313" style="fill:none;fill-rule:evenodd;stroke:#000000;stroke-width:1px;stroke-linecap:butt;stroke-linejoin:miter;stroke-opacity:1"></path><path id="path7995" d="M 311.22242,538.6179 H 481.50613" style="fill:none;fill-rule:evenodd;stroke:#000000;stroke-width:1px;stroke-linecap:butt;stroke-linejoin:miter;stroke-opacity:1"></path><path style="fill:none;fill-rule:evenodd;stroke:#000000;stroke-width:2;stroke-linecap:butt;stroke-linejoin:miter;stroke-miterlimit:4;stroke-dasharray:none;stroke-opacity:1;marker-start:url('#marker7386');marker-end:url('#marker7486')" d="m 63.649737,586.56185 c 21.492119,-73.98248 28.13349,-91.2073 37.611213,-90.10157 24.7986,2.89317 18.99771,75.92262 48.77058,77.28897 28.51483,1.30862 47.53064,-95.88792 47.53064,-95.88792" id="path7997"></path><path style="fill:none;fill-rule:evenodd;stroke:#000000;stroke-width:2;stroke-linecap:butt;stroke-linejoin:miter;stroke-miterlimit:4;stroke-dasharray:none;stroke-opacity:1;marker-start:url('#marker8013');marker-end:url('#marker8101')" d="m 298.40981,502.24662 c 145.89842,4.95972 86.79509,21.90543 75.63572,27.27846 -11.15937,5.37303 -73.98248,21.49212 -19.01226,26.03853 54.97023,4.54641 118.20666,3.30648 118.20666,3.30648" id="path7999"></path><text xml:space="preserve" style="font-style:normal;font-weight:normal;line-height:0%;font-family:sans-serif;letter-spacing:0px;word-spacing:0px;fill:#000000;fill-opacity:1;stroke:none;stroke-width:1px;stroke-linecap:butt;stroke-linejoin:miter;stroke-opacity:1" x="84.728546" y="471.24838" id="text8183"><tspan id="tspan8185" x="84.728546" y="471.24838" style="font-size:20px;line-height:1.25">Function</tspan></text><text xml:space="preserve" style="font-style:normal;font-weight:normal;line-height:0%;font-family:sans-serif;letter-spacing:0px;word-spacing:0px;fill:#000000;fill-opacity:1;stroke:none;stroke-width:1px;stroke-linecap:butt;stroke-linejoin:miter;stroke-opacity:1" x="395.95096" y="468.35519" id="text8187"><tspan id="tspan8189" x="395.95096" y="468.35519" style="font-size:20px;line-height:1.25">Not</tspan></text><path style="fill:#d40000;fill-rule:evenodd;stroke:#d40000;stroke-width:3;stroke-linecap:butt;stroke-linejoin:miter;stroke-miterlimit:4;stroke-dasharray:9, 9;stroke-dashoffset:0;stroke-opacity:1" d="M 132.6725,483.64767 V 607.22735" id="path8191"></path><circle style="fill:none;stroke:#d40000;stroke-width:3;stroke-miterlimit:4;stroke-dasharray:none;stroke-dashoffset:0" id="path8193" cx="132.87915" cy="561.14331" r="4.7530646"></circle><text xml:space="preserve" style="font-style:normal;font-weight:normal;line-height:0%;font-family:sans-serif;letter-spacing:0px;word-spacing:0px;fill:#aa0000;fill-opacity:1;stroke:none;stroke-width:1px;stroke-linecap:butt;stroke-linejoin:miter;stroke-opacity:1" x="135.97897" y="592.76147" id="text8195"><tspan id="tspan8197" x="135.97897" y="592.76147" style="font-size:17.5px;line-height:1.25">hits once</tspan></text><path id="path8199" d="M 372.8056,479.51457 V 603.09425" style="fill:#d40000;fill-rule:evenodd;stroke:#d40000;stroke-width:3;stroke-linecap:butt;stroke-linejoin:miter;stroke-miterlimit:4;stroke-dasharray:9, 9;stroke-dashoffset:0;stroke-opacity:1"></path><circle r="4.7530646" cy="557.01019" cx="373.01224" id="circle8201" style="fill:none;stroke:#d40000;stroke-width:3;stroke-miterlimit:4;stroke-dasharray:none;stroke-dashoffset:0"></circle><text id="text8203" y="581.60211" x="380.65848" style="font-style:normal;font-weight:normal;line-height:0%;font-family:sans-serif;letter-spacing:0px;word-spacing:0px;fill:#aa0000;fill-opacity:1;stroke:none;stroke-width:1px;stroke-linecap:butt;stroke-linejoin:miter;stroke-opacity:1" xml:space="preserve"><tspan y="581.60211" x="380.65848" id="tspan8205" style="font-size:17.5px;line-height:1.25">hits more</tspan><tspan y="603.47711" x="380.65848" id="tspan8211" style="font-size:17.5px;line-height:1.25">than once</tspan></text><circle style="fill:none;stroke:#d40000;stroke-width:3;stroke-miterlimit:4;stroke-dasharray:none;stroke-dashoffset:0" id="circle8207" cx="372.59894" cy="529.73175" r="4.7530646"></circle><circle r="4.7530646" cy="507.41302" cx="373.01224" id="circle8209" style="fill:none;stroke:#d40000;stroke-width:3;stroke-miterlimit:4;stroke-dasharray:none;stroke-dashoffset:0"></circle></g></svg> 